<svg width="1440" height="957" viewBox="0 0 1440 957" fill="none" xmlns="http://www.w3.org/2000/svg">
<path d="M-133 0H1421.51L1441 680.327C1441 680.327 1333.53 501.802 1183.58 535.094C1033.63 568.387 849.362 708.368 480.166 632.326C110.971 556.284 -123.503 841 -123.503 841L-133 0Z" fill="#EEECF9"/>
<path d="M202.378 1.08956C205.591 0.967229 208.653 0.973099 211.525 1.08956H202.378C158.051 2.77721 85.05 28.8644 87.9871 125.586C91.9246 255.252 408.621 319 377.902 463.142C357.292 559.848 259.904 560.421 163.569 610C64.3185 661.08 16.4659 729.674 -4.54362 792.511V957C-14.0645 945.107 -31.6571 873.604 -4.54362 792.511V1.08956H202.378Z" fill="white"/>
<path d="M0 1H1440V584.773C1440 584.773 1383.5 482.691 1228.5 508.628C1073.5 534.565 910 680.768 568 607.796C226 534.825 0 567.603 0 567.603V1Z" fill="#D0CAE8"/>
</svg>
