<svg width="1440" height="1034" viewBox="0 0 1440 1034" fill="none" xmlns="http://www.w3.org/2000/svg">
<path d="M-133 77H1421.51L1441 757.327C1441 757.327 1333.53 578.802 1183.58 612.094C1033.63 645.387 849.362 785.368 480.166 709.326C110.971 633.284 -123.503 918 -123.503 918L-133 77Z" fill="#E7F8FB"/>
<path d="M202.378 78.0896C205.591 77.9672 208.653 77.9731 211.525 78.0896H202.378C158.051 79.7772 85.05 105.864 87.9871 202.586C91.9246 332.252 408.621 396 377.902 540.142C357.292 636.848 259.904 637.421 163.569 687C64.3185 738.08 16.4659 806.674 -4.54362 869.511V1034C-14.0645 1022.11 -31.6571 950.604 -4.54362 869.511V78.0896H202.378Z" fill="white"/>
<path d="M0 0H1440V656.396C1440 656.396 1383.5 541.614 1228.5 570.778C1073.5 599.942 910 764.332 568 682.283C226 600.233 0 637.09 0 637.09V0Z" fill="#AFE1EA"/>
</svg>
