<svg width="559" height="118" viewBox="0 0 559 118" fill="none" xmlns="http://www.w3.org/2000/svg">
<path d="M201.836 9.17646C201.836 14.2327 92.7863 20.2133 87.7304 20.2133H39.0318C26.8772 20.2133 21.5702 25.863 21.5702 34.7656C21.5702 44.1818 27.562 48.4618 39.203 48.4618H86.8744C91.9303 48.4618 96.0275 52.5593 96.0275 57.6155C96.0275 62.6717 91.9303 66.7692 86.8744 66.7692H38.6895C27.0484 66.7692 21.0567 71.3917 21.0567 80.8079C21.0567 90.224 26.706 95.3601 38.5183 95.3601H87.9016C92.9574 95.3601 97.0546 99.4576 97.0546 104.514V106.397C97.0546 111.453 92.9574 115.551 87.9016 115.551H38.5183C11.1275 115.551 0 102.026 0 84.0493C0 75.4663 2.53364 68.7095 7.23572 63.8017C10.5797 60.3091 10.6025 54.785 7.28139 51.281C2.67061 46.4189 0.342388 39.7533 0.342388 31.5013C0.342388 13.0114 11.8123 0 39.0318 0H87.7304C92.7863 0 201.836 4.09741 201.836 9.15361V9.17646Z" fill="#231F20"/>
<path d="M122.368 27.8605C126.123 27.8605 129.159 30.8965 129.159 34.6515V85.4874C129.159 93.9791 133.336 100.645 147.191 100.645H174.639C178.394 100.645 181.43 103.681 181.43 107.436V109.273C181.43 113.028 178.394 116.064 174.639 116.064H108.89C85.5048 116.064 113.74 103.258 113.74 85.6244V34.663C113.74 30.9079 116.776 27.8719 120.531 27.8719H122.368V27.8605Z" fill="#231F20"/>
<path d="M257.633 34.8455V36.2837C257.633 40.1414 254.506 43.2802 250.637 43.2802H213.465C204.187 43.2802 200.135 47.5945 200.135 54.3855C200.135 61.576 204.712 64.8404 213.591 64.8404H249.975C253.833 64.8404 256.971 67.9677 256.971 71.8369C256.971 75.6946 253.844 78.8334 249.975 78.8334H213.192C204.301 78.8334 199.736 82.3601 199.736 89.5506C199.736 96.7412 204.05 100.656 213.066 100.656H250.763C254.62 100.656 288.767 103.783 288.767 107.653C288.767 111.51 254.631 116.076 250.763 116.076H213.066C192.158 116.076 183.667 105.758 183.667 92.0388C183.667 85.4988 185.595 80.3399 189.179 76.5963C191.77 73.8799 191.781 69.7367 189.213 67.0089C185.709 63.2995 183.94 58.2205 183.94 51.9316C183.94 37.8245 192.694 27.8833 213.465 27.8833H250.637C254.495 27.8833 257.633 31.0106 257.633 34.8798V34.8455Z" fill="#231F20"/>
<path d="M282.353 27.8605L309.139 98.8184C309.927 100.907 311.365 101.82 313.453 101.82C315.542 101.82 316.854 100.907 317.767 98.8184L345.854 27.8605H362.973L331.873 106.26C328.609 114.489 322.595 117.628 313.453 117.628C304.825 117.628 298.16 114.889 294.896 106.26L265.371 27.8605H282.353Z" fill="#231F20"/>
<path d="M412.334 27.8605C437.944 27.8605 452.187 42.4926 452.187 72.1564C452.187 101.82 438.081 116.064 412.334 116.064H400.316C374.58 116.064 360.463 101.695 360.463 72.1564C360.463 42.6182 374.706 27.8605 400.316 27.8605H412.334ZM400.316 43.2802C383.334 43.2802 375.881 51.9088 375.881 72.1564C375.881 92.404 383.197 100.645 400.316 100.645H412.334C429.316 100.645 436.632 92.2785 436.632 72.0309C436.632 51.7833 429.316 43.2802 412.334 43.2802H400.316Z" fill="#231F20"/>
<path d="M522.137 1.36963C547.964 1.36963 559 17.3372 559 35.6902C559 47.2863 554.515 59.5559 543.444 66.3926C538.993 69.1433 537.407 74.8272 540.032 79.3469L552.951 101.569C556.683 107.995 552.05 116.053 544.62 116.053C541.207 116.053 538.057 114.25 536.323 111.316L515.757 76.4479C514.022 73.5146 510.872 71.7113 507.46 71.7113H483.059C481.187 71.7113 480.172 72.5559 480.172 74.5989V106.42C480.172 111.739 475.858 116.053 470.539 116.053H469.763C464.445 116.053 460.131 111.739 460.131 106.42V70.6955C460.131 57.7868 465.563 52.5137 478.14 52.5137H522.821C534.2 52.5137 538.788 44.6954 538.788 36.5462C538.788 28.3969 533.858 21.4232 522.821 21.4232H469.603C464.285 21.4232 387.465 17.1089 387.465 11.7902V11.0141C387.465 5.69537 464.285 1.38105 469.603 1.38105H522.148L522.137 1.36963Z" fill="#231F20"/>
</svg>
