<svg width="358" height="328" viewBox="0 0 358 328" fill="none" xmlns="http://www.w3.org/2000/svg">
<path d="M225.933 13.232C225.456 13.2503 224.96 13.287 224.483 13.3237C186.084 15.8202 145.556 29.6792 108.479 53.2119C101.412 57.6908 94.6205 62.4451 88.1228 67.4196C87.4987 67.8969 86.893 68.3741 86.2689 68.8514C83.0935 71.3295 79.9915 73.8627 76.9629 76.4509C59.6174 91.2277 44.713 107.712 32.8556 125.242V125.279C29.3498 130.437 26.1193 135.705 23.1641 141.047C21.3103 144.406 19.5665 147.802 17.9146 151.216L22.797 151.363L25.1281 151.436C26.7801 148.004 28.5605 144.589 30.4694 141.193C42.2351 120.231 58.8465 99.8735 79.6061 81.8109C81.9922 79.7183 84.4335 77.6624 86.9481 75.6432C87.5355 75.166 88.1228 74.6887 88.7286 74.2298C88.9672 74.0279 89.2058 73.8443 89.4444 73.6608C90.0317 73.1835 90.6191 72.7246 91.2248 72.2657C97.6675 67.2728 104.441 62.5185 111.562 58.0029C147.667 35.0759 186.286 22.4652 221.656 19.9687C225.419 19.6934 229.163 19.5465 232.853 19.5098L235.074 14.2783L235.661 12.8832C232.467 12.9015 229.237 13.0117 226.006 13.2136L225.933 13.232ZM11.8757 165.258C10.6643 168.471 9.56301 171.646 8.59019 174.822C4.25839 188.901 2.20259 202.613 2.42285 215.628C2.42285 215.628 2.42285 215.628 2.42285 215.646C2.75324 234.039 7.61736 251.074 17.0152 265.869C20.4659 271.303 24.449 276.314 28.9276 280.885C29.8454 277.966 30.91 275.047 32.0663 272.129C29.1295 268.806 26.4497 265.227 24.0268 261.427C10.2789 239.767 7.10342 213.517 12.9403 186.276C13.7296 182.587 14.6841 178.879 15.8037 175.171C16.7766 171.94 17.8779 168.709 19.0893 165.479L11.8757 165.277V165.258ZM98.8422 305.61C96.7864 305.298 94.7307 304.968 92.73 304.564C87.2969 303.536 82.0473 302.196 76.9813 300.581C76.3755 300.379 75.7699 300.177 75.1825 299.975C74.7053 299.81 74.228 299.645 73.7508 299.498C73.1451 299.278 72.5577 299.057 71.9703 298.837C69.5475 297.938 67.1796 296.965 64.8853 295.937C63.9675 298.378 63.1415 300.801 62.389 303.242C65.3809 304.491 68.4645 305.647 71.64 306.693C72.264 306.895 72.8881 307.097 73.5489 307.299C80.5789 309.502 88.031 311.154 95.8503 312.255C99.1175 312.714 102.458 313.081 105.854 313.338L107.01 310.603L108.662 306.73C105.34 306.455 102.073 306.088 98.8422 305.629V305.61ZM327.804 45.7776C323.454 41.3354 318.608 37.3337 313.358 33.7542C312.899 33.4422 312.441 33.1302 311.963 32.8181C297.867 23.5482 280.76 17.3621 261.34 14.5903C257.926 14.0947 254.438 13.7092 250.878 13.4338L249.226 17.3437L248.069 20.0605C251.593 20.3542 255.062 20.7397 258.477 21.2536C259.67 21.4372 260.863 21.6208 262.056 21.841C278.814 24.778 294.012 30.5052 306.787 38.9858C307.228 39.2795 307.668 39.5732 308.127 39.8852C308.311 40.0137 308.476 40.1422 308.659 40.2524C309.1 40.5644 309.54 40.8765 309.981 41.1886C314.496 44.456 318.681 48.0905 322.481 52.0922C326.335 56.1306 329.786 60.5544 332.833 65.3454C337.734 73.0734 341.295 81.3704 343.571 90.0896C344.14 92.2373 344.635 94.4217 345.039 96.6428C345.149 97.1935 345.241 97.7441 345.333 98.2765C345.388 98.5702 345.425 98.8639 345.48 99.1576C345.571 99.7083 345.645 100.241 345.737 100.791C347.425 112.815 346.93 125.444 344.378 138.33C343.846 141.102 343.185 143.873 342.451 146.664C341.992 148.389 341.497 150.133 340.983 151.858C340.634 152.996 340.285 154.135 339.9 155.291C339.698 155.915 339.478 156.558 339.257 157.2C338.817 158.485 338.358 159.788 337.881 161.073C337.826 161.238 337.771 161.404 337.697 161.569L341.79 161.679L344.911 161.771C346.159 158.485 347.297 155.218 348.288 151.969C348.93 149.894 349.518 147.82 350.05 145.764C354.364 129.39 355.52 113.567 353.519 98.8456C353.446 98.2765 353.372 97.7074 353.281 97.1384C352.877 94.4584 352.363 91.7967 351.739 89.1902C349.353 79.0942 345.388 69.6224 339.863 60.9032C336.376 55.433 332.356 50.385 327.84 45.7776H327.804ZM331.64 175.611C330.025 178.952 328.281 182.293 326.409 185.616C325.252 187.671 324.059 189.709 322.829 191.747C319.709 196.868 316.295 201.953 312.606 206.946C309.724 210.855 306.677 214.71 303.465 218.51C302.951 219.116 302.437 219.722 301.905 220.327C301.501 220.805 301.079 221.282 300.657 221.759C300.143 222.346 299.61 222.952 299.06 223.54C292.47 230.919 285.22 238.059 277.401 244.87C275.51 246.522 273.564 248.174 271.582 249.789C270.719 250.505 269.875 251.184 268.994 251.882C267.727 252.91 266.443 253.901 265.139 254.91C264.258 255.59 263.341 256.287 262.423 256.966C256.953 261.078 251.245 265.025 245.316 268.788C229.953 278.553 214.112 286.446 198.272 292.467C196.95 292.981 195.629 293.459 194.307 293.936C193.555 294.211 192.784 294.487 192.031 294.743C190.508 295.276 188.984 295.808 187.461 296.304C187.369 296.322 187.295 296.359 187.204 296.396C186.543 296.616 185.882 296.818 185.221 297.02C185.166 297.02 185.13 297.056 185.074 297.056C184.689 297.185 184.304 297.295 183.936 297.405C183.331 297.589 182.743 297.772 182.138 297.956C182.009 297.993 181.899 298.029 181.771 298.066C166.077 302.784 150.53 305.684 135.552 306.767C131.624 307.061 127.733 307.207 123.897 307.244L121.089 313.852C124.98 313.852 128.926 313.687 132.873 313.412C143.592 312.696 154.495 311.081 165.434 308.621C172.152 307.097 178.889 305.28 185.607 303.132C185.919 303.022 186.249 302.93 186.58 302.82C187.314 302.582 188.066 302.343 188.801 302.086C190.93 301.388 193.041 300.636 195.17 299.865C195.977 299.571 196.785 299.278 197.574 298.984C214.846 292.504 231.935 283.987 248.344 273.579C253.667 270.201 258.844 266.658 263.855 262.987C264.827 262.271 265.782 261.555 266.736 260.84C274.904 254.69 282.65 248.174 289.864 241.345C294.636 236.848 299.188 232.204 303.502 227.45C304.052 226.825 304.621 226.22 305.172 225.596C308.384 221.998 311.468 218.326 314.386 214.582C319.14 208.561 323.509 202.393 327.492 196.097C329.621 192.756 331.622 189.379 333.512 185.983C335.384 182.623 337.146 179.209 338.798 175.795L331.585 175.593L331.64 175.611Z" fill="url(#paint0_linear_357_34)"/>
<path d="M252.034 0.364138L237.386 34.415C235 34.6904 232.724 34.5986 230.65 34.1397L245.242 0.198939C247.629 -0.113118 249.923 -0.0580558 252.016 0.364138H252.034Z" fill="url(#paint1_linear_357_34)"/>
<path d="M126.191 292.981L117.216 313.852L111.544 327.032C109.158 327.308 106.882 327.216 104.808 326.757L113.288 307.042L119.4 292.816C121.786 292.504 124.08 292.559 126.173 293L126.191 292.981Z" fill="url(#paint2_linear_357_34)"/>
<path d="M357.576 166.25C357.135 168.232 356.291 170.251 355.116 172.197L333.567 171.481L318.002 170.967C318.516 168.985 319.415 166.966 320.664 165.02L336.137 165.534L343.332 165.772L357.612 166.25H357.576Z" fill="url(#paint3_linear_357_34)"/>
<path d="M39.5736 155.695C39.0964 157.677 38.2337 159.678 37.0223 161.642L13.6195 160.871L0 160.412C0.477233 158.43 1.33995 156.429 2.55139 154.465L16.1709 154.924L39.5736 155.695Z" fill="url(#paint4_linear_357_34)"/>
<path d="M225.933 13.232C225.456 13.2503 224.96 13.287 224.483 13.3237C186.084 15.8202 145.556 29.6792 108.479 53.2119C101.412 57.6908 94.6205 62.4451 88.1228 67.4196C87.4987 67.8969 86.893 68.3741 86.2689 68.8514C83.0935 71.3295 79.9915 73.8627 76.9629 76.4509C59.6174 91.2277 44.713 107.712 32.8556 125.242V125.279C29.3498 130.437 26.1193 135.705 23.1641 141.047C21.3103 144.406 19.5665 147.802 17.9146 151.216L22.797 151.363L25.1281 151.436C26.7801 148.004 28.5605 144.589 30.4694 141.193C42.2351 120.231 58.8465 99.8735 79.6061 81.8109C81.9922 79.7183 84.4335 77.6624 86.9481 75.6432C87.5355 75.166 88.1228 74.6887 88.7286 74.2298C88.9672 74.0279 89.2058 73.8443 89.4444 73.6608C90.0317 73.1835 90.6191 72.7246 91.2248 72.2657C97.6675 67.2728 104.441 62.5185 111.562 58.0029C147.667 35.0759 186.286 22.4652 221.656 19.9687C225.419 19.6934 229.163 19.5465 232.853 19.5098L235.074 14.2783L235.661 12.8832C232.467 12.9015 229.237 13.0117 226.006 13.2136L225.933 13.232ZM11.8757 165.258C10.6643 168.471 9.56301 171.646 8.59019 174.822C4.25839 188.901 2.20259 202.613 2.42285 215.628C2.42285 215.628 2.42285 215.628 2.42285 215.646C2.75324 234.039 7.61736 251.074 17.0152 265.869C20.4659 271.303 24.449 276.314 28.9276 280.885C29.8454 277.966 30.91 275.047 32.0663 272.129C29.1295 268.806 26.4497 265.227 24.0268 261.427C10.2789 239.767 7.10342 213.517 12.9403 186.276C13.7296 182.587 14.6841 178.879 15.8037 175.171C16.7766 171.94 17.8779 168.709 19.0893 165.479L11.8757 165.277V165.258ZM98.8422 305.61C96.7864 305.298 94.7307 304.968 92.73 304.564C87.2969 303.536 82.0473 302.196 76.9813 300.581C76.3755 300.379 75.7699 300.177 75.1825 299.975C74.7053 299.81 74.228 299.645 73.7508 299.498C73.1451 299.278 72.5577 299.057 71.9703 298.837C69.5475 297.938 67.1796 296.965 64.8853 295.937C63.9675 298.378 63.1415 300.801 62.389 303.242C65.3809 304.491 68.4645 305.647 71.64 306.693C72.264 306.895 72.8881 307.097 73.5489 307.299C80.5789 309.502 88.031 311.154 95.8503 312.255C99.1175 312.714 102.458 313.081 105.854 313.338L107.01 310.603L108.662 306.73C105.34 306.455 102.073 306.088 98.8422 305.629V305.61ZM327.804 45.7776C323.454 41.3354 318.608 37.3337 313.358 33.7542C312.899 33.4422 312.441 33.1302 311.963 32.8181C297.867 23.5482 280.76 17.3621 261.34 14.5903C257.926 14.0947 254.438 13.7092 250.878 13.4338L249.226 17.3437L248.069 20.0605C251.593 20.3542 255.062 20.7397 258.477 21.2536C259.67 21.4372 260.863 21.6208 262.056 21.841C278.814 24.778 294.012 30.5052 306.787 38.9858C307.228 39.2795 307.668 39.5732 308.127 39.8852C308.311 40.0137 308.476 40.1422 308.659 40.2524C309.1 40.5644 309.54 40.8765 309.981 41.1886C314.496 44.456 318.681 48.0905 322.481 52.0922C326.335 56.1306 329.786 60.5544 332.833 65.3454C337.734 73.0734 341.295 81.3704 343.571 90.0896C344.14 92.2373 344.635 94.4217 345.039 96.6428C345.149 97.1935 345.241 97.7441 345.333 98.2765C345.388 98.5702 345.425 98.8639 345.48 99.1576C345.571 99.7083 345.645 100.241 345.737 100.791C347.425 112.815 346.93 125.444 344.378 138.33C343.846 141.102 343.185 143.873 342.451 146.664C341.992 148.389 341.497 150.133 340.983 151.858C340.634 152.996 340.285 154.135 339.9 155.291C339.698 155.915 339.478 156.558 339.257 157.2C338.817 158.485 338.358 159.788 337.881 161.073C337.826 161.238 337.771 161.404 337.697 161.569L341.79 161.679L344.911 161.771C346.159 158.485 347.297 155.218 348.288 151.969C348.93 149.894 349.518 147.82 350.05 145.764C354.364 129.39 355.52 113.567 353.519 98.8456C353.446 98.2765 353.372 97.7074 353.281 97.1384C352.877 94.4584 352.363 91.7967 351.739 89.1902C349.353 79.0942 345.388 69.6224 339.863 60.9032C336.376 55.433 332.356 50.385 327.84 45.7776H327.804ZM331.64 175.611C330.025 178.952 328.281 182.293 326.409 185.616C325.252 187.671 324.059 189.709 322.829 191.747C319.709 196.868 316.295 201.953 312.606 206.946C309.724 210.855 306.677 214.71 303.465 218.51C302.951 219.116 302.437 219.722 301.905 220.327C301.501 220.805 301.079 221.282 300.657 221.759C300.143 222.346 299.61 222.952 299.06 223.54C292.47 230.919 285.22 238.059 277.401 244.87C275.51 246.522 273.564 248.174 271.582 249.789C270.719 250.505 269.875 251.184 268.994 251.882C267.727 252.91 266.443 253.901 265.139 254.91C264.258 255.59 263.341 256.287 262.423 256.966C256.953 261.078 251.245 265.025 245.316 268.788C229.953 278.553 214.112 286.446 198.272 292.467C196.95 292.981 195.629 293.459 194.307 293.936C193.555 294.211 192.784 294.487 192.031 294.743C190.508 295.276 188.984 295.808 187.461 296.304C187.369 296.322 187.295 296.359 187.204 296.396C186.543 296.616 185.882 296.818 185.221 297.02C185.166 297.02 185.13 297.056 185.074 297.056C184.689 297.185 184.304 297.295 183.936 297.405C183.331 297.589 182.743 297.772 182.138 297.956C182.009 297.993 181.899 298.029 181.771 298.066C166.077 302.784 150.53 305.684 135.552 306.767C131.624 307.061 127.733 307.207 123.897 307.244L121.089 313.852C124.98 313.852 128.926 313.687 132.873 313.412C143.592 312.696 154.495 311.081 165.434 308.621C172.152 307.097 178.889 305.28 185.607 303.132C185.919 303.022 186.249 302.93 186.58 302.82C187.314 302.582 188.066 302.343 188.801 302.086C190.93 301.388 193.041 300.636 195.17 299.865C195.977 299.571 196.785 299.278 197.574 298.984C214.846 292.504 231.935 283.987 248.344 273.579C253.667 270.201 258.844 266.658 263.855 262.987C264.827 262.271 265.782 261.555 266.736 260.84C274.904 254.69 282.65 248.174 289.864 241.345C294.636 236.848 299.188 232.204 303.502 227.45C304.052 226.825 304.621 226.22 305.172 225.596C308.384 221.998 311.468 218.326 314.386 214.582C319.14 208.561 323.509 202.393 327.492 196.097C329.621 192.756 331.622 189.379 333.512 185.983C335.384 182.623 337.146 179.209 338.798 175.795L331.585 175.593L331.64 175.611Z" fill="url(#paint5_linear_357_34)"/>
<path d="M252.034 0.364138L237.386 34.415C235 34.6904 232.724 34.5986 230.65 34.1397L245.242 0.198939C247.629 -0.113118 249.923 -0.0580558 252.016 0.364138H252.034Z" fill="url(#paint6_linear_357_34)"/>
<path d="M126.191 292.981L117.216 313.852L111.544 327.032C109.158 327.308 106.882 327.216 104.808 326.757L113.288 307.042L119.4 292.816C121.786 292.504 124.08 292.559 126.173 293L126.191 292.981Z" fill="url(#paint7_linear_357_34)"/>
<path d="M357.576 166.25C357.135 168.232 356.291 170.251 355.116 172.197L333.567 171.481L318.002 170.967C318.516 168.985 319.415 166.966 320.664 165.02L336.137 165.534L343.332 165.772L357.612 166.25H357.576Z" fill="url(#paint8_linear_357_34)"/>
<path d="M39.5736 155.695C39.0964 157.677 38.2337 159.678 37.0223 161.642L13.6195 160.871L0 160.412C0.477233 158.43 1.33995 156.429 2.55139 154.465L16.1709 154.924L39.5736 155.695Z" fill="url(#paint9_linear_357_34)"/>
<path d="M101.137 83.0223C80.7257 103.379 68.2075 131.611 68.5012 162.688C40.9135 166.121 85.2778 58.0027 101.137 83.0223Z" fill="url(#paint10_linear_357_34)"/>
<path d="M180.192 40.289C187.149 57.2502 121.988 51.3211 101.155 83.0223C84.8923 60.3707 156.789 38.949 180.192 40.289Z" fill="url(#paint11_linear_357_34)"/>
<path d="M265.562 75.9734C257.944 92.6409 216.26 42.8955 180.266 50.6051C184.561 21.0882 252.75 60.7928 265.562 75.9734Z" fill="url(#paint12_linear_357_34)"/>
<path d="M300.363 159.623C286.505 173.17 288.248 102.26 258.311 83.3345C280.209 64.9598 301.409 137.118 300.363 159.623Z" fill="url(#paint13_linear_357_34)"/>
<path d="M300.363 160.798C302.327 180.678 280.705 254.433 259.504 238.849C291.773 214.986 283.696 154.502 300.363 160.798Z" fill="url(#paint14_linear_357_34)"/>
<path d="M265.782 245.016C252.401 260.105 191.04 297.277 182.064 272.771C217.214 279.838 257.265 231.745 265.782 245.016Z" fill="url(#paint15_linear_357_34)"/>
<path d="M182.083 272.753C184.487 298.653 81.9371 256.929 102.532 241.712C123.034 261.5 151.43 273.468 182.083 272.753Z" fill="url(#paint16_linear_357_34)"/>
<path d="M102.532 241.712C86.8931 262.491 41.3173 158.944 68.5012 162.689C68.6848 192.628 81.2581 221.3 102.532 241.712Z" fill="url(#paint17_linear_357_34)"/>
<path d="M281.622 148.114C278.943 148.921 276.226 149.637 273.454 150.206C272.316 150.463 271.16 150.684 270.004 150.885C265.672 151.656 261.377 152.152 257.1 152.372C252.786 125.003 233.789 102.553 208.477 93.2835C213.286 94.7153 217.93 96.4959 222.427 98.5885C221.289 97.4504 220.133 96.3307 218.958 95.2661C218.719 95.0458 218.481 94.8255 218.242 94.6052C218.077 94.4584 217.93 94.3115 217.765 94.183C217.214 93.6691 216.645 93.1734 216.076 92.7145C215.636 92.329 215.214 91.9803 214.773 91.6132C214.7 91.5398 214.608 91.4663 214.516 91.4112C214.204 91.1726 213.91 90.8972 213.598 90.6586C213.158 90.3098 212.699 89.9427 212.24 89.594C212.185 89.5389 212.112 89.5022 212.057 89.4471C211.579 89.08 211.102 88.7312 210.625 88.3641L210.221 88.0704L209.836 87.7767C209.45 87.5013 209.083 87.226 208.716 86.969C208.587 86.8773 208.459 86.8038 208.349 86.712C208.202 86.6203 208.055 86.5101 207.908 86.4C207.743 86.2898 207.56 86.1614 207.413 86.0512C207.119 85.8493 206.825 85.6474 206.513 85.4454C206.036 85.115 205.559 84.8214 205.082 84.4909C204.843 84.3257 204.604 84.1789 204.366 84.032C203.852 83.7016 203.338 83.3895 202.824 83.0775C202.512 82.8939 202.218 82.7104 201.906 82.5268C201.557 82.3249 201.227 82.123 200.878 81.9211C200.768 81.8477 200.658 81.7926 200.548 81.7375C200.309 81.5907 200.071 81.4622 199.85 81.3337C199.41 81.095 198.969 80.8381 198.529 80.5994C198.437 80.5627 198.364 80.5076 198.272 80.4525C197.74 80.1588 197.207 79.8835 196.693 79.6082C196.326 79.4246 195.977 79.241 195.629 79.0758C195.262 78.8923 194.913 78.7087 194.546 78.5435C194.491 78.5251 194.454 78.4884 194.399 78.4701C194.087 78.3049 193.775 78.158 193.463 78.0112C193.077 77.8276 192.692 77.6441 192.288 77.4421C192.068 77.3504 191.848 77.2402 191.627 77.1301C191.15 76.9098 190.673 76.7079 190.196 76.506C189.406 76.1572 188.617 75.8268 187.828 75.4964C187.516 75.3679 187.185 75.2394 186.855 75.1109C186.488 74.964 186.102 74.8172 185.735 74.6703C185.35 74.5418 184.983 74.395 184.597 74.2481C184.285 74.1196 183.955 74.0095 183.624 73.8993C183.459 73.8443 183.312 73.7893 183.147 73.7158H183.129C182.854 73.624 182.597 73.5322 182.321 73.4404C182.064 73.3487 181.807 73.2569 181.532 73.1835C180.963 72.9816 180.394 72.8163 179.807 72.6328C179.495 72.541 179.183 72.4309 178.852 72.3391C178.467 72.229 178.063 72.1005 177.696 71.9903C177.494 71.9353 177.31 71.8802 177.108 71.8251C177.035 71.8068 176.962 71.7884 176.888 71.7701C176.76 71.7334 176.65 71.6966 176.521 71.6599C176.007 71.5314 175.512 71.3845 174.998 71.256C174.722 71.1826 174.429 71.1092 174.153 71.0358C173.915 70.9807 173.676 70.9256 173.437 70.8706C173.052 70.7788 172.666 70.687 172.281 70.5952C171.712 70.4667 171.161 70.3382 170.592 70.2281C170.556 70.2281 170.519 70.1914 170.482 70.1914C170.464 70.1914 170.446 70.1914 170.427 70.1914C169.932 70.0813 169.418 69.9711 168.922 69.8793C168.867 69.8793 168.83 69.861 168.775 69.8426C168.39 69.7508 167.986 69.6958 167.601 69.604C166.811 69.4571 166.022 69.3286 165.233 69.2001C164.443 69.0717 163.654 68.9615 162.865 68.8514C162.057 68.7412 161.268 68.6311 160.479 68.5577C160.075 68.5027 159.671 68.4659 159.286 68.4292C158.882 68.3741 158.478 68.3374 158.074 68.3191C157.34 68.2457 156.606 68.1906 155.853 68.1355C155.78 68.1355 155.706 68.1355 155.633 68.1355C154.862 68.0804 154.11 68.0437 153.32 68.007C152.494 67.9703 151.687 67.9519 150.842 67.9336C150.438 67.9336 150.016 67.9336 149.612 67.9152C149.043 67.9152 148.474 67.9152 147.924 67.9152C141.114 67.9703 134.488 68.6678 128.064 69.9711C134.506 66.3917 141.371 63.473 148.585 61.3254C149.631 61.0133 150.677 60.7196 151.723 60.4442C151.87 60.4075 152.017 60.3708 152.164 60.3341C160.314 58.2048 168.849 57.03 177.659 56.9566C227.071 56.5527 268.7 90.6403 279.695 136.733C280.594 140.441 281.274 144.241 281.751 148.095L281.622 148.114Z" fill="url(#paint18_linear_357_34)"/>
<path d="M155.725 68.1538C156.459 68.2089 157.193 68.2639 157.946 68.3373C157.138 68.2639 156.33 68.2089 155.504 68.1538C155.578 68.1538 155.651 68.1538 155.725 68.1538Z" fill="url(#paint19_linear_357_34)"/>
<path d="M159.157 68.4475C159.561 68.5026 159.946 68.5393 160.35 68.576C159.543 68.4843 158.753 68.4108 157.946 68.3374C158.349 68.3558 158.753 68.3925 159.157 68.4475Z" fill="url(#paint20_linear_357_34)"/>
<path d="M176.448 71.6783C176.576 71.715 176.686 71.7517 176.815 71.7884C176.191 71.6048 175.567 71.4396 174.924 71.2744C175.438 71.4029 175.934 71.5498 176.448 71.6783Z" fill="url(#paint21_linear_357_34)"/>
<path d="M177.622 72.0086C178.008 72.1187 178.393 72.2472 178.779 72.3574C178.191 72.1738 177.622 72.0086 177.017 71.8434C177.219 71.8985 177.402 71.9535 177.604 72.0086H177.622Z" fill="url(#paint22_linear_357_34)"/>
<path d="M182.248 73.4771C182.523 73.5689 182.78 73.6607 183.055 73.7524C182.541 73.5689 181.991 73.3853 181.458 73.2018C181.734 73.2936 181.991 73.3853 182.248 73.4587V73.4771Z" fill="url(#paint23_linear_357_34)"/>
<path d="M183.074 73.7524C183.239 73.8075 183.386 73.8626 183.551 73.936C183.386 73.8809 183.221 73.8259 183.055 73.7524H183.074Z" fill="url(#paint24_linear_357_34)"/>
<path d="M193.408 78.0295C193.72 78.1763 194.032 78.3232 194.344 78.4884C192.949 77.8092 191.554 77.1667 190.141 76.5426C190.618 76.7445 191.095 76.9464 191.572 77.1667C191.792 77.2768 192.013 77.3687 192.233 77.4788C192.637 77.6624 193.022 77.8459 193.408 78.0478V78.0295Z" fill="url(#paint25_linear_357_34)"/>
<path d="M199.777 81.3336C200.016 81.4621 200.236 81.5906 200.474 81.7374C199.208 81.0032 197.923 80.3056 196.62 79.6265C197.134 79.9018 197.666 80.1771 198.198 80.4708C198.272 80.5259 198.364 80.5626 198.455 80.6177C198.896 80.8563 199.336 81.1133 199.777 81.3519V81.3336Z" fill="url(#paint26_linear_357_34)"/>
<path d="M202.769 83.0774C203.283 83.3895 203.797 83.7015 204.311 84.032C203.063 83.2426 201.796 82.4717 200.493 81.7374C200.603 81.7925 200.713 81.8476 200.823 81.921C201.172 82.1229 201.502 82.3248 201.851 82.5267C202.163 82.7103 202.457 82.8938 202.769 83.0774Z" fill="url(#paint27_linear_357_34)"/>
<path d="M209.799 87.7767L210.184 88.0704C209.56 87.6115 208.936 87.1526 208.294 86.712C208.422 86.8038 208.551 86.8773 208.661 86.9691C209.028 87.2444 209.413 87.5013 209.78 87.7767H209.799Z" fill="url(#paint28_linear_357_34)"/>
<path d="M210.588 88.364C211.065 88.7311 211.543 89.0799 212.02 89.447C211.414 88.9698 210.808 88.5109 210.184 88.0703L210.588 88.364Z" fill="url(#paint29_linear_357_34)"/>
<path d="M218.94 95.266C218.554 94.8989 218.15 94.5501 217.747 94.2013C217.912 94.3298 218.059 94.4767 218.224 94.6235C218.462 94.8438 218.701 95.0457 218.94 95.2844V95.266Z" fill="url(#paint30_linear_357_34)"/>
<path d="M179.568 88.9331C173.07 89.135 166.811 90.1446 160.846 91.9068C135.883 99.2493 116.426 119.331 109.929 144.589C99.5398 147.251 89.7932 151.473 80.9277 156.998C93.5193 122.837 123.493 97.0649 160.222 90.5301C165.912 89.5205 171.767 88.9699 177.733 88.9148C178.357 88.9148 178.962 88.9148 179.586 88.9148L179.568 88.9331Z" fill="url(#paint31_linear_357_34)"/>
<path d="M222.409 98.5885C217.912 96.4959 213.268 94.7153 208.459 93.2835C205.706 92.4575 202.897 91.7416 200.052 91.1359C200.016 91.1359 199.997 91.1358 199.961 91.1175C193.977 89.6123 187.681 88.8413 181.22 88.8964C180.651 88.8964 180.119 88.8964 179.568 88.9331C178.962 88.9331 178.338 88.9331 177.733 88.9331C177.274 88.9331 176.815 88.9331 176.356 88.9515C170.849 89.0616 165.453 89.5939 160.222 90.5485C123.493 97.0833 93.501 122.855 80.9277 157.016C80.1935 157.475 79.4776 157.934 78.7618 158.412C77.275 159.403 75.7882 160.412 74.3382 161.495C74.3198 154.814 74.9072 148.279 76.0819 141.946C81.8271 110.997 101.265 84.8029 127.953 70.0078C134.378 68.7045 141.004 68.007 147.814 67.9519C148.383 67.9519 148.952 67.9519 149.502 67.9519C149.906 67.9519 150.328 67.9519 150.732 67.9703C150.787 67.9703 150.824 67.9703 150.879 67.9703C151.191 67.9703 151.503 67.9702 151.833 67.9886C152.292 67.9886 152.751 68.007 153.21 68.0253C153.999 68.0621 154.752 68.0988 155.523 68.1539C155.596 68.1539 155.67 68.1539 155.743 68.1539C156.477 68.2089 157.212 68.2639 157.964 68.3374C158.368 68.3557 158.772 68.3924 159.175 68.4475C159.579 68.5026 159.965 68.5393 160.369 68.576C161.176 68.6678 161.965 68.7596 162.755 68.8697C163.562 68.9799 164.352 69.09 165.123 69.2185C165.912 69.347 166.701 69.4755 167.49 69.6223C167.876 69.6958 168.28 69.7692 168.665 69.861C168.72 69.861 168.757 69.8793 168.812 69.8977C169.307 69.9894 169.821 70.0813 170.317 70.2097C170.335 70.2097 170.354 70.2097 170.372 70.2097C170.409 70.2097 170.446 70.2281 170.482 70.2464C171.051 70.3566 171.62 70.4851 172.171 70.6136C172.556 70.7054 172.942 70.7971 173.327 70.8889C173.566 70.944 173.804 70.999 174.043 71.0541C174.318 71.1275 174.612 71.201 174.887 71.2744C175.401 71.4029 175.897 71.5497 176.411 71.6782C176.539 71.7149 176.65 71.7516 176.778 71.7884C176.851 71.8067 176.925 71.8251 176.998 71.8434C177.2 71.8985 177.384 71.9536 177.586 72.0086C177.971 72.1188 178.357 72.2473 178.742 72.3574C179.054 72.4492 179.366 72.5593 179.697 72.6511C180.284 72.8347 180.853 73.0183 181.422 73.2018C181.697 73.2936 181.954 73.3854 182.211 73.4588C182.486 73.5506 182.743 73.6423 183.019 73.7341H183.037C183.202 73.7892 183.349 73.8443 183.514 73.9177C183.845 74.0278 184.175 74.138 184.487 74.2665C184.873 74.395 185.24 74.5418 185.625 74.6887C185.992 74.8355 186.378 74.9824 186.745 75.1292C187.075 75.2577 187.406 75.3862 187.718 75.5147C188.507 75.8451 189.296 76.1755 190.086 76.5243C190.563 76.7262 191.04 76.9281 191.517 77.1484C191.737 77.2585 191.958 77.3503 192.178 77.4604C192.582 77.644 192.967 77.8276 193.353 78.0295C193.665 78.1763 193.977 78.3232 194.289 78.4884C194.344 78.5067 194.381 78.5435 194.436 78.5618C194.784 78.7454 195.152 78.9106 195.519 79.0942C195.867 79.2777 196.216 79.443 196.583 79.6265C197.097 79.9019 197.629 80.1772 198.162 80.4709C198.235 80.526 198.327 80.5626 198.419 80.6177C198.859 80.8563 199.3 81.1133 199.74 81.3519C199.979 81.4804 200.199 81.6089 200.438 81.7558C200.548 81.8109 200.658 81.8659 200.768 81.9394C201.117 82.1413 201.447 82.3432 201.796 82.5452C202.108 82.7287 202.402 82.9123 202.714 83.0958C203.228 83.4079 203.742 83.7199 204.256 84.0503C204.494 84.1972 204.733 84.3624 204.971 84.5092C205.449 84.8213 205.926 85.1334 206.403 85.4638C206.697 85.6657 207.009 85.8676 207.303 86.0695C207.468 86.1797 207.633 86.2898 207.798 86.4183C207.945 86.5101 208.092 86.6202 208.239 86.7304C208.367 86.8222 208.496 86.8956 208.606 86.9873C208.973 87.2627 209.358 87.5197 209.725 87.795L210.111 88.0887L210.515 88.3824C210.992 88.7496 211.469 89.0983 211.946 89.4654C212.02 89.5205 212.075 89.5572 212.13 89.6123C212.589 89.961 213.048 90.3098 213.488 90.677C213.8 90.9156 214.094 91.1909 214.406 91.4296C214.479 91.503 214.571 91.5764 214.663 91.6315C215.103 91.9986 215.544 92.3657 215.966 92.7329C216.535 93.2101 217.104 93.7057 217.655 94.2013C217.82 94.3298 217.967 94.4767 218.132 94.6235C218.371 94.8438 218.609 95.0458 218.848 95.2844C220.023 96.3491 221.179 97.4688 222.317 98.6069L222.409 98.5885Z" fill="url(#paint32_linear_357_34)"/>
<path d="M176.705 237.399C164.884 237.16 153.412 235.489 142.454 232.571C119.473 226.44 98.7504 214.765 81.772 199.089C82.1574 198.777 82.5612 198.447 82.9467 198.153C86.1772 195.583 89.5912 193.215 93.1154 191.049C105.065 208.965 122.41 222.971 142.803 230.717C153.375 234.737 164.774 237.086 176.668 237.417L176.705 237.399Z" fill="url(#paint33_linear_357_34)"/>
<path d="M199.226 262.914C199.226 262.914 199.134 262.969 199.098 262.987C196.051 263.611 192.949 264.089 189.81 264.419C186.341 264.804 182.817 265.006 179.238 265.043C178.613 265.043 178.008 265.043 177.384 265.043C184.817 264.878 192.104 264.162 199.226 262.914Z" fill="url(#paint34_linear_357_34)"/>
<path d="M179.091 237.435C178.467 237.435 177.824 237.435 177.2 237.417C177.035 237.417 176.87 237.417 176.705 237.417C164.81 237.086 153.412 234.737 142.839 230.717C122.428 222.952 105.083 208.965 93.1521 191.049C98.5118 187.763 104.22 184.955 110.167 182.66C115.325 201.677 127.807 217.629 144.4 227.321C154.66 233.323 166.481 236.94 179.091 237.399C179.091 237.399 179.091 237.435 179.091 237.454V237.435Z" fill="url(#paint35_linear_357_34)"/>
<path d="M200.64 262.675C200.126 262.785 199.612 262.895 199.079 263.005C199.135 262.987 199.171 262.95 199.208 262.932C199.685 262.859 200.162 262.767 200.621 262.675H200.64Z" fill="url(#paint36_linear_357_34)"/>
<path d="M209.835 172.234C209.45 172.344 209.083 172.454 208.716 172.564C200.364 175.024 192.472 178.493 185.148 182.844C170.354 191.636 157.927 203.99 149.043 218.712L157.138 176.235C153.651 175.905 150.126 175.758 146.529 175.795C133.717 175.905 121.456 178.31 110.149 182.66C104.184 184.936 98.4935 187.763 93.1338 191.049C89.5913 193.215 86.1955 195.583 82.965 198.153C82.5612 198.465 82.1758 198.777 81.7904 199.089C81.7169 199.144 81.6618 199.199 81.5884 199.254C79.3858 201.053 77.2566 202.944 75.2192 204.908C73.2552 206.799 71.3646 208.763 69.5658 210.8C68.2259 212.305 66.9227 213.866 65.6746 215.463C65.3258 215.903 64.9954 216.325 64.665 216.766C62.6643 219.373 60.8105 222.071 59.0667 224.879C48.9714 241.07 43.2079 260.215 43.3731 280.701C43.4098 285.62 43.7953 290.448 44.4928 295.184C36.5634 280.646 31.9929 263.997 31.8461 246.265C31.6809 226.752 36.9121 208.451 46.1263 192.774C46.2732 192.517 46.4201 192.26 46.5669 192.022C49.0265 187.91 51.7614 184 54.7533 180.274C56.2767 178.383 57.8553 176.529 59.5072 174.749C59.7458 174.492 59.9845 174.235 60.2231 173.996C60.7003 173.5 61.1776 173.005 61.6548 172.509C65.5828 168.507 69.8412 164.818 74.3749 161.495C75.8249 160.431 77.2933 159.403 78.7985 158.43C79.5143 157.953 80.2301 157.494 80.9643 157.053C89.8299 151.528 99.5764 147.306 109.965 144.644C117.987 142.57 126.393 141.45 135.057 141.377C144.785 141.303 154.201 142.552 163.158 144.975C181.11 149.821 197.152 159.384 209.872 172.234C209.872 172.234 209.872 172.234 209.891 172.252L209.835 172.234Z" fill="url(#paint37_linear_357_34)"/>
<path d="M282.412 160.174C282.448 165.46 282.1 170.674 281.384 175.758C281.31 175.722 281.255 175.685 281.182 175.666C273.638 172.491 265.819 170.233 257.889 168.93C241.847 166.268 225.364 167.388 209.817 172.215C197.097 159.366 181.073 149.802 163.122 144.956L169.381 112.117C189.81 138.513 222.354 154.226 257.1 152.372C261.377 152.152 265.672 151.656 270.004 150.885C271.16 150.684 272.316 150.463 273.454 150.206C276.226 149.619 278.961 148.921 281.622 148.114C281.659 148.481 281.714 148.83 281.751 149.178C281.861 150.261 281.971 151.381 282.063 152.482C282.265 155.016 282.393 157.585 282.412 160.174Z" fill="url(#paint38_linear_357_34)"/>
<path d="M272.188 206.046C265.543 219.868 255.925 232.002 244.178 241.602C242.783 242.759 241.351 243.86 239.883 244.925C228.374 253.369 215.085 259.518 200.64 262.657C200.162 262.749 199.703 262.822 199.226 262.914C192.104 264.162 184.817 264.878 177.384 265.043C162.461 264.915 148.272 261.629 135.461 255.81C110.975 244.704 91.5185 224.384 81.5884 199.236C81.6618 199.181 81.7169 199.126 81.7903 199.071C98.7504 214.765 119.492 226.44 142.472 232.553C153.761 235.783 165.6 237.637 177.787 237.894C177.953 237.894 178.118 237.894 178.283 237.894C178.907 237.894 179.55 237.894 180.174 237.913C180.779 237.913 181.385 237.913 182.009 237.913C184.12 237.913 186.212 237.839 188.287 237.729C206.33 236.774 223.492 232.387 239.185 225.173C250.804 219.832 261.615 212.948 271.362 204.743C271.655 205.165 271.931 205.587 272.206 206.028L272.188 206.046Z" fill="url(#paint39_linear_357_34)"/>
<path d="M271.343 204.761C261.597 212.948 250.786 219.85 239.167 225.192C223.492 232.406 206.33 236.811 188.268 237.747C186.194 237.857 184.102 237.912 181.991 237.931C181.385 237.931 180.779 237.931 180.155 237.931C179.531 237.931 178.889 237.931 178.265 237.912C178.1 237.912 177.934 237.912 177.769 237.912C165.563 237.655 153.724 235.801 142.454 232.571C153.412 235.489 164.884 237.16 176.705 237.398C176.87 237.398 177.035 237.398 177.2 237.398C177.824 237.417 178.467 237.417 179.091 237.435C179.605 237.435 180.119 237.435 180.633 237.435C180.908 237.435 181.183 237.435 181.459 237.435H181.514C181.826 237.435 182.156 237.435 182.468 237.435C184.065 237.435 185.644 237.362 187.222 237.252C205.265 236.334 222.427 232.094 238.121 225.155C250.143 219.832 261.303 212.93 271.325 204.688C271.343 204.706 271.362 204.743 271.38 204.761H271.343Z" fill="url(#paint40_linear_357_34)"/>
<path d="M327.602 101.342C327.895 137.926 316.754 171.775 297.683 199.071C293.92 204.467 289.845 209.607 285.495 214.453C277.768 223.081 269.141 230.809 259.798 237.454C258.421 238.426 257.045 239.381 255.65 240.317C239.185 251.257 220.592 258.985 200.676 262.657C215.122 259.518 228.429 253.368 239.919 244.925C241.37 243.86 242.801 242.759 244.215 241.602C255.98 232.002 265.58 219.868 272.224 206.046C271.949 205.605 271.674 205.183 271.38 204.761C271.729 204.486 272.059 204.192 272.39 203.917C282.1 195.62 290.763 186.019 298.105 175.391C300.344 172.142 302.474 168.783 304.474 165.35C317.782 142.423 325.344 115.476 325.106 86.712C325.05 79.1676 324.445 71.7517 323.362 64.5193C326.06 76.3407 327.528 88.6761 327.638 101.36L327.602 101.342Z" fill="url(#paint41_linear_357_34)"/>
<path d="M273.326 180.384C270.664 184.202 267.727 187.818 264.552 191.214C246.27 210.855 220.261 223.227 191.315 223.466C180.816 223.558 170.684 222.034 161.139 219.134C179.256 193.307 209.175 176.327 243.132 176.052C249.96 175.997 256.623 176.621 263.084 177.869C266.571 178.53 269.985 179.374 273.326 180.384Z" fill="url(#paint42_linear_357_34)"/>
<path d="M251.355 145.617C215.14 144.516 183.643 124.324 166.719 94.697C202.934 95.7984 234.413 116.009 251.355 145.617Z" fill="url(#paint43_linear_357_34)"/>
<defs>
<linearGradient id="paint0_linear_357_34" x1="2.40449" y1="163.386" x2="354.455" y2="163.386" gradientUnits="userSpaceOnUse">
<stop stop-color="#BF5F8F"/>
<stop offset="0.42" stop-color="#713C63"/>
<stop offset="0.78" stop-color="#2E1D3D"/>
</linearGradient>
<linearGradient id="paint1_linear_357_34" x1="230.65" y1="17.2703" x2="252.034" y2="17.2703" gradientUnits="userSpaceOnUse">
<stop stop-color="#BF5F8F"/>
<stop offset="0.42" stop-color="#713C63"/>
<stop offset="0.78" stop-color="#2E1D3D"/>
</linearGradient>
<linearGradient id="paint2_linear_357_34" x1="104.808" y1="309.887" x2="126.191" y2="309.887" gradientUnits="userSpaceOnUse">
<stop stop-color="#BF5F8F"/>
<stop offset="0.42" stop-color="#713C63"/>
<stop offset="0.78" stop-color="#2E1D3D"/>
</linearGradient>
<linearGradient id="paint3_linear_357_34" x1="317.984" y1="168.618" x2="357.576" y2="168.618" gradientUnits="userSpaceOnUse">
<stop stop-color="#BF5F8F"/>
<stop offset="0.42" stop-color="#713C63"/>
<stop offset="0.78" stop-color="#2E1D3D"/>
</linearGradient>
<linearGradient id="paint4_linear_357_34" x1="-0.0183551" y1="158.044" x2="39.5736" y2="158.044" gradientUnits="userSpaceOnUse">
<stop stop-color="#BF5F8F"/>
<stop offset="0.42" stop-color="#713C63"/>
<stop offset="0.78" stop-color="#2E1D3D"/>
</linearGradient>
<linearGradient id="paint5_linear_357_34" x1="14.6595" y1="267.288" x2="337.112" y2="62.5871" gradientUnits="userSpaceOnUse">
<stop stop-color="#6ECCDC"/>
<stop offset="0.78" stop-color="#161618"/>
<stop offset="1" stop-color="#161618"/>
</linearGradient>
<linearGradient id="paint6_linear_357_34" x1="14.6591" y1="267.288" x2="337.112" y2="62.5868" gradientUnits="userSpaceOnUse">
<stop stop-color="#6ECCDC"/>
<stop offset="0.78" stop-color="#161618"/>
<stop offset="1" stop-color="#161618"/>
</linearGradient>
<linearGradient id="paint7_linear_357_34" x1="14.6596" y1="267.288" x2="337.112" y2="62.5873" gradientUnits="userSpaceOnUse">
<stop stop-color="#6ECCDC"/>
<stop offset="0.78" stop-color="#161618"/>
<stop offset="1" stop-color="#161618"/>
</linearGradient>
<linearGradient id="paint8_linear_357_34" x1="14.6593" y1="267.288" x2="337.112" y2="62.587" gradientUnits="userSpaceOnUse">
<stop stop-color="#6ECCDC"/>
<stop offset="0.78" stop-color="#161618"/>
<stop offset="1" stop-color="#161618"/>
</linearGradient>
<linearGradient id="paint9_linear_357_34" x1="14.6596" y1="267.288" x2="337.113" y2="62.5869" gradientUnits="userSpaceOnUse">
<stop stop-color="#6ECCDC"/>
<stop offset="0.78" stop-color="#161618"/>
<stop offset="1" stop-color="#161618"/>
</linearGradient>
<linearGradient id="paint10_linear_357_34" x1="59.4262" y1="121.181" x2="101.458" y2="120.837" gradientUnits="userSpaceOnUse">
<stop stop-color="#6ECCDC"/>
<stop offset="0.78" stop-color="#161618"/>
<stop offset="1" stop-color="#161618"/>
</linearGradient>
<linearGradient id="paint11_linear_357_34" x1="98.6621" y1="61.9522" x2="180.853" y2="61.2781" gradientUnits="userSpaceOnUse">
<stop stop-color="#6ECCDC"/>
<stop offset="0.78" stop-color="#161618"/>
<stop offset="1" stop-color="#161618"/>
</linearGradient>
<linearGradient id="paint12_linear_357_34" x1="180.348" y1="60.0521" x2="265.439" y2="59.3541" gradientUnits="userSpaceOnUse">
<stop stop-color="#6ECCDC"/>
<stop offset="0.78" stop-color="#161618"/>
<stop offset="1" stop-color="#161618"/>
</linearGradient>
<linearGradient id="paint13_linear_357_34" x1="258.639" y1="121.016" x2="300.102" y2="120.676" gradientUnits="userSpaceOnUse">
<stop stop-color="#6ECCDC"/>
<stop offset="0.78" stop-color="#161618"/>
<stop offset="1" stop-color="#161618"/>
</linearGradient>
<linearGradient id="paint14_linear_357_34" x1="259.221" y1="200.827" x2="300.812" y2="200.485" gradientUnits="userSpaceOnUse">
<stop stop-color="#6ECCDC"/>
<stop offset="0.78" stop-color="#161618"/>
<stop offset="1" stop-color="#161618"/>
</linearGradient>
<linearGradient id="paint15_linear_357_34" x1="182.006" y1="262.148" x2="265.941" y2="261.459" gradientUnits="userSpaceOnUse">
<stop stop-color="#6ECCDC"/>
<stop offset="0.78" stop-color="#161618"/>
<stop offset="1" stop-color="#161618"/>
</linearGradient>
<linearGradient id="paint16_linear_357_34" x1="99.933" y1="261.646" x2="182.033" y2="260.973" gradientUnits="userSpaceOnUse">
<stop stop-color="#6ECCDC"/>
<stop offset="0.78" stop-color="#161618"/>
<stop offset="1" stop-color="#161618"/>
</linearGradient>
<linearGradient id="paint17_linear_357_34" x1="60.2865" y1="203.688" x2="102.227" y2="203.344" gradientUnits="userSpaceOnUse">
<stop stop-color="#6ECCDC"/>
<stop offset="0.78" stop-color="#161618"/>
<stop offset="1" stop-color="#161618"/>
</linearGradient>
<linearGradient id="paint18_linear_357_34" x1="128.241" y1="105.381" x2="281.28" y2="104.125" gradientUnits="userSpaceOnUse">
<stop stop-color="#6ECCDC"/>
<stop offset="0.78" stop-color="#161618"/>
<stop offset="1" stop-color="#161618"/>
</linearGradient>
<linearGradient id="paint19_linear_357_34" x1="155.524" y1="68.2228" x2="157.947" y2="68.2029" gradientUnits="userSpaceOnUse">
<stop stop-color="#6ECCDC"/>
<stop offset="0.78" stop-color="#161618"/>
<stop offset="1" stop-color="#161618"/>
</linearGradient>
<linearGradient id="paint20_linear_357_34" x1="157.968" y1="68.4414" x2="160.372" y2="68.4217" gradientUnits="userSpaceOnUse">
<stop stop-color="#6ECCDC"/>
<stop offset="0.78" stop-color="#161618"/>
<stop offset="1" stop-color="#161618"/>
</linearGradient>
<linearGradient id="paint21_linear_357_34" x1="174.935" y1="71.5147" x2="176.807" y2="71.4993" gradientUnits="userSpaceOnUse">
<stop stop-color="#6ECCDC"/>
<stop offset="0.78" stop-color="#161618"/>
<stop offset="1" stop-color="#161618"/>
</linearGradient>
<linearGradient id="paint22_linear_357_34" x1="177.032" y1="72.0848" x2="178.794" y2="72.0704" gradientUnits="userSpaceOnUse">
<stop stop-color="#6ECCDC"/>
<stop offset="0.78" stop-color="#161618"/>
<stop offset="1" stop-color="#161618"/>
</linearGradient>
<linearGradient id="paint23_linear_357_34" x1="181.467" y1="73.4619" x2="183.064" y2="73.4488" gradientUnits="userSpaceOnUse">
<stop stop-color="#6ECCDC"/>
<stop offset="0.78" stop-color="#161618"/>
<stop offset="1" stop-color="#161618"/>
</linearGradient>
<linearGradient id="paint24_linear_357_34" x1="183.067" y1="73.8159" x2="183.563" y2="73.8119" gradientUnits="userSpaceOnUse">
<stop stop-color="#6ECCDC"/>
<stop offset="0.78" stop-color="#161618"/>
<stop offset="1" stop-color="#161618"/>
</linearGradient>
<linearGradient id="paint25_linear_357_34" x1="190.146" y1="77.4843" x2="194.331" y2="77.45" gradientUnits="userSpaceOnUse">
<stop stop-color="#6ECCDC"/>
<stop offset="0.78" stop-color="#161618"/>
<stop offset="1" stop-color="#161618"/>
</linearGradient>
<linearGradient id="paint26_linear_357_34" x1="196.633" y1="80.6803" x2="200.488" y2="80.6486" gradientUnits="userSpaceOnUse">
<stop stop-color="#6ECCDC"/>
<stop offset="0.78" stop-color="#161618"/>
<stop offset="1" stop-color="#161618"/>
</linearGradient>
<linearGradient id="paint27_linear_357_34" x1="200.506" y1="82.888" x2="204.306" y2="82.8569" gradientUnits="userSpaceOnUse">
<stop stop-color="#6ECCDC"/>
<stop offset="0.78" stop-color="#161618"/>
<stop offset="1" stop-color="#161618"/>
</linearGradient>
<linearGradient id="paint28_linear_357_34" x1="208.307" y1="87.3766" x2="210.18" y2="87.3612" gradientUnits="userSpaceOnUse">
<stop stop-color="#6ECCDC"/>
<stop offset="0.78" stop-color="#161618"/>
<stop offset="1" stop-color="#161618"/>
</linearGradient>
<linearGradient id="paint29_linear_357_34" x1="210.191" y1="88.7378" x2="212.026" y2="88.7228" gradientUnits="userSpaceOnUse">
<stop stop-color="#6ECCDC"/>
<stop offset="0.78" stop-color="#161618"/>
<stop offset="1" stop-color="#161618"/>
</linearGradient>
<linearGradient id="paint30_linear_357_34" x1="217.766" y1="94.7151" x2="218.941" y2="94.7055" gradientUnits="userSpaceOnUse">
<stop stop-color="#6ECCDC"/>
<stop offset="0.78" stop-color="#161618"/>
<stop offset="1" stop-color="#161618"/>
</linearGradient>
<linearGradient id="paint31_linear_357_34" x1="80.6448" y1="123.339" x2="179.851" y2="122.525" gradientUnits="userSpaceOnUse">
<stop stop-color="#6ECCDC"/>
<stop offset="0.78" stop-color="#161618"/>
<stop offset="1" stop-color="#161618"/>
</linearGradient>
<linearGradient id="paint32_linear_357_34" x1="73.9682" y1="114.986" x2="222.548" y2="113.767" gradientUnits="userSpaceOnUse">
<stop stop-color="#6ECCDC"/>
<stop offset="0.78" stop-color="#161618"/>
<stop offset="1" stop-color="#161618"/>
</linearGradient>
<linearGradient id="paint33_linear_357_34" x1="81.9076" y1="214.635" x2="176.525" y2="213.859" gradientUnits="userSpaceOnUse">
<stop stop-color="#6ECCDC"/>
<stop offset="0.78" stop-color="#161618"/>
<stop offset="1" stop-color="#161618"/>
</linearGradient>
<linearGradient id="paint34_linear_357_34" x1="177.377" y1="264.058" x2="199.237" y2="263.879" gradientUnits="userSpaceOnUse">
<stop stop-color="#6ECCDC"/>
<stop offset="0.78" stop-color="#161618"/>
<stop offset="1" stop-color="#161618"/>
</linearGradient>
<linearGradient id="paint35_linear_357_34" x1="93.3088" y1="210.448" x2="178.877" y2="209.746" gradientUnits="userSpaceOnUse">
<stop stop-color="#6ECCDC"/>
<stop offset="0.78" stop-color="#161618"/>
<stop offset="1" stop-color="#161618"/>
</linearGradient>
<linearGradient id="paint36_linear_357_34" x1="199.1" y1="262.815" x2="200.642" y2="262.803" gradientUnits="userSpaceOnUse">
<stop stop-color="#6ECCDC"/>
<stop offset="0.78" stop-color="#161618"/>
<stop offset="1" stop-color="#161618"/>
</linearGradient>
<linearGradient id="paint37_linear_357_34" x1="31.6095" y1="218.701" x2="210.217" y2="217.236" gradientUnits="userSpaceOnUse">
<stop stop-color="#6ECCDC"/>
<stop offset="0.78" stop-color="#161618"/>
<stop offset="1" stop-color="#161618"/>
</linearGradient>
<linearGradient id="paint38_linear_357_34" x1="163.106" y1="144.415" x2="282.282" y2="143.438" gradientUnits="userSpaceOnUse">
<stop stop-color="#6ECCDC"/>
<stop offset="0.78" stop-color="#161618"/>
<stop offset="1" stop-color="#161618"/>
</linearGradient>
<linearGradient id="paint39_linear_357_34" x1="81.87" y1="232.442" x2="272.408" y2="230.879" gradientUnits="userSpaceOnUse">
<stop stop-color="#6ECCDC"/>
<stop offset="0.78" stop-color="#161618"/>
<stop offset="1" stop-color="#161618"/>
</linearGradient>
<linearGradient id="paint40_linear_357_34" x1="142.377" y1="221.978" x2="271.482" y2="220.919" gradientUnits="userSpaceOnUse">
<stop stop-color="#6ECCDC"/>
<stop offset="0.78" stop-color="#161618"/>
<stop offset="1" stop-color="#161618"/>
</linearGradient>
<linearGradient id="paint41_linear_357_34" x1="199.832" y1="164.068" x2="328.111" y2="163.015" gradientUnits="userSpaceOnUse">
<stop stop-color="#6ECCDC"/>
<stop offset="0.78" stop-color="#161618"/>
<stop offset="1" stop-color="#161618"/>
</linearGradient>
<linearGradient id="paint42_linear_357_34" x1="160.994" y1="200.201" x2="273.489" y2="199.278" gradientUnits="userSpaceOnUse">
<stop stop-color="#6ECCDC"/>
<stop offset="0.78" stop-color="#161618"/>
<stop offset="1" stop-color="#161618"/>
</linearGradient>
<linearGradient id="paint43_linear_357_34" x1="166.93" y1="120.465" x2="251.158" y2="119.774" gradientUnits="userSpaceOnUse">
<stop stop-color="#6ECCDC"/>
<stop offset="0.78" stop-color="#161618"/>
<stop offset="1" stop-color="#161618"/>
</linearGradient>
</defs>
</svg>
