<svg width="1440" height="987" viewBox="0 0 1440 987" fill="none" xmlns="http://www.w3.org/2000/svg">
<path d="M-133 0H1422L1441.5 705C1441.5 705 1334 520 1184 554.5C1034 589 849.674 734.057 480.361 655.258C111.049 576.458 -123.5 871.5 -123.5 871.5L-133 0Z" fill="#EEECF9"/>
<path d="M199.934 31.0896C203.199 30.9672 206.31 30.9731 209.229 31.0896H199.934C154.893 32.7772 80.7156 58.8644 83.7 155.586C87.7009 285.252 409.5 349 378.286 493.142C357.344 589.848 258.387 590.421 160.5 640C59.65 691.08 11.0265 759.674 -10.3216 822.511V987C-19.9958 975.107 -37.8719 903.604 -10.3216 822.511V31.0896H199.934Z" fill="white"/>
<path d="M0 31H1440V614.773C1440 614.773 1383.5 512.691 1228.5 538.628C1073.5 564.565 910 710.768 568 637.796C226 564.825 0 597.603 0 597.603V31Z" fill="#D0CAE8"/>
</svg>
