<svg width="449" height="368" viewBox="0 0 449 368" fill="none" xmlns="http://www.w3.org/2000/svg">
<g filter="url(#filter0_d_707_430)">
<path d="M366.021 69.0163L83.6621 146.303L140.248 353.036L422.607 275.749L366.021 69.0163Z" fill="#A2B2D6"/>
<path d="M367.87 61.3915L85.5107 138.678L142.097 345.411L424.456 268.125L367.87 61.3915Z" fill="#F5F5F5"/>
<path d="M342.336 88.0142L243.767 114.994L245.294 120.573L343.864 93.5933L342.336 88.0142Z" fill="#949AAA"/>
<path d="M345.869 100.925L262.161 123.837L262.92 126.61L346.628 103.697L345.869 100.925Z" fill="#949AAA"/>
<path d="M348.056 108.911L249.485 135.891L250.244 138.664L348.815 111.684L348.056 108.911Z" fill="#949AAA"/>
<path d="M350.242 116.898L251.672 143.878L252.431 146.651L351.001 119.671L350.242 116.898Z" fill="#949AAA"/>
<path d="M352.428 124.885L253.858 151.865L254.617 154.638L353.187 127.658L352.428 124.885Z" fill="#949AAA"/>
<path d="M354.615 132.872L256.045 159.852L256.804 162.625L355.374 135.644L354.615 132.872Z" fill="#949AAA"/>
<path d="M356.913 141.268L258.343 168.249L259.102 171.022L357.672 144.042L356.913 141.268Z" fill="#949AAA"/>
<path d="M359.099 149.257L260.529 176.237L261.288 179.01L359.858 152.029L359.099 149.257Z" fill="#949AAA"/>
<path d="M335.96 164.174L262.715 184.223L263.474 186.996L336.719 166.947L335.96 164.174Z" fill="#949AAA"/>
<path d="M191.499 172.067L175.917 176.332L176.676 179.105L192.258 174.84L191.499 172.067Z" fill="#949AAA"/>
<path d="M156.427 168.404L167.436 154.738L183.109 161.101L203.039 126.144L225.174 147.127L157.605 169.721L156.427 168.404Z" fill="#F2274D"/>
<path d="M230.782 140.675L220.791 131.118L196.613 147.57L178.534 143.694L167.281 166.343L144.428 163.494L138.412 177.434L231.97 151.003L230.782 140.675Z" fill="#FFD121"/>
<path d="M127.704 184.052L136.669 168.077L145.962 172.088L154.684 159.048L168.415 164.303L189.002 141.357L207.663 145.769L230.982 132.425L236.93 154.152L127.704 184.052Z" fill="#317AB0"/>
<path d="M301.082 261.376L293.834 263.36L295.818 270.609L303.066 268.625L301.082 261.376Z" fill="#6B2D6E"/>
<path d="M354.849 249.067L308.137 261.853L308.896 264.626L355.608 251.84L354.849 249.067Z" fill="#949AAA"/>
<path d="M304.299 273.116L297.05 275.101L299.034 282.349L306.283 280.365L304.299 273.116Z" fill="#F2274D"/>
<path d="M327.765 269.107L311.348 273.601L312.107 276.374L328.524 271.88L327.765 269.107Z" fill="#949AAA"/>
<path d="M337.944 241.436L322.362 245.701L323.121 248.474L338.703 244.209L337.944 241.436Z" fill="#949AAA"/>
<path d="M369.706 210.784C369.975 211.767 369.396 212.781 368.415 213.05C367.432 213.319 366.418 212.741 366.148 211.758C365.88 210.775 366.458 209.76 367.441 209.492C368.423 209.223 369.437 209.801 369.706 210.784Z" fill="#F2274D"/>
<path d="M350.898 203.891C351.167 204.873 350.587 205.888 349.606 206.156C348.624 206.425 347.608 205.847 347.338 204.865C347.069 203.883 347.65 202.867 348.633 202.598C349.613 202.33 350.629 202.909 350.898 203.891Z" fill="#F2274D"/>
<path d="M333.081 220.403C333.35 221.386 332.771 222.401 331.789 222.669C330.807 222.938 329.792 222.359 329.523 221.377C329.255 220.395 329.832 219.379 330.815 219.111C331.798 218.842 332.812 219.421 333.081 220.403Z" fill="#F2274D"/>
<path d="M317.938 218.731C318.207 219.714 317.628 220.727 316.644 220.996C315.663 221.265 314.647 220.687 314.378 219.705C314.109 218.723 314.689 217.707 315.671 217.438C316.653 217.17 317.668 217.749 317.938 218.731Z" fill="#F2274D"/>
<path d="M313.448 232.072C313.716 233.055 313.139 234.069 312.156 234.338C311.174 234.607 310.159 234.028 309.889 233.046C309.62 232.063 310.2 231.05 311.183 230.781C312.165 230.512 313.179 231.09 313.448 232.072Z" fill="#F2274D"/>
<path d="M291.988 232.847C292.256 233.83 291.677 234.844 290.695 235.113C289.713 235.382 288.698 234.804 288.429 233.821C288.16 232.839 288.739 231.824 289.721 231.556C290.703 231.287 291.719 231.865 291.988 232.847Z" fill="#F2274D"/>
<path d="M279.768 245.453C280.037 246.435 279.458 247.449 278.475 247.718C277.493 247.986 276.478 247.409 276.209 246.427C275.94 245.444 276.519 244.43 277.501 244.161C278.484 243.892 279.499 244.47 279.768 245.453Z" fill="#6B2D6E"/>
<path d="M287.282 209.141C287.551 210.124 286.971 211.138 285.989 211.407C285.007 211.676 283.991 211.098 283.722 210.115C283.454 209.133 284.032 208.118 285.014 207.849C285.998 207.58 287.013 208.159 287.282 209.141Z" fill="#6B2D6E"/>
<path d="M307.491 221.591C307.76 222.574 307.182 223.587 306.201 223.855C305.217 224.125 304.203 223.547 303.934 222.564C303.665 221.582 304.243 220.567 305.227 220.298C306.209 220.029 307.221 220.608 307.491 221.591Z" fill="#6B2D6E"/>
<path d="M319.231 200.272C319.501 201.255 318.921 202.269 317.94 202.538C316.956 202.807 315.942 202.229 315.673 201.246C315.404 200.264 315.982 199.25 316.967 198.98C317.948 198.711 318.962 199.29 319.231 200.272Z" fill="#6B2D6E"/>
<path d="M333.32 209.231C333.589 210.214 333.009 211.229 332.026 211.498C331.045 211.766 330.03 211.187 329.761 210.205C329.492 209.224 330.072 208.208 331.052 207.939C332.035 207.671 333.051 208.249 333.32 209.231Z" fill="#6B2D6E"/>
<path d="M341.863 186.795C342.132 187.778 341.552 188.792 340.572 189.061C339.589 189.329 338.573 188.752 338.304 187.769C338.035 186.787 338.615 185.772 339.597 185.503C340.578 185.235 341.593 185.813 341.863 186.795Z" fill="#6B2D6E"/>
<path d="M358.06 193.346C358.329 194.328 357.748 195.343 356.768 195.612C355.785 195.881 354.77 195.303 354.5 194.32C354.232 193.338 354.812 192.322 355.794 192.053C356.775 191.785 357.79 192.364 358.06 193.346Z" fill="#6B2D6E"/>
<path d="M369.333 186.681C369.602 187.663 369.023 188.678 368.04 188.946C367.059 189.215 366.043 188.637 365.774 187.655C365.504 186.672 366.085 185.657 367.067 185.388C368.049 185.119 369.064 185.698 369.333 186.681Z" fill="#6B2D6E"/>
<path d="M278.42 246.416L277.219 246.157L285.24 208.738L305.402 221.245L317.464 200.088L331.275 208.955L339.08 186.54L356.54 193.44L367.163 186.799L367.816 187.842L356.665 194.812L339.82 188.155L331.923 210.832L317.891 201.824L305.839 222.964L286.076 210.704L278.42 246.416Z" fill="#6B2D6E"/>
<path d="M281.651 250.975C281.921 251.957 281.343 252.971 280.361 253.24C279.379 253.509 278.363 252.931 278.094 251.948C277.825 250.966 278.404 249.951 279.387 249.681C280.368 249.413 281.382 249.993 281.651 250.975Z" fill="#F2274D"/>
<path d="M279.975 252.521L278.908 251.912L289.51 232.716L311.373 231.985L315.887 218.494L330.752 220.884L348.921 203.116L367.96 210.907L367.493 212.046L349.202 204.56L331.17 222.197L316.7 219.87L312.251 233.184L290.239 233.921L279.975 252.521Z" fill="#F2274D"/>
<g opacity="0.6">
<path d="M247.828 193.796L139.742 224.166C136.336 225.123 134.35 228.661 135.307 232.068L157.487 311.004C158.444 314.411 161.982 316.396 165.388 315.439L219.432 300.254L273.474 285.069C276.881 284.111 278.867 280.574 277.91 277.167L255.73 198.231C254.773 194.824 251.235 192.839 247.828 193.796Z" fill="#F0EDE2"/>
<path d="M268.087 282.647C271.209 281.77 273.028 278.529 272.151 275.407L251.829 203.084C250.952 199.963 247.711 198.143 244.589 199.02L195.074 212.933L218.571 296.56L268.087 282.647Z" fill="#DDDBD0"/>
<path d="M210.909 278.657L194.478 267.525C192.355 266.087 188.375 267.206 187.312 269.538L159.001 308.992C157.939 311.325 160.591 313.122 163.776 312.227L200.29 301.968L215.561 297.677L218.801 296.766L214.372 281.004L210.909 278.657Z" fill="#6DA1A1"/>
<path d="M275.595 274.446L241.763 240.162C238.813 238.163 233.279 239.718 231.801 242.961L220.362 268.07L214.447 281.054L214.438 281.049L214.372 281.004L218.801 296.766L218.851 296.752L224.95 295.039L249.843 288.044L272.928 281.558C277.356 280.313 278.545 276.444 275.595 274.446Z" fill="#588281"/>
<path d="M167.095 253.807C168.421 258.528 173.325 261.281 178.047 259.954L173.242 242.854C168.52 244.181 165.768 249.084 167.095 253.807Z" fill="#E6BA59"/>
<path d="M173.242 242.854L178.047 259.954C182.769 258.627 185.521 253.724 184.194 249.002C182.867 244.28 177.964 241.527 173.242 242.854Z" fill="#C7A24F"/>
<path d="M169.056 310.473C165.934 311.351 162.693 309.531 161.816 306.41L141.494 234.086C140.617 230.965 142.437 227.724 145.558 226.847L195.074 212.934L194.136 209.595L140.093 224.78C136.686 225.737 134.7 229.275 135.657 232.682L157.837 311.618C158.794 315.025 162.332 317.011 165.739 316.053L219.782 300.868L218.572 296.56L169.056 310.473Z" fill="#4E4F51"/>
<path d="M248.179 194.41L194.136 209.595L195.074 212.934L244.59 199.02C247.711 198.143 250.953 199.963 251.83 203.084L272.152 275.407C273.029 278.529 271.209 281.77 268.088 282.647L218.572 296.56L219.782 300.868L273.825 285.683C277.232 284.726 279.217 281.188 278.26 277.781L256.08 198.845C255.123 195.438 251.586 193.453 248.179 194.41Z" fill="#404042"/>
</g>
<path d="M256.731 37.2045L53.6034 5.44519L43.8754 61.8893L43.8367 62.1088L7 276.307L217.778 313.175L261.155 38.0895L256.731 37.2045Z" fill="#A2B2D6"/>
<path d="M61.9356 3.00004L15.3447 273.408L213.328 307.52L259.919 37.1123L61.9356 3.00004Z" fill="#F1F2F2"/>
<path d="M57.0772 31.2076L52.1729 59.6719L250.156 93.784L255.06 65.3198L57.0772 31.2076Z" fill="#5A5A7A"/>
<path d="M106.21 20.3592L104.696 29.1426L226.879 50.1945L228.393 41.4111L106.21 20.3592Z" fill="#5A5A7A"/>
<path d="M100.515 56.615L99.6621 61.5623L220.77 82.429L221.623 77.4817L100.515 56.615Z" fill="white"/>
<path d="M87.4687 44.641L86.6162 49.5887L237.073 75.5122L237.926 70.5645L87.4687 44.641Z" fill="white"/>
<path d="M18.9774 252.308L18.3389 256.014L216.321 290.126L216.96 286.42L18.9774 252.308Z" fill="#5A5A7A"/>
<path d="M174.88 116.352L173.773 122.772L180.193 123.878L181.3 117.459L174.88 116.352Z" fill="#317AB0"/>
<path d="M186.636 120.413L186.213 122.869L227.584 129.997L228.008 127.541L186.636 120.413Z" fill="#949AAA"/>
<path d="M173.072 126.748L171.966 133.167L178.386 134.274L179.492 127.854L173.072 126.748Z" fill="#75CF33"/>
<path d="M184.85 130.815L184.427 133.271L198.966 135.776L199.389 133.32L184.85 130.815Z" fill="#949AAA"/>
<path d="M171.295 137.151L170.188 143.571L176.608 144.678L177.715 138.258L171.295 137.151Z" fill="#FFD121"/>
<path d="M183.049 141.207L182.626 143.663L215.773 149.374L216.196 146.918L183.049 141.207Z" fill="#949AAA"/>
<path d="M169.481 147.54L168.375 153.961L174.795 155.067L175.901 148.647L169.481 147.54Z" fill="#6B2D6E"/>
<path d="M181.292 151.626L180.869 154.081L205.591 158.343L206.015 155.888L181.292 151.626Z" fill="#949AAA"/>
<path d="M167.664 158.169L166.558 164.589L172.978 165.695L174.084 159.276L167.664 158.169Z" fill="#F2274D"/>
<path d="M179.426 162.231L179.003 164.687L216.507 171.149L216.931 168.693L179.426 162.231Z" fill="#949AAA"/>
<path d="M58.6068 99.8746C58.3118 101.58 56.6909 102.724 54.9852 102.43C53.2805 102.136 52.1358 100.515 52.4298 98.8103C52.7238 97.1051 54.3457 95.9609 56.0509 96.2549C57.7552 96.5489 58.8998 98.1694 58.6068 99.8746Z" fill="#231F20"/>
<path d="M44.6201 181.029C44.3256 182.734 42.7037 183.879 40.9985 183.585C39.2943 183.291 38.1491 181.67 38.4436 179.965C38.7376 178.259 40.3585 177.116 42.0633 177.409C43.7689 177.703 44.9136 179.324 44.6201 181.029Z" fill="#231F20"/>
<path d="M154.139 197.369L153.287 202.309L213.373 212.668L214.225 207.728L154.139 197.369Z" fill="#5A5A7A"/>
<path d="M161.197 210.341L160.773 212.797L211.799 221.589L212.222 219.133L161.197 210.341Z" fill="#949AAA"/>
<path d="M150.918 215.852L150.495 218.309L210.581 228.662L211.004 226.205L150.918 215.852Z" fill="#949AAA"/>
<path d="M149.7 222.929L149.277 225.384L209.363 235.737L209.786 233.281L149.7 222.929Z" fill="#949AAA"/>
<path d="M148.511 230.023L148.088 232.479L208.174 242.838L208.597 240.382L148.511 230.023Z" fill="#949AAA"/>
<path d="M147.262 237.075L146.839 239.53L206.925 249.883L207.348 247.427L147.262 237.075Z" fill="#949AAA"/>
<path d="M146.075 244.174L145.651 246.63L190.299 254.327L190.722 251.871L146.075 244.174Z" fill="#949AAA"/>
<path d="M98.3392 181.668L97.916 184.124L111.717 186.501L112.14 184.045L98.3392 181.668Z" fill="#949AAA"/>
<path d="M86.6878 249.289L86.2646 251.745L100.065 254.123L100.488 251.667L86.6878 249.289Z" fill="#5A5A7A"/>
<g opacity="0.6">
<path d="M113.842 205.45L64.4245 196.51C62.8668 196.228 61.3757 197.263 61.0939 198.82L54.5649 234.91C54.2831 236.468 55.3174 237.959 56.8751 238.241L81.584 242.711L106.293 247.181C107.85 247.463 109.341 246.428 109.623 244.871L116.152 208.781C116.434 207.223 115.4 205.732 113.842 205.45Z" fill="#F0EDE2"/>
<path d="M104.6 245.152C106.027 245.411 107.393 244.463 107.652 243.036L113.634 209.969C113.892 208.542 112.944 207.176 111.517 206.918L88.8779 202.822L81.9609 241.057L104.6 245.152Z" fill="#DDDBD0"/>
<path d="M82.3833 232.356L77.9533 224.663C77.3811 223.669 75.5611 223.34 74.6771 224.07L55.568 234.398C54.6841 235.128 55.3992 236.37 56.8553 236.633L73.5495 239.654L80.5317 240.917L82.013 241.185L83.3168 233.978L82.3833 232.356Z" fill="#6DA1A1"/>
<path d="M109.226 243.323L102.328 222.912C101.533 221.531 99.0028 221.073 97.7738 222.088L88.2582 229.948L83.3378 234.013L83.3354 234.009L83.3175 233.978L82.0137 241.185L82.0365 241.189L84.825 241.693L96.2066 243.752L106.761 245.662C108.786 246.028 110.021 244.705 109.226 243.323Z" fill="#588281"/>
<path d="M69.6242 213.786C69.2336 215.944 70.6672 218.011 72.8261 218.402L74.2405 210.583C72.0816 210.193 70.0148 211.626 69.6242 213.786Z" fill="#E6BA59"/>
<path d="M74.2406 210.584L72.8262 218.402C74.985 218.792 77.0517 217.359 77.4422 215.2C77.8328 213.041 76.3994 210.974 74.2406 210.584Z" fill="#C7A24F"/>
<path d="M59.3219 236.962C57.8945 236.703 56.947 235.337 57.2052 233.91L63.1873 200.843C63.4455 199.416 64.8115 198.469 66.2389 198.727L88.8778 202.822L89.1539 201.296L64.4449 196.826C62.8874 196.544 61.3962 197.578 61.1144 199.136L54.5854 235.226C54.3037 236.784 55.3379 238.275 56.8955 238.557L81.6045 243.027L81.9608 241.057L59.3219 236.962Z" fill="#4E4F51"/>
<path d="M113.863 205.766L89.1539 201.296L88.8778 202.822L111.517 206.918C112.944 207.176 113.892 208.542 113.633 209.969L107.651 243.036C107.393 244.463 106.027 245.411 104.6 245.153L81.9608 241.057L81.6045 243.027L106.313 247.497C107.871 247.778 109.362 246.744 109.644 245.186L116.173 209.096C116.455 207.539 115.42 206.048 113.863 205.766Z" fill="#404042"/>
</g>
<path d="M140.218 188.652L46.2443 172.147C44.4542 171.832 43.2578 170.126 43.5723 168.336L144.029 185.979C143.715 187.77 142.009 188.966 140.218 188.652Z" fill="#2E2D2D"/>
<path d="M134.835 164.963L59.377 151.71L45.5868 161.288C43.6973 162.601 44.3448 165.544 46.6109 165.942L94.2995 174.317L141.988 182.693C144.254 183.091 145.866 180.545 144.537 178.667L134.835 164.963Z" fill="#797E85"/>
<path d="M98.6954 163.43L93.8773 162.584L93.3369 164.808L98.4457 165.705L98.6954 163.43Z" fill="white"/>
<path d="M68.5955 158.144L63.8967 157.318L61.5488 159.225L66.5939 160.111L68.5955 158.144Z" fill="white"/>
<path d="M94.0801 161.747L98.7887 162.574L98.9989 160.663L94.5337 159.879L94.0801 161.747Z" fill="white"/>
<path d="M86.8266 161.345L81.3461 160.383L80.0508 162.474L85.9135 163.504L86.8266 161.345Z" fill="white"/>
<path d="M117.309 166.699L112.137 165.791L112.643 168.199L118.181 169.171L117.309 166.699Z" fill="white"/>
<path d="M104.878 164.516L99.5426 163.579L99.2928 165.854L105.001 166.857L104.878 164.516Z" fill="white"/>
<path d="M67.6328 160.293L72.6302 161.171L74.2926 159.144L69.6344 158.326L67.6328 160.293Z" fill="white"/>
<path d="M122.937 167.688L118.279 166.87L119.152 169.342L124.149 170.22L122.937 167.688Z" fill="white"/>
<path d="M111.227 165.631L105.747 164.669L105.869 167.009L111.732 168.039L111.227 165.631Z" fill="white"/>
<path d="M93.0296 162.435L87.6944 161.498L86.7812 163.656L92.4892 164.659L93.0296 162.435Z" fill="white"/>
<path d="M104.832 163.636L104.729 161.67L99.8465 160.812L99.6369 162.723L104.832 163.636Z" fill="white"/>
<path d="M111.036 164.725L110.611 162.703L105.597 161.822L105.7 163.788L111.036 164.725Z" fill="white"/>
<path d="M55.9668 158.245L60.4282 159.028L62.7761 157.121L58.6318 156.394L55.9668 158.245Z" fill="white"/>
<path d="M116.981 165.77L116.248 163.693L111.522 162.863L111.947 164.885L116.981 165.77Z" fill="white"/>
<path d="M122.482 166.736L121.464 164.609L117.219 163.863L117.951 165.94L122.482 166.736Z" fill="white"/>
<path d="M125.189 170.402L130.234 171.288L128.676 168.696L123.977 167.87L125.189 170.402Z" fill="white"/>
<path d="M80.435 160.223L75.2639 159.315L73.6016 161.342L79.1397 162.314L80.435 160.223Z" fill="white"/>
<path d="M131.353 171.485L135.815 172.269L133.94 169.62L129.795 168.892L131.353 171.485Z" fill="white"/>
<path d="M128.091 167.721L126.783 165.543L122.505 164.792L123.522 166.918L128.091 167.721Z" fill="white"/>
<path d="M63.583 163.07L64.0204 162.64L65.8409 160.851L60.6656 159.942L58.0176 162.092L63.583 163.07Z" fill="white"/>
<path d="M118.509 170.101L112.833 169.104L113.333 171.484L113.404 171.82L119.493 172.889L118.509 170.101Z" fill="white"/>
<path d="M124.605 171.172L119.48 170.272L120.302 172.604L120.463 173.06L125.971 174.027L124.605 171.172Z" fill="white"/>
<path d="M111.922 168.944L105.915 167.889L106.044 170.331L106.054 170.529L112.492 171.66L111.922 168.944Z" fill="white"/>
<path d="M130.819 172.263L125.644 171.354L126.746 173.657L127.01 174.21L132.575 175.187L130.819 172.263Z" fill="white"/>
<path d="M63.6588 156.404L65.6307 154.803L61.8722 154.143L59.6338 155.698L63.6588 156.404Z" fill="white"/>
<path d="M57.476 161.426L59.5455 159.745L54.9651 158.941L51.959 161.028L56.8974 161.896L57.476 161.426Z" fill="white"/>
<path d="M105.047 167.737L99.1986 166.71L98.923 169.22L98.9171 169.276L105.186 170.377L105.047 167.737Z" fill="white"/>
<path d="M129.211 167.918L133.235 168.624L131.661 166.4L127.902 165.74L129.211 167.918Z" fill="white"/>
<path d="M136.52 173.264L131.939 172.46L133.312 174.745L133.696 175.384L138.634 176.251L136.52 173.264Z" fill="white"/>
<path d="M70.3867 157.586L74.9175 158.382L76.3138 156.679L72.0684 155.934L70.3867 157.586Z" fill="white"/>
<path d="M88.0371 160.686L93.2322 161.598L93.6863 159.73L88.8045 158.873L88.0371 160.686Z" fill="white"/>
<path d="M64.7783 156.601L69.3473 157.404L71.029 155.751L66.7502 155L64.7783 156.601Z" fill="white"/>
<path d="M75.8887 158.552L80.9219 159.436L82.0106 157.68L77.285 156.85L75.8887 158.552Z" fill="white"/>
<path d="M81.833 159.596L87.1696 160.534L87.9365 158.721L82.9217 157.84L81.833 159.596Z" fill="white"/>
<path d="M84.6171 166.568L85.5696 164.316L79.563 163.261L78.1016 165.62L84.5399 166.751L84.6171 166.568Z" fill="white"/>
<path d="M70.4374 163.846L72.0057 161.933L66.8809 161.033L64.623 163.252L70.131 164.22L70.4374 163.846Z" fill="white"/>
<path d="M98.351 166.561L93.1333 165.644L92.5234 168.153L98.0691 169.127L98.351 166.561Z" fill="white"/>
<path d="M91.6896 167.95L92.286 165.495L86.438 164.468L85.4082 166.903L91.6767 168.004L91.6896 167.95Z" fill="white"/>
<path d="M77.3714 165.168L78.6517 163.101L72.9758 162.104L71.1006 164.39L77.1902 165.46L77.3714 165.168Z" fill="white"/>
<path d="M141.838 108.966L123.344 105.718C122.591 105.586 121.815 105.758 121.188 106.198L114.501 110.887C113.874 111.326 113.098 111.499 112.344 111.366L94.7133 108.27L98.8536 114.174C99.2931 114.801 99.9638 115.228 100.718 115.36L139.517 122.174C141.087 122.45 142.137 123.947 141.861 125.517L144.181 112.307C144.457 110.737 143.408 109.242 141.838 108.966Z" fill="#2E2D2D"/>
<path d="M132.681 161.105L62.7177 148.817C61.1485 148.541 60.0995 147.045 60.3752 145.475L67.7656 103.397C68.0413 101.826 69.5372 100.778 71.1065 101.053L91.6943 104.669C92.4478 104.802 93.1186 105.228 93.5576 105.855L98.2471 112.542C98.6867 113.169 99.3569 113.595 100.11 113.727L139.779 120.694C141.348 120.97 142.397 122.466 142.121 124.036L136.022 158.761C135.747 160.331 134.251 161.38 132.681 161.105Z" fill="#797E85"/>
<path d="M426.823 227.538L411.05 60.8566C410.569 55.7728 406.058 52.0419 400.973 52.5231L144.183 76.824C139.099 77.3052 135.368 81.8166 135.849 86.8998L151.622 253.581C152.103 258.664 156.614 262.395 161.699 261.915L418.489 237.614C423.573 237.132 427.305 232.621 426.823 227.538Z" fill="#A2B2D6"/>
<path d="M434.395 222.221C434.832 227.365 431.015 231.89 425.869 232.328L165.972 254.403C160.826 254.839 156.301 251.023 155.863 245.877L141.535 77.1794C141.099 72.0344 144.915 67.5093 150.061 67.0721L409.958 44.9974C415.104 44.5607 419.629 48.3772 420.067 53.5222L434.395 222.221Z" fill="#3F4751"/>
<g opacity="0.3">
<path d="M411.042 48.2048C414.09 48.345 416.584 50.7485 416.843 53.7957L431.172 222.494C431.31 224.121 430.806 225.705 429.753 226.953C428.7 228.202 427.223 228.965 425.596 229.104L165.699 251.179C165.429 251.202 165.157 251.207 164.888 251.194C161.84 251.054 159.346 248.65 159.087 245.603L144.758 76.9049C144.474 73.5454 146.975 70.5801 150.335 70.2947L410.232 48.2204C410.502 48.1976 410.775 48.1925 411.042 48.2048ZM411.149 45.8964C410.78 45.8794 410.406 45.8868 410.036 45.9183L150.139 67.9925C145.51 68.3858 142.063 72.4716 142.456 77.1006L156.784 245.799C157.142 249.998 160.579 253.31 164.782 253.503C165.15 253.52 165.524 253.513 165.894 253.482L425.792 231.407C428.034 231.216 430.069 230.164 431.519 228.444C432.97 226.723 433.664 224.541 433.474 222.3L419.146 53.6005C418.788 49.4014 415.351 46.0897 411.149 45.8964Z" fill="#231F20"/>
</g>
<path d="M434.395 222.221C434.832 227.365 431.015 231.89 425.869 232.328L165.972 254.403C160.826 254.839 156.301 251.023 155.863 245.877L141.535 77.1794C141.099 72.0344 144.915 67.5093 150.061 67.0721L409.958 44.9974C415.104 44.5607 419.629 48.3772 420.067 53.5222L434.395 222.221Z" stroke="#BFC9D8" stroke-width="5.659" stroke-miterlimit="10"/>
<g opacity="0.3">
<path d="M263.338 248.433L189.927 254.031L241.181 57.8415L314.592 52.2432L263.338 248.433Z" fill="white"/>
</g>
<path d="M283.194 66.7286C283.3 67.9764 282.375 69.0743 281.126 69.1802C279.879 69.2857 278.781 68.3601 278.675 67.1123C278.569 65.8644 279.495 64.7665 280.742 64.6611C281.991 64.5552 283.087 65.4812 283.194 66.7286Z" fill="#3F4751"/>
<path d="M397.436 67.1811L166.143 86.8164L178.454 231.838L409.748 212.202L397.436 67.1811Z" fill="white"/>
<g opacity="0.46">
<path d="M332.756 149.258L354.983 178.501C349.604 182.2 343.395 184.738 336.739 185.785L332.756 149.258Z" fill="#6ECCDC" stroke="#3F4751"/>
<path d="M373.907 147.634C372.411 159.056 366.657 168.974 358.39 175.91L334.404 144.353L373.907 147.634Z" fill="#949AAA" stroke="#3F4751"/>
<path d="M332.102 139.865L335.604 97.7052C358.308 100.679 375.075 120.484 374.262 143.367L332.102 139.865Z" fill="#B2C0D4" stroke="#3F4751"/>
<path d="M326.107 186.167C315.275 185.267 305.674 180.558 298.508 173.466L328.122 146.261L332.482 186.243C330.388 186.367 328.259 186.346 326.107 186.167Z" fill="#FFD121" stroke="#3F4751"/>
<path d="M290.383 162.498C286.576 155.261 284.718 146.891 285.445 138.137C287.42 114.361 307.745 96.5117 331.338 97.3514L329.2 123.101L327.73 140.784L327.73 140.784L327.678 141.405L295.615 170.317C294.301 168.741 293.093 167.074 292.005 165.328L290.383 162.498Z" fill="#2B4248" stroke="#3F4751"/>
</g>
<mask id="path-137-outside-1_707_430" maskUnits="userSpaceOnUse" x="203.659" y="116.507" width="128.987" height="61.7534" fill="black">
<rect fill="white" x="203.659" y="116.507" width="128.987" height="61.7534"/>
<path d="M205.227 130.193C207.109 129.428 209.112 128.952 211.237 128.765C216.635 128.291 219.532 130.306 219.928 134.811C220.141 137.234 219.611 139.112 218.336 140.444C217.059 141.756 214.976 142.539 212.085 142.793L209.886 142.986L210.41 148.947L206.904 149.256L205.227 130.193ZM211.362 139.676C212.424 139.583 213.303 139.473 213.999 139.348C214.716 139.221 215.365 139.057 215.947 138.856C216.42 137.893 216.593 136.7 216.468 135.276C216.35 133.937 215.883 133.015 215.068 132.508C214.274 132 213.122 131.812 211.613 131.945C210.53 132.04 209.644 132.203 208.958 132.435L209.608 139.831L211.362 139.676ZM237.969 146.749C237.225 146.814 236.63 146.738 236.182 146.52C235.735 146.303 235.358 145.918 235.053 145.367L232.934 141.731C232.605 141.16 232.322 140.735 232.083 140.456C231.844 140.177 231.515 139.96 231.094 139.804C230.674 139.649 230.123 139.601 229.443 139.66L227.116 139.865L227.781 147.42L224.274 147.728L222.592 128.602C224.516 127.833 226.488 127.36 228.507 127.182C231.036 126.96 232.99 127.27 234.371 128.112C235.751 128.955 236.53 130.385 236.708 132.404C236.934 134.976 235.917 136.928 233.657 138.262L233.682 138.549C234.232 138.715 234.702 138.941 235.091 139.228C235.48 139.515 235.847 139.911 236.191 140.416L238.605 144.123L240.097 144.281L240.271 146.257C239.692 146.501 238.925 146.665 237.969 146.749ZM231.826 136.431C232.369 136.041 232.757 135.578 232.988 135.044C233.239 134.487 233.329 133.804 233.258 132.997C233.159 131.87 232.75 131.114 232.031 130.727C231.331 130.318 230.237 130.178 228.749 130.309C227.772 130.395 226.96 130.542 226.315 130.748L226.853 136.869L231.826 136.431ZM250.623 145.668C247.881 145.909 245.737 145.273 244.191 143.76C242.664 142.224 241.759 139.852 241.477 136.643C241.165 133.094 241.656 130.395 242.949 128.547C244.241 126.677 246.428 125.607 249.509 125.336C255.056 124.848 258.116 127.866 258.69 134.39C259 137.918 258.499 140.618 257.185 142.489C255.892 144.338 253.704 145.397 250.623 145.668ZM250.881 142.401C252.39 142.268 253.595 141.97 254.497 141.505C255.177 139.496 255.422 137.408 255.231 135.241C255.085 133.583 254.808 132.258 254.4 131.266C253.991 130.274 253.371 129.558 252.54 129.117C251.73 128.674 250.635 128.513 249.253 128.635C247.681 128.773 246.444 129.075 245.542 129.539C244.913 131.394 244.7 133.479 244.904 135.795C245.05 137.453 245.328 138.788 245.738 139.802C246.168 140.792 246.788 141.508 247.597 141.951C248.427 142.371 249.521 142.521 250.881 142.401ZM266.219 144.329C265.347 144.406 264.468 144.397 263.582 144.304C262.696 144.21 261.921 144.043 261.257 143.802L261.791 140.735C263.151 141.108 264.48 141.237 265.776 141.123C266.924 141.023 267.834 140.782 268.507 140.401C268.59 139.88 268.598 139.237 268.53 138.472L267.266 124.095L270.773 123.787L272.068 138.514C272.219 140.236 271.803 141.589 270.819 142.575C269.856 143.559 268.322 144.144 266.219 144.329ZM284.398 142.73C282.039 142.938 280.188 142.833 278.845 142.416C277.523 141.996 276.803 141.117 276.685 139.779L275.245 123.394L288.665 122.214L288.948 125.433L279.002 126.308L279.456 131.472L288.191 130.704L288.46 133.764L279.726 134.532L280.168 139.569C281.462 139.669 282.81 139.658 284.213 139.534C286.317 139.349 288.159 138.984 289.738 138.438L290.616 141.477C289.063 142.085 286.99 142.502 284.398 142.73ZM302.972 141.097C299.997 141.359 297.685 140.759 296.036 139.298C294.406 137.814 293.453 135.499 293.176 132.354C292.889 129.081 293.392 126.402 294.686 124.318C295.981 122.234 298.062 121.066 300.931 120.814C302.228 120.7 303.462 120.731 304.634 120.906C305.804 121.06 306.746 121.309 307.462 121.653L307.602 123.247C307.647 123.757 307.651 124.292 307.615 124.852C307.6 125.41 307.545 125.886 307.451 126.28L304.774 126.515L304.239 124.089C303.436 123.967 302.365 123.964 301.026 124.082C299.836 124.187 298.626 124.432 297.397 124.819C296.672 126.81 296.429 129.155 296.666 131.854C296.868 134.149 297.439 135.769 298.378 136.715C299.338 137.637 300.827 138.009 302.845 137.832C303.929 137.736 304.927 137.52 305.84 137.183C306.774 136.844 307.54 136.423 308.138 135.921L309.843 138.501C309.092 139.21 308.136 139.786 306.975 140.231C305.815 140.676 304.481 140.964 302.972 141.097ZM317.083 122.991L310.772 123.546L310.486 120.295L326.615 118.877L326.901 122.128L320.59 122.683L322.036 139.132L318.53 139.44L317.083 122.991ZM227.368 154.708L230.875 154.4L232.607 174.1L229.101 174.408L227.368 154.708ZM235.491 153.994L238.997 153.685L240.444 170.134L249.146 169.369L249.432 172.62L237.223 173.694L235.491 153.994ZM266.335 171.359C265.612 171.422 265.017 171.346 264.548 171.13C264.077 170.893 263.679 170.5 263.352 169.951L260.721 165.235C260.312 164.479 259.859 163.961 259.364 163.684C258.888 163.383 258.182 163.274 257.247 163.356L255.079 163.547L255.828 172.058L252.321 172.366L250.589 152.666L254.095 152.358L254.799 160.359L256.775 160.185C257.753 160.099 258.471 159.865 258.93 159.482C259.41 159.097 259.769 158.551 260.007 157.845L262.048 151.466L265.531 152.348L263.564 158.111C263.254 158.973 262.905 159.635 262.518 160.098C262.13 160.56 261.523 160.967 260.698 161.318L260.715 161.509C261.5 161.676 262.089 161.924 262.483 162.253C262.874 162.561 263.304 163.07 263.773 163.778L266.939 168.736L268.495 168.888L268.669 170.864C267.963 171.119 267.185 171.284 266.335 171.359ZM278.826 170.292C276.084 170.534 273.94 169.898 272.394 168.385C270.867 166.848 269.962 164.476 269.68 161.267C269.368 157.718 269.859 155.019 271.152 153.171C272.444 151.301 274.631 150.231 277.712 149.96C283.259 149.472 286.319 152.49 286.893 159.014C287.203 162.542 286.701 165.242 285.388 167.113C284.095 168.962 281.907 170.022 278.826 170.292ZM279.084 167.025C280.593 166.893 281.798 166.594 282.7 166.129C283.38 164.12 283.624 162.032 283.434 159.865C283.288 158.207 283.011 156.882 282.602 155.89C282.194 154.898 281.574 154.182 280.743 153.741C279.933 153.298 278.838 153.137 277.456 153.259C275.884 153.397 274.647 153.699 273.745 154.164C273.116 156.018 272.903 158.103 273.107 160.419C273.252 162.077 273.531 163.413 273.941 164.426C274.371 165.416 274.99 166.132 275.8 166.575C276.63 166.995 277.724 167.145 279.084 167.025ZM290.386 149.167L294.817 148.777L299.749 159.201L299.972 159.181L303.041 148.054L307.44 147.667L309.937 167.3L306.399 167.611L305.176 157.728L304.771 152.752L304.51 152.711L301.526 162.61L298.817 162.849L294.15 153.622L293.901 153.708L294.402 158.675L294.891 168.623L291.353 168.934L290.386 149.167Z"/>
</mask>
<path d="M205.227 130.193C207.109 129.428 209.112 128.952 211.237 128.765C216.635 128.291 219.532 130.306 219.928 134.811C220.141 137.234 219.611 139.112 218.336 140.444C217.059 141.756 214.976 142.539 212.085 142.793L209.886 142.986L210.41 148.947L206.904 149.256L205.227 130.193ZM211.362 139.676C212.424 139.583 213.303 139.473 213.999 139.348C214.716 139.221 215.365 139.057 215.947 138.856C216.42 137.893 216.593 136.7 216.468 135.276C216.35 133.937 215.883 133.015 215.068 132.508C214.274 132 213.122 131.812 211.613 131.945C210.53 132.04 209.644 132.203 208.958 132.435L209.608 139.831L211.362 139.676ZM237.969 146.749C237.225 146.814 236.63 146.738 236.182 146.52C235.735 146.303 235.358 145.918 235.053 145.367L232.934 141.731C232.605 141.16 232.322 140.735 232.083 140.456C231.844 140.177 231.515 139.96 231.094 139.804C230.674 139.649 230.123 139.601 229.443 139.66L227.116 139.865L227.781 147.42L224.274 147.728L222.592 128.602C224.516 127.833 226.488 127.36 228.507 127.182C231.036 126.96 232.99 127.27 234.371 128.112C235.751 128.955 236.53 130.385 236.708 132.404C236.934 134.976 235.917 136.928 233.657 138.262L233.682 138.549C234.232 138.715 234.702 138.941 235.091 139.228C235.48 139.515 235.847 139.911 236.191 140.416L238.605 144.123L240.097 144.281L240.271 146.257C239.692 146.501 238.925 146.665 237.969 146.749ZM231.826 136.431C232.369 136.041 232.757 135.578 232.988 135.044C233.239 134.487 233.329 133.804 233.258 132.997C233.159 131.87 232.75 131.114 232.031 130.727C231.331 130.318 230.237 130.178 228.749 130.309C227.772 130.395 226.96 130.542 226.315 130.748L226.853 136.869L231.826 136.431ZM250.623 145.668C247.881 145.909 245.737 145.273 244.191 143.76C242.664 142.224 241.759 139.852 241.477 136.643C241.165 133.094 241.656 130.395 242.949 128.547C244.241 126.677 246.428 125.607 249.509 125.336C255.056 124.848 258.116 127.866 258.69 134.39C259 137.918 258.499 140.618 257.185 142.489C255.892 144.338 253.704 145.397 250.623 145.668ZM250.881 142.401C252.39 142.268 253.595 141.97 254.497 141.505C255.177 139.496 255.422 137.408 255.231 135.241C255.085 133.583 254.808 132.258 254.4 131.266C253.991 130.274 253.371 129.558 252.54 129.117C251.73 128.674 250.635 128.513 249.253 128.635C247.681 128.773 246.444 129.075 245.542 129.539C244.913 131.394 244.7 133.479 244.904 135.795C245.05 137.453 245.328 138.788 245.738 139.802C246.168 140.792 246.788 141.508 247.597 141.951C248.427 142.371 249.521 142.521 250.881 142.401ZM266.219 144.329C265.347 144.406 264.468 144.397 263.582 144.304C262.696 144.21 261.921 144.043 261.257 143.802L261.791 140.735C263.151 141.108 264.48 141.237 265.776 141.123C266.924 141.023 267.834 140.782 268.507 140.401C268.59 139.88 268.598 139.237 268.53 138.472L267.266 124.095L270.773 123.787L272.068 138.514C272.219 140.236 271.803 141.589 270.819 142.575C269.856 143.559 268.322 144.144 266.219 144.329ZM284.398 142.73C282.039 142.938 280.188 142.833 278.845 142.416C277.523 141.996 276.803 141.117 276.685 139.779L275.245 123.394L288.665 122.214L288.948 125.433L279.002 126.308L279.456 131.472L288.191 130.704L288.46 133.764L279.726 134.532L280.168 139.569C281.462 139.669 282.81 139.658 284.213 139.534C286.317 139.349 288.159 138.984 289.738 138.438L290.616 141.477C289.063 142.085 286.99 142.502 284.398 142.73ZM302.972 141.097C299.997 141.359 297.685 140.759 296.036 139.298C294.406 137.814 293.453 135.499 293.176 132.354C292.889 129.081 293.392 126.402 294.686 124.318C295.981 122.234 298.062 121.066 300.931 120.814C302.228 120.7 303.462 120.731 304.634 120.906C305.804 121.06 306.746 121.309 307.462 121.653L307.602 123.247C307.647 123.757 307.651 124.292 307.615 124.852C307.6 125.41 307.545 125.886 307.451 126.28L304.774 126.515L304.239 124.089C303.436 123.967 302.365 123.964 301.026 124.082C299.836 124.187 298.626 124.432 297.397 124.819C296.672 126.81 296.429 129.155 296.666 131.854C296.868 134.149 297.439 135.769 298.378 136.715C299.338 137.637 300.827 138.009 302.845 137.832C303.929 137.736 304.927 137.52 305.84 137.183C306.774 136.844 307.54 136.423 308.138 135.921L309.843 138.501C309.092 139.21 308.136 139.786 306.975 140.231C305.815 140.676 304.481 140.964 302.972 141.097ZM317.083 122.991L310.772 123.546L310.486 120.295L326.615 118.877L326.901 122.128L320.59 122.683L322.036 139.132L318.53 139.44L317.083 122.991ZM227.368 154.708L230.875 154.4L232.607 174.1L229.101 174.408L227.368 154.708ZM235.491 153.994L238.997 153.685L240.444 170.134L249.146 169.369L249.432 172.62L237.223 173.694L235.491 153.994ZM266.335 171.359C265.612 171.422 265.017 171.346 264.548 171.13C264.077 170.893 263.679 170.5 263.352 169.951L260.721 165.235C260.312 164.479 259.859 163.961 259.364 163.684C258.888 163.383 258.182 163.274 257.247 163.356L255.079 163.547L255.828 172.058L252.321 172.366L250.589 152.666L254.095 152.358L254.799 160.359L256.775 160.185C257.753 160.099 258.471 159.865 258.93 159.482C259.41 159.097 259.769 158.551 260.007 157.845L262.048 151.466L265.531 152.348L263.564 158.111C263.254 158.973 262.905 159.635 262.518 160.098C262.13 160.56 261.523 160.967 260.698 161.318L260.715 161.509C261.5 161.676 262.089 161.924 262.483 162.253C262.874 162.561 263.304 163.07 263.773 163.778L266.939 168.736L268.495 168.888L268.669 170.864C267.963 171.119 267.185 171.284 266.335 171.359ZM278.826 170.292C276.084 170.534 273.94 169.898 272.394 168.385C270.867 166.848 269.962 164.476 269.68 161.267C269.368 157.718 269.859 155.019 271.152 153.171C272.444 151.301 274.631 150.231 277.712 149.96C283.259 149.472 286.319 152.49 286.893 159.014C287.203 162.542 286.701 165.242 285.388 167.113C284.095 168.962 281.907 170.022 278.826 170.292ZM279.084 167.025C280.593 166.893 281.798 166.594 282.7 166.129C283.38 164.12 283.624 162.032 283.434 159.865C283.288 158.207 283.011 156.882 282.602 155.89C282.194 154.898 281.574 154.182 280.743 153.741C279.933 153.298 278.838 153.137 277.456 153.259C275.884 153.397 274.647 153.699 273.745 154.164C273.116 156.018 272.903 158.103 273.107 160.419C273.252 162.077 273.531 163.413 273.941 164.426C274.371 165.416 274.99 166.132 275.8 166.575C276.63 166.995 277.724 167.145 279.084 167.025ZM290.386 149.167L294.817 148.777L299.749 159.201L299.972 159.181L303.041 148.054L307.44 147.667L309.937 167.3L306.399 167.611L305.176 157.728L304.771 152.752L304.51 152.711L301.526 162.61L298.817 162.849L294.15 153.622L293.901 153.708L294.402 158.675L294.891 168.623L291.353 168.934L290.386 149.167Z" fill="#3F4751"/>
<path d="M205.227 130.193L204.851 129.267L204.167 129.545L204.231 130.281L205.227 130.193ZM218.336 140.444L219.052 141.142L219.058 141.136L218.336 140.444ZM209.886 142.986L209.798 141.99L208.802 142.078L208.89 143.074L209.886 142.986ZM210.41 148.947L210.498 149.943L211.494 149.856L211.406 148.86L210.41 148.947ZM206.904 149.256L205.907 149.343L205.995 150.339L206.991 150.252L206.904 149.256ZM213.999 139.348L213.824 138.363L213.822 138.364L213.999 139.348ZM215.947 138.856L216.274 139.801L216.664 139.666L216.845 139.296L215.947 138.856ZM215.068 132.508L214.529 133.35L214.54 133.358L215.068 132.508ZM208.958 132.435L208.638 131.488L207.893 131.739L207.962 132.523L208.958 132.435ZM209.608 139.831L208.612 139.918L208.7 140.914L209.696 140.827L209.608 139.831ZM205.604 131.12C207.389 130.394 209.294 129.94 211.325 129.761L211.15 127.769C208.93 127.964 206.829 128.462 204.851 129.267L205.604 131.12ZM211.325 129.761C213.91 129.534 215.711 129.923 216.887 130.742C218.027 131.535 218.752 132.852 218.932 134.899L220.925 134.724C220.708 132.265 219.787 130.322 218.03 129.1C216.309 127.903 213.963 127.522 211.15 127.769L211.325 129.761ZM218.932 134.899C219.129 137.131 218.63 138.69 217.613 139.753L219.058 141.136C220.591 139.533 221.154 137.336 220.925 134.724L218.932 134.899ZM217.619 139.747C216.583 140.811 214.781 141.552 211.998 141.797L212.173 143.789C215.17 143.526 217.535 142.701 219.052 141.142L217.619 139.747ZM211.998 141.797L209.798 141.99L209.973 143.982L212.173 143.789L211.998 141.797ZM208.89 143.074L209.414 149.035L211.406 148.86L210.882 142.899L208.89 143.074ZM210.322 147.951L206.816 148.26L206.991 150.252L210.498 149.943L210.322 147.951ZM207.9 149.168L206.224 130.106L204.231 130.281L205.907 149.343L207.9 149.168ZM211.449 140.673C212.528 140.578 213.44 140.465 214.176 140.332L213.822 138.364C213.166 138.482 212.32 138.588 211.274 138.68L211.449 140.673ZM214.174 140.333C214.933 140.198 215.635 140.022 216.274 139.801L215.621 137.91C215.096 138.092 214.499 138.244 213.824 138.363L214.174 140.333ZM216.845 139.296C217.42 138.124 217.6 136.735 217.464 135.189L215.472 135.364C215.586 136.665 215.419 137.662 215.05 138.415L216.845 139.296ZM217.464 135.189C217.33 133.67 216.775 132.391 215.596 131.659L214.54 133.358C214.992 133.638 215.37 134.205 215.472 135.364L217.464 135.189ZM215.607 131.666C214.544 130.985 213.131 130.807 211.526 130.948L211.701 132.941C213.113 132.817 214.004 133.014 214.529 133.35L215.607 131.666ZM211.526 130.948C210.398 131.048 209.427 131.221 208.638 131.488L209.278 133.383C209.862 133.185 210.661 133.032 211.701 132.941L211.526 130.948ZM207.962 132.523L208.612 139.918L210.605 139.743L209.954 132.347L207.962 132.523ZM209.696 140.827L211.449 140.673L211.274 138.68L209.521 138.834L209.696 140.827ZM235.053 145.367L235.927 144.882L235.922 144.873L235.917 144.864L235.053 145.367ZM232.934 141.731L232.067 142.23L232.07 142.234L232.934 141.731ZM232.083 140.456L232.843 139.806L232.083 140.456ZM227.116 139.865L227.029 138.869L226.032 138.956L226.12 139.953L227.116 139.865ZM227.781 147.42L227.868 148.416L228.864 148.328L228.777 147.332L227.781 147.42ZM224.274 147.728L223.278 147.816L223.366 148.812L224.362 148.724L224.274 147.728ZM222.592 128.602L222.221 127.673L221.531 127.949L221.596 128.69L222.592 128.602ZM234.371 128.112L233.85 128.966L233.85 128.966L234.371 128.112ZM233.657 138.262L233.149 137.401L232.606 137.721L232.661 138.35L233.657 138.262ZM233.682 138.549L232.686 138.636L232.745 139.311L233.394 139.506L233.682 138.549ZM235.091 139.228L235.684 138.423L235.091 139.228ZM236.191 140.416L237.029 139.871L237.024 139.862L237.018 139.853L236.191 140.416ZM238.605 144.123L237.767 144.669L238.027 145.067L238.5 145.117L238.605 144.123ZM240.097 144.281L241.093 144.193L241.021 143.373L240.202 143.287L240.097 144.281ZM240.271 146.257L240.659 147.179L241.331 146.896L241.267 146.17L240.271 146.257ZM231.826 136.431L231.913 137.427L232.186 137.403L232.409 137.244L231.826 136.431ZM232.988 135.044L232.076 134.634L232.071 134.647L232.988 135.044ZM232.031 130.727L231.526 131.59L231.541 131.6L231.557 131.608L232.031 130.727ZM226.315 130.748L226.01 129.796L225.248 130.04L225.318 130.836L226.315 130.748ZM226.853 136.869L225.857 136.956L225.944 137.952L226.94 137.865L226.853 136.869ZM237.881 145.753C237.234 145.81 236.842 145.729 236.619 145.621L235.745 147.42C236.417 147.747 237.216 147.819 238.057 147.745L237.881 145.753ZM236.619 145.621C236.401 145.515 236.16 145.302 235.927 144.882L234.178 145.852C234.556 146.535 235.068 147.091 235.745 147.42L236.619 145.621ZM235.917 144.864L233.798 141.227L232.07 142.234L234.189 145.87L235.917 144.864ZM233.801 141.232C233.461 140.642 233.141 140.155 232.843 139.806L231.323 141.107C231.502 141.315 231.749 141.677 232.067 142.23L233.801 141.232ZM232.843 139.806C232.471 139.372 231.987 139.068 231.441 138.867L230.747 140.742C231.043 140.852 231.218 140.983 231.323 141.107L232.843 139.806ZM231.441 138.867C230.829 138.64 230.113 138.598 229.356 138.664L229.531 140.657C230.133 140.604 230.519 140.658 230.747 140.742L231.441 138.867ZM229.356 138.664L227.029 138.869L227.204 140.861L229.531 140.657L229.356 138.664ZM226.12 139.953L226.784 147.507L228.777 147.332L228.112 139.777L226.12 139.953ZM227.693 146.424L224.186 146.732L224.362 148.724L227.868 148.416L227.693 146.424ZM225.27 147.641L223.588 128.514L221.596 128.69L223.278 147.816L225.27 147.641ZM222.963 129.531C224.799 128.797 226.675 128.347 228.594 128.179L228.419 126.186C226.301 126.373 224.234 126.869 222.221 127.673L222.963 129.531ZM228.594 128.179C231.023 127.965 232.729 128.282 233.85 128.966L234.891 127.259C233.251 126.258 231.048 125.955 228.419 126.186L228.594 128.179ZM233.85 128.966C234.891 129.601 235.554 130.7 235.711 132.492L237.704 132.317C237.506 130.07 236.611 128.308 234.891 127.259L233.85 128.966ZM235.711 132.492C235.811 133.621 235.634 134.555 235.228 135.335C234.821 136.116 234.149 136.811 233.149 137.401L234.165 139.123C235.425 138.38 236.391 137.431 237.001 136.259C237.612 135.086 237.831 133.759 237.704 132.317L235.711 132.492ZM232.661 138.35L232.686 138.636L234.678 138.461L234.653 138.174L232.661 138.35ZM233.394 139.506C233.854 139.645 234.216 139.825 234.498 140.033L235.684 138.423C235.188 138.057 234.61 137.784 233.971 137.591L233.394 139.506ZM234.498 140.033C234.776 140.238 235.068 140.544 235.365 140.979L237.018 139.853C236.626 139.278 236.185 138.792 235.684 138.423L234.498 140.033ZM235.353 140.962L237.767 144.669L239.443 143.577L237.029 139.871L235.353 140.962ZM238.5 145.117L239.992 145.275L240.202 143.287L238.711 143.129L238.5 145.117ZM239.101 144.369L239.275 146.345L241.267 146.17L241.093 144.193L239.101 144.369ZM239.882 145.336C239.437 145.524 238.783 145.673 237.881 145.753L238.057 147.745C239.068 147.656 239.948 147.478 240.659 147.179L239.882 145.336ZM232.409 137.244C233.077 136.764 233.593 136.165 233.906 135.442L232.071 134.647C231.922 134.991 231.662 135.318 231.242 135.619L232.409 137.244ZM233.9 135.454C234.241 134.698 234.336 133.833 234.254 132.909L232.262 133.084C232.323 133.775 232.238 134.275 232.077 134.634L233.9 135.454ZM234.254 132.909C234.138 131.589 233.627 130.45 232.504 129.847L231.557 131.608C231.873 131.778 232.18 132.152 232.262 133.084L234.254 132.909ZM232.536 129.864C231.56 129.293 230.206 129.177 228.662 129.313L228.837 131.305C230.268 131.18 231.101 131.342 231.526 131.59L232.536 129.864ZM228.662 129.313C227.64 129.403 226.75 129.559 226.01 129.796L226.619 131.701C227.171 131.524 227.904 131.387 228.837 131.305L228.662 129.313ZM225.318 130.836L225.857 136.956L227.849 136.781L227.311 130.661L225.318 130.836ZM226.94 137.865L231.913 137.427L231.738 135.435L226.765 135.872L226.94 137.865ZM244.191 143.76L243.482 144.465L243.491 144.475L244.191 143.76ZM242.949 128.547L243.769 129.12L243.772 129.115L242.949 128.547ZM257.185 142.489L256.367 141.915L256.366 141.916L257.185 142.489ZM254.497 141.505L254.955 142.394L255.314 142.208L255.444 141.826L254.497 141.505ZM254.4 131.266L255.324 130.885L254.4 131.266ZM252.54 129.117L252.06 129.994L252.072 130L252.54 129.117ZM245.542 129.539L245.084 128.65L244.725 128.836L244.595 129.218L245.542 129.539ZM245.738 139.802L244.811 140.177L244.816 140.188L244.821 140.2L245.738 139.802ZM247.597 141.951L247.118 142.828L247.132 142.836L247.146 142.843L247.597 141.951ZM250.535 144.672C247.999 144.895 246.174 144.301 244.89 143.046L243.491 144.475C245.301 146.245 247.763 146.924 250.71 146.664L250.535 144.672ZM244.9 143.055C243.602 141.749 242.744 139.641 242.473 136.555L240.481 136.73C240.774 140.063 241.726 142.699 243.482 144.465L244.9 143.055ZM242.473 136.555C242.17 133.112 242.669 130.692 243.769 129.12L242.13 127.973C240.643 130.098 240.159 133.075 240.481 136.73L242.473 136.555ZM243.772 129.115C244.839 127.57 246.699 126.587 249.597 126.332L249.422 124.339C246.157 124.627 243.643 125.783 242.127 127.978L243.772 129.115ZM249.597 126.332C252.171 126.105 253.999 126.7 255.262 127.945C256.554 129.22 257.417 131.333 257.694 134.478L259.686 134.303C259.389 130.923 258.435 128.265 256.667 126.522C254.87 124.749 252.395 124.078 249.422 124.339L249.597 126.332ZM257.694 134.478C257.994 137.894 257.488 140.317 256.367 141.915L258.004 143.064C259.509 140.918 260.006 137.942 259.686 134.303L257.694 134.478ZM256.366 141.916C255.298 143.441 253.437 144.417 250.535 144.672L250.71 146.664C253.971 146.378 256.485 145.234 258.005 143.063L256.366 141.916ZM250.969 143.397C252.549 143.258 253.896 142.94 254.955 142.394L254.039 140.616C253.295 141 252.231 141.279 250.794 141.405L250.969 143.397ZM255.444 141.826C256.17 139.682 256.43 137.455 256.227 135.153L254.235 135.328C254.414 137.361 254.184 139.31 253.55 141.184L255.444 141.826ZM256.227 135.153C256.077 133.444 255.786 132.008 255.324 130.885L253.475 131.647C253.83 132.509 254.094 133.722 254.235 135.328L256.227 135.153ZM255.324 130.885C254.84 129.71 254.075 128.799 253.009 128.233L252.072 130C252.668 130.317 253.142 130.838 253.475 131.647L255.324 130.885ZM253.02 128.239C251.97 127.665 250.651 127.508 249.166 127.639L249.341 129.631C250.618 129.519 251.491 129.683 252.06 129.994L253.02 128.239ZM249.166 127.639C247.528 127.783 246.147 128.102 245.084 128.65L246.001 130.428C246.741 130.047 247.833 129.763 249.341 129.631L249.166 127.639ZM244.595 129.218C243.914 131.226 243.694 133.454 243.908 135.883L245.9 135.708C245.706 133.504 245.912 131.561 246.489 129.861L244.595 129.218ZM243.908 135.883C244.058 137.593 244.349 139.037 244.811 140.177L246.665 139.426C246.306 138.54 246.041 137.312 245.9 135.708L243.908 135.883ZM244.821 140.2C245.323 141.358 246.081 142.262 247.118 142.828L248.077 141.074C247.494 140.755 247.012 140.226 246.655 139.403L244.821 140.2ZM247.146 142.843C248.202 143.378 249.505 143.526 250.969 143.397L250.794 141.405C249.538 141.515 248.651 141.363 248.049 141.059L247.146 142.843ZM263.582 144.304L263.477 145.298L263.582 144.304ZM261.257 143.802L260.272 143.63L260.129 144.455L260.915 144.741L261.257 143.802ZM261.791 140.735L262.055 139.771L260.994 139.48L260.805 140.564L261.791 140.735ZM268.507 140.401L268.999 141.272L269.419 141.035L269.495 140.558L268.507 140.401ZM267.266 124.095L267.179 123.099L266.182 123.187L266.27 124.183L267.266 124.095ZM270.773 123.787L271.769 123.7L271.681 122.703L270.685 122.791L270.773 123.787ZM270.819 142.575L270.111 141.869L270.104 141.876L270.819 142.575ZM266.131 143.333C265.325 143.404 264.511 143.396 263.687 143.309L263.477 145.298C264.426 145.398 265.37 145.408 266.306 145.325L266.131 143.333ZM263.687 143.309C262.862 143.222 262.169 143.069 261.599 142.862L260.915 144.741C261.672 145.017 262.53 145.199 263.477 145.298L263.687 143.309ZM262.242 143.973L262.776 140.906L260.805 140.564L260.272 143.63L262.242 143.973ZM261.526 141.699C262.992 142.101 264.439 142.245 265.864 142.12L265.688 140.127C264.52 140.23 263.311 140.115 262.055 139.771L261.526 141.699ZM265.864 142.12C267.09 142.012 268.156 141.748 268.999 141.272L268.015 139.531C267.512 139.815 266.757 140.033 265.688 140.127L265.864 142.12ZM269.495 140.558C269.595 139.929 269.598 139.198 269.527 138.384L267.534 138.56C267.597 139.277 267.585 139.832 267.52 140.245L269.495 140.558ZM269.527 138.384L268.262 124.008L266.27 124.183L267.534 138.56L269.527 138.384ZM267.354 125.092L270.86 124.783L270.685 122.791L267.179 123.099L267.354 125.092ZM269.777 123.875L271.072 138.602L273.064 138.427L271.769 123.7L269.777 123.875ZM271.072 138.602C271.204 140.106 270.837 141.141 270.111 141.869L271.526 143.282C272.768 142.037 273.234 140.365 273.064 138.427L271.072 138.602ZM270.104 141.876C269.377 142.619 268.119 143.158 266.131 143.333L266.306 145.325C268.526 145.13 270.335 144.5 271.533 143.275L270.104 141.876ZM278.845 142.416L278.542 143.369L278.548 143.371L278.845 142.416ZM275.245 123.394L275.157 122.398L274.161 122.485L274.249 123.481L275.245 123.394ZM288.665 122.214L289.661 122.126L289.573 121.13L288.577 121.218L288.665 122.214ZM288.948 125.433L289.036 126.43L290.032 126.342L289.944 125.346L288.948 125.433ZM279.002 126.308L278.915 125.312L277.919 125.399L278.006 126.396L279.002 126.308ZM279.456 131.472L278.46 131.56L278.548 132.556L279.544 132.468L279.456 131.472ZM288.191 130.704L289.187 130.616L289.099 129.62L288.103 129.708L288.191 130.704ZM288.46 133.764L288.547 134.76L289.544 134.673L289.456 133.677L288.46 133.764ZM279.726 134.532L279.638 133.536L278.642 133.624L278.729 134.62L279.726 134.532ZM280.168 139.569L279.172 139.656L279.246 140.5L280.091 140.566L280.168 139.569ZM289.738 138.438L290.699 138.161L290.407 137.149L289.412 137.493L289.738 138.438ZM290.616 141.477L290.98 142.408L291.83 142.076L291.576 141.2L290.616 141.477ZM284.31 141.734C282.004 141.937 280.304 141.822 279.141 141.461L278.548 143.371C280.072 143.844 282.073 143.939 284.485 143.727L284.31 141.734ZM279.147 141.462C278.63 141.298 278.3 141.068 278.087 140.808C277.877 140.551 277.726 140.198 277.682 139.691L275.689 139.866C275.762 140.698 276.031 141.454 276.54 142.076C277.047 142.695 277.738 143.114 278.542 143.369L279.147 141.462ZM277.682 139.691L276.241 123.306L274.249 123.481L275.689 139.866L277.682 139.691ZM275.332 124.39L288.752 123.21L288.577 121.218L275.157 122.398L275.332 124.39ZM287.669 122.301L287.952 125.521L289.944 125.346L289.661 122.126L287.669 122.301ZM288.86 124.437L278.915 125.312L279.09 127.304L289.036 126.43L288.86 124.437ZM278.006 126.396L278.46 131.56L280.453 131.384L279.999 126.22L278.006 126.396ZM279.544 132.468L288.278 131.7L288.103 129.708L279.369 130.476L279.544 132.468ZM287.195 130.792L287.464 133.852L289.456 133.677L289.187 130.616L287.195 130.792ZM288.372 132.768L279.638 133.536L279.813 135.528L288.547 134.76L288.372 132.768ZM278.729 134.62L279.172 139.656L281.165 139.481L280.722 134.445L278.729 134.62ZM280.091 140.566C281.444 140.671 282.848 140.658 284.301 140.53L284.125 138.538C282.773 138.657 281.48 138.668 280.246 138.572L280.091 140.566ZM284.301 140.53C286.466 140.34 288.391 139.962 290.065 139.383L289.412 137.493C287.926 138.006 286.168 138.359 284.125 138.538L284.301 140.53ZM288.777 138.716L289.655 141.754L291.576 141.2L290.699 138.161L288.777 138.716ZM290.251 140.546C288.822 141.105 286.855 141.511 284.31 141.734L284.485 143.727C287.126 143.494 289.304 143.064 290.98 142.408L290.251 140.546ZM296.036 139.298L295.362 140.037L295.373 140.046L296.036 139.298ZM294.686 124.318L295.536 124.846L294.686 124.318ZM304.634 120.906L304.486 121.895L304.494 121.896L304.503 121.897L304.634 120.906ZM307.462 121.653L308.458 121.565L308.408 120.998L307.895 120.752L307.462 121.653ZM307.615 124.852L306.617 124.787L306.616 124.806L306.615 124.825L307.615 124.852ZM307.451 126.28L307.539 127.276L308.257 127.213L308.424 126.512L307.451 126.28ZM304.774 126.515L303.797 126.73L303.986 127.588L304.861 127.511L304.774 126.515ZM304.239 124.089L305.216 123.874L305.068 123.203L304.389 123.1L304.239 124.089ZM297.397 124.819L297.097 123.865L296.626 124.013L296.457 124.477L297.397 124.819ZM298.378 136.715L297.669 137.42L297.677 137.428L297.685 137.436L298.378 136.715ZM305.84 137.183L305.499 136.243L305.494 136.245L305.84 137.183ZM308.138 135.921L308.973 135.37L308.355 134.433L307.495 135.155L308.138 135.921ZM309.843 138.501L310.529 139.229L311.141 138.652L310.677 137.95L309.843 138.501ZM306.976 140.231L307.333 141.165L306.976 140.231ZM302.884 140.101C300.082 140.347 298.077 139.771 296.699 138.549L295.373 140.046C297.292 141.747 299.912 142.37 303.06 142.093L302.884 140.101ZM296.709 138.559C295.332 137.304 294.437 135.269 294.173 132.266L292.18 132.441C292.469 135.729 293.48 138.323 295.362 140.037L296.709 138.559ZM294.173 132.266C293.897 129.136 294.389 126.693 295.536 124.846L293.837 123.791C292.395 126.112 291.88 129.025 292.18 132.441L294.173 132.266ZM295.536 124.846C296.634 123.078 298.402 122.04 301.019 121.81L300.844 119.818C297.723 120.092 295.328 121.391 293.837 123.791L295.536 124.846ZM301.019 121.81C302.244 121.702 303.399 121.732 304.486 121.895L304.782 119.917C303.525 119.729 302.211 119.698 300.844 119.818L301.019 121.81ZM304.503 121.897C305.614 122.044 306.443 122.273 307.029 122.554L307.895 120.752C307.05 120.345 305.993 120.076 304.764 119.915L304.503 121.897ZM306.466 121.741L306.606 123.335L308.598 123.159L308.458 121.565L306.466 121.741ZM306.606 123.335C306.646 123.789 306.65 124.273 306.617 124.787L308.613 124.917C308.652 124.311 308.648 123.725 308.598 123.159L306.606 123.335ZM306.615 124.825C306.601 125.338 306.552 125.741 306.479 126.048L308.424 126.512C308.539 126.031 308.598 125.482 308.614 124.879L306.615 124.825ZM307.364 125.284L304.686 125.519L304.861 127.511L307.539 127.276L307.364 125.284ZM305.75 126.3L305.216 123.874L303.262 124.304L303.797 126.73L305.75 126.3ZM304.389 123.1C303.473 122.961 302.312 122.965 300.938 123.086L301.114 125.078C302.418 124.964 303.399 124.972 304.089 125.077L304.389 123.1ZM300.938 123.086C299.671 123.197 298.39 123.458 297.097 123.865L297.697 125.773C298.862 125.406 300.001 125.176 301.114 125.078L300.938 123.086ZM296.457 124.477C295.671 126.638 295.423 129.136 295.67 131.942L297.662 131.766C297.434 129.174 297.674 126.982 298.336 125.161L296.457 124.477ZM295.67 131.942C295.879 134.316 296.481 136.225 297.669 137.42L299.088 136.01C298.396 135.314 297.857 133.983 297.662 131.766L295.67 131.942ZM297.685 137.436C298.942 138.643 300.777 139.017 302.933 138.828L302.758 136.836C300.876 137.001 299.734 136.63 299.072 135.994L297.685 137.436ZM302.933 138.828C304.095 138.726 305.182 138.492 306.187 138.121L305.494 136.245C304.673 136.548 303.763 136.747 302.758 136.836L302.933 138.828ZM306.181 138.123C307.197 137.754 308.073 137.281 308.781 136.687L307.495 135.155C307.007 135.565 306.351 135.933 305.499 136.243L306.181 138.123ZM307.304 136.472L309.009 139.052L310.677 137.95L308.973 135.37L307.304 136.472ZM309.157 137.774C308.518 138.377 307.68 138.89 306.618 139.297L307.333 141.165C308.591 140.683 309.665 140.043 310.529 139.229L309.157 137.774ZM306.618 139.297C305.561 139.702 304.32 139.975 302.884 140.101L303.06 142.093C304.642 141.954 306.07 141.649 307.333 141.165L306.618 139.297ZM317.083 122.991L318.079 122.904L317.992 121.908L316.996 121.995L317.083 122.991ZM310.772 123.546L309.775 123.634L309.863 124.63L310.859 124.543L310.772 123.546ZM310.486 120.295L310.398 119.299L309.402 119.386L309.49 120.383L310.486 120.295ZM326.615 118.877L327.612 118.789L327.524 117.793L326.528 117.88L326.615 118.877ZM326.901 122.128L326.989 123.124L327.985 123.037L327.898 122.041L326.901 122.128ZM320.59 122.683L320.502 121.687L319.506 121.775L319.594 122.771L320.59 122.683ZM322.036 139.132L322.124 140.128L323.12 140.04L323.032 139.044L322.036 139.132ZM318.53 139.44L317.533 139.528L317.621 140.524L318.617 140.436L318.53 139.44ZM316.996 121.995L310.684 122.55L310.859 124.543L317.171 123.988L316.996 121.995ZM311.768 123.459L311.482 120.207L309.49 120.383L309.775 123.634L311.768 123.459ZM310.573 121.291L326.703 119.873L326.528 117.88L310.398 119.299L310.573 121.291ZM325.619 118.964L325.905 122.216L327.898 122.041L327.612 118.789L325.619 118.964ZM326.814 121.132L320.502 121.687L320.677 123.679L326.989 123.124L326.814 121.132ZM319.594 122.771L321.04 139.219L323.032 139.044L321.586 122.596L319.594 122.771ZM321.948 138.135L318.442 138.444L318.617 140.436L322.124 140.128L321.948 138.135ZM319.526 139.352L318.079 122.904L316.087 123.079L317.533 139.528L319.526 139.352ZM227.368 154.708L227.281 153.712L226.285 153.799L226.372 154.796L227.368 154.708ZM230.875 154.4L231.871 154.312L231.783 153.316L230.787 153.404L230.875 154.4ZM232.607 174.1L232.695 175.096L233.691 175.008L233.603 174.012L232.607 174.1ZM229.101 174.408L228.104 174.496L228.192 175.492L229.188 175.404L229.101 174.408ZM227.456 155.704L230.962 155.396L230.787 153.404L227.281 153.712L227.456 155.704ZM229.879 154.487L231.611 174.187L233.603 174.012L231.871 154.312L229.879 154.487ZM232.52 173.103L229.013 173.412L229.188 175.404L232.695 175.096L232.52 173.103ZM230.097 174.32L228.365 154.62L226.372 154.796L228.104 174.496L230.097 174.32ZM235.491 153.994L235.403 152.998L234.407 153.085L234.495 154.081L235.491 153.994ZM238.997 153.685L239.994 153.598L239.906 152.602L238.91 152.689L238.997 153.685ZM240.444 170.134L239.448 170.222L239.535 171.218L240.531 171.13L240.444 170.134ZM249.146 169.369L250.142 169.281L250.055 168.285L249.059 168.373L249.146 169.369ZM249.432 172.62L249.52 173.616L250.516 173.529L250.428 172.533L249.432 172.62ZM237.223 173.694L236.227 173.781L236.315 174.777L237.311 174.69L237.223 173.694ZM235.579 154.99L239.085 154.682L238.91 152.689L235.403 152.998L235.579 154.99ZM238.001 153.773L239.448 170.222L241.44 170.046L239.994 153.598L238.001 153.773ZM240.531 171.13L249.234 170.365L249.059 168.373L240.356 169.138L240.531 171.13ZM248.15 169.456L248.436 172.708L250.428 172.533L250.142 169.281L248.15 169.456ZM249.345 171.624L237.136 172.698L237.311 174.69L249.52 173.616L249.345 171.624ZM238.219 173.606L236.487 153.906L234.495 154.081L236.227 173.781L238.219 173.606ZM264.548 171.13L264.098 172.023L264.114 172.031L264.13 172.039L264.548 171.13ZM263.352 169.951L262.479 170.438L262.486 170.45L262.493 170.462L263.352 169.951ZM260.721 165.235L259.841 165.711L259.848 165.722L260.721 165.235ZM259.364 163.684L258.83 164.529L258.852 164.543L258.875 164.556L259.364 163.684ZM255.079 163.547L254.992 162.55L253.996 162.638L254.083 163.634L255.079 163.547ZM255.828 172.058L255.915 173.054L256.912 172.966L256.824 171.97L255.828 172.058ZM252.321 172.366L251.325 172.454L251.413 173.45L252.409 173.362L252.321 172.366ZM250.589 152.666L250.501 151.67L249.505 151.758L249.593 152.754L250.589 152.666ZM254.095 152.358L255.092 152.27L255.004 151.274L254.008 151.362L254.095 152.358ZM254.799 160.359L253.803 160.447L253.89 161.443L254.887 161.355L254.799 160.359ZM258.93 159.482L258.305 158.701L258.297 158.708L258.289 158.714L258.93 159.482ZM260.007 157.845L260.955 158.164L260.957 158.157L260.959 158.15L260.007 157.845ZM262.048 151.466L262.293 150.496L261.382 150.265L261.095 151.161L262.048 151.466ZM265.531 152.348L266.477 152.671L266.827 151.645L265.776 151.379L265.531 152.348ZM263.564 158.111L264.505 158.448L264.508 158.441L264.51 158.434L263.564 158.111ZM262.518 160.098L263.284 160.74L262.518 160.098ZM260.698 161.318L260.307 160.398L259.638 160.682L259.702 161.406L260.698 161.318ZM260.715 161.509L259.718 161.597L259.783 162.334L260.507 162.487L260.715 161.509ZM262.483 162.253L261.84 163.019L261.852 163.029L261.864 163.039L262.483 162.253ZM263.773 163.778L264.616 163.24L264.611 163.233L264.607 163.226L263.773 163.778ZM266.939 168.736L266.097 169.274L266.358 169.684L266.842 169.731L266.939 168.736ZM268.495 168.888L269.491 168.8L269.418 167.974L268.592 167.893L268.495 168.888ZM268.669 170.864L269.008 171.805L269.732 171.544L269.665 170.777L268.669 170.864ZM266.247 170.363C265.631 170.417 265.226 170.341 264.966 170.222L264.13 172.039C264.808 172.351 265.593 172.428 266.423 172.355L266.247 170.363ZM264.998 170.237C264.731 170.103 264.462 169.86 264.212 169.44L262.493 170.462C262.896 171.14 263.424 171.684 264.098 172.023L264.998 170.237ZM264.225 169.463L261.594 164.748L259.848 165.722L262.479 170.438L264.225 169.463ZM261.6 164.759C261.144 163.916 260.578 163.218 259.853 162.811L258.875 164.556C259.141 164.705 259.479 165.041 259.841 165.711L261.6 164.759ZM259.898 162.838C259.149 162.365 258.18 162.27 257.159 162.36L257.335 164.352C258.184 164.277 258.626 164.401 258.83 164.529L259.898 162.838ZM257.159 162.36L254.992 162.55L255.167 164.543L257.335 164.352L257.159 162.36ZM254.083 163.634L254.832 172.145L256.824 171.97L256.076 163.459L254.083 163.634ZM255.74 171.062L252.234 171.37L252.409 173.362L255.915 173.054L255.74 171.062ZM253.317 172.279L251.585 152.579L249.593 152.754L251.325 172.454L253.317 172.279ZM250.677 153.662L254.183 153.354L254.008 151.362L250.501 151.67L250.677 153.662ZM253.099 152.445L253.803 160.447L255.795 160.271L255.092 152.27L253.099 152.445ZM254.887 161.355L256.863 161.181L256.688 159.189L254.711 159.363L254.887 161.355ZM256.863 161.181C257.925 161.088 258.884 160.823 259.571 160.249L258.289 158.714C258.059 158.906 257.581 159.11 256.688 159.189L256.863 161.181ZM259.556 160.262C260.214 159.734 260.669 159.013 260.955 158.164L259.059 157.526C258.869 158.089 258.607 158.459 258.305 158.701L259.556 160.262ZM260.959 158.15L263 151.77L261.095 151.161L259.054 157.54L260.959 158.15ZM261.802 152.435L265.285 153.317L265.776 151.379L262.293 150.496L261.802 152.435ZM264.584 152.025L262.617 157.788L264.51 158.434L266.477 152.671L264.584 152.025ZM262.623 157.773C262.334 158.576 262.035 159.118 261.752 159.455L263.284 160.74C263.776 160.153 264.174 159.37 264.505 158.448L262.623 157.773ZM261.752 159.455C261.503 159.752 261.052 160.081 260.307 160.398L261.089 162.238C261.995 161.853 262.758 161.368 263.284 160.74L261.752 159.455ZM259.702 161.406L259.718 161.597L261.711 161.422L261.694 161.23L259.702 161.406ZM260.507 162.487C261.215 162.637 261.624 162.838 261.84 163.019L263.125 161.487C262.555 161.009 261.786 160.714 260.922 160.531L260.507 162.487ZM261.864 163.039C262.133 163.251 262.494 163.657 262.939 164.33L264.607 163.226C264.114 162.482 263.615 161.872 263.101 161.468L261.864 163.039ZM262.93 164.316L266.097 169.274L267.782 168.197L264.616 163.24L262.93 164.316ZM266.842 169.731L268.397 169.883L268.592 167.893L267.037 167.74L266.842 169.731ZM267.499 168.976L267.672 170.952L269.665 170.777L269.491 168.8L267.499 168.976ZM268.329 169.924C267.715 170.146 267.023 170.294 266.247 170.363L266.423 172.355C267.347 172.274 268.211 172.093 269.008 171.805L268.329 169.924ZM272.394 168.385L271.684 169.09L271.694 169.099L272.394 168.385ZM271.152 153.171L271.972 153.744L271.975 153.739L271.152 153.171ZM285.388 167.113L284.57 166.539L284.569 166.54L285.388 167.113ZM282.7 166.129L283.158 167.018L283.517 166.833L283.647 166.45L282.7 166.129ZM282.602 155.89L283.527 155.51L283.527 155.51L282.602 155.89ZM280.743 153.741L280.263 154.618L280.274 154.624L280.743 153.741ZM273.745 154.164L273.287 153.275L272.928 153.46L272.798 153.842L273.745 154.164ZM273.941 164.426L273.014 164.801L273.019 164.813L273.024 164.824L273.941 164.426ZM275.8 166.575L275.321 167.453L275.335 167.46L275.349 167.467L275.8 166.575ZM278.738 169.296C276.202 169.519 274.377 168.926 273.093 167.67L271.694 169.099C273.504 170.87 275.966 171.548 278.913 171.289L278.738 169.296ZM273.103 167.68C271.805 166.373 270.947 164.265 270.676 161.179L268.684 161.355C268.977 164.687 269.929 167.323 271.685 169.09L273.103 167.68ZM270.676 161.179C270.373 157.737 270.872 155.316 271.972 153.744L270.333 152.597C268.846 154.723 268.362 157.699 268.684 161.355L270.676 161.179ZM271.975 153.739C273.042 152.195 274.902 151.211 277.8 150.956L277.625 148.964C274.36 149.251 271.846 150.408 270.33 152.602L271.975 153.739ZM277.8 150.956C280.373 150.73 282.202 151.324 283.465 152.57C284.757 153.844 285.62 155.958 285.896 159.102L287.889 158.927C287.592 155.547 286.637 152.89 284.869 151.146C283.072 149.373 280.598 148.702 277.625 148.964L277.8 150.956ZM285.896 159.102C286.197 162.518 285.691 164.942 284.57 166.539L286.207 167.688C287.712 165.542 288.209 162.567 287.889 158.927L285.896 159.102ZM284.569 166.54C283.501 168.065 281.64 169.041 278.738 169.296L278.913 171.289C282.174 171.002 284.688 169.858 286.208 167.687L284.569 166.54ZM279.172 168.021C280.752 167.882 282.099 167.564 283.158 167.018L282.241 165.24C281.498 165.624 280.434 165.903 278.997 166.029L279.172 168.021ZM283.647 166.45C284.373 164.306 284.632 162.079 284.43 159.777L282.438 159.952C282.616 161.986 282.387 163.935 281.753 165.808L283.647 166.45ZM284.43 159.777C284.28 158.068 283.989 156.632 283.527 155.51L281.678 156.271C282.033 157.133 282.296 158.346 282.438 159.952L284.43 159.777ZM283.527 155.51C283.043 154.334 282.277 153.423 281.212 152.857L280.274 154.624C280.871 154.941 281.345 155.463 281.678 156.271L283.527 155.51ZM281.223 152.863C280.173 152.29 278.854 152.132 277.369 152.263L277.544 154.255C278.821 154.143 279.693 154.307 280.263 154.618L281.223 152.863ZM277.369 152.263C275.731 152.407 274.35 152.727 273.287 153.275L274.203 155.052C274.943 154.671 276.036 154.388 277.544 154.255L277.369 152.263ZM272.798 153.842C272.117 155.85 271.897 158.078 272.111 160.507L274.103 160.332C273.909 158.128 274.115 156.185 274.692 154.485L272.798 153.842ZM272.111 160.507C272.261 162.218 272.552 163.661 273.014 164.801L274.868 164.05C274.509 163.164 274.244 161.937 274.103 160.332L272.111 160.507ZM273.024 164.824C273.526 165.982 274.284 166.886 275.321 167.453L276.28 165.698C275.697 165.379 275.215 164.85 274.858 164.028L273.024 164.824ZM275.349 167.467C276.405 168.002 277.708 168.15 279.172 168.021L278.997 166.029C277.741 166.14 276.854 165.988 276.252 165.683L275.349 167.467ZM290.386 149.167L290.298 148.171L289.34 148.255L289.387 149.216L290.386 149.167ZM294.817 148.777L295.721 148.349L295.423 147.72L294.729 147.781L294.817 148.777ZM299.749 159.201L298.845 159.629L299.143 160.258L299.836 160.197L299.749 159.201ZM299.972 159.181L300.059 160.178L300.751 160.117L300.936 159.447L299.972 159.181ZM303.041 148.054L302.953 147.058L302.261 147.119L302.077 147.788L303.041 148.054ZM307.44 147.667L308.432 147.541L308.311 146.587L307.352 146.671L307.44 147.667ZM309.937 167.3L310.025 168.296L311.06 168.205L310.929 167.174L309.937 167.3ZM306.399 167.611L305.406 167.734L305.525 168.692L306.486 168.607L306.399 167.611ZM305.176 157.728L304.18 157.809L304.181 157.83L304.184 157.851L305.176 157.728ZM304.771 152.752L305.768 152.671L305.704 151.888L304.928 151.765L304.771 152.752ZM304.51 152.711L304.667 151.723L303.805 151.587L303.553 152.422L304.51 152.711ZM301.526 162.61L301.614 163.607L302.288 163.547L302.484 162.899L301.526 162.61ZM298.817 162.849L297.924 163.3L298.23 163.904L298.904 163.845L298.817 162.849ZM294.15 153.622L295.043 153.171L294.649 152.392L293.824 152.677L294.15 153.622ZM293.901 153.708L293.574 152.763L292.827 153.021L292.906 153.809L293.901 153.708ZM294.402 158.675L295.401 158.626L295.4 158.601L295.397 158.575L294.402 158.675ZM294.891 168.623L294.979 169.619L295.937 169.535L295.89 168.574L294.891 168.623ZM291.353 168.934L290.354 168.983L290.405 170.021L291.441 169.93L291.353 168.934ZM290.473 150.163L294.904 149.773L294.729 147.781L290.298 148.171L290.473 150.163ZM293.913 149.205L298.845 159.629L300.653 158.773L295.721 148.349L293.913 149.205ZM299.836 160.197L300.059 160.178L299.884 158.185L299.661 158.205L299.836 160.197ZM300.936 159.447L304.005 148.32L302.077 147.788L299.008 158.916L300.936 159.447ZM303.128 149.05L307.527 148.663L307.352 146.671L302.953 147.058L303.128 149.05ZM306.448 147.793L308.945 167.426L310.929 167.174L308.432 147.541L306.448 147.793ZM309.85 166.304L306.311 166.615L306.486 168.607L310.025 168.296L309.85 166.304ZM307.391 167.488L306.169 157.605L304.184 157.851L305.406 167.734L307.391 167.488ZM306.173 157.647L305.768 152.671L303.774 152.834L304.18 157.809L306.173 157.647ZM304.928 151.765L304.667 151.723L304.354 153.699L304.614 153.74L304.928 151.765ZM303.553 152.422L300.569 162.322L302.484 162.899L305.468 153L303.553 152.422ZM301.439 161.614L298.729 161.853L298.904 163.845L301.614 163.607L301.439 161.614ZM299.709 162.397L295.043 153.171L293.258 154.073L297.924 163.3L299.709 162.397ZM293.824 152.677L293.574 152.763L294.228 154.653L294.477 154.567L293.824 152.677ZM292.906 153.809L293.407 158.776L295.397 158.575L294.896 153.608L292.906 153.809ZM293.403 158.725L293.892 168.672L295.89 168.574L295.401 158.626L293.403 158.725ZM294.804 167.627L291.265 167.938L291.441 169.93L294.979 169.619L294.804 167.627ZM292.352 168.885L291.384 149.118L289.387 149.216L290.354 168.983L292.352 168.885Z" fill="#797E85" mask="url(#path-137-outside-1_707_430)"/>
</g>
<defs>
<filter id="filter0_d_707_430" x="0.1" y="0.1" width="448.059" height="367.836" filterUnits="userSpaceOnUse" color-interpolation-filters="sRGB">
<feFlood flood-opacity="0" result="BackgroundImageFix"/>
<feColorMatrix in="SourceAlpha" type="matrix" values="0 0 0 0 0 0 0 0 0 0 0 0 0 0 0 0 0 0 127 0" result="hardAlpha"/>
<feOffset dx="2" dy="6"/>
<feGaussianBlur stdDeviation="4.45"/>
<feComposite in2="hardAlpha" operator="out"/>
<feColorMatrix type="matrix" values="0 0 0 0 0.168627 0 0 0 0 0.258824 0 0 0 0 0.282353 0 0 0 0.64 0"/>
<feBlend mode="normal" in2="BackgroundImageFix" result="effect1_dropShadow_707_430"/>
<feBlend mode="normal" in="SourceGraphic" in2="effect1_dropShadow_707_430" result="shape"/>
</filter>
</defs>
</svg>
