<svg width="406" height="390" viewBox="0 0 406 390" fill="none" xmlns="http://www.w3.org/2000/svg">
<g filter="url(#filter0_d_604_475)">
<path d="M290.021 91.0163L7.66211 168.303L64.2484 375.036L346.607 297.749L290.021 91.0163Z" fill="#A2B2D6"/>
<path d="M291.87 83.3915L9.51123 160.678L66.0976 367.411L348.456 290.125L291.87 83.3915Z" fill="#F5F5F5"/>
<path d="M266.336 110.014L167.767 136.994L169.294 142.573L267.864 115.593L266.336 110.014Z" fill="#949AAA"/>
<path d="M269.869 122.925L186.162 145.837L186.921 148.61L270.628 125.697L269.869 122.925Z" fill="#949AAA"/>
<path d="M272.056 130.911L173.485 157.891L174.244 160.664L272.815 133.684L272.056 130.911Z" fill="#949AAA"/>
<path d="M274.243 138.898L175.672 165.878L176.431 168.651L275.002 141.671L274.243 138.898Z" fill="#949AAA"/>
<path d="M276.428 146.885L177.858 173.865L178.617 176.638L277.187 149.658L276.428 146.885Z" fill="#949AAA"/>
<path d="M278.615 154.872L180.045 181.852L180.804 184.625L279.374 157.644L278.615 154.872Z" fill="#949AAA"/>
<path d="M280.913 163.268L182.343 190.249L183.102 193.022L281.672 166.042L280.913 163.268Z" fill="#949AAA"/>
<path d="M283.099 171.257L184.529 198.237L185.288 201.01L283.857 174.029L283.099 171.257Z" fill="#949AAA"/>
<path d="M259.961 186.174L186.715 206.223L187.474 208.996L260.72 188.947L259.961 186.174Z" fill="#949AAA"/>
<path d="M103.711 316.603L96.4624 318.587L98.4467 325.836L105.695 323.852L103.711 316.603Z" fill="#5CA6B3"/>
<path d="M127.191 312.578L110.775 317.071L111.534 319.844L127.95 315.351L127.191 312.578Z" fill="#949AAA"/>
<path d="M106.95 328.327L99.7017 330.311L101.686 337.561L108.934 335.577L106.95 328.327Z" fill="#2B4248"/>
<path d="M151.415 318.57L113.988 328.814L114.747 331.587L152.174 321.342L151.415 318.57Z" fill="#949AAA"/>
<path d="M143.714 297.172L128.131 301.437L128.89 304.21L144.473 299.944L143.714 297.172Z" fill="#5A5A7A"/>
<path d="M72.499 258.827L70.0396 259.5L82.9729 306.733L85.4324 306.06L72.499 258.827Z" fill="#54BAE2"/>
<path d="M80.205 277.347L77.7441 278.021L85.4233 306.065L87.8841 305.391L80.205 277.347Z" fill="#F44D3B"/>
<path d="M83.3666 263.78L80.9053 264.454L91.8136 304.306L94.2749 303.632L83.3666 263.78Z" fill="#54BAE2"/>
<path d="M87.4636 269.015L85.0044 269.688L94.2895 303.639L96.7488 302.967L87.4636 269.015Z" fill="#F44D3B"/>
<path d="M97.0812 279.069L94.6206 279.742L100.674 301.884L103.135 301.212L97.0812 279.069Z" fill="#54BAE2"/>
<path d="M98.2238 273.602L95.7632 274.277L103.141 301.196L105.601 300.522L98.2238 273.602Z" fill="#F44D3B"/>
<path d="M103.375 267.308L100.916 267.982L109.53 299.455L111.99 298.781L103.375 267.308Z" fill="#54BAE2"/>
<path d="M112.116 289.574L109.656 290.247L111.992 298.78L114.451 298.107L112.116 289.574Z" fill="#F44D3B"/>
<path d="M109.387 254.547L106.928 255.22L118.375 297.04L120.834 296.367L109.387 254.547Z" fill="#54BAE2"/>
<path d="M110.513 248.953L108.053 249.627L120.851 296.367L123.311 295.693L110.513 248.953Z" fill="#F44D3B"/>
<path d="M122.955 269.335L120.495 270.008L127.226 294.608L129.686 293.935L122.955 269.335Z" fill="#54BAE2"/>
<path d="M120.197 249.475L117.737 250.147L129.714 293.941L132.173 293.268L120.197 249.475Z" fill="#F44D3B"/>
<path d="M130.094 260.517L127.633 261.191L136.124 292.188L138.584 291.514L130.094 260.517Z" fill="#54BAE2"/>
<path d="M133.111 261.967L130.651 262.641L138.565 291.531L141.025 290.857L133.111 261.967Z" fill="#F44D3B"/>
<path d="M142.297 270.408L139.836 271.082L144.949 289.762L147.41 289.089L142.297 270.408Z" fill="#54BAE2"/>
<path d="M146.082 274.478L143.621 275.151L147.437 289.097L149.897 288.424L146.082 274.478Z" fill="#F44D3B"/>
<path d="M153.439 276.345L150.979 277.018L153.809 287.351L156.268 286.677L153.439 276.345Z" fill="#75CF33"/>
<path d="M149.455 252.043L146.995 252.717L156.294 286.665L158.754 285.992L149.455 252.043Z" fill="#F2274D"/>
<path d="M154.891 246.855L152.432 247.529L162.67 284.921L165.13 284.248L154.891 246.855Z" fill="#75CF33"/>
<path d="M154.132 234.375L151.672 235.048L165.129 284.253L167.589 283.58L154.132 234.375Z" fill="#F2274D"/>
<path d="M167.668 258.696L165.208 259.37L171.543 282.494L174.002 281.82L167.668 258.696Z" fill="#75CF33"/>
<path d="M171.101 261.588L168.641 262.262L173.99 281.803L176.45 281.13L171.101 261.588Z" fill="#F2274D"/>
<path d="M179.059 265.623L176.599 266.296L180.37 280.072L182.829 279.399L179.059 265.623Z" fill="#75CF33"/>
<path d="M183.178 270.907L180.717 271.58L182.858 279.405L185.319 278.731L183.178 270.907Z" fill="#F2274D"/>
<path d="M73.3909 215.448L66.1431 217.432L68.1272 224.681L75.3751 222.697L73.3909 215.448Z" fill="#317AB0"/>
<path d="M127.157 203.138L80.4434 215.924L81.2023 218.697L127.916 205.911L127.157 203.138Z" fill="#949AAA"/>
<path d="M76.6121 227.185L69.3638 229.169L71.3478 236.418L78.5961 234.434L76.6121 227.185Z" fill="#F2274D"/>
<path d="M100.075 223.173L83.6572 227.666L84.4162 230.439L100.834 225.945L100.075 223.173Z" fill="#949AAA"/>
<path d="M79.8153 238.935L72.5674 240.919L74.5514 248.168L81.7992 246.184L79.8153 238.935Z" fill="#FFD121"/>
<path d="M124.298 229.165L86.8706 239.409L87.6296 242.182L125.057 231.937L124.298 229.165Z" fill="#949AAA"/>
<path d="M115.499 194.067L99.9165 198.332L100.675 201.105L116.258 196.84L115.499 194.067Z" fill="#949AAA"/>
<path d="M80.4263 190.404L91.4356 176.738L107.108 183.101L127.039 148.144L149.174 169.127L81.6042 191.721L80.4263 190.404Z" fill="#F2274D"/>
<path d="M154.782 162.675L144.791 153.118L120.613 169.57L102.533 165.694L91.2805 188.343L68.4278 185.494L62.4116 199.434L155.969 173.003L154.782 162.675Z" fill="#FFD121"/>
<path d="M51.7036 206.052L60.6682 190.077L69.962 194.088L78.6835 181.048L92.4143 186.303L113.002 163.357L131.662 167.769L154.982 154.425L160.93 176.152L51.7036 206.052Z" fill="#317AB0"/>
<path d="M225.082 283.376L217.833 285.36L219.818 292.609L227.066 290.625L225.082 283.376Z" fill="#6B2D6E"/>
<path d="M278.848 271.067L232.136 283.853L232.895 286.626L279.607 273.84L278.848 271.067Z" fill="#949AAA"/>
<path d="M228.298 295.116L221.049 297.101L223.033 304.349L230.282 302.365L228.298 295.116Z" fill="#F2274D"/>
<path d="M251.765 291.107L235.347 295.601L236.106 298.374L252.523 293.88L251.765 291.107Z" fill="#949AAA"/>
<path d="M261.944 263.436L246.362 267.701L247.121 270.474L262.703 266.209L261.944 263.436Z" fill="#949AAA"/>
<path d="M293.706 232.784C293.975 233.767 293.397 234.781 292.416 235.05C291.433 235.319 290.418 234.741 290.148 233.758C289.88 232.775 290.459 231.76 291.442 231.492C292.423 231.223 293.438 231.801 293.706 232.784Z" fill="#F2274D"/>
<path d="M274.897 225.891C275.166 226.873 274.586 227.888 273.605 228.156C272.624 228.425 271.607 227.847 271.338 226.865C271.069 225.883 271.65 224.867 272.632 224.598C273.613 224.33 274.628 224.909 274.897 225.891Z" fill="#F2274D"/>
<path d="M257.081 242.403C257.35 243.386 256.771 244.401 255.789 244.669C254.807 244.938 253.792 244.359 253.523 243.377C253.255 242.395 253.832 241.379 254.815 241.111C255.798 240.842 256.812 241.421 257.081 242.403Z" fill="#F2274D"/>
<path d="M241.937 240.731C242.206 241.714 241.628 242.727 240.644 242.996C239.663 243.265 238.647 242.687 238.378 241.705C238.109 240.723 238.689 239.707 239.67 239.438C240.653 239.17 241.668 239.749 241.937 240.731Z" fill="#F2274D"/>
<path d="M237.448 254.072C237.716 255.055 237.138 256.069 236.155 256.338C235.174 256.607 234.158 256.028 233.889 255.046C233.62 254.063 234.2 253.05 235.182 252.781C236.164 252.512 237.179 253.09 237.448 254.072Z" fill="#F2274D"/>
<path d="M215.988 254.847C216.256 255.83 215.677 256.844 214.695 257.113C213.713 257.382 212.698 256.804 212.429 255.821C212.16 254.839 212.739 253.824 213.721 253.556C214.703 253.287 215.719 253.865 215.988 254.847Z" fill="#F2274D"/>
<path d="M203.768 267.453C204.037 268.435 203.458 269.449 202.475 269.718C201.493 269.986 200.478 269.409 200.209 268.427C199.94 267.444 200.519 266.43 201.501 266.161C202.484 265.892 203.499 266.47 203.768 267.453Z" fill="#6B2D6E"/>
<path d="M211.282 231.141C211.551 232.124 210.971 233.138 209.989 233.407C209.007 233.676 207.991 233.098 207.722 232.115C207.454 231.133 208.032 230.118 209.014 229.849C209.998 229.58 211.013 230.159 211.282 231.141Z" fill="#6B2D6E"/>
<path d="M231.491 243.591C231.76 244.574 231.182 245.587 230.201 245.855C229.217 246.125 228.203 245.547 227.934 244.564C227.665 243.582 228.243 242.567 229.227 242.298C230.209 242.029 231.221 242.608 231.491 243.591Z" fill="#6B2D6E"/>
<path d="M243.23 222.272C243.5 223.255 242.921 224.269 241.94 224.538C240.955 224.807 239.941 224.229 239.673 223.246C239.404 222.264 239.982 221.25 240.967 220.98C241.948 220.711 242.962 221.29 243.23 222.272Z" fill="#6B2D6E"/>
<path d="M257.32 231.231C257.589 232.214 257.009 233.229 256.026 233.498C255.045 233.766 254.03 233.187 253.761 232.205C253.492 231.224 254.072 230.208 255.052 229.939C256.035 229.671 257.051 230.249 257.32 231.231Z" fill="#6B2D6E"/>
<path d="M265.863 208.795C266.133 209.778 265.553 210.792 264.572 211.061C263.59 211.329 262.574 210.752 262.305 209.769C262.035 208.787 262.615 207.772 263.598 207.503C264.578 207.235 265.594 207.813 265.863 208.795Z" fill="#6B2D6E"/>
<path d="M282.06 215.346C282.329 216.328 281.748 217.343 280.768 217.612C279.785 217.881 278.77 217.303 278.5 216.32C278.232 215.338 278.812 214.322 279.794 214.053C280.775 213.785 281.79 214.364 282.06 215.346Z" fill="#6B2D6E"/>
<path d="M293.333 208.681C293.602 209.663 293.023 210.678 292.04 210.946C291.059 211.215 290.043 210.637 289.775 209.655C289.505 208.672 290.085 207.657 291.067 207.388C292.049 207.119 293.064 207.698 293.333 208.681Z" fill="#6B2D6E"/>
<path d="M202.42 268.416L201.218 268.157L209.239 230.738L229.401 243.245L241.463 222.088L255.274 230.955L263.08 208.54L280.539 215.44L291.163 208.799L291.815 209.842L280.665 216.812L263.819 210.155L255.922 232.832L241.891 223.824L229.838 244.964L210.075 232.704L202.42 268.416Z" fill="#6B2D6E"/>
<path d="M205.651 272.975C205.921 273.957 205.343 274.971 204.361 275.24C203.379 275.509 202.363 274.931 202.094 273.948C201.825 272.966 202.404 271.951 203.387 271.681C204.368 271.413 205.382 271.993 205.651 272.975Z" fill="#F2274D"/>
<path d="M203.976 274.521L202.909 273.912L213.51 254.716L235.374 253.985L239.887 240.494L254.753 242.884L272.922 225.116L291.96 232.907L291.494 234.046L273.203 226.56L255.171 244.197L240.701 241.87L236.251 255.184L214.239 255.921L203.976 274.521Z" fill="#F2274D"/>
<path d="M389.824 67.3896L186.696 35.6302L176.968 92.0743L176.93 92.2938L140.093 306.492L350.871 343.361L394.248 68.2745L389.824 67.3896Z" fill="#A2B2D6"/>
<path d="M195.028 33.1851L148.438 303.593L346.421 337.705L393.012 67.2973L195.028 33.1851Z" fill="#F1F2F2"/>
<path d="M190.17 61.3927L185.266 89.8569L383.249 123.969L388.153 95.5048L190.17 61.3927Z" fill="#5A5A7A"/>
<path d="M239.303 50.5442L237.79 59.3276L359.973 80.3796L361.486 71.5962L239.303 50.5442Z" fill="#5A5A7A"/>
<path d="M233.608 86.8001L232.756 91.7473L353.864 112.614L354.716 107.667L233.608 86.8001Z" fill="white"/>
<path d="M220.562 74.8261L219.709 79.7738L370.167 105.697L371.019 100.75L220.562 74.8261Z" fill="white"/>
<path d="M152.07 282.493L151.432 286.199L349.414 320.311L350.053 316.605L152.07 282.493Z" fill="#5A5A7A"/>
<path d="M249.098 166.792L249.912 205.85C257.081 205.445 263.91 203.324 269.913 199.837L249.098 166.792Z" fill="#6B2D6E"/>
<path d="M250.685 163.158L272.689 198.088C281.982 191.748 288.899 181.954 291.368 170.169L250.685 163.158Z" fill="#FFD121"/>
<path d="M291.926 166.935C295.093 143.587 279.65 121.712 256.588 116.88L249.229 159.577L291.926 166.935Z" fill="#75CF33"/>
<path d="M245.761 164.192L212.678 189.617C219.287 197.604 228.673 203.361 239.69 205.26C242.02 205.661 244.338 205.874 246.63 205.913L245.761 164.192Z" fill="#F2274D"/>
<path d="M202.988 153.272C201.479 162.028 202.61 170.628 205.806 178.258L207.182 181.237C208.203 183.249 209.373 185.181 210.678 187.015L245.724 160.595L245.863 159.786L248.878 142.3L253.354 116.323C229.466 113.082 207.115 129.322 202.988 153.272Z" fill="#317AB0"/>
<path d="M202.477 212.95L192.843 268.832L202.647 270.522L212.281 214.641L202.477 212.95Z" fill="#2E97CC"/>
<path d="M214.258 234.489L207.892 271.417L217.695 273.107L224.062 236.179L214.258 234.489Z" fill="#BCD81A"/>
<path d="M227.436 247.51L222.868 274.008L232.671 275.698L237.239 249.2L227.436 247.51Z" fill="#FFC022"/>
<path d="M240.973 258.115L237.79 276.579L247.594 278.27L250.777 259.806L240.973 258.115Z" fill="#8A379B"/>
<path d="M258.127 247.847L252.735 279.137L262.54 280.826L267.931 249.536L258.127 247.847Z" fill="#F44D3B"/>
<path d="M307.973 146.537L306.866 152.957L313.286 154.063L314.393 147.644L307.973 146.537Z" fill="#317AB0"/>
<path d="M319.729 150.598L319.306 153.054L360.678 160.182L361.101 157.726L319.729 150.598Z" fill="#949AAA"/>
<path d="M306.165 156.933L305.059 163.352L311.479 164.459L312.585 158.039L306.165 156.933Z" fill="#75CF33"/>
<path d="M317.943 161L317.52 163.456L332.06 165.961L332.483 163.505L317.943 161Z" fill="#949AAA"/>
<path d="M304.388 167.336L303.282 173.756L309.701 174.863L310.808 168.443L304.388 167.336Z" fill="#FFD121"/>
<path d="M316.143 171.392L315.72 173.848L348.867 179.56L349.29 177.104L316.143 171.392Z" fill="#949AAA"/>
<path d="M302.575 177.726L301.469 184.146L307.889 185.252L308.995 178.832L302.575 177.726Z" fill="#6B2D6E"/>
<path d="M314.386 181.811L313.962 184.266L338.685 188.528L339.108 186.073L314.386 181.811Z" fill="#949AAA"/>
<path d="M300.758 188.354L299.651 194.774L306.071 195.88L307.178 189.461L300.758 188.354Z" fill="#F2274D"/>
<path d="M312.52 192.416L312.097 194.872L349.601 201.334L350.024 198.878L312.52 192.416Z" fill="#949AAA"/>
<path d="M191.701 130.06C191.406 131.765 189.785 132.909 188.079 132.615C186.374 132.321 185.23 130.701 185.524 128.995C185.818 127.29 187.439 126.146 189.145 126.44C190.849 126.734 191.994 128.354 191.701 130.06Z" fill="#231F20"/>
<path d="M177.713 211.214C177.419 212.919 175.797 214.064 174.092 213.77C172.388 213.476 171.242 211.855 171.537 210.15C171.831 208.444 173.452 207.301 175.157 207.594C176.862 207.888 178.007 209.509 177.713 211.214Z" fill="#231F20"/>
<path d="M287.231 227.554L286.379 232.494L346.465 242.853L347.317 237.913L287.231 227.554Z" fill="#5A5A7A"/>
<path d="M294.289 240.526L293.866 242.982L344.892 251.774L345.315 249.318L294.289 240.526Z" fill="#949AAA"/>
<path d="M284.011 246.037L283.588 248.494L343.674 258.847L344.097 256.39L284.011 246.037Z" fill="#949AAA"/>
<path d="M282.794 253.114L282.371 255.569L342.456 265.922L342.879 263.466L282.794 253.114Z" fill="#949AAA"/>
<path d="M281.605 260.208L281.181 262.664L341.267 273.023L341.69 270.567L281.605 260.208Z" fill="#949AAA"/>
<path d="M280.355 267.26L279.932 269.715L340.018 280.068L340.441 277.612L280.355 267.26Z" fill="#949AAA"/>
<path d="M279.168 274.359L278.744 276.815L323.392 284.512L323.815 282.056L279.168 274.359Z" fill="#949AAA"/>
<path d="M231.432 211.853L231.009 214.309L244.81 216.686L245.233 214.23L231.432 211.853Z" fill="#949AAA"/>
<path d="M219.781 279.474L219.358 281.93L233.159 284.308L233.582 281.852L219.781 279.474Z" fill="#5A5A7A"/>
<path d="M40.718 4.3374L15.1934 226.645L325.185 255L338.756 31.5677L40.718 4.3374Z" fill="#A2B2D6"/>
<path d="M39.9836 3.34438L20.7939 221.822L319.194 248.031L338.383 29.5539L39.9836 3.34438Z" fill="#F7F7F7"/>
<path d="M200.244 36.8725L199.726 42.7687L303.896 51.9183L304.414 46.0221L200.244 36.8725Z" fill="#5A5A7A"/>
<path d="M214.752 51.8937L214.495 54.824L302.958 62.594L303.216 59.6638L214.752 51.8937Z" fill="#949AAA"/>
<path d="M198.305 58.9552L198.048 61.886L302.217 71.0356L302.475 68.1048L198.305 58.9552Z" fill="#949AAA"/>
<path d="M197.565 67.3961L197.307 70.3264L301.476 79.476L301.734 76.5457L197.565 67.3961Z" fill="#949AAA"/>
<path d="M196.824 75.8362L196.566 78.767L300.736 87.9166L300.993 84.9858L196.824 75.8362Z" fill="#949AAA"/>
<path d="M196.083 84.2766L195.825 87.2069L299.994 96.3565L300.252 93.4262L196.083 84.2766Z" fill="#949AAA"/>
<path d="M195.304 93.1498L195.046 96.0811L299.216 105.231L299.473 102.299L195.304 93.1498Z" fill="#949AAA"/>
<path d="M194.563 101.591L194.305 104.521L298.474 113.671L298.731 110.741L194.563 101.591Z" fill="#949AAA"/>
<path d="M193.821 110.032L193.564 112.962L270.97 119.761L271.228 116.831L193.821 110.032Z" fill="#949AAA"/>
<path d="M67.3032 185.775L66.6304 193.435L74.2897 194.107L74.9625 186.447L67.3032 185.775Z" fill="#75CF33"/>
<path d="M81.5597 189.4L81.3022 192.331L98.6516 193.855L98.9091 190.924L81.5597 189.4Z" fill="#949AAA"/>
<path d="M66.2095 198.171L65.5366 205.833L73.196 206.505L73.8689 198.844L66.2095 198.171Z" fill="#F2274D"/>
<path d="M80.4708 201.812L80.2134 204.742L119.767 208.216L120.025 205.286L80.4708 201.812Z" fill="#949AAA"/>
<path d="M103.777 180.569L103.52 183.5L119.988 184.946L120.245 182.016L103.777 180.569Z" fill="#5A5A7A"/>
<path d="M62.9297 119.679L58.5454 169.594L61.1448 169.823L65.529 119.907L62.9297 119.679Z" fill="#BCD81A"/>
<path d="M63.7487 140.188L61.1455 169.825L63.7458 170.053L66.349 140.416L63.7487 140.188Z" fill="#F95130"/>
<path d="M71.6024 128.29L67.8989 170.407L70.5002 170.635L74.2037 128.519L71.6024 128.29Z" fill="#BCD81A"/>
<path d="M73.6563 134.76L70.5015 170.637L73.1008 170.866L76.2556 134.989L73.6563 134.76Z" fill="#F95130"/>
<path d="M79.3154 147.835L77.2603 171.233L79.8596 171.462L81.9147 148.064L79.3154 147.835Z" fill="#BCD81A"/>
<path d="M82.3535 143.007L79.8574 171.459L82.4587 171.687L84.9548 143.236L82.3535 143.007Z" fill="#F95130"/>
<path d="M89.5397 138.808L86.625 172.069L89.2248 172.297L92.1396 139.036L89.5397 138.808Z" fill="#BCD81A"/>
<path d="M90.0133 163.274L89.2222 172.291L91.8205 172.519L92.6116 163.501L90.0133 163.274Z" fill="#F95130"/>
<path d="M99.8623 128.693L95.9849 172.889L98.5842 173.117L102.462 128.921L99.8623 128.693Z" fill="#BCD81A"/>
<path d="M102.917 123.712L98.5786 173.108L101.178 173.336L105.517 123.941L102.917 123.712Z" fill="#F95130"/>
<path d="M107.616 147.72L105.325 173.714L107.924 173.943L110.216 147.949L107.616 147.72Z" fill="#BCD81A"/>
<path d="M112.001 127.648L107.936 173.925L110.535 174.153L114.6 127.877L112.001 127.648Z" fill="#F95130"/>
<path d="M117.572 141.768L114.698 174.526L117.299 174.754L120.172 141.996L117.572 141.768Z" fill="#BCD81A"/>
<path d="M119.986 144.224L117.301 174.755L119.901 174.984L122.585 144.453L119.986 144.224Z" fill="#F95130"/>
<path d="M125.793 155.612L124.061 175.354L126.662 175.582L128.394 155.84L125.793 155.612Z" fill="#BCD81A"/>
<path d="M127.948 160.855L126.648 175.591L129.248 175.821L130.548 161.084L127.948 160.855Z" fill="#F95130"/>
<path d="M134.38 165.254L133.421 176.173L136.019 176.401L136.978 165.482L134.38 165.254Z" fill="#BCD81A"/>
<path d="M139.163 140.515L136.012 176.391L138.612 176.62L141.763 140.743L139.163 140.515Z" fill="#F95130"/>
<path d="M146.227 137.478L142.749 176.99L145.349 177.219L148.827 137.707L146.227 137.478Z" fill="#BCD81A"/>
<path d="M149.948 125.231L145.381 177.226L147.981 177.454L152.548 125.459L149.948 125.231Z" fill="#F95130"/>
<path d="M154.273 153.375L152.132 177.813L154.733 178.041L156.874 153.603L154.273 153.375Z" fill="#BCD81A"/>
<path d="M156.548 157.386L154.734 178.038L157.334 178.267L159.148 157.615L156.548 157.386Z" fill="#F95130"/>
<path d="M162.772 164.079L161.495 178.637L164.093 178.865L165.371 164.307L162.772 164.079Z" fill="#BCD81A"/>
<path d="M164.81 170.581L164.084 178.849L166.685 179.077L167.411 170.809L164.81 170.581Z" fill="#F95130"/>
<path d="M78.8506 53L78.1777 60.6604L85.8376 61.3332L86.5104 53.6728L78.8506 53Z" fill="#6ECCDC"/>
<path d="M93.1084 56.6343L92.8511 59.5641L142.217 63.9001L142.475 60.9703L93.1084 56.6343Z" fill="#949AAA"/>
<path d="M77.7617 65.4101L77.0889 73.0704L84.7487 73.7432L85.4216 66.0829L77.7617 65.4101Z" fill="#2B4248"/>
<path d="M92.0206 69.0438L91.7632 71.9746L109.114 73.4986L109.371 70.5678L92.0206 69.0438Z" fill="#949AAA"/>
<path d="M76.6728 77.8206L76 85.481L83.6603 86.1538L84.3332 78.4934L76.6728 77.8206Z" fill="#FFD121"/>
<path d="M90.9298 81.4519L90.6724 84.3827L130.226 87.8569L130.484 84.9261L90.9298 81.4519Z" fill="#949AAA"/>
<path d="M113.343 71.6143L113.085 74.5446L129.554 75.991L129.811 73.0607L113.343 71.6143Z" fill="#5A5A7A"/>
<path d="M195.562 197.038L194.889 204.698L202.549 205.371L203.221 197.71L195.562 197.038Z" fill="#6B2D6E"/>
<path d="M209.814 200.661L209.557 203.592L258.921 207.928L259.178 204.997L209.814 200.661Z" fill="#949AAA"/>
<path d="M194.467 209.44L193.794 217.1L201.454 217.773L202.127 210.112L194.467 209.44Z" fill="#F2274D"/>
<path d="M208.731 213.08L208.474 216.01L225.824 217.534L226.081 214.604L208.731 213.08Z" fill="#949AAA"/>
<path d="M229.208 190.218L228.951 193.149L245.419 194.595L245.676 191.664L229.208 190.218Z" fill="#5A5A7A"/>
<path d="M283.956 174.207C283.9 174.207 283.844 174.205 283.788 174.201C283.208 174.157 282.681 173.889 282.303 173.449C281.925 173.008 281.741 172.446 281.786 171.867C281.872 170.742 282.823 169.86 283.951 169.86C284.007 169.86 284.063 169.862 284.119 169.866C285.314 169.958 286.212 171.004 286.12 172.199C286.034 173.325 285.083 174.207 283.956 174.207Z" fill="#FF365C"/>
<path d="M283.951 170.191C283.999 170.191 284.046 170.193 284.094 170.196C285.109 170.274 285.868 171.159 285.79 172.173C285.716 173.141 284.909 173.876 283.956 173.876C283.909 173.876 283.861 173.874 283.813 173.87C282.797 173.793 282.038 172.907 282.116 171.892C282.19 170.926 282.996 170.191 283.951 170.191ZM283.951 169.529C282.651 169.529 281.556 170.545 281.456 171.841C281.405 172.509 281.616 173.156 282.052 173.664C282.488 174.171 283.095 174.48 283.763 174.53C283.827 174.535 283.892 174.538 283.956 174.538C285.255 174.538 286.351 173.522 286.45 172.224C286.501 171.557 286.29 170.91 285.854 170.403C285.419 169.895 284.812 169.587 284.145 169.536C284.08 169.531 284.015 169.529 283.951 169.529Z" fill="#FF365C"/>
<path d="M268.582 161.392C268.526 161.392 268.471 161.39 268.414 161.385C267.218 161.294 266.32 160.247 266.411 159.053C266.497 157.926 267.449 157.044 268.579 157.044C268.634 157.044 268.69 157.046 268.746 157.05C269.94 157.142 270.837 158.189 270.745 159.385C270.659 160.51 269.709 161.392 268.582 161.392Z" fill="#FF365C"/>
<path d="M268.579 157.375C268.626 157.375 268.673 157.377 268.721 157.38C269.735 157.457 270.493 158.345 270.416 159.359C270.342 160.326 269.535 161.06 268.583 161.06C268.536 161.06 268.488 161.058 268.44 161.055C267.426 160.978 266.664 160.093 266.742 159.078C266.815 158.112 267.625 157.375 268.579 157.375ZM268.579 156.713C267.278 156.713 266.181 157.73 266.082 159.027C266.031 159.694 266.243 160.342 266.679 160.849C267.116 161.356 267.723 161.664 268.39 161.715C268.454 161.72 268.518 161.722 268.583 161.722C269.881 161.722 270.976 160.707 271.076 159.41C271.127 158.743 270.915 158.096 270.481 157.588C270.046 157.08 269.439 156.771 268.772 156.72C268.707 156.716 268.642 156.713 268.579 156.713Z" fill="#FF365C"/>
<path d="M246.264 170.927C246.208 170.927 246.152 170.926 246.096 170.921C245.517 170.877 244.99 170.61 244.612 170.169C244.234 169.729 244.05 169.168 244.095 168.589C244.181 167.463 245.132 166.58 246.26 166.58C246.316 166.58 246.371 166.582 246.428 166.587C247.623 166.678 248.521 167.725 248.429 168.921C248.343 170.046 247.392 170.927 246.264 170.927Z" fill="#FF365C"/>
<path d="M246.26 166.911C246.307 166.911 246.354 166.913 246.402 166.917C247.417 166.995 248.177 167.881 248.099 168.896C248.025 169.862 247.217 170.597 246.263 170.597C246.216 170.597 246.169 170.595 246.121 170.591C245.106 170.513 244.346 169.629 244.424 168.614C244.498 167.647 245.306 166.911 246.26 166.911ZM246.26 166.25C244.96 166.25 243.864 167.266 243.764 168.564C243.659 169.94 244.693 171.146 246.07 171.251C246.135 171.256 246.2 171.259 246.263 171.259C247.563 171.259 248.66 170.243 248.759 168.946C248.81 168.28 248.598 167.632 248.162 167.124C247.727 166.616 247.12 166.308 246.453 166.257C246.388 166.252 246.323 166.25 246.26 166.25Z" fill="#FF365C"/>
<path d="M232.581 164.257C232.526 164.257 232.469 164.255 232.413 164.251C231.834 164.207 231.306 163.94 230.929 163.499C230.552 163.059 230.369 162.498 230.413 161.918C230.499 160.792 231.45 159.91 232.578 159.91C232.633 159.91 232.689 159.912 232.746 159.916C233.324 159.96 233.851 160.228 234.229 160.669C234.607 161.109 234.79 161.671 234.746 162.25C234.659 163.375 233.708 164.257 232.581 164.257Z" fill="#FF365C"/>
<path d="M232.577 160.241C232.624 160.241 232.672 160.243 232.72 160.246C233.735 160.323 234.493 161.21 234.416 162.224C234.342 163.192 233.535 163.926 232.581 163.926C232.534 163.926 232.486 163.924 232.439 163.92C231.423 163.843 230.665 162.959 230.743 161.943C230.817 160.977 231.623 160.241 232.577 160.241ZM232.577 159.579C231.278 159.579 230.182 160.595 230.083 161.892C230.032 162.56 230.243 163.207 230.678 163.714C231.113 164.221 231.72 164.529 232.388 164.58C232.453 164.585 232.517 164.587 232.581 164.587C233.88 164.587 234.976 163.571 235.075 162.274C235.126 161.607 234.915 160.96 234.479 160.453C234.044 159.945 233.437 159.636 232.77 159.585C232.706 159.581 232.641 159.579 232.577 159.579Z" fill="#FF365C"/>
<path d="M223.867 175.296C223.811 175.296 223.755 175.294 223.699 175.289C222.504 175.198 221.606 174.151 221.697 172.957C221.783 171.831 222.735 170.95 223.864 170.95C223.919 170.95 223.975 170.952 224.031 170.956C225.227 171.048 226.124 172.094 226.033 173.289C225.947 174.414 224.995 175.296 223.867 175.296Z" fill="#FF365C"/>
<path d="M223.863 171.281C223.91 171.281 223.957 171.283 224.005 171.286C225.02 171.364 225.78 172.249 225.703 173.263C225.629 174.229 224.82 174.965 223.867 174.965C223.82 174.965 223.773 174.963 223.725 174.959C222.711 174.882 221.949 173.995 222.027 172.982C222.1 172.015 222.91 171.281 223.863 171.281ZM223.863 170.619C222.562 170.619 221.466 171.635 221.366 172.931C221.315 173.597 221.528 174.245 221.964 174.752C222.4 175.26 223.007 175.568 223.673 175.619C223.738 175.624 223.802 175.627 223.866 175.627C225.166 175.627 226.262 174.611 226.362 173.313C226.413 172.646 226.201 172 225.765 171.492C225.329 170.985 224.722 170.677 224.055 170.626C223.991 170.621 223.927 170.619 223.863 170.619Z" fill="#FF365C"/>
<path d="M203.42 168.802C203.364 168.802 203.309 168.8 203.252 168.795C202.673 168.751 202.146 168.484 201.768 168.044C201.39 167.604 201.206 167.042 201.251 166.463C201.337 165.337 202.288 164.455 203.416 164.455C203.472 164.455 203.528 164.457 203.584 164.461C204.162 164.506 204.689 164.773 205.068 165.214C205.446 165.655 205.631 166.216 205.587 166.795C205.501 167.92 204.549 168.802 203.42 168.802Z" fill="#FF365C"/>
<path d="M203.416 164.786C203.464 164.786 203.511 164.788 203.559 164.791C204.572 164.869 205.335 165.755 205.258 166.769C205.184 167.736 204.373 168.47 203.42 168.47C203.373 168.47 203.325 168.468 203.277 168.465C202.262 168.387 201.503 167.502 201.581 166.487C201.654 165.521 202.462 164.786 203.416 164.786ZM203.416 164.124C202.116 164.124 201.02 165.141 200.921 166.438C200.87 167.105 201.081 167.752 201.517 168.259C201.952 168.767 202.56 169.074 203.227 169.126C203.292 169.131 203.356 169.133 203.42 169.133C204.721 169.133 205.818 168.117 205.917 166.82C205.968 166.153 205.756 165.507 205.319 164.999C204.883 164.491 204.276 164.183 203.609 164.132C203.544 164.127 203.48 164.124 203.416 164.124Z" fill="#FF365C"/>
<path d="M186.468 168.751L207.033 135.572L221.868 154.221L240.338 138.377L250.303 151.309L265.142 132.91L279.376 145.394L291.765 142.688L292.169 144.535L278.849 147.444L265.375 135.629L250.268 154.361L240.06 141.11L221.61 156.934L207.225 138.85L188.075 169.747L186.468 168.751Z" fill="#7A3C7D"/>
<path d="M265.183 133.386L279.284 145.753L291.513 143.082L291.775 144.282L278.942 147.085L265.334 135.154L250.274 153.827L240.109 140.631L221.655 156.459L207.191 138.276L187.968 169.291L186.924 168.645L207.067 136.146L221.823 154.696L240.289 138.856L250.297 151.843L265.183 133.386ZM265.101 132.434L264.668 132.971L250.309 150.775L240.813 138.452L240.387 137.899L239.858 138.353L221.914 153.747L207.585 135.733L207 134.998L206.504 135.797L186.361 168.296L186.012 168.858L186.575 169.207L187.619 169.853L188.182 170.202L188.53 169.639L207.258 139.423L221.136 156.871L221.564 157.408L222.085 156.962L240.009 141.587L249.748 154.23L250.261 154.895L250.788 154.242L265.416 136.105L278.505 147.582L278.756 147.802L279.082 147.73L291.916 144.928L292.562 144.786L292.421 144.14L292.159 142.94L292.018 142.293L291.371 142.434L279.468 145.034L265.619 132.888L265.101 132.434Z" fill="#7A3C7D"/>
<path d="M187.596 182.375C187.54 182.375 187.484 182.373 187.428 182.369C186.849 182.324 186.323 182.057 185.945 181.616C185.568 181.176 185.385 180.614 185.429 180.035C185.516 178.909 186.466 178.027 187.593 178.027C187.648 178.027 187.704 178.029 187.761 178.033C188.34 178.078 188.866 178.345 189.244 178.786C189.622 179.226 189.806 179.788 189.761 180.366C189.674 181.493 188.723 182.375 187.596 182.375Z" fill="#FF365C"/>
<path d="M187.592 178.358C187.639 178.358 187.687 178.36 187.735 178.364C188.749 178.442 189.508 179.327 189.431 180.341C189.357 181.309 188.549 182.044 187.596 182.044C187.549 182.044 187.502 182.042 187.454 182.039C186.439 181.961 185.681 181.076 185.759 180.06C185.833 179.094 186.638 178.358 187.592 178.358ZM187.592 177.697C186.293 177.697 185.199 178.713 185.099 180.01C184.994 181.387 186.027 182.593 187.403 182.699C187.467 182.704 187.532 182.706 187.596 182.706C188.895 182.706 189.991 181.69 190.09 180.392C190.141 179.725 189.93 179.079 189.494 178.571C189.059 178.063 188.452 177.755 187.785 177.704C187.72 177.699 187.656 177.697 187.592 177.697Z" fill="#FF365C"/>
<path d="M187.311 181.563C187.222 181.557 187.14 181.515 187.082 181.448L186.283 180.516C186.166 180.379 186.18 180.172 186.316 180.052L202.749 165.565C202.81 165.511 202.889 165.482 202.968 165.482C203.002 165.482 203.036 165.488 203.069 165.498L223.663 172.098L232.306 161.108C232.371 161.026 232.468 160.981 232.567 160.981C232.621 160.981 232.675 160.995 232.726 161.022L245.76 168.193L268.681 157.663C268.725 157.643 268.772 157.633 268.819 157.633C268.899 157.633 268.979 157.663 269.04 157.718L284.324 171.455C284.46 171.578 284.471 171.786 284.35 171.922L283.53 172.837C283.471 172.902 283.389 172.942 283.302 172.947C283.296 172.947 283.29 172.947 283.284 172.947C283.202 172.947 283.123 172.917 283.063 172.863L268.539 159.809L245.836 170.239C245.793 170.259 245.745 170.269 245.698 170.269C245.643 170.269 245.588 170.255 245.538 170.228L232.954 163.306L224.462 174.111C224.398 174.192 224.302 174.237 224.202 174.237C224.168 174.237 224.134 174.232 224.101 174.221L203.325 167.562L187.552 181.482C187.492 181.535 187.414 181.564 187.333 181.564C187.326 181.564 187.319 181.563 187.311 181.563Z" fill="#FF365C"/>
<path d="M268.82 157.964L284.104 171.701L283.284 172.616L268.599 159.417L245.699 169.938L232.868 162.88L224.203 173.906L203.248 167.189L187.334 181.232L186.534 180.3L202.968 165.812L223.781 172.483L232.565 161.312L245.746 168.564L268.82 157.964ZM268.82 157.303C268.726 157.303 268.632 157.323 268.544 157.363L245.774 167.823L232.885 160.733C232.785 160.677 232.675 160.651 232.567 160.651C232.369 160.651 232.176 160.739 232.047 160.904L223.546 171.713L203.171 165.183C203.105 165.162 203.037 165.151 202.969 165.151C202.81 165.151 202.654 165.208 202.531 165.316L186.098 179.803C185.826 180.043 185.797 180.456 186.033 180.73L186.832 181.663C186.947 181.798 187.112 181.88 187.288 181.893C187.304 181.894 187.319 181.894 187.335 181.894C187.495 181.894 187.651 181.836 187.773 181.729L203.405 167.934L224.002 174.536C224.068 174.557 224.136 174.567 224.204 174.567C224.403 174.567 224.596 174.477 224.724 174.314L233.042 163.73L245.38 170.518C245.479 170.572 245.589 170.6 245.699 170.6C245.793 170.6 245.888 170.58 245.976 170.539L268.479 160.2L282.842 173.108C282.964 173.217 283.121 173.278 283.284 173.278C283.296 173.278 283.308 173.277 283.32 173.277C283.496 173.267 283.66 173.188 283.777 173.058L284.597 172.143C284.841 171.871 284.819 171.453 284.547 171.209L269.263 157.472C269.138 157.36 268.98 157.303 268.82 157.303Z" fill="#FF365C"/>
<path d="M189.561 168.839C189.483 169.854 188.597 170.613 187.582 170.536C186.568 170.459 185.805 169.573 185.882 168.558C185.96 167.544 186.849 166.785 187.863 166.862C188.879 166.939 189.639 167.825 189.561 168.839Z" fill="#F7F7F7" stroke="#7A3C7D" stroke-width="2.8295" stroke-miterlimit="10"/>
<path d="M208.852 137.212C208.774 138.227 207.887 138.986 206.871 138.908C205.859 138.831 205.097 137.945 205.174 136.93C205.252 135.916 206.141 135.156 207.153 135.233C208.168 135.311 208.929 136.198 208.852 137.212Z" fill="#F7F7F7" stroke="#7A3C7D" stroke-width="2.8295" stroke-miterlimit="10"/>
<path d="M223.669 155.724C223.591 156.74 222.708 157.498 221.694 157.42C220.679 157.342 219.92 156.458 219.998 155.443C220.075 154.428 220.961 153.668 221.975 153.746C222.99 153.824 223.747 154.71 223.669 155.724Z" fill="#F7F7F7" stroke="#7A3C7D" stroke-width="2.8295" stroke-miterlimit="10"/>
<path d="M241.891 139.622C241.813 140.639 240.925 141.398 239.912 141.32C238.896 141.242 238.136 140.357 238.214 139.341C238.291 138.327 239.177 137.568 240.194 137.646C241.206 137.723 241.968 138.609 241.891 139.622Z" fill="#F7F7F7" stroke="#7A3C7D" stroke-width="2.8295" stroke-miterlimit="10"/>
<path d="M252.127 152.793C252.049 153.807 251.161 154.566 250.147 154.489C249.134 154.412 248.375 153.526 248.453 152.511C248.531 151.497 249.416 150.737 250.429 150.814C251.442 150.891 252.205 151.778 252.127 152.793Z" fill="#F7F7F7" stroke="#7A3C7D" stroke-width="2.8295" stroke-miterlimit="10"/>
<path d="M267.714 134.563C267.636 135.578 266.751 136.337 265.737 136.259C264.721 136.181 263.962 135.297 264.04 134.281C264.118 133.267 265.002 132.507 266.018 132.585C267.032 132.662 267.791 133.548 267.714 134.563Z" fill="#F7F7F7" stroke="#7A3C7D" stroke-width="2.8295" stroke-miterlimit="10"/>
<path d="M280.746 146.176C280.668 147.19 279.783 147.95 278.771 147.873C277.754 147.795 276.991 146.908 277.069 145.894C277.147 144.88 278.035 144.12 279.052 144.197C280.065 144.275 280.824 145.161 280.746 146.176Z" fill="#F7F7F7" stroke="#7A3C7D" stroke-width="2.8295" stroke-miterlimit="10"/>
<path d="M293.596 143.7C293.518 144.714 292.631 145.475 291.617 145.397C290.604 145.32 289.843 144.433 289.92 143.418C289.998 142.405 290.885 141.644 291.898 141.722C292.912 141.799 293.674 142.686 293.596 143.7Z" fill="#F7F7F7" stroke="#7A3C7D" stroke-width="2.8295" stroke-miterlimit="10"/>
<path d="M337.472 265.505L314.055 99.7251C313.34 94.6688 308.662 91.1492 303.605 91.8636L48.2034 127.941C43.1471 128.656 39.6274 133.334 40.3409 138.39L63.7585 304.17C64.4724 309.225 69.1509 312.745 74.2077 312.031L329.61 275.954C334.666 275.239 338.187 270.561 337.472 265.505Z" fill="#A2B2D6"/>
<path d="M344.791 259.846C345.464 264.965 341.86 269.661 336.739 270.334L78.1309 304.331C73.0104 305.003 68.3147 301.399 67.6415 296.279L45.5748 128.418C44.9025 123.299 48.5069 118.603 53.6274 117.93L312.235 83.9329C317.356 83.2602 322.051 86.8646 322.725 91.9841L344.791 259.846Z" fill="#3F4751"/>
<g opacity="0.3">
<path d="M313.465 87.0871C316.516 87.0871 319.118 89.3734 319.516 92.4055L341.584 260.267C341.796 261.886 341.366 263.492 340.371 264.787C339.377 266.082 337.937 266.913 336.318 267.126L77.7097 301.123C77.4417 301.158 77.1698 301.176 76.9008 301.176C73.8495 301.176 71.2476 298.889 70.8488 295.857L48.7816 127.996C48.3426 124.653 50.7053 121.576 54.0486 121.136L312.656 87.14C312.925 87.1047 313.197 87.0871 313.465 87.0871ZM313.465 84.7762C313.096 84.7762 312.723 84.8007 312.355 84.8493L53.7468 118.845C49.1408 119.451 45.8852 123.691 46.4904 128.297L68.5575 296.159C69.1073 300.337 72.6936 303.487 76.9008 303.487C77.2687 303.487 77.6426 303.463 78.0106 303.415L336.619 269.418C338.85 269.124 340.834 267.979 342.204 266.194C343.575 264.409 344.168 262.197 343.875 259.967L321.808 92.1047C321.258 87.9265 317.672 84.7762 313.465 84.7762Z" fill="#231F20"/>
</g>
<path d="M344.791 259.846C345.464 264.965 341.86 269.661 336.739 270.334L78.1309 304.331C73.0104 305.003 68.3147 301.399 67.6415 296.279L45.5748 128.418C44.9025 123.299 48.5069 118.603 53.6274 117.93L312.235 83.9329C317.356 83.2602 322.051 86.8646 322.725 91.9841L344.791 259.846Z" stroke="#BFC9D8" stroke-width="5.659" stroke-miterlimit="10"/>
<g opacity="0.3">
<path d="M175.121 293.892L102.044 302.859L144.227 104.521L217.303 95.5543L175.121 293.892Z" fill="white"/>
</g>
<path d="M186.603 111.467C186.766 112.709 185.893 113.848 184.651 114.012C183.409 114.174 182.27 113.3 182.107 112.058C181.944 110.817 182.818 109.677 184.059 109.515C185.301 109.352 186.44 110.226 186.603 111.467Z" fill="#3F4751"/>
<path d="M300.745 106.669L70.5986 136.914L89.5624 281.216L319.709 250.971L300.745 106.669Z" fill="white"/>
<path d="M95.9329 245.31L89.0483 246.221L89.9595 253.106L96.844 252.195L95.9329 245.31Z" fill="#72BDBA"/>
<path d="M95.1266 246.336L95.7949 251.388L90.7435 252.056L90.0752 247.004L95.1266 246.336ZM96.7166 244.261L94.884 244.503L89.8326 245.172L88 245.414L88.2425 247.247L88.9109 252.299L89.1535 254.131L90.9861 253.889L96.0375 253.221L97.8701 252.978L97.6275 251.145L96.9592 246.093L96.7166 244.261Z" fill="white"/>
<path d="M132.396 243L99.8374 247.309L100.093 249.241L132.652 244.932L132.396 243Z" fill="#5A5A7A"/>
<path d="M97.0062 253.502L90.1221 254.412L91.0325 261.297L97.9166 260.387L97.0062 253.502Z" fill="#2B4248"/>
<path d="M96.2091 254.521L96.8774 259.573L91.826 260.241L91.1577 255.189L96.2091 254.521ZM97.7996 252.446L95.967 252.688L90.9156 253.357L89.083 253.599L89.3256 255.432L89.9939 260.484L90.2365 262.316L92.0691 262.074L97.1205 261.405L98.9531 261.163L98.7105 259.33L98.0422 254.278L97.7996 252.446Z" fill="white"/>
<path d="M112.364 253.978L100.92 255.493L101.176 257.425L112.619 255.911L112.364 253.978Z" fill="#5A5A7A"/>
<path d="M98.0979 261.68L91.2139 262.591L92.125 269.476L99.0091 268.565L98.0979 261.68Z" fill="#FFD121"/>
<path d="M97.2921 262.704L97.9605 267.757L92.909 268.425L92.2407 263.373L97.2921 262.704ZM98.8821 260.629L97.0495 260.872L91.9981 261.54L90.1655 261.783L90.4081 263.615L91.0764 268.667L91.319 270.5L93.1516 270.257L98.203 269.589L100.036 269.346L99.7931 267.514L99.1247 262.462L98.8821 260.629Z" fill="white"/>
<path d="M128.091 260.224L102.003 263.677L102.259 265.61L128.346 262.157L128.091 260.224Z" fill="#5A5A7A"/>
<path d="M99.1097 270.12L92.2256 271.031L93.1367 277.916L100.021 277.005L99.1097 270.12Z" fill="#5CA6B3"/>
<path d="M98.3033 271.145L98.9717 276.197L93.9203 276.865L93.2519 271.814L98.3033 271.145ZM99.8939 269.07L98.0613 269.313L93.0098 269.981L91.1772 270.224L91.4198 272.056L92.0882 277.109L92.3307 278.941L94.1633 278.699L99.2147 278.03L101.047 277.788L100.805 275.955L100.136 270.903L99.8939 269.07Z" fill="white"/>
<path d="M129.102 268.666L103.015 272.118L103.27 274.051L129.358 270.599L129.102 268.666Z" fill="#5A5A7A"/>
<g clip-path="url(#clip0_604_475)">
<path d="M153.028 198.307L117.16 203.8L124.72 253.163L160.588 247.67L153.028 198.307Z" fill="#3F4751"/>
<path d="M130.707 247.562L124.546 207.335L133.341 205.988C141.562 224.133 143.496 228.502 144.137 230.284L144.28 230.262C143.158 225.254 142.033 218.641 141.071 212.363L139.94 204.977L147.038 203.89L153.199 244.117L144.533 245.444C135.806 225.381 134.147 221.487 133.487 219.808L133.326 219.833C134.345 224.631 135.631 232.06 136.639 238.641L137.838 246.47L130.707 247.562Z" fill="white"/>
<path d="M194.375 191.975L158.507 197.468L166.067 246.831L201.935 241.338L194.375 191.975Z" fill="#3F4751"/>
<path d="M189.225 221.15L178.633 222.772L180.101 232.358L192.092 230.522L192.297 238.129L173.364 241.029L167.203 200.802L186.157 197.899L187.315 205.461L176.242 207.157L177.481 215.249L188.073 213.627L189.225 221.15L189.225 221.15Z" fill="white"/>
<path d="M235.722 185.642L199.854 191.135L207.414 240.499L243.282 235.006L235.722 185.642Z" fill="#3F4751"/>
<path d="M213.124 234.081L201.668 196.383L209.783 195.14C211.595 202.197 214.586 214.458 216.015 221.288L216.205 221.259C215.986 213.582 215.835 202.524 215.655 194.241L222.163 193.244C224.189 200.145 227.466 211.371 229.482 218.939L229.721 218.903C229.098 211.251 228.431 198.32 228.064 192.341L235.561 191.193L235.481 230.657L227.734 231.843C225.717 225.218 222.996 216.893 220.993 209.299L220.788 209.33C221.116 217.054 220.907 226.12 220.939 232.884L213.124 234.081Z" fill="white"/>
<path d="M277.07 179.31L241.201 184.803L248.761 234.167L284.629 228.674L277.07 179.31Z" fill="#3F4751"/>
<path d="M260.89 215.705C261.598 218.977 262.764 221.126 265.165 220.758C267.499 220.4 267.97 218.479 267.62 216.193C267.194 213.409 265.726 211.958 261.24 210.164C254.612 207.486 251.851 204.794 250.945 198.881C249.891 192.001 252.857 186.928 259.788 185.866C267.939 184.618 271.168 190.118 272.181 196.285L264.443 197.47C263.88 194.689 263.066 192.35 260.784 192.7C258.996 192.974 258.4 194.429 258.744 196.674C259.097 198.978 260.06 200.046 264.199 201.65C271.258 204.411 274.497 207.165 275.532 213.928C276.551 220.577 273.982 226.394 266.131 227.596C257.624 228.899 254.175 223.722 252.959 216.919L260.89 215.705Z" fill="white"/>
<mask id="path-216-outside-1_604_475" maskUnits="userSpaceOnUse" x="114.499" y="133.509" width="156.909" height="66.503" fill="black">
<rect fill="white" x="114.499" y="133.509" width="156.909" height="66.503"/>
<path d="M150.663 193.923C149.229 194.143 148.031 194.068 147.068 193.697C146.098 193.285 145.252 192.551 144.529 191.496L138.672 182.422C137.758 180.965 136.789 179.991 135.764 179.501C134.775 178.961 133.353 178.834 131.497 179.118L127.195 179.777L129.782 196.668L122.823 197.734L116.836 158.638L123.795 157.572L126.227 173.451L130.149 172.85C132.089 172.553 133.492 171.993 134.359 171.169C135.268 170.34 135.914 169.205 136.298 167.765L139.552 154.77L146.617 156.084L143.431 167.838C142.924 169.599 142.313 170.966 141.599 171.938C140.884 172.911 139.726 173.801 138.123 174.607L138.181 174.987C139.77 175.218 140.978 175.638 141.805 176.245C142.625 176.81 143.549 177.769 144.577 179.122L151.533 188.611L154.657 188.715L155.258 192.637C153.882 193.236 152.35 193.665 150.663 193.923ZM191.904 187.672C186.464 188.505 182.103 187.511 178.822 184.69C175.577 181.82 173.467 177.201 172.491 170.833C171.413 163.79 172.046 158.34 174.391 154.485C176.729 150.587 180.956 148.17 187.071 147.234C198.079 145.548 204.574 151.179 206.557 164.127C207.629 171.128 206.975 176.58 204.594 180.484C202.25 184.34 198.02 186.736 191.904 187.672ZM192.001 181.118C194.996 180.659 197.363 179.908 199.102 178.865C200.201 174.769 200.422 170.57 199.763 166.268C199.259 162.978 198.536 160.37 197.593 158.442C196.65 156.515 195.321 155.164 193.606 154.391C191.933 153.611 189.725 153.432 186.984 153.851C183.863 154.329 181.433 155.09 179.693 156.133C178.675 159.915 178.518 164.104 179.222 168.701C179.726 171.991 180.453 174.621 181.402 176.59C182.387 178.511 183.716 179.862 185.389 180.642C187.098 181.373 189.302 181.531 192.001 181.118ZM228.712 141.504L237.506 140.157L248.688 160.329L249.131 160.261L253.827 137.658L262.557 136.321L270.063 175.184L263.041 176.26L259.332 156.692L257.884 146.813L257.358 146.764L252.674 166.906L247.296 167.729L236.798 149.913L236.311 150.117L237.949 159.967L240.203 179.757L233.181 180.833L228.712 141.504Z"/>
</mask>
<path d="M150.663 193.923C149.229 194.143 148.031 194.068 147.068 193.697C146.098 193.285 145.252 192.551 144.529 191.496L138.672 182.422C137.758 180.965 136.789 179.991 135.764 179.501C134.775 178.961 133.353 178.834 131.497 179.118L127.195 179.777L129.782 196.668L122.823 197.734L116.836 158.638L123.795 157.572L126.227 173.451L130.149 172.85C132.089 172.553 133.492 171.993 134.359 171.169C135.268 170.34 135.914 169.205 136.298 167.765L139.552 154.77L146.617 156.084L143.431 167.838C142.924 169.599 142.313 170.966 141.599 171.938C140.884 172.911 139.726 173.801 138.123 174.607L138.181 174.987C139.77 175.218 140.978 175.638 141.805 176.245C142.625 176.81 143.549 177.769 144.577 179.122L151.533 188.611L154.657 188.715L155.258 192.637C153.882 193.236 152.35 193.665 150.663 193.923ZM191.904 187.672C186.464 188.505 182.103 187.511 178.822 184.69C175.577 181.82 173.467 177.201 172.491 170.833C171.413 163.79 172.046 158.34 174.391 154.485C176.729 150.587 180.956 148.17 187.071 147.234C198.079 145.548 204.574 151.179 206.557 164.127C207.629 171.128 206.975 176.58 204.594 180.484C202.25 184.34 198.02 186.736 191.904 187.672ZM192.001 181.118C194.996 180.659 197.363 179.908 199.102 178.865C200.201 174.769 200.422 170.57 199.763 166.268C199.259 162.978 198.536 160.37 197.593 158.442C196.65 156.515 195.321 155.164 193.606 154.391C191.933 153.611 189.725 153.432 186.984 153.851C183.863 154.329 181.433 155.09 179.693 156.133C178.675 159.915 178.518 164.104 179.222 168.701C179.726 171.991 180.453 174.621 181.402 176.59C182.387 178.511 183.716 179.862 185.389 180.642C187.098 181.373 189.302 181.531 192.001 181.118ZM228.712 141.504L237.506 140.157L248.688 160.329L249.131 160.261L253.827 137.658L262.557 136.321L270.063 175.184L263.041 176.26L259.332 156.692L257.884 146.813L257.358 146.764L252.674 166.906L247.296 167.729L236.798 149.913L236.311 150.117L237.949 159.967L240.203 179.757L233.181 180.833L228.712 141.504Z" fill="#5CA6B3"/>
<path d="M147.068 193.697L146.676 194.617L146.692 194.624L146.709 194.63L147.068 193.697ZM144.529 191.496L143.689 192.038L143.697 192.05L143.704 192.061L144.529 191.496ZM138.672 182.422L137.825 182.953L137.832 182.964L138.672 182.422ZM135.764 179.501L135.286 180.379L135.309 180.391L135.333 180.403L135.764 179.501ZM127.195 179.777L127.044 178.789L126.056 178.94L126.207 179.928L127.195 179.777ZM129.782 196.668L129.934 197.657L130.922 197.505L130.771 196.517L129.782 196.668ZM122.823 197.734L121.835 197.885L121.986 198.874L122.975 198.722L122.823 197.734ZM116.836 158.638L116.685 157.649L115.696 157.801L115.847 158.789L116.836 158.638ZM123.795 157.572L124.783 157.421L124.632 156.432L123.643 156.583L123.795 157.572ZM126.227 173.451L125.238 173.602L125.389 174.591L126.378 174.439L126.227 173.451ZM134.359 171.169L133.685 170.431L133.677 170.438L133.67 170.444L134.359 171.169ZM136.298 167.765L137.264 168.022L137.266 168.015L137.268 168.008L136.298 167.765ZM139.552 154.77L139.735 153.787L138.811 153.615L138.582 154.527L139.552 154.77ZM146.617 156.084L147.582 156.346L147.865 155.299L146.799 155.101L146.617 156.084ZM143.431 167.838L144.392 168.114L144.394 168.107L144.396 168.099L143.431 167.838ZM141.599 171.938L142.405 172.53L141.599 171.938ZM138.123 174.607L137.673 173.714L137.024 174.041L137.134 174.759L138.123 174.607ZM138.181 174.987L137.192 175.138L137.304 175.87L138.037 175.976L138.181 174.987ZM141.805 176.245L141.213 177.051L141.225 177.06L141.238 177.068L141.805 176.245ZM144.577 179.122L145.383 178.531L145.378 178.524L145.373 178.518L144.577 179.122ZM151.533 188.611L150.727 189.202L151.014 189.594L151.5 189.61L151.533 188.611ZM154.657 188.715L155.645 188.563L155.52 187.743L154.69 187.715L154.657 188.715ZM155.258 192.637L155.657 193.554L156.363 193.247L156.246 192.486L155.258 192.637ZM150.512 192.935C149.184 193.138 148.175 193.051 147.427 192.764L146.709 194.63C147.887 195.084 149.275 195.148 150.815 194.912L150.512 192.935ZM147.459 192.777C146.699 192.454 145.992 191.862 145.354 190.931L143.704 192.061C144.512 193.239 145.497 194.115 146.676 194.617L147.459 192.777ZM145.369 190.954L139.512 181.88L137.832 182.964L143.689 192.038L145.369 190.954ZM139.519 181.891C138.553 180.35 137.458 179.203 136.196 178.599L135.333 180.403C136.12 180.78 136.964 181.58 137.825 182.953L139.519 181.891ZM136.243 178.623C134.971 177.929 133.286 177.833 131.346 178.13L131.649 180.107C133.419 179.835 134.58 179.994 135.286 180.379L136.243 178.623ZM131.346 178.13L127.044 178.789L127.347 180.765L131.649 180.107L131.346 178.13ZM126.207 179.928L128.794 196.819L130.771 196.517L128.184 179.626L126.207 179.928ZM129.631 195.68L122.672 196.745L122.975 198.722L129.934 197.657L129.631 195.68ZM123.812 197.582L117.824 158.486L115.847 158.789L121.835 197.885L123.812 197.582ZM116.987 159.626L123.946 158.56L123.643 156.583L116.685 157.649L116.987 159.626ZM122.806 157.723L125.238 173.602L127.215 173.299L124.783 157.421L122.806 157.723ZM126.378 174.439L130.3 173.839L129.997 171.862L126.075 172.462L126.378 174.439ZM130.3 173.839C132.324 173.529 133.965 172.923 135.048 171.894L133.67 170.444C133.019 171.063 131.853 171.577 129.997 171.862L130.3 173.839ZM135.033 171.908C136.111 170.924 136.842 169.608 137.264 168.022L135.332 167.507C134.987 168.802 134.425 169.755 133.685 170.431L135.033 171.908ZM137.268 168.008L140.522 155.013L138.582 154.527L135.328 167.522L137.268 168.008ZM139.369 155.753L146.434 157.067L146.799 155.101L139.735 153.787L139.369 155.753ZM145.651 155.822L142.466 167.576L144.396 168.099L147.582 156.346L145.651 155.822ZM142.47 167.561C141.98 169.261 141.411 170.505 140.793 171.346L142.405 172.53C143.215 171.426 143.867 169.936 144.392 168.114L142.47 167.561ZM140.793 171.346C140.206 172.145 139.198 172.946 137.673 173.714L138.572 175.501C140.253 174.655 141.563 173.677 142.405 172.53L140.793 171.346ZM137.134 174.759L137.192 175.138L139.169 174.835L139.111 174.456L137.134 174.759ZM138.037 175.976C139.547 176.196 140.572 176.58 141.213 177.051L142.397 175.439C141.384 174.695 139.993 174.24 138.325 173.997L138.037 175.976ZM141.238 177.068C141.93 177.545 142.778 178.407 143.78 179.727L145.373 178.518C144.32 177.13 143.321 176.074 142.372 175.421L141.238 177.068ZM143.77 179.714L150.727 189.202L152.34 188.019L145.383 178.531L143.77 179.714ZM151.5 189.61L154.624 189.714L154.69 187.715L151.567 187.611L151.5 189.61ZM153.668 188.866L154.269 192.789L156.246 192.486L155.645 188.563L153.668 188.866ZM154.858 191.72C153.572 192.281 152.125 192.688 150.512 192.935L150.815 194.912C152.576 194.642 154.192 194.192 155.657 193.554L154.858 191.72ZM178.822 184.69L178.16 185.439L178.17 185.449L178.822 184.69ZM174.391 154.485L175.245 155.005L175.248 154.999L174.391 154.485ZM204.594 180.484L203.741 179.964L203.74 179.965L204.594 180.484ZM199.102 178.865L199.616 179.723L199.963 179.515L200.068 179.124L199.102 178.865ZM197.593 158.442L198.491 158.003L197.593 158.442ZM193.606 154.391L193.183 155.298L193.195 155.303L193.606 154.391ZM179.693 156.133L179.179 155.276L178.833 155.483L178.728 155.873L179.693 156.133ZM181.402 176.59L180.501 177.025L180.506 177.036L180.512 177.047L181.402 176.59ZM185.389 180.642L184.967 181.548L184.981 181.555L184.996 181.561L185.389 180.642ZM191.753 186.684C186.516 187.486 182.476 186.513 179.474 183.932L178.17 185.449C181.73 188.509 186.411 189.525 192.056 188.661L191.753 186.684ZM179.485 183.941C176.483 181.286 174.437 176.928 173.48 170.682L171.503 170.984C172.497 177.475 174.672 182.355 178.16 185.439L179.485 183.941ZM173.48 170.682C172.417 163.744 173.076 158.571 175.245 155.005L173.536 153.965C171.016 158.109 170.408 163.836 171.503 170.984L173.48 170.682ZM175.248 154.999C177.383 151.441 181.289 149.131 187.222 148.222L186.92 146.245C180.622 147.21 176.075 149.734 173.533 153.971L175.248 154.999ZM187.222 148.222C192.528 147.41 196.579 148.379 199.543 150.948C202.538 153.545 204.595 157.921 205.568 164.278L207.545 163.975C206.536 157.385 204.353 152.472 200.853 149.437C197.322 146.376 192.622 145.372 186.92 146.245L187.222 148.222ZM205.568 164.278C206.624 171.168 205.947 176.346 203.741 179.964L205.448 181.005C208.003 176.815 208.635 171.088 207.545 163.975L205.568 164.278ZM203.74 179.965C201.6 183.483 197.69 185.774 191.753 186.684L192.056 188.661C198.349 187.697 202.899 185.196 205.449 181.004L203.74 179.965ZM192.153 182.107C195.218 181.637 197.725 180.857 199.616 179.723L198.588 178.008C197 178.96 194.773 179.682 191.85 180.13L192.153 182.107ZM200.068 179.124C201.204 174.891 201.43 170.552 200.751 166.117L198.774 166.419C199.413 170.588 199.199 174.647 198.136 178.606L200.068 179.124ZM200.751 166.117C200.24 162.776 199.496 160.057 198.491 158.003L196.695 158.882C197.576 160.683 198.278 163.181 198.774 166.419L200.751 166.117ZM198.491 158.003C197.461 155.897 195.974 154.362 194.017 153.479L193.195 155.303C194.668 155.967 195.839 157.132 196.695 158.882L198.491 158.003ZM194.028 153.485C192.107 152.59 189.677 152.427 186.832 152.863L187.135 154.84C189.773 154.436 191.758 154.633 193.183 155.298L194.028 153.485ZM186.832 152.863C183.647 153.351 181.074 154.139 179.179 155.276L180.208 156.991C181.791 156.041 184.079 155.308 187.135 154.84L186.832 152.863ZM178.728 155.873C177.667 159.812 177.513 164.144 178.234 168.853L180.211 168.55C179.524 164.065 179.683 160.018 180.659 156.393L178.728 155.873ZM178.234 168.853C178.746 172.195 179.492 174.932 180.501 177.025L182.303 176.156C181.413 174.31 180.707 171.787 180.211 168.55L178.234 168.853ZM180.512 177.047C181.58 179.131 183.059 180.659 184.967 181.548L185.811 179.735C184.372 179.065 183.193 177.892 182.292 176.134L180.512 177.047ZM184.996 181.561C186.939 182.392 189.35 182.536 192.153 182.107L191.85 180.13C189.254 180.527 187.257 180.353 185.782 179.722L184.996 181.561ZM228.712 141.504L228.561 140.516L227.61 140.661L227.718 141.617L228.712 141.504ZM237.506 140.157L238.38 139.673L238.042 139.064L237.354 139.169L237.506 140.157ZM248.688 160.329L247.813 160.814L248.151 161.423L248.839 161.318L248.688 160.329ZM249.131 160.261L249.282 161.25L249.969 161.145L250.11 160.465L249.131 160.261ZM253.827 137.658L253.676 136.669L252.989 136.774L252.848 137.454L253.827 137.658ZM262.557 136.321L263.539 136.131L263.357 135.187L262.406 135.332L262.557 136.321ZM270.063 175.184L270.215 176.173L271.242 176.016L271.045 174.995L270.063 175.184ZM263.041 176.26L262.059 176.446L262.238 177.395L263.192 177.248L263.041 176.26ZM259.332 156.692L258.343 156.837L258.346 156.858L258.35 156.878L259.332 156.692ZM257.884 146.813L258.873 146.668L258.759 145.891L257.977 145.818L257.884 146.813ZM257.358 146.764L257.451 145.769L256.582 145.687L256.384 146.538L257.358 146.764ZM252.674 166.906L252.825 167.894L253.494 167.792L253.648 167.132L252.674 166.906ZM247.296 167.729L246.435 168.237L246.778 168.82L247.448 168.718L247.296 167.729ZM236.798 149.913L237.66 149.405L237.217 148.653L236.412 148.991L236.798 149.913ZM236.311 150.117L235.925 149.195L235.195 149.501L235.325 150.281L236.311 150.117ZM237.949 159.967L238.943 159.853L238.94 159.828L238.936 159.803L237.949 159.967ZM240.203 179.757L240.355 180.746L241.306 180.6L241.197 179.644L240.203 179.757ZM233.181 180.833L232.188 180.946L232.305 181.979L233.333 181.821L233.181 180.833ZM228.863 142.493L237.657 141.146L237.354 139.169L228.561 140.516L228.863 142.493ZM236.631 140.642L247.813 160.814L249.563 159.844L238.38 139.673L236.631 140.642ZM248.839 161.318L249.282 161.25L248.979 159.273L248.537 159.341L248.839 161.318ZM250.11 160.465L254.806 137.861L252.848 137.454L248.152 160.058L250.11 160.465ZM253.979 138.646L262.709 137.309L262.406 135.332L253.676 136.669L253.979 138.646ZM261.576 136.51L269.081 175.374L271.045 174.995L263.539 136.131L261.576 136.51ZM269.912 174.196L262.89 175.271L263.192 177.248L270.215 176.173L269.912 174.196ZM264.024 176.074L260.315 156.506L258.35 156.878L262.059 176.446L264.024 176.074ZM260.322 156.547L258.873 146.668L256.895 146.958L258.343 156.837L260.322 156.547ZM257.977 145.818L257.451 145.769L257.266 147.76L257.791 147.809L257.977 145.818ZM256.384 146.538L251.7 166.679L253.648 167.132L258.332 146.991L256.384 146.538ZM252.522 165.917L247.145 166.741L247.448 168.718L252.825 167.894L252.522 165.917ZM248.158 167.221L237.66 149.405L235.937 150.421L246.435 168.237L248.158 167.221ZM236.412 148.991L235.925 149.195L236.698 151.039L237.185 150.835L236.412 148.991ZM235.325 150.281L236.963 160.131L238.936 159.803L237.298 149.953L235.325 150.281ZM236.956 160.08L239.21 179.871L241.197 179.644L238.943 159.853L236.956 160.08ZM240.052 178.769L233.03 179.844L233.333 181.821L240.355 180.746L240.052 178.769ZM234.175 180.72L229.706 141.391L227.718 141.617L232.188 180.946L234.175 180.72Z" fill="#3F4751" mask="url(#path-216-outside-1_604_475)"/>
</g>
</g>
<defs>
<filter id="filter0_d_604_475" x="0.76211" y="0.444361" width="404.386" height="389.491" filterUnits="userSpaceOnUse" color-interpolation-filters="sRGB">
<feFlood flood-opacity="0" result="BackgroundImageFix"/>
<feColorMatrix in="SourceAlpha" type="matrix" values="0 0 0 0 0 0 0 0 0 0 0 0 0 0 0 0 0 0 127 0" result="hardAlpha"/>
<feOffset dx="2" dy="6"/>
<feGaussianBlur stdDeviation="4.45"/>
<feComposite in2="hardAlpha" operator="out"/>
<feColorMatrix type="matrix" values="0 0 0 0 0.168627 0 0 0 0 0.258824 0 0 0 0 0.282353 0 0 0 0.64 0"/>
<feBlend mode="normal" in2="BackgroundImageFix" result="effect1_dropShadow_604_475"/>
<feBlend mode="normal" in="SourceGraphic" in2="effect1_dropShadow_604_475" result="shape"/>
</filter>
<clipPath id="clip0_604_475">
<rect width="180" height="134" fill="white" transform="translate(101 154.249) rotate(-8.70702)"/>
</clipPath>
</defs>
</svg>
