<svg width="358" height="354" viewBox="0 0 358 354" fill="none" xmlns="http://www.w3.org/2000/svg">
<path d="M225.933 14.5265C225.456 14.5463 224.96 14.586 224.483 14.6256C186.084 17.323 145.556 32.297 108.479 57.7232C101.412 62.5625 94.6206 67.6993 88.1229 73.0741C87.4989 73.5897 86.8931 74.1054 86.2691 74.6211C83.0936 77.2985 79.9917 80.0356 76.9631 82.832C59.6175 98.7978 44.7132 116.608 32.8558 135.549V135.588C29.3499 141.161 26.1194 146.854 23.1643 152.625C21.3104 156.255 19.5666 159.924 17.9147 163.613L22.7971 163.771L25.1282 163.851C26.7802 160.142 28.5606 156.453 30.4696 152.784C42.2352 130.134 58.8466 108.139 79.6062 88.6233C81.9924 86.3623 84.4336 84.141 86.9482 81.9594C87.5356 81.4437 88.123 80.9281 88.7287 80.4322C88.9673 80.2141 89.2059 80.0157 89.4445 79.8174C90.0319 79.3017 90.6192 78.8059 91.225 78.3101C97.6676 72.9154 104.441 67.7787 111.562 62.8997C147.667 38.128 186.286 24.5026 221.656 21.8053C225.419 21.5078 229.164 21.3491 232.853 21.3095L235.074 15.657L235.661 14.1497C232.467 14.1695 229.237 14.2885 226.006 14.5066L225.933 14.5265ZM11.8758 178.785C10.6644 182.256 9.56313 185.687 8.59031 189.118C4.25851 204.33 2.20271 219.146 2.42297 233.207C2.42297 233.207 2.42297 233.207 2.42297 233.227C2.75336 253.1 7.61748 271.505 17.0153 287.491C20.4661 293.361 24.4491 298.776 28.9277 303.714C29.8455 300.561 30.9101 297.407 32.0664 294.254C29.1296 290.664 26.4498 286.797 24.027 282.691C10.279 259.288 7.10354 230.926 12.9405 201.494C13.7297 197.508 14.6842 193.501 15.8039 189.495C16.7767 186.004 17.878 182.514 19.0894 179.023L11.8758 178.805V178.785ZM98.8423 330.43C96.7865 330.092 94.7308 329.735 92.7301 329.299C87.297 328.189 82.0474 326.741 76.9814 324.995C76.3757 324.777 75.77 324.559 75.1826 324.341C74.7054 324.162 74.2281 323.984 73.7509 323.825C73.1452 323.587 72.5578 323.349 71.9705 323.111C69.5476 322.139 67.1798 321.088 64.8854 319.978C63.9676 322.615 63.1417 325.233 62.3891 327.871C65.381 329.22 68.4647 330.469 71.6401 331.6C72.2642 331.818 72.8882 332.036 73.549 332.254C80.579 334.634 88.0311 336.419 95.8504 337.609C99.1176 338.105 102.458 338.502 105.854 338.779L107.01 335.824L108.662 331.64C105.34 331.342 102.073 330.945 98.8423 330.45V330.43ZM327.804 49.6908C323.454 44.8911 318.608 40.5675 313.358 36.7C312.899 36.3628 312.441 36.0257 311.963 35.6885C297.867 25.6728 280.76 18.9889 261.34 15.9941C257.926 15.4586 254.439 15.0421 250.878 14.7446L249.226 18.9691L248.069 21.9044C251.593 22.2218 255.063 22.6383 258.477 23.1936C259.67 23.3919 260.863 23.5903 262.056 23.8283C278.814 27.0016 294.012 33.1895 306.787 42.3525C307.228 42.6698 307.668 42.9871 308.127 43.3243C308.311 43.4631 308.476 43.602 308.659 43.721C309.1 44.0581 309.54 44.3953 309.981 44.7325C314.496 48.2628 318.681 52.1898 322.481 56.5134C326.335 60.8767 329.786 65.6565 332.833 70.833C337.734 79.1827 341.295 88.1473 343.571 97.5681C344.14 99.8886 344.635 102.249 345.039 104.649C345.149 105.244 345.241 105.839 345.333 106.414C345.388 106.731 345.425 107.048 345.48 107.366C345.572 107.961 345.645 108.536 345.737 109.131C347.425 122.122 346.93 135.767 344.379 149.69C343.846 152.685 343.185 155.679 342.451 158.694C341.992 160.558 341.497 162.442 340.983 164.307C340.634 165.536 340.285 166.766 339.9 168.016C339.698 168.69 339.478 169.384 339.257 170.078C338.817 171.467 338.358 172.875 337.881 174.263C337.826 174.442 337.771 174.62 337.697 174.799L341.79 174.918L344.911 175.017C346.159 171.467 347.297 167.936 348.288 164.426C348.931 162.185 349.518 159.944 350.05 157.722C354.364 140.031 355.52 122.935 353.519 107.029C353.446 106.414 353.372 105.799 353.281 105.184C352.877 102.288 352.363 99.4126 351.739 96.5963C349.353 85.688 345.388 75.4541 339.863 66.0333C336.376 60.123 332.356 54.6689 327.841 49.6908H327.804ZM331.64 189.971C330.025 193.581 328.281 197.19 326.409 200.78C325.253 203.001 324.059 205.203 322.83 207.404C319.709 212.938 316.295 218.432 312.606 223.826C309.724 228.051 306.677 232.216 303.465 236.321C302.951 236.976 302.437 237.63 301.905 238.285C301.501 238.8 301.079 239.316 300.657 239.832C300.143 240.466 299.61 241.121 299.06 241.755C292.47 249.728 285.22 257.443 277.401 264.802C275.51 266.587 273.565 268.372 271.582 270.117C270.72 270.89 269.875 271.624 268.994 272.378C267.728 273.489 266.443 274.56 265.14 275.65C264.258 276.384 263.341 277.138 262.423 277.872C256.953 282.314 251.245 286.578 245.316 290.644C229.953 301.196 214.112 309.724 198.272 316.229C196.95 316.784 195.629 317.3 194.307 317.816C193.555 318.113 192.784 318.411 192.031 318.688C190.508 319.264 188.984 319.839 187.461 320.374C187.369 320.394 187.296 320.434 187.204 320.473C186.543 320.711 185.882 320.93 185.221 321.148C185.166 321.148 185.13 321.187 185.075 321.187C184.689 321.326 184.304 321.445 183.937 321.564C183.331 321.763 182.743 321.961 182.138 322.159C182.009 322.199 181.899 322.239 181.771 322.278C166.077 327.375 150.53 330.509 135.553 331.679C131.625 331.996 127.733 332.155 123.897 332.195L121.089 339.335C124.98 339.335 128.926 339.156 132.873 338.859C143.592 338.085 154.495 336.34 165.435 333.682C172.153 332.036 178.889 330.073 185.607 327.752C185.919 327.633 186.249 327.534 186.58 327.415C187.314 327.157 188.066 326.899 188.801 326.622C190.93 325.868 193.041 325.055 195.17 324.222C195.978 323.905 196.785 323.587 197.574 323.27C214.847 316.269 231.935 307.066 248.345 295.821C253.668 292.171 258.844 288.344 263.855 284.377C264.827 283.603 265.782 282.83 266.736 282.057C274.904 275.412 282.65 268.372 289.864 260.994C294.636 256.134 299.188 251.117 303.502 245.98C304.052 245.306 304.621 244.651 305.172 243.977C308.384 240.089 311.468 236.123 314.386 232.077C319.14 225.572 323.509 218.908 327.492 212.105C329.621 208.495 331.622 204.846 333.512 201.177C335.384 197.547 337.147 193.858 338.799 190.169L331.585 189.951L331.64 189.971Z" fill="url(#paint0_linear_357_136)"/>
<path d="M252.034 0.623295L237.386 37.4139C235 37.7114 232.724 37.6123 230.65 37.1164L245.242 0.444803C247.629 0.107639 249.923 0.167131 252.016 0.623295H252.034Z" fill="url(#paint1_linear_357_136)"/>
<path d="M126.191 316.784L117.216 339.335L111.544 353.575C109.158 353.872 106.882 353.773 104.808 353.277L113.288 331.977L119.4 316.606C121.786 316.269 124.08 316.328 126.173 316.804L126.191 316.784Z" fill="url(#paint2_linear_357_136)"/>
<path d="M357.576 179.856C357.135 181.998 356.291 184.18 355.116 186.282L333.567 185.508L318.002 184.953C318.516 182.811 319.416 180.629 320.664 178.527L336.137 179.082L343.332 179.34L357.613 179.856H357.576Z" fill="url(#paint3_linear_357_136)"/>
<path d="M39.5736 168.452C39.0964 170.594 38.2337 172.756 37.0223 174.878L13.6195 174.045L0 173.549C0.477233 171.407 1.33995 169.245 2.55139 167.123L16.1709 167.619L39.5736 168.452Z" fill="url(#paint4_linear_357_136)"/>
<path d="M225.933 14.5265C225.456 14.5463 224.96 14.586 224.483 14.6256C186.084 17.323 145.556 32.297 108.479 57.7232C101.412 62.5625 94.6206 67.6993 88.1229 73.0741C87.4989 73.5897 86.8931 74.1054 86.2691 74.6211C83.0936 77.2985 79.9917 80.0356 76.9631 82.832C59.6175 98.7978 44.7132 116.608 32.8558 135.549V135.588C29.3499 141.161 26.1194 146.854 23.1643 152.625C21.3104 156.255 19.5666 159.924 17.9147 163.613L22.7971 163.771L25.1282 163.851C26.7802 160.142 28.5606 156.453 30.4696 152.784C42.2352 130.134 58.8466 108.139 79.6062 88.6233C81.9924 86.3623 84.4336 84.141 86.9482 81.9594C87.5356 81.4437 88.123 80.9281 88.7287 80.4322C88.9673 80.2141 89.2059 80.0157 89.4445 79.8174C90.0319 79.3017 90.6192 78.8059 91.225 78.3101C97.6676 72.9154 104.441 67.7787 111.562 62.8997C147.667 38.128 186.286 24.5026 221.656 21.8053C225.419 21.5078 229.164 21.3491 232.853 21.3095L235.074 15.657L235.661 14.1497C232.467 14.1695 229.237 14.2885 226.006 14.5066L225.933 14.5265ZM11.8758 178.785C10.6644 182.256 9.56313 185.687 8.59031 189.118C4.25851 204.33 2.20271 219.146 2.42297 233.207C2.42297 233.207 2.42297 233.207 2.42297 233.227C2.75336 253.1 7.61748 271.505 17.0153 287.491C20.4661 293.361 24.4491 298.776 28.9277 303.714C29.8455 300.561 30.9101 297.407 32.0664 294.254C29.1296 290.664 26.4498 286.797 24.027 282.691C10.279 259.288 7.10354 230.926 12.9405 201.494C13.7297 197.508 14.6842 193.501 15.8039 189.495C16.7767 186.004 17.878 182.514 19.0894 179.023L11.8758 178.805V178.785ZM98.8423 330.43C96.7865 330.092 94.7308 329.735 92.7301 329.299C87.297 328.189 82.0474 326.741 76.9814 324.995C76.3757 324.777 75.77 324.559 75.1826 324.341C74.7054 324.162 74.2281 323.984 73.7509 323.825C73.1452 323.587 72.5578 323.349 71.9705 323.111C69.5476 322.139 67.1798 321.088 64.8854 319.978C63.9676 322.615 63.1417 325.233 62.3891 327.871C65.381 329.22 68.4647 330.469 71.6401 331.6C72.2642 331.818 72.8882 332.036 73.549 332.254C80.579 334.634 88.0311 336.419 95.8504 337.609C99.1176 338.105 102.458 338.502 105.854 338.779L107.01 335.824L108.662 331.64C105.34 331.342 102.073 330.945 98.8423 330.45V330.43ZM327.804 49.6908C323.454 44.8911 318.608 40.5675 313.358 36.7C312.899 36.3628 312.441 36.0257 311.963 35.6885C297.867 25.6728 280.76 18.9889 261.34 15.9941C257.926 15.4586 254.439 15.0421 250.878 14.7446L249.226 18.9691L248.069 21.9044C251.593 22.2218 255.063 22.6383 258.477 23.1936C259.67 23.3919 260.863 23.5903 262.056 23.8283C278.814 27.0016 294.012 33.1895 306.787 42.3525C307.228 42.6698 307.668 42.9871 308.127 43.3243C308.311 43.4631 308.476 43.602 308.659 43.721C309.1 44.0581 309.54 44.3953 309.981 44.7325C314.496 48.2628 318.681 52.1898 322.481 56.5134C326.335 60.8767 329.786 65.6565 332.833 70.833C337.734 79.1827 341.295 88.1473 343.571 97.5681C344.14 99.8886 344.635 102.249 345.039 104.649C345.149 105.244 345.241 105.839 345.333 106.414C345.388 106.731 345.425 107.048 345.48 107.366C345.572 107.961 345.645 108.536 345.737 109.131C347.425 122.122 346.93 135.767 344.379 149.69C343.846 152.685 343.185 155.679 342.451 158.694C341.992 160.558 341.497 162.442 340.983 164.307C340.634 165.536 340.285 166.766 339.9 168.016C339.698 168.69 339.478 169.384 339.257 170.078C338.817 171.467 338.358 172.875 337.881 174.263C337.826 174.442 337.771 174.62 337.697 174.799L341.79 174.918L344.911 175.017C346.159 171.467 347.297 167.936 348.288 164.426C348.931 162.185 349.518 159.944 350.05 157.722C354.364 140.031 355.52 122.935 353.519 107.029C353.446 106.414 353.372 105.799 353.281 105.184C352.877 102.288 352.363 99.4126 351.739 96.5963C349.353 85.688 345.388 75.4541 339.863 66.0333C336.376 60.123 332.356 54.6689 327.841 49.6908H327.804ZM331.64 189.971C330.025 193.581 328.281 197.19 326.409 200.78C325.253 203.001 324.059 205.203 322.83 207.404C319.709 212.938 316.295 218.432 312.606 223.826C309.724 228.051 306.677 232.216 303.465 236.321C302.951 236.976 302.437 237.63 301.905 238.285C301.501 238.8 301.079 239.316 300.657 239.832C300.143 240.466 299.61 241.121 299.06 241.755C292.47 249.728 285.22 257.443 277.401 264.802C275.51 266.587 273.565 268.372 271.582 270.117C270.72 270.89 269.875 271.624 268.994 272.378C267.728 273.489 266.443 274.56 265.14 275.65C264.258 276.384 263.341 277.138 262.423 277.872C256.953 282.314 251.245 286.578 245.316 290.644C229.953 301.196 214.112 309.724 198.272 316.229C196.95 316.784 195.629 317.3 194.307 317.816C193.555 318.113 192.784 318.411 192.031 318.688C190.508 319.264 188.984 319.839 187.461 320.374C187.369 320.394 187.296 320.434 187.204 320.473C186.543 320.711 185.882 320.93 185.221 321.148C185.166 321.148 185.13 321.187 185.075 321.187C184.689 321.326 184.304 321.445 183.937 321.564C183.331 321.763 182.743 321.961 182.138 322.159C182.009 322.199 181.899 322.239 181.771 322.278C166.077 327.375 150.53 330.509 135.553 331.679C131.625 331.996 127.733 332.155 123.897 332.195L121.089 339.335C124.98 339.335 128.926 339.156 132.873 338.859C143.592 338.085 154.495 336.34 165.435 333.682C172.153 332.036 178.889 330.073 185.607 327.752C185.919 327.633 186.249 327.534 186.58 327.415C187.314 327.157 188.066 326.899 188.801 326.622C190.93 325.868 193.041 325.055 195.17 324.222C195.978 323.905 196.785 323.587 197.574 323.27C214.847 316.269 231.935 307.066 248.345 295.821C253.668 292.171 258.844 288.344 263.855 284.377C264.827 283.603 265.782 282.83 266.736 282.057C274.904 275.412 282.65 268.372 289.864 260.994C294.636 256.134 299.188 251.117 303.502 245.98C304.052 245.306 304.621 244.651 305.172 243.977C308.384 240.089 311.468 236.123 314.386 232.077C319.14 225.572 323.509 218.908 327.492 212.105C329.621 208.495 331.622 204.846 333.512 201.177C335.384 197.547 337.147 193.858 338.799 190.169L331.585 189.951L331.64 189.971Z" fill="url(#paint5_linear_357_136)"/>
<path d="M252.034 0.623295L237.386 37.4139C235 37.7114 232.724 37.6123 230.65 37.1164L245.242 0.444803C247.629 0.107639 249.923 0.167131 252.016 0.623295H252.034Z" fill="url(#paint6_linear_357_136)"/>
<path d="M126.191 316.784L117.216 339.335L111.544 353.575C109.158 353.872 106.882 353.773 104.808 353.277L113.288 331.977L119.4 316.606C121.786 316.269 124.08 316.328 126.173 316.804L126.191 316.784Z" fill="url(#paint7_linear_357_136)"/>
<path d="M357.576 179.856C357.135 181.998 356.291 184.18 355.116 186.282L333.567 185.508L318.002 184.953C318.516 182.811 319.416 180.629 320.664 178.527L336.137 179.082L343.332 179.34L357.613 179.856H357.576Z" fill="url(#paint8_linear_357_136)"/>
<path d="M39.5736 168.452C39.0964 170.594 38.2337 172.756 37.0223 174.878L13.6195 174.045L0 173.549C0.477233 171.407 1.33995 169.245 2.55139 167.123L16.1709 167.619L39.5736 168.452Z" fill="url(#paint9_linear_357_136)"/>
<path d="M101.137 89.9321C80.7257 111.927 68.2075 142.431 68.5012 176.008C40.9135 179.717 85.2778 62.8994 101.137 89.9321Z" fill="url(#paint10_linear_357_136)"/>
<path d="M180.192 43.7605C187.149 62.0863 121.988 55.6802 101.155 89.9321C84.8925 65.458 156.789 42.3126 180.192 43.7605Z" fill="url(#paint11_linear_357_136)"/>
<path d="M265.562 82.3162C257.944 100.325 216.26 46.5767 180.265 54.9067C184.56 23.0149 252.75 65.9141 265.562 82.3162Z" fill="url(#paint12_linear_357_136)"/>
<path d="M300.363 172.696C286.505 187.333 288.248 110.717 258.311 90.2694C280.209 70.4163 301.409 148.381 300.363 172.696Z" fill="url(#paint13_linear_357_136)"/>
<path d="M300.363 173.965C302.327 195.445 280.705 275.135 259.504 258.296C291.773 232.513 283.696 167.163 300.363 173.965Z" fill="url(#paint14_linear_357_136)"/>
<path d="M265.782 264.96C252.401 281.263 191.04 321.425 182.064 294.948C217.214 302.584 257.265 250.621 265.782 264.96Z" fill="url(#paint15_linear_357_136)"/>
<path d="M182.083 294.928C184.487 322.913 81.9371 277.832 102.532 261.39C123.034 282.77 151.43 295.702 182.083 294.928Z" fill="url(#paint16_linear_357_136)"/>
<path d="M102.532 261.39C86.8931 283.841 41.3173 171.962 68.5012 176.008C68.6848 208.356 81.2581 239.336 102.532 261.39Z" fill="url(#paint17_linear_357_136)"/>
<path d="M281.622 160.261C278.942 161.133 276.226 161.907 273.454 162.522C272.316 162.799 271.16 163.037 270.003 163.256C265.672 164.089 261.377 164.624 257.1 164.862C252.786 135.291 233.789 111.035 208.477 101.019C213.286 102.566 217.93 104.49 222.427 106.751C221.289 105.521 220.133 104.311 218.958 103.161C218.719 102.923 218.481 102.685 218.242 102.447C218.077 102.288 217.93 102.13 217.765 101.991C217.214 101.435 216.645 100.9 216.076 100.404C215.636 99.9876 215.213 99.6108 214.773 99.2142C214.7 99.1348 214.608 99.0555 214.516 98.996C214.204 98.7382 213.91 98.4407 213.598 98.1828C213.158 97.806 212.699 97.4094 212.24 97.0325C212.185 96.973 212.112 96.9333 212.056 96.8738C211.579 96.4772 211.102 96.1003 210.625 95.7037L210.221 95.3863L209.835 95.069C209.45 94.7715 209.083 94.4741 208.716 94.1964C208.587 94.0972 208.459 94.0179 208.349 93.9187C208.202 93.8195 208.055 93.7005 207.908 93.5815C207.743 93.4625 207.559 93.3237 207.413 93.2047C207.119 92.9866 206.825 92.7684 206.513 92.5502C206.036 92.1932 205.559 91.8759 205.081 91.5189C204.843 91.3404 204.604 91.1817 204.366 91.0231C203.852 90.6661 203.338 90.3289 202.824 89.9917C202.512 89.7934 202.218 89.5951 201.906 89.3967C201.557 89.1786 201.227 88.9604 200.878 88.7423C200.768 88.6629 200.658 88.6034 200.548 88.5439C200.309 88.3852 200.071 88.2464 199.85 88.1076C199.41 87.8497 198.969 87.5721 198.529 87.3143C198.437 87.2746 198.364 87.2151 198.272 87.1556C197.739 86.8382 197.207 86.5408 196.693 86.2433C196.326 86.0449 195.977 85.8466 195.629 85.6681C195.261 85.4697 194.913 85.2714 194.546 85.0929C194.491 85.0731 194.454 85.0334 194.399 85.0136C194.087 84.8351 193.775 84.6764 193.463 84.5178C193.077 84.3194 192.692 84.1211 192.288 83.903C192.068 83.8038 191.847 83.6848 191.627 83.5658C191.15 83.3278 190.673 83.1096 190.196 82.8914C189.406 82.5146 188.617 82.1576 187.828 81.8006C187.516 81.6618 187.185 81.5229 186.855 81.3841C186.488 81.2254 186.102 81.0668 185.735 80.9081C185.35 80.7693 184.983 80.6106 184.597 80.4519C184.285 80.3131 183.955 80.1941 183.624 80.0751C183.459 80.0156 183.312 79.9561 183.147 79.8768H183.129C182.853 79.7776 182.596 79.6784 182.321 79.5793C182.064 79.4801 181.807 79.381 181.532 79.3016C180.963 79.0835 180.394 78.9049 179.807 78.7066C179.494 78.6074 179.182 78.4885 178.852 78.3893C178.467 78.2703 178.063 78.1315 177.696 78.0125C177.494 77.953 177.31 77.8935 177.108 77.834C177.035 77.8142 176.961 77.7943 176.888 77.7745C176.76 77.7348 176.649 77.6951 176.521 77.6554C176.007 77.5166 175.511 77.3579 174.997 77.2191C174.722 77.1398 174.428 77.0605 174.153 76.9811C173.914 76.9216 173.676 76.8621 173.437 76.8026C173.052 76.7035 172.666 76.6043 172.281 76.5051C171.712 76.3663 171.161 76.2275 170.592 76.1085C170.556 76.1085 170.519 76.0688 170.482 76.0688C170.464 76.0688 170.445 76.0688 170.427 76.0688C169.931 75.9498 169.418 75.8308 168.922 75.7316C168.867 75.7316 168.83 75.7118 168.775 75.692C168.39 75.5928 167.986 75.5333 167.6 75.4341C166.811 75.2755 166.022 75.1366 165.233 74.9978C164.443 74.859 163.654 74.74 162.865 74.621C162.057 74.502 161.268 74.383 160.479 74.3037C160.075 74.2442 159.671 74.2045 159.286 74.1648C158.882 74.1053 158.478 74.0657 158.074 74.0459C157.34 73.9665 156.606 73.907 155.853 73.8475C155.78 73.8475 155.706 73.8475 155.633 73.8475C154.862 73.788 154.109 73.7483 153.32 73.7087C152.494 73.669 151.686 73.6491 150.842 73.6293C150.438 73.6293 150.016 73.6294 149.612 73.6095C149.043 73.6095 148.474 73.6095 147.924 73.6095C141.114 73.669 134.488 74.4227 128.063 75.8308C134.506 71.9634 141.371 68.8099 148.584 66.4894C149.631 66.1522 150.677 65.8349 151.723 65.5374C151.87 65.4977 152.017 65.4581 152.164 65.4184C160.313 63.1177 168.848 61.8484 177.659 61.7691C227.071 61.3328 268.7 98.163 279.695 147.964C280.594 151.97 281.273 156.076 281.751 160.241L281.622 160.261Z" fill="url(#paint18_linear_357_136)"/>
<path d="M155.725 73.8673C156.459 73.9268 157.193 73.9863 157.946 74.0656C157.138 73.9863 156.33 73.9268 155.504 73.8673C155.578 73.8673 155.651 73.8673 155.725 73.8673Z" fill="url(#paint19_linear_357_136)"/>
<path d="M159.157 74.1847C159.561 74.2442 159.947 74.2838 160.35 74.3235C159.543 74.2243 158.753 74.145 157.946 74.0657C158.35 74.0855 158.753 74.1252 159.157 74.1847Z" fill="url(#paint20_linear_357_136)"/>
<path d="M176.448 77.6753C176.576 77.715 176.686 77.7547 176.815 77.7943C176.191 77.596 175.567 77.4175 174.924 77.239C175.438 77.3778 175.934 77.5365 176.448 77.6753Z" fill="url(#paint21_linear_357_136)"/>
<path d="M177.622 78.0323C178.008 78.1513 178.393 78.2901 178.779 78.4091C178.191 78.2108 177.622 78.0323 177.017 77.8538C177.219 77.9133 177.402 77.9728 177.604 78.0323H177.622Z" fill="url(#paint22_linear_357_136)"/>
<path d="M182.248 79.6189C182.523 79.7181 182.78 79.8172 183.055 79.9164C182.541 79.7181 181.991 79.5197 181.458 79.3214C181.734 79.4206 181.991 79.5197 182.248 79.599V79.6189Z" fill="url(#paint23_linear_357_136)"/>
<path d="M183.074 79.9164C183.239 79.9759 183.386 80.0354 183.551 80.1147C183.386 80.0552 183.221 79.9957 183.055 79.9164H183.074Z" fill="url(#paint24_linear_357_136)"/>
<path d="M193.408 84.5376C193.72 84.6963 194.032 84.855 194.344 85.0335C192.949 84.2996 191.554 83.6055 190.141 82.9312C190.618 83.1493 191.095 83.3675 191.572 83.6055C191.793 83.7245 192.013 83.8237 192.233 83.9427C192.637 84.141 193.022 84.3393 193.408 84.5575V84.5376Z" fill="url(#paint25_linear_357_136)"/>
<path d="M199.777 88.1075C200.016 88.2464 200.236 88.3852 200.474 88.5439C199.208 87.7505 197.923 86.9969 196.62 86.2631C197.134 86.5606 197.666 86.858 198.198 87.1754C198.272 87.2349 198.364 87.2745 198.455 87.334C198.896 87.5918 199.336 87.8695 199.777 88.1273V88.1075Z" fill="url(#paint26_linear_357_136)"/>
<path d="M202.769 89.9917C203.283 90.3289 203.797 90.6661 204.311 91.0231C203.062 90.1703 201.796 89.3373 200.493 88.5439C200.603 88.6034 200.713 88.663 200.823 88.7423C201.172 88.9605 201.502 89.1786 201.851 89.3968C202.163 89.5951 202.457 89.7934 202.769 89.9917Z" fill="url(#paint27_linear_357_136)"/>
<path d="M209.799 95.069L210.184 95.3863C209.56 94.8905 208.936 94.3947 208.294 93.9187C208.422 94.0179 208.551 94.0972 208.661 94.1964C209.028 94.4939 209.413 94.7715 209.78 95.069H209.799Z" fill="url(#paint28_linear_357_136)"/>
<path d="M210.588 95.7037C211.065 96.1004 211.543 96.4772 212.02 96.8738C211.414 96.3582 210.808 95.8623 210.184 95.3864L210.588 95.7037Z" fill="url(#paint29_linear_357_136)"/>
<path d="M218.94 103.161C218.554 102.764 218.15 102.387 217.747 102.011C217.912 102.149 218.059 102.308 218.224 102.467C218.462 102.705 218.701 102.923 218.94 103.181V103.161Z" fill="url(#paint30_linear_357_136)"/>
<path d="M179.568 96.3185C173.07 96.5367 166.811 97.6275 160.846 99.5315C135.883 107.465 116.426 129.162 109.929 156.453C99.5398 159.329 89.7932 163.89 80.9277 169.86C93.5193 132.95 123.493 105.105 160.222 98.044C165.912 96.9532 171.767 96.3582 177.733 96.2987C178.357 96.2987 178.962 96.2987 179.586 96.2987L179.568 96.3185Z" fill="url(#paint31_linear_357_136)"/>
<path d="M222.409 106.751C217.912 104.49 213.268 102.566 208.459 101.019C205.706 100.126 202.897 99.353 200.052 98.6985C200.015 98.6985 199.997 98.6985 199.96 98.6787C193.977 97.0523 187.681 96.2194 181.22 96.2789C180.651 96.2789 180.119 96.2788 179.568 96.3185C178.962 96.3185 178.338 96.3185 177.732 96.3185C177.274 96.3185 176.815 96.3185 176.356 96.3384C170.849 96.4574 165.453 97.0325 160.222 98.0638C123.493 105.124 93.5008 132.97 80.9276 169.88C80.1934 170.376 79.4775 170.872 78.7616 171.387C77.2749 172.458 75.7881 173.549 74.3381 174.719C74.3197 167.5 74.9071 160.439 76.0818 153.597C81.827 120.158 101.265 91.856 127.953 75.8705C134.378 74.4623 141.004 73.7087 147.814 73.6492C148.383 73.6492 148.952 73.6492 149.502 73.6492C149.906 73.6492 150.328 73.6492 150.732 73.669C150.787 73.669 150.824 73.669 150.879 73.669C151.191 73.669 151.503 73.669 151.833 73.6888C152.292 73.6888 152.751 73.7087 153.21 73.7285C153.999 73.7682 154.752 73.8079 155.523 73.8674C155.596 73.8674 155.67 73.8674 155.743 73.8674C156.477 73.9269 157.211 73.9863 157.964 74.0657C158.368 74.0855 158.772 74.1251 159.175 74.1846C159.579 74.2441 159.965 74.2838 160.368 74.3235C161.176 74.4227 161.965 74.5218 162.755 74.6408C163.562 74.7598 164.352 74.8788 165.122 75.0177C165.912 75.1565 166.701 75.2953 167.49 75.454C167.876 75.5333 168.28 75.6127 168.665 75.7118C168.72 75.7118 168.757 75.7317 168.812 75.7515C169.307 75.8507 169.821 75.9498 170.317 76.0887C170.335 76.0887 170.354 76.0887 170.372 76.0887C170.409 76.0887 170.445 76.1085 170.482 76.1283C171.051 76.2473 171.62 76.3862 172.171 76.525C172.556 76.6242 172.942 76.7233 173.327 76.8225C173.566 76.882 173.804 76.9415 174.043 77.001C174.318 77.0803 174.612 77.1596 174.887 77.239C175.401 77.3778 175.897 77.5365 176.411 77.6753C176.539 77.715 176.649 77.7546 176.778 77.7943C176.851 77.8141 176.925 77.834 176.998 77.8538C177.2 77.9133 177.384 77.9728 177.586 78.0323C177.971 78.1513 178.356 78.2901 178.742 78.4091C179.054 78.5083 179.366 78.6273 179.696 78.7265C180.284 78.9248 180.853 79.1232 181.422 79.3215C181.697 79.4207 181.954 79.5198 182.211 79.5991C182.486 79.6983 182.743 79.7974 183.019 79.8966H183.037C183.202 79.9561 183.349 80.0156 183.514 80.095C183.845 80.214 184.175 80.333 184.487 80.4718C184.873 80.6106 185.24 80.7693 185.625 80.928C185.992 81.0866 186.378 81.2453 186.745 81.404C187.075 81.5428 187.406 81.6816 187.718 81.8204C188.507 82.1774 189.296 82.5345 190.085 82.9113C190.563 83.1295 191.04 83.3476 191.517 83.5856C191.737 83.7046 191.958 83.8038 192.178 83.9228C192.582 84.1211 192.967 84.3194 193.353 84.5376C193.665 84.6962 193.977 84.8549 194.289 85.0334C194.344 85.0532 194.38 85.0929 194.436 85.1128C194.784 85.3111 195.151 85.4896 195.518 85.6879C195.867 85.8863 196.216 86.0648 196.583 86.2631C197.097 86.5606 197.629 86.8581 198.162 87.1754C198.235 87.2349 198.327 87.2746 198.419 87.3341C198.859 87.5919 199.3 87.8695 199.74 88.1274C199.979 88.2662 200.199 88.405 200.438 88.5637C200.548 88.6232 200.658 88.6827 200.768 88.7621C201.117 88.9802 201.447 89.1984 201.796 89.4166C202.108 89.6149 202.402 89.8132 202.714 90.0116C203.228 90.3487 203.742 90.6859 204.256 91.0429C204.494 91.2015 204.733 91.38 204.971 91.5387C205.449 91.8759 205.926 92.2131 206.403 92.5701C206.697 92.7882 207.009 93.0064 207.302 93.2245C207.468 93.3435 207.633 93.4625 207.798 93.6014C207.945 93.7005 208.092 93.8196 208.239 93.9386C208.367 94.0377 208.496 94.117 208.606 94.2162C208.973 94.5137 209.358 94.7914 209.725 95.0889L210.111 95.4062L210.515 95.7235C210.992 96.1202 211.469 96.497 211.946 96.8937C212.02 96.9532 212.075 96.9928 212.13 97.0523C212.589 97.4292 213.048 97.806 213.488 98.2027C213.8 98.4605 214.094 98.758 214.406 99.0158C214.479 99.0952 214.571 99.1745 214.663 99.234C215.103 99.6306 215.544 100.027 215.966 100.424C216.535 100.94 217.104 101.475 217.655 102.011C217.82 102.149 217.967 102.308 218.132 102.467C218.371 102.705 218.609 102.923 218.848 103.181C220.023 104.331 221.179 105.541 222.317 106.771L222.409 106.751Z" fill="url(#paint32_linear_357_136)"/>
<path d="M176.705 256.729C164.884 256.472 153.412 254.667 142.454 251.513C119.473 244.889 98.7504 232.275 81.772 215.338C82.1574 215 82.5612 214.643 82.9467 214.326C86.1772 211.549 89.5912 208.991 93.1154 206.651C105.065 226.008 122.41 241.141 142.803 249.51C153.375 253.854 164.774 256.392 176.668 256.749L176.705 256.729Z" fill="url(#paint33_linear_357_136)"/>
<path d="M199.226 284.298C199.226 284.298 199.135 284.357 199.098 284.377C196.051 285.051 192.949 285.567 189.81 285.924C186.341 286.34 182.817 286.559 179.238 286.598C178.614 286.598 178.008 286.598 177.384 286.598C184.818 286.42 192.105 285.646 199.226 284.298Z" fill="url(#paint34_linear_357_136)"/>
<path d="M179.091 256.769C178.467 256.769 177.824 256.769 177.2 256.749C177.035 256.749 176.87 256.749 176.705 256.749C164.81 256.392 153.412 253.854 142.839 249.51C122.428 241.121 105.083 226.008 93.1521 206.651C98.5118 203.1 104.22 200.066 110.167 197.587C115.325 218.134 127.807 235.369 144.4 245.841C154.66 252.326 166.481 256.234 179.091 256.729C179.091 256.729 179.091 256.769 179.091 256.789V256.769Z" fill="url(#paint35_linear_357_136)"/>
<path d="M200.64 284.04C200.126 284.159 199.612 284.278 199.079 284.397C199.134 284.377 199.171 284.337 199.208 284.317C199.685 284.238 200.162 284.139 200.621 284.04H200.64Z" fill="url(#paint36_linear_357_136)"/>
<path d="M209.835 186.321C209.45 186.44 209.083 186.559 208.716 186.678C200.364 189.336 192.472 193.085 185.148 197.785C170.354 207.285 157.927 220.633 149.043 236.539L157.138 190.645C153.651 190.288 150.126 190.129 146.529 190.169C133.717 190.288 121.456 192.886 110.149 197.587C104.184 200.046 98.4935 203.1 93.1338 206.65C89.5913 208.991 86.1955 211.549 82.965 214.326C82.5612 214.663 82.1758 215 81.7904 215.337C81.7169 215.397 81.6618 215.456 81.5884 215.516C79.3858 217.46 77.2566 219.502 75.2192 221.625C73.2552 223.667 71.3646 225.79 69.5658 227.991C68.2259 229.617 66.9227 231.303 65.6746 233.029C65.3258 233.505 64.9954 233.961 64.665 234.437C62.6643 237.253 60.8105 240.169 59.0667 243.203C48.9714 260.696 43.2079 281.382 43.3731 303.516C43.4098 308.831 43.7953 314.047 44.4928 319.164C36.5634 303.456 31.9929 285.468 31.8461 266.309C31.6809 245.226 36.9121 225.452 46.1263 208.515C46.2732 208.237 46.4201 207.959 46.5669 207.702C49.0265 203.259 51.7614 199.035 54.7533 195.008C56.2767 192.966 57.8553 190.962 59.5072 189.039C59.7458 188.761 59.9845 188.483 60.2231 188.225C60.7003 187.69 61.1776 187.154 61.6548 186.619C65.5828 182.295 69.8412 178.309 74.3749 174.719C75.8249 173.569 77.2933 172.458 78.7985 171.407C79.5143 170.891 80.2301 170.395 80.9643 169.919C89.8299 163.95 99.5764 159.388 109.965 156.512C117.987 154.271 126.393 153.061 135.057 152.982C144.785 152.902 154.201 154.251 163.158 156.869C181.11 162.105 197.152 172.438 209.872 186.321C209.872 186.321 209.872 186.321 209.891 186.341L209.835 186.321Z" fill="url(#paint37_linear_357_136)"/>
<path d="M282.412 173.291C282.448 179.003 282.1 184.636 281.384 190.13C281.31 190.09 281.255 190.05 281.182 190.03C273.638 186.599 265.819 184.16 257.889 182.752C241.847 179.876 225.364 181.086 209.817 186.302C197.097 172.419 181.073 162.086 163.122 156.85L169.381 121.368C189.81 149.888 222.354 166.865 257.1 164.862C261.377 164.624 265.672 164.089 270.004 163.256C271.16 163.037 272.316 162.799 273.454 162.522C276.226 161.887 278.961 161.134 281.622 160.261C281.659 160.658 281.714 161.034 281.751 161.411C281.861 162.581 281.971 163.791 282.063 164.981C282.265 167.718 282.393 170.495 282.412 173.291Z" fill="url(#paint38_linear_357_136)"/>
<path d="M272.188 222.854C265.543 237.789 255.925 250.899 244.178 261.271C242.783 262.521 241.351 263.711 239.883 264.861C228.374 273.984 215.085 280.628 200.64 284.02C200.162 284.119 199.703 284.198 199.226 284.298C192.104 285.646 184.817 286.42 177.384 286.598C162.461 286.459 148.272 282.909 135.461 276.622C110.975 264.623 91.5185 242.668 81.5884 215.496C81.6618 215.437 81.7169 215.377 81.7903 215.318C98.7504 232.275 119.492 244.889 142.472 251.494C153.761 254.984 165.6 256.987 177.787 257.265C177.953 257.265 178.118 257.265 178.283 257.265C178.907 257.265 179.55 257.265 180.174 257.285C180.779 257.285 181.385 257.285 182.009 257.285C184.12 257.285 186.212 257.205 188.287 257.086C206.33 256.055 223.492 251.315 239.185 243.521C250.804 237.749 261.615 230.312 271.362 221.446C271.655 221.902 271.931 222.359 272.206 222.835L272.188 222.854Z" fill="url(#paint39_linear_357_136)"/>
<path d="M271.343 221.466C261.597 230.312 250.786 237.769 239.167 243.54C223.492 251.335 206.33 256.095 188.268 257.106C186.194 257.225 184.102 257.285 181.991 257.305C181.385 257.305 180.779 257.305 180.155 257.305C179.531 257.305 178.889 257.305 178.265 257.285C178.099 257.285 177.934 257.285 177.769 257.285C165.563 257.007 153.724 255.004 142.454 251.513C153.412 254.667 164.884 256.472 176.704 256.729C176.87 256.729 177.035 256.729 177.2 256.729C177.824 256.749 178.467 256.749 179.091 256.769C179.605 256.769 180.118 256.769 180.632 256.769C180.908 256.769 181.183 256.769 181.458 256.769H181.514C181.826 256.769 182.156 256.769 182.468 256.769C184.065 256.769 185.643 256.69 187.222 256.571C205.265 255.579 222.427 250.998 238.121 243.501C250.143 237.749 261.303 230.292 271.325 221.387C271.343 221.406 271.362 221.446 271.38 221.466H271.343Z" fill="url(#paint40_linear_357_136)"/>
<path d="M327.602 109.726C327.895 149.253 316.754 185.826 297.683 215.318C293.92 221.149 289.845 226.702 285.495 231.938C277.768 241.26 269.141 249.609 259.798 256.789C258.421 257.84 257.045 258.871 255.65 259.883C239.185 271.704 220.592 280.053 200.676 284.02C215.122 280.628 228.429 273.984 239.919 264.861C241.37 263.711 242.801 262.521 244.215 261.271C255.98 250.899 265.58 237.789 272.224 222.854C271.949 222.378 271.674 221.922 271.38 221.466C271.729 221.169 272.059 220.851 272.39 220.554C282.1 211.589 290.763 201.216 298.105 189.733C300.344 186.222 302.474 182.593 304.474 178.884C317.782 154.113 325.344 124.997 325.106 93.9188C325.05 85.7673 324.445 77.7547 323.362 69.9404C326.06 82.713 327.528 96.0409 327.638 109.746L327.602 109.726Z" fill="url(#paint41_linear_357_136)"/>
<path d="M273.326 195.128C270.664 199.253 267.727 203.16 264.552 206.829C246.27 228.051 220.261 241.418 191.315 241.676C180.816 241.775 170.684 240.129 161.139 236.995C179.256 209.09 209.175 190.744 243.132 190.447C249.96 190.387 256.623 191.062 263.084 192.41C266.571 193.124 269.985 194.037 273.326 195.128Z" fill="url(#paint42_linear_357_136)"/>
<path d="M251.355 157.563C215.14 156.373 183.643 134.557 166.719 102.546C202.934 103.736 234.413 125.572 251.355 157.563Z" fill="url(#paint43_linear_357_136)"/>
<defs>
<linearGradient id="paint0_linear_357_136" x1="2.40461" y1="176.762" x2="354.455" y2="176.762" gradientUnits="userSpaceOnUse">
<stop stop-color="#BF5F8F"/>
<stop offset="0.42" stop-color="#713C63"/>
<stop offset="0.78" stop-color="#2E1D3D"/>
</linearGradient>
<linearGradient id="paint1_linear_357_136" x1="230.65" y1="18.8897" x2="252.034" y2="18.8897" gradientUnits="userSpaceOnUse">
<stop stop-color="#BF5F8F"/>
<stop offset="0.42" stop-color="#713C63"/>
<stop offset="0.78" stop-color="#2E1D3D"/>
</linearGradient>
<linearGradient id="paint2_linear_357_136" x1="104.808" y1="335.051" x2="126.191" y2="335.051" gradientUnits="userSpaceOnUse">
<stop stop-color="#BF5F8F"/>
<stop offset="0.42" stop-color="#713C63"/>
<stop offset="0.78" stop-color="#2E1D3D"/>
</linearGradient>
<linearGradient id="paint3_linear_357_136" x1="317.984" y1="182.414" x2="357.576" y2="182.414" gradientUnits="userSpaceOnUse">
<stop stop-color="#BF5F8F"/>
<stop offset="0.42" stop-color="#713C63"/>
<stop offset="0.78" stop-color="#2E1D3D"/>
</linearGradient>
<linearGradient id="paint4_linear_357_136" x1="-0.0183551" y1="170.991" x2="39.5736" y2="170.991" gradientUnits="userSpaceOnUse">
<stop stop-color="#BF5F8F"/>
<stop offset="0.42" stop-color="#713C63"/>
<stop offset="0.78" stop-color="#2E1D3D"/>
</linearGradient>
<linearGradient id="paint5_linear_357_136" x1="14.6597" y1="289.024" x2="350.964" y2="91.428" gradientUnits="userSpaceOnUse">
<stop stop-color="#6ECCDC"/>
<stop offset="0.78" stop-color="#161618"/>
<stop offset="1" stop-color="#161618"/>
</linearGradient>
<linearGradient id="paint6_linear_357_136" x1="14.6591" y1="289.024" x2="350.964" y2="91.4277" gradientUnits="userSpaceOnUse">
<stop stop-color="#6ECCDC"/>
<stop offset="0.78" stop-color="#161618"/>
<stop offset="1" stop-color="#161618"/>
</linearGradient>
<linearGradient id="paint7_linear_357_136" x1="14.6596" y1="289.024" x2="350.964" y2="91.4282" gradientUnits="userSpaceOnUse">
<stop stop-color="#6ECCDC"/>
<stop offset="0.78" stop-color="#161618"/>
<stop offset="1" stop-color="#161618"/>
</linearGradient>
<linearGradient id="paint8_linear_357_136" x1="14.6594" y1="289.024" x2="350.964" y2="91.4279" gradientUnits="userSpaceOnUse">
<stop stop-color="#6ECCDC"/>
<stop offset="0.78" stop-color="#161618"/>
<stop offset="1" stop-color="#161618"/>
</linearGradient>
<linearGradient id="paint9_linear_357_136" x1="14.6596" y1="289.024" x2="350.964" y2="91.4278" gradientUnits="userSpaceOnUse">
<stop stop-color="#6ECCDC"/>
<stop offset="0.78" stop-color="#161618"/>
<stop offset="1" stop-color="#161618"/>
</linearGradient>
<linearGradient id="paint10_linear_357_136" x1="59.4262" y1="131.161" x2="101.458" y2="130.842" gradientUnits="userSpaceOnUse">
<stop stop-color="#6ECCDC"/>
<stop offset="0.78" stop-color="#161618"/>
<stop offset="1" stop-color="#161618"/>
</linearGradient>
<linearGradient id="paint11_linear_357_136" x1="98.6622" y1="67.1668" x2="180.854" y2="66.5428" gradientUnits="userSpaceOnUse">
<stop stop-color="#6ECCDC"/>
<stop offset="0.78" stop-color="#161618"/>
<stop offset="1" stop-color="#161618"/>
</linearGradient>
<linearGradient id="paint12_linear_357_136" x1="180.348" y1="65.1138" x2="265.44" y2="64.4678" gradientUnits="userSpaceOnUse">
<stop stop-color="#6ECCDC"/>
<stop offset="0.78" stop-color="#161618"/>
<stop offset="1" stop-color="#161618"/>
</linearGradient>
<linearGradient id="paint13_linear_357_136" x1="258.639" y1="130.982" x2="300.103" y2="130.668" gradientUnits="userSpaceOnUse">
<stop stop-color="#6ECCDC"/>
<stop offset="0.78" stop-color="#161618"/>
<stop offset="1" stop-color="#161618"/>
</linearGradient>
<linearGradient id="paint14_linear_357_136" x1="259.221" y1="217.215" x2="300.812" y2="216.899" gradientUnits="userSpaceOnUse">
<stop stop-color="#6ECCDC"/>
<stop offset="0.78" stop-color="#161618"/>
<stop offset="1" stop-color="#161618"/>
</linearGradient>
<linearGradient id="paint15_linear_357_136" x1="182.006" y1="283.47" x2="265.941" y2="282.833" gradientUnits="userSpaceOnUse">
<stop stop-color="#6ECCDC"/>
<stop offset="0.78" stop-color="#161618"/>
<stop offset="1" stop-color="#161618"/>
</linearGradient>
<linearGradient id="paint16_linear_357_136" x1="99.933" y1="282.928" x2="182.033" y2="282.305" gradientUnits="userSpaceOnUse">
<stop stop-color="#6ECCDC"/>
<stop offset="0.78" stop-color="#161618"/>
<stop offset="1" stop-color="#161618"/>
</linearGradient>
<linearGradient id="paint17_linear_357_136" x1="60.2865" y1="220.307" x2="102.227" y2="219.989" gradientUnits="userSpaceOnUse">
<stop stop-color="#6ECCDC"/>
<stop offset="0.78" stop-color="#161618"/>
<stop offset="1" stop-color="#161618"/>
</linearGradient>
<linearGradient id="paint18_linear_357_136" x1="128.241" y1="114.089" x2="281.282" y2="112.928" gradientUnits="userSpaceOnUse">
<stop stop-color="#6ECCDC"/>
<stop offset="0.78" stop-color="#161618"/>
<stop offset="1" stop-color="#161618"/>
</linearGradient>
<linearGradient id="paint19_linear_357_136" x1="155.524" y1="73.9418" x2="157.947" y2="73.9234" gradientUnits="userSpaceOnUse">
<stop stop-color="#6ECCDC"/>
<stop offset="0.78" stop-color="#161618"/>
<stop offset="1" stop-color="#161618"/>
</linearGradient>
<linearGradient id="paint20_linear_357_136" x1="157.968" y1="74.178" x2="160.372" y2="74.1598" gradientUnits="userSpaceOnUse">
<stop stop-color="#6ECCDC"/>
<stop offset="0.78" stop-color="#161618"/>
<stop offset="1" stop-color="#161618"/>
</linearGradient>
<linearGradient id="paint21_linear_357_136" x1="174.935" y1="77.4986" x2="176.807" y2="77.4844" gradientUnits="userSpaceOnUse">
<stop stop-color="#6ECCDC"/>
<stop offset="0.78" stop-color="#161618"/>
<stop offset="1" stop-color="#161618"/>
</linearGradient>
<linearGradient id="paint22_linear_357_136" x1="177.032" y1="78.1146" x2="178.794" y2="78.1012" gradientUnits="userSpaceOnUse">
<stop stop-color="#6ECCDC"/>
<stop offset="0.78" stop-color="#161618"/>
<stop offset="1" stop-color="#161618"/>
</linearGradient>
<linearGradient id="paint23_linear_357_136" x1="181.467" y1="79.6025" x2="183.064" y2="79.5904" gradientUnits="userSpaceOnUse">
<stop stop-color="#6ECCDC"/>
<stop offset="0.78" stop-color="#161618"/>
<stop offset="1" stop-color="#161618"/>
</linearGradient>
<linearGradient id="paint24_linear_357_136" x1="183.067" y1="79.985" x2="183.563" y2="79.9812" gradientUnits="userSpaceOnUse">
<stop stop-color="#6ECCDC"/>
<stop offset="0.78" stop-color="#161618"/>
<stop offset="1" stop-color="#161618"/>
</linearGradient>
<linearGradient id="paint25_linear_357_136" x1="190.146" y1="83.9486" x2="194.331" y2="83.9169" gradientUnits="userSpaceOnUse">
<stop stop-color="#6ECCDC"/>
<stop offset="0.78" stop-color="#161618"/>
<stop offset="1" stop-color="#161618"/>
</linearGradient>
<linearGradient id="paint26_linear_357_136" x1="196.633" y1="87.4016" x2="200.488" y2="87.3724" gradientUnits="userSpaceOnUse">
<stop stop-color="#6ECCDC"/>
<stop offset="0.78" stop-color="#161618"/>
<stop offset="1" stop-color="#161618"/>
</linearGradient>
<linearGradient id="paint27_linear_357_136" x1="200.506" y1="89.7871" x2="204.306" y2="89.7583" gradientUnits="userSpaceOnUse">
<stop stop-color="#6ECCDC"/>
<stop offset="0.78" stop-color="#161618"/>
<stop offset="1" stop-color="#161618"/>
</linearGradient>
<linearGradient id="paint28_linear_357_136" x1="208.307" y1="94.6367" x2="210.18" y2="94.6225" gradientUnits="userSpaceOnUse">
<stop stop-color="#6ECCDC"/>
<stop offset="0.78" stop-color="#161618"/>
<stop offset="1" stop-color="#161618"/>
</linearGradient>
<linearGradient id="paint29_linear_357_136" x1="210.191" y1="96.1076" x2="212.026" y2="96.0936" gradientUnits="userSpaceOnUse">
<stop stop-color="#6ECCDC"/>
<stop offset="0.78" stop-color="#161618"/>
<stop offset="1" stop-color="#161618"/>
</linearGradient>
<linearGradient id="paint30_linear_357_136" x1="217.766" y1="102.566" x2="218.941" y2="102.557" gradientUnits="userSpaceOnUse">
<stop stop-color="#6ECCDC"/>
<stop offset="0.78" stop-color="#161618"/>
<stop offset="1" stop-color="#161618"/>
</linearGradient>
<linearGradient id="paint31_linear_357_136" x1="80.6448" y1="133.492" x2="179.852" y2="132.739" gradientUnits="userSpaceOnUse">
<stop stop-color="#6ECCDC"/>
<stop offset="0.78" stop-color="#161618"/>
<stop offset="1" stop-color="#161618"/>
</linearGradient>
<linearGradient id="paint32_linear_357_136" x1="73.9681" y1="124.468" x2="222.549" y2="123.34" gradientUnits="userSpaceOnUse">
<stop stop-color="#6ECCDC"/>
<stop offset="0.78" stop-color="#161618"/>
<stop offset="1" stop-color="#161618"/>
</linearGradient>
<linearGradient id="paint33_linear_357_136" x1="81.9076" y1="232.135" x2="176.526" y2="231.416" gradientUnits="userSpaceOnUse">
<stop stop-color="#6ECCDC"/>
<stop offset="0.78" stop-color="#161618"/>
<stop offset="1" stop-color="#161618"/>
</linearGradient>
<linearGradient id="paint34_linear_357_136" x1="177.377" y1="285.534" x2="199.238" y2="285.368" gradientUnits="userSpaceOnUse">
<stop stop-color="#6ECCDC"/>
<stop offset="0.78" stop-color="#161618"/>
<stop offset="1" stop-color="#161618"/>
</linearGradient>
<linearGradient id="paint35_linear_357_136" x1="93.3088" y1="227.611" x2="178.878" y2="226.961" gradientUnits="userSpaceOnUse">
<stop stop-color="#6ECCDC"/>
<stop offset="0.78" stop-color="#161618"/>
<stop offset="1" stop-color="#161618"/>
</linearGradient>
<linearGradient id="paint36_linear_357_136" x1="199.1" y1="284.191" x2="200.642" y2="284.179" gradientUnits="userSpaceOnUse">
<stop stop-color="#6ECCDC"/>
<stop offset="0.78" stop-color="#161618"/>
<stop offset="1" stop-color="#161618"/>
</linearGradient>
<linearGradient id="paint37_linear_357_136" x1="31.6095" y1="236.527" x2="210.219" y2="235.171" gradientUnits="userSpaceOnUse">
<stop stop-color="#6ECCDC"/>
<stop offset="0.78" stop-color="#161618"/>
<stop offset="1" stop-color="#161618"/>
</linearGradient>
<linearGradient id="paint38_linear_357_136" x1="163.106" y1="156.265" x2="282.283" y2="155.36" gradientUnits="userSpaceOnUse">
<stop stop-color="#6ECCDC"/>
<stop offset="0.78" stop-color="#161618"/>
<stop offset="1" stop-color="#161618"/>
</linearGradient>
<linearGradient id="paint39_linear_357_136" x1="81.87" y1="251.374" x2="272.41" y2="249.927" gradientUnits="userSpaceOnUse">
<stop stop-color="#6ECCDC"/>
<stop offset="0.78" stop-color="#161618"/>
<stop offset="1" stop-color="#161618"/>
</linearGradient>
<linearGradient id="paint40_linear_357_136" x1="142.376" y1="240.068" x2="271.483" y2="239.088" gradientUnits="userSpaceOnUse">
<stop stop-color="#6ECCDC"/>
<stop offset="0.78" stop-color="#161618"/>
<stop offset="1" stop-color="#161618"/>
</linearGradient>
<linearGradient id="paint41_linear_357_136" x1="199.832" y1="177.498" x2="328.113" y2="176.525" gradientUnits="userSpaceOnUse">
<stop stop-color="#6ECCDC"/>
<stop offset="0.78" stop-color="#161618"/>
<stop offset="1" stop-color="#161618"/>
</linearGradient>
<linearGradient id="paint42_linear_357_136" x1="160.994" y1="216.539" x2="273.49" y2="215.685" gradientUnits="userSpaceOnUse">
<stop stop-color="#6ECCDC"/>
<stop offset="0.78" stop-color="#161618"/>
<stop offset="1" stop-color="#161618"/>
</linearGradient>
<linearGradient id="paint43_linear_357_136" x1="166.93" y1="130.387" x2="251.159" y2="129.748" gradientUnits="userSpaceOnUse">
<stop stop-color="#6ECCDC"/>
<stop offset="0.78" stop-color="#161618"/>
<stop offset="1" stop-color="#161618"/>
</linearGradient>
</defs>
</svg>
