<svg width="406" height="390" viewBox="0 0 406 390" fill="none" xmlns="http://www.w3.org/2000/svg">
<g filter="url(#filter0_d_563_570)">
<path d="M290.021 91.0163L7.66211 168.303L64.2484 375.036L346.607 297.749L290.021 91.0163Z" fill="#A2B2D6"/>
<path d="M291.87 83.3915L9.51074 160.678L66.0971 367.411L348.456 290.125L291.87 83.3915Z" fill="#F5F5F5"/>
<path d="M266.336 110.014L167.767 136.994L169.294 142.573L267.864 115.593L266.336 110.014Z" fill="#949AAA"/>
<path d="M269.869 122.925L186.161 145.837L186.92 148.61L270.628 125.697L269.869 122.925Z" fill="#949AAA"/>
<path d="M272.056 130.911L173.485 157.891L174.244 160.664L272.815 133.684L272.056 130.911Z" fill="#949AAA"/>
<path d="M274.242 138.898L175.672 165.878L176.431 168.651L275.001 141.671L274.242 138.898Z" fill="#949AAA"/>
<path d="M276.428 146.885L177.858 173.865L178.617 176.638L277.187 149.658L276.428 146.885Z" fill="#949AAA"/>
<path d="M278.615 154.872L180.045 181.852L180.804 184.625L279.374 157.644L278.615 154.872Z" fill="#949AAA"/>
<path d="M280.913 163.268L182.343 190.249L183.102 193.022L281.672 166.042L280.913 163.268Z" fill="#949AAA"/>
<path d="M283.099 171.257L184.529 198.237L185.288 201.01L283.858 174.029L283.099 171.257Z" fill="#949AAA"/>
<path d="M259.96 186.174L186.715 206.223L187.474 208.996L260.719 188.947L259.96 186.174Z" fill="#949AAA"/>
<path d="M115.499 194.067L99.917 198.332L100.676 201.105L116.258 196.84L115.499 194.067Z" fill="#949AAA"/>
<path d="M80.4268 190.404L91.4361 176.738L107.109 183.101L127.039 148.144L149.174 169.127L81.6047 191.721L80.4268 190.404Z" fill="#F2274D"/>
<path d="M154.782 162.675L144.791 153.118L120.613 169.57L102.534 165.694L91.281 188.343L68.4283 185.494L62.4121 199.434L155.97 173.003L154.782 162.675Z" fill="#FFD121"/>
<path d="M51.7041 206.052L60.6687 190.077L69.9625 194.088L78.684 181.048L92.4148 186.303L113.002 163.357L131.663 167.769L154.982 154.425L160.93 176.152L51.7041 206.052Z" fill="#317AB0"/>
<path d="M225.082 283.376L217.834 285.36L219.818 292.609L227.066 290.625L225.082 283.376Z" fill="#6B2D6E"/>
<path d="M278.849 271.067L232.137 283.853L232.896 286.626L279.608 273.84L278.849 271.067Z" fill="#949AAA"/>
<path d="M228.299 295.116L221.05 297.101L223.034 304.349L230.283 302.365L228.299 295.116Z" fill="#F2274D"/>
<path d="M251.765 291.107L235.348 295.601L236.107 298.374L252.524 293.88L251.765 291.107Z" fill="#949AAA"/>
<path d="M261.944 263.436L246.362 267.701L247.121 270.474L262.703 266.209L261.944 263.436Z" fill="#949AAA"/>
<path d="M293.706 232.784C293.975 233.767 293.396 234.781 292.415 235.05C291.432 235.319 290.418 234.741 290.148 233.758C289.88 232.775 290.458 231.76 291.441 231.492C292.423 231.223 293.437 231.801 293.706 232.784Z" fill="#F2274D"/>
<path d="M274.898 225.891C275.167 226.873 274.587 227.888 273.606 228.156C272.624 228.425 271.608 227.847 271.338 226.865C271.069 225.883 271.65 224.867 272.633 224.598C273.613 224.33 274.629 224.909 274.898 225.891Z" fill="#F2274D"/>
<path d="M257.081 242.403C257.35 243.386 256.771 244.401 255.789 244.669C254.807 244.938 253.792 244.359 253.523 243.377C253.255 242.395 253.832 241.379 254.815 241.111C255.798 240.842 256.812 241.421 257.081 242.403Z" fill="#F2274D"/>
<path d="M241.938 240.731C242.207 241.714 241.628 242.727 240.644 242.996C239.663 243.265 238.647 242.687 238.378 241.705C238.109 240.723 238.689 239.707 239.671 239.438C240.653 239.17 241.668 239.749 241.938 240.731Z" fill="#F2274D"/>
<path d="M237.448 254.072C237.716 255.055 237.139 256.069 236.156 256.338C235.174 256.607 234.159 256.028 233.889 255.046C233.62 254.063 234.2 253.05 235.183 252.781C236.165 252.512 237.179 253.09 237.448 254.072Z" fill="#F2274D"/>
<path d="M215.988 254.847C216.256 255.83 215.677 256.844 214.695 257.113C213.713 257.382 212.698 256.804 212.429 255.821C212.16 254.839 212.739 253.824 213.721 253.556C214.703 253.287 215.719 253.865 215.988 254.847Z" fill="#F2274D"/>
<path d="M203.768 267.453C204.037 268.435 203.458 269.449 202.475 269.718C201.493 269.986 200.478 269.409 200.209 268.427C199.94 267.444 200.519 266.43 201.501 266.161C202.484 265.892 203.499 266.47 203.768 267.453Z" fill="#6B2D6E"/>
<path d="M211.282 231.141C211.551 232.124 210.971 233.138 209.989 233.407C209.007 233.676 207.991 233.098 207.722 232.115C207.454 231.133 208.032 230.118 209.014 229.849C209.998 229.58 211.013 230.159 211.282 231.141Z" fill="#6B2D6E"/>
<path d="M231.491 243.591C231.76 244.574 231.182 245.587 230.201 245.855C229.217 246.125 228.203 245.547 227.934 244.564C227.665 243.582 228.243 242.567 229.227 242.298C230.209 242.029 231.221 242.608 231.491 243.591Z" fill="#6B2D6E"/>
<path d="M243.231 222.272C243.501 223.255 242.921 224.269 241.94 224.538C240.956 224.807 239.942 224.229 239.673 223.246C239.404 222.264 239.982 221.25 240.967 220.98C241.948 220.711 242.962 221.29 243.231 222.272Z" fill="#6B2D6E"/>
<path d="M257.32 231.231C257.589 232.214 257.009 233.229 256.026 233.498C255.045 233.766 254.03 233.187 253.761 232.205C253.492 231.224 254.072 230.208 255.052 229.939C256.035 229.671 257.051 230.249 257.32 231.231Z" fill="#6B2D6E"/>
<path d="M265.863 208.795C266.132 209.778 265.552 210.792 264.572 211.061C263.589 211.329 262.573 210.752 262.304 209.769C262.035 208.787 262.615 207.772 263.597 207.503C264.578 207.235 265.593 207.813 265.863 208.795Z" fill="#6B2D6E"/>
<path d="M282.06 215.346C282.329 216.328 281.748 217.343 280.768 217.612C279.785 217.881 278.77 217.303 278.5 216.32C278.232 215.338 278.812 214.322 279.794 214.053C280.775 213.785 281.79 214.364 282.06 215.346Z" fill="#6B2D6E"/>
<path d="M293.333 208.681C293.602 209.663 293.023 210.678 292.04 210.946C291.059 211.215 290.043 210.637 289.774 209.655C289.504 208.672 290.085 207.657 291.067 207.388C292.049 207.119 293.064 207.698 293.333 208.681Z" fill="#6B2D6E"/>
<path d="M202.42 268.416L201.219 268.157L209.24 230.738L229.402 243.245L241.464 222.088L255.275 230.955L263.08 208.54L280.54 215.44L291.163 208.799L291.816 209.842L280.665 216.812L263.82 210.155L255.923 232.832L241.891 223.824L229.839 244.964L210.076 232.704L202.42 268.416Z" fill="#6B2D6E"/>
<path d="M205.651 272.975C205.921 273.957 205.343 274.971 204.361 275.24C203.379 275.509 202.363 274.931 202.094 273.948C201.825 272.966 202.404 271.951 203.387 271.681C204.368 271.413 205.382 271.993 205.651 272.975Z" fill="#F2274D"/>
<path d="M203.975 274.521L202.908 273.912L213.51 254.716L235.373 253.985L239.887 240.494L254.752 242.884L272.921 225.116L291.96 232.907L291.493 234.046L273.202 226.56L255.17 244.197L240.7 241.87L236.251 255.184L214.239 255.921L203.975 274.521Z" fill="#F2274D"/>
<g opacity="0.6">
<path d="M171.828 215.796L63.7424 246.166C60.3356 247.123 58.3497 250.661 59.3069 254.068L81.4865 333.004C82.4437 336.411 85.9816 338.396 89.3884 337.439L143.432 322.254L197.474 307.069C200.881 306.111 202.867 302.574 201.91 299.167L179.73 220.231C178.773 216.824 175.235 214.839 171.828 215.796Z" fill="#F0EDE2"/>
<path d="M192.087 304.647C195.209 303.77 197.028 300.529 196.151 297.407L175.829 225.084C174.952 221.963 171.711 220.143 168.589 221.02L119.074 234.933L142.571 318.56L192.087 304.647Z" fill="#DDDBD0"/>
<path d="M134.909 300.657L118.478 289.525C116.355 288.087 112.375 289.206 111.312 291.538L83.0013 330.992C81.9388 333.325 84.5915 335.122 87.7762 334.227L124.29 323.968L139.561 319.677L142.801 318.766L138.372 303.004L134.909 300.657Z" fill="#6DA1A1"/>
<path d="M199.595 296.446L165.763 262.162C162.813 260.163 157.279 261.718 155.801 264.961L144.362 290.07L138.447 303.054L138.438 303.049L138.372 303.004L142.801 318.766L142.851 318.752L148.95 317.039L173.843 310.044L196.928 303.558C201.356 302.313 202.545 298.444 199.595 296.446Z" fill="#588281"/>
<path d="M91.0947 275.807C92.4215 280.528 97.3251 283.281 102.047 281.954L97.2421 264.854C92.5203 266.181 89.7678 271.084 91.0947 275.807Z" fill="#E6BA59"/>
<path d="M97.242 264.854L102.047 281.954C106.769 280.627 109.521 275.724 108.194 271.002C106.867 266.28 101.964 263.527 97.242 264.854Z" fill="#C7A24F"/>
<path d="M93.0561 332.473C89.9342 333.351 86.6932 331.531 85.816 328.41L65.4943 256.086C64.6174 252.965 66.4366 249.724 69.5584 248.847L119.074 234.934L118.136 231.595L64.0926 246.78C60.686 247.737 58.7001 251.275 59.6573 254.682L81.837 333.618C82.7942 337.025 86.3322 339.011 89.7388 338.053L143.782 322.868L142.572 318.56L93.0561 332.473Z" fill="#4E4F51"/>
<path d="M172.179 216.41L118.136 231.595L119.074 234.934L168.59 221.02C171.711 220.143 174.953 221.963 175.83 225.084L196.152 297.407C197.029 300.529 195.209 303.77 192.088 304.647L142.572 318.56L143.782 322.868L197.825 307.683C201.232 306.726 203.217 303.188 202.26 299.781L180.08 220.845C179.123 217.438 175.586 215.453 172.179 216.41Z" fill="#404042"/>
</g>
<path d="M389.824 67.3896L186.696 35.6302L176.968 92.0743L176.93 92.2938L140.093 306.492L350.871 343.361L394.248 68.2745L389.824 67.3896Z" fill="#A2B2D6"/>
<path d="M195.028 33.1851L148.438 303.593L346.421 337.705L393.012 67.2973L195.028 33.1851Z" fill="#F1F2F2"/>
<path d="M190.17 61.3927L185.266 89.8569L383.249 123.969L388.153 95.5048L190.17 61.3927Z" fill="#5A5A7A"/>
<path d="M239.302 50.5442L237.789 59.3276L359.972 80.3796L361.485 71.5962L239.302 50.5442Z" fill="#5A5A7A"/>
<path d="M233.607 86.8001L232.755 91.7473L353.863 112.614L354.715 107.667L233.607 86.8001Z" fill="white"/>
<path d="M220.561 74.8261L219.709 79.7738L370.166 105.697L371.019 100.75L220.561 74.8261Z" fill="white"/>
<path d="M152.07 282.493L151.432 286.199L349.414 320.311L350.053 316.605L152.07 282.493Z" fill="#5A5A7A"/>
<path d="M249.098 166.792L249.912 205.85C257.081 205.445 263.91 203.324 269.913 199.837L249.098 166.792Z" fill="#6B2D6E"/>
<path d="M250.685 163.158L272.689 198.088C281.982 191.748 288.899 181.954 291.368 170.169L250.685 163.158Z" fill="#FFD121"/>
<path d="M291.926 166.935C295.093 143.587 279.649 121.712 256.587 116.88L249.229 159.577L291.926 166.935Z" fill="#75CF33"/>
<path d="M245.761 164.192L212.678 189.617C219.287 197.604 228.673 203.361 239.69 205.26C242.019 205.661 244.338 205.874 246.63 205.913L245.761 164.192Z" fill="#F2274D"/>
<path d="M202.988 153.272C201.479 162.028 202.61 170.628 205.806 178.258L207.182 181.237C208.203 183.249 209.373 185.181 210.678 187.015L245.724 160.595L245.863 159.786L248.878 142.3L253.354 116.323C229.466 113.082 207.115 129.322 202.988 153.272Z" fill="#317AB0"/>
<path d="M307.973 146.537L306.866 152.957L313.286 154.063L314.393 147.644L307.973 146.537Z" fill="#317AB0"/>
<path d="M319.729 150.598L319.306 153.054L360.677 160.182L361.1 157.726L319.729 150.598Z" fill="#949AAA"/>
<path d="M306.165 156.933L305.059 163.352L311.479 164.459L312.585 158.039L306.165 156.933Z" fill="#75CF33"/>
<path d="M317.943 161L317.52 163.456L332.059 165.961L332.482 163.505L317.943 161Z" fill="#949AAA"/>
<path d="M304.388 167.336L303.281 173.756L309.701 174.863L310.808 168.443L304.388 167.336Z" fill="#FFD121"/>
<path d="M316.142 171.392L315.719 173.848L348.866 179.56L349.289 177.104L316.142 171.392Z" fill="#949AAA"/>
<path d="M302.574 177.726L301.468 184.146L307.888 185.252L308.994 178.832L302.574 177.726Z" fill="#6B2D6E"/>
<path d="M314.385 181.811L313.962 184.266L338.684 188.528L339.108 186.073L314.385 181.811Z" fill="#949AAA"/>
<path d="M300.757 188.354L299.65 194.774L306.07 195.88L307.177 189.461L300.757 188.354Z" fill="#F2274D"/>
<path d="M312.519 192.416L312.096 194.872L349.6 201.334L350.023 198.878L312.519 192.416Z" fill="#949AAA"/>
<path d="M191.7 130.06C191.405 131.765 189.784 132.909 188.078 132.615C186.373 132.321 185.229 130.701 185.523 128.995C185.817 127.29 187.439 126.146 189.144 126.44C190.848 126.734 191.993 128.354 191.7 130.06Z" fill="#231F20"/>
<path d="M177.713 211.214C177.418 212.919 175.796 214.064 174.091 213.77C172.387 213.476 171.242 211.855 171.536 210.15C171.83 208.444 173.451 207.301 175.156 207.594C176.862 207.888 178.006 209.509 177.713 211.214Z" fill="#231F20"/>
<path d="M287.232 227.554L286.38 232.494L346.466 242.853L347.317 237.913L287.232 227.554Z" fill="#5A5A7A"/>
<path d="M294.289 240.526L293.866 242.982L344.892 251.774L345.315 249.318L294.289 240.526Z" fill="#949AAA"/>
<path d="M284.011 246.037L283.588 248.494L343.674 258.847L344.097 256.39L284.011 246.037Z" fill="#949AAA"/>
<path d="M282.793 253.114L282.37 255.569L342.456 265.922L342.879 263.466L282.793 253.114Z" fill="#949AAA"/>
<path d="M281.604 260.208L281.181 262.664L341.266 273.023L341.69 270.567L281.604 260.208Z" fill="#949AAA"/>
<path d="M280.355 267.26L279.932 269.715L340.017 280.068L340.44 277.612L280.355 267.26Z" fill="#949AAA"/>
<path d="M279.168 274.359L278.744 276.815L323.392 284.512L323.815 282.056L279.168 274.359Z" fill="#949AAA"/>
<path d="M231.432 211.853L231.009 214.309L244.809 216.686L245.233 214.23L231.432 211.853Z" fill="#949AAA"/>
<path d="M219.781 279.474L219.357 281.93L233.158 284.308L233.581 281.852L219.781 279.474Z" fill="#5A5A7A"/>
<path d="M40.718 4.3374L15.1934 226.645L325.185 255L338.756 31.5677L40.718 4.3374Z" fill="#A2B2D6"/>
<path d="M39.9836 3.34438L20.7939 221.822L319.194 248.031L338.383 29.5539L39.9836 3.34438Z" fill="#F7F7F7"/>
<path d="M200.244 36.8725L199.727 42.7687L303.896 51.9183L304.414 46.0221L200.244 36.8725Z" fill="#5A5A7A"/>
<path d="M214.752 51.8937L214.495 54.824L302.958 62.594L303.216 59.6638L214.752 51.8937Z" fill="#949AAA"/>
<path d="M198.306 58.9552L198.049 61.886L302.218 71.0356L302.476 68.1048L198.306 58.9552Z" fill="#949AAA"/>
<path d="M197.565 67.3961L197.308 70.3264L301.477 79.476L301.734 76.5457L197.565 67.3961Z" fill="#949AAA"/>
<path d="M196.824 75.8362L196.566 78.767L300.736 87.9166L300.993 84.9858L196.824 75.8362Z" fill="#949AAA"/>
<path d="M196.083 84.2766L195.825 87.2069L299.994 96.3565L300.252 93.4262L196.083 84.2766Z" fill="#949AAA"/>
<path d="M195.304 93.1498L195.047 96.0811L299.216 105.231L299.473 102.299L195.304 93.1498Z" fill="#949AAA"/>
<path d="M194.563 101.591L194.306 104.521L298.474 113.671L298.732 110.741L194.563 101.591Z" fill="#949AAA"/>
<path d="M193.822 110.032L193.564 112.962L270.971 119.761L271.228 116.831L193.822 110.032Z" fill="#949AAA"/>
<path d="M57.68 122L57.1621 127.896L161.332 137.046L161.85 131.15L57.68 122Z" fill="#5A5A7A"/>
<path d="M72.188 137.021L71.9307 139.952L160.394 147.722L160.651 144.791L72.188 137.021Z" fill="#949AAA"/>
<path d="M55.7418 144.083L55.4844 147.014L159.654 156.163L159.911 153.232L55.7418 144.083Z" fill="#949AAA"/>
<path d="M55.0005 152.524L54.7432 155.454L158.912 164.604L159.17 161.673L55.0005 152.524Z" fill="#949AAA"/>
<path d="M54.2594 160.964L54.002 163.895L158.172 173.044L158.429 170.113L54.2594 160.964Z" fill="#949AAA"/>
<path d="M53.5181 169.404L53.2607 172.334L157.43 181.484L157.687 178.554L53.5181 169.404Z" fill="#949AAA"/>
<path d="M52.7399 178.277L52.4824 181.209L156.652 190.358L156.909 187.427L52.7399 178.277Z" fill="#949AAA"/>
<path d="M51.9986 186.719L51.7412 189.649L155.91 198.799L156.167 195.868L51.9986 186.719Z" fill="#949AAA"/>
<path d="M51.2574 195.16L51 198.09L128.406 204.889L128.664 201.959L51.2574 195.16Z" fill="#949AAA"/>
<path d="M254.624 129.367L254.106 135.264L297.17 139.046L297.687 133.15L254.624 129.367Z" fill="#5A5A7A"/>
<path d="M251.785 157.026L251.527 159.956L294.394 163.722L294.651 160.791L251.785 157.026Z" fill="#949AAA"/>
<path d="M252.785 149.026L252.527 151.956L295.394 155.722L295.651 152.791L252.785 149.026Z" fill="#949AAA"/>
<path d="M253.785 140.026L253.527 142.956L296.394 146.722L296.651 143.791L253.785 140.026Z" fill="#949AAA"/>
<path d="M251.516 165.509L251.259 168.439L293.654 172.163L293.911 169.232L251.516 165.509Z" fill="#949AAA"/>
<path d="M189.001 168.524L188.743 171.454L292.912 180.604L293.17 177.673L189.001 168.524Z" fill="#949AAA"/>
<path d="M188.259 176.964L188.002 179.895L292.172 189.044L292.429 186.113L188.259 176.964Z" fill="#949AAA"/>
<path d="M187.518 185.404L187.261 188.335L291.43 197.484L291.687 194.554L187.518 185.404Z" fill="#949AAA"/>
<path d="M186.74 194.277L186.482 197.209L290.652 206.358L290.909 203.427L186.74 194.277Z" fill="#949AAA"/>
<path d="M185.999 202.719L185.741 205.649L289.91 214.799L290.167 211.868L185.999 202.719Z" fill="#949AAA"/>
<path d="M185.257 211.16L185 214.09L262.406 220.889L262.664 217.959L185.257 211.16Z" fill="#949AAA"/>
<path d="M163.335 32.4982L71.2863 25.4049C68.3849 25.1813 65.8516 27.352 65.6281 30.2531L60.4478 97.4769C60.2242 100.378 62.395 102.911 65.2964 103.135L111.321 106.681L157.345 110.228C160.246 110.452 162.779 108.281 163.003 105.38L168.183 38.1561C168.407 35.2549 166.236 32.7218 163.335 32.4982Z" fill="#F0EDE2"/>
<path d="M153.87 106.836C156.528 107.041 158.849 105.052 159.054 102.394L163.801 40.8012C164.005 38.1433 162.016 35.8223 159.358 35.6175L117.189 32.3679L111.701 103.586L153.87 106.836Z" fill="#DDDBD0"/>
<path d="M110.844 87.5962L101.302 74.3559C100.069 72.6457 96.679 72.3845 95.1991 73.8856L62.1872 96.3519C60.7076 97.8528 62.2481 99.9904 64.9602 100.199L96.0559 102.596L109.061 103.598L111.821 103.81L112.855 90.3865L110.844 87.5962Z" fill="#6DA1A1"/>
<path d="M161.986 102.624L145.549 66.5888C143.836 64.2116 139.123 63.8484 137.065 65.935L121.136 82.0919L112.899 90.4468L112.893 90.44L112.855 90.3864L111.82 103.81L111.863 103.814L117.057 104.214L138.257 105.848L157.917 107.363C161.687 107.653 163.699 105.001 161.986 102.624Z" fill="#588281"/>
<path d="M84.0328 56.0238C83.7229 60.045 86.7318 63.5563 90.753 63.8662L91.8752 49.3032C87.854 48.9934 84.3427 52.0022 84.0328 56.0238Z" fill="#E6BA59"/>
<path d="M91.8752 49.3033L90.7529 63.8662C94.7741 64.1761 98.2851 61.1672 98.595 57.146C98.9049 53.1244 95.8964 49.6132 91.8752 49.3033Z" fill="#C7A24F"/>
<path d="M69.5324 100.337C66.8738 100.132 64.8851 97.8113 65.09 95.1528L69.8363 33.5603C70.0412 30.9024 72.3619 28.9135 75.0206 29.1184L117.189 32.368L117.408 29.5248L71.3838 25.9782C68.4826 25.7546 65.9493 27.9251 65.7258 30.8264L60.5455 98.0502C60.3219 100.951 62.4927 103.485 65.3938 103.708L111.418 107.255L111.701 103.586L69.5324 100.337Z" fill="#4E4F51"/>
<path d="M163.432 33.0714L117.408 29.5248L117.189 32.3679L159.358 35.6174C162.016 35.8223 164.005 38.1433 163.8 40.8012L159.054 102.394C158.849 105.052 156.528 107.041 153.87 106.836L111.701 103.586L111.418 107.255L157.442 110.802C160.343 111.025 162.876 108.854 163.1 105.953L168.28 38.7293C168.504 35.8279 166.333 33.295 163.432 33.0714Z" fill="#404042"/>
<path d="M244.818 124.145L193.937 120.224C192.333 120.1 190.933 121.3 190.809 122.904L187.945 160.063C187.822 161.667 189.022 163.067 190.626 163.191L216.066 165.151L241.507 167.112C243.111 167.235 244.511 166.035 244.635 164.432L247.498 127.272C247.622 125.669 246.422 124.268 244.818 124.145Z" fill="#F0EDE2"/>
<path d="M239.587 165.236C241.056 165.35 242.339 164.25 242.453 162.781L245.076 128.734C245.19 127.265 244.09 125.982 242.621 125.869L219.311 124.073L216.277 163.44L239.587 165.236Z" fill="#DDDBD0"/>
<path d="M215.803 154.601L210.528 147.282C209.847 146.337 207.973 146.193 207.155 147.022L188.907 159.441C188.089 160.271 188.941 161.452 190.44 161.568L207.629 162.892L214.817 163.446L216.343 163.564L216.915 156.144L215.803 154.601Z" fill="#6DA1A1"/>
<path d="M244.073 162.908L234.987 142.989C234.04 141.675 231.435 141.474 230.297 142.628L221.492 151.559L216.939 156.177L216.936 156.173L216.915 156.144L216.343 163.564L216.366 163.566L219.237 163.787L230.956 164.69L241.823 165.528C243.908 165.688 245.02 164.222 244.073 162.908Z" fill="#588281"/>
<path d="M200.983 137.149C200.812 139.372 202.475 141.313 204.698 141.484L205.318 133.434C203.095 133.263 201.154 134.926 200.983 137.149Z" fill="#E6BA59"/>
<path d="M205.318 133.434L204.697 141.484C206.92 141.655 208.861 139.992 209.032 137.769C209.203 135.546 207.54 133.605 205.318 133.434Z" fill="#C7A24F"/>
<path d="M192.967 161.644C191.497 161.531 190.398 160.248 190.511 158.778L193.135 124.732C193.248 123.263 194.531 122.163 196.001 122.277L219.31 124.073L219.431 122.501L193.99 120.541C192.387 120.417 190.986 121.617 190.863 123.221L187.999 160.38C187.876 161.984 189.076 163.384 190.679 163.508L216.12 165.468L216.276 163.44L192.967 161.644Z" fill="#4E4F51"/>
<path d="M244.872 124.462L219.431 122.501L219.31 124.073L242.62 125.869C244.089 125.982 245.189 127.265 245.075 128.734L242.452 162.781C242.338 164.25 241.055 165.35 239.586 165.236L216.276 163.44L216.12 165.468L241.561 167.428C243.165 167.552 244.565 166.352 244.688 164.748L247.552 127.589C247.675 125.985 246.476 124.585 244.872 124.462Z" fill="#404042"/>
</g>
<defs>
<filter id="filter0_d_563_570" x="0.76211" y="0.444361" width="404.386" height="389.491" filterUnits="userSpaceOnUse" color-interpolation-filters="sRGB">
<feFlood flood-opacity="0" result="BackgroundImageFix"/>
<feColorMatrix in="SourceAlpha" type="matrix" values="0 0 0 0 0 0 0 0 0 0 0 0 0 0 0 0 0 0 127 0" result="hardAlpha"/>
<feOffset dx="2" dy="6"/>
<feGaussianBlur stdDeviation="4.45"/>
<feComposite in2="hardAlpha" operator="out"/>
<feColorMatrix type="matrix" values="0 0 0 0 0.168627 0 0 0 0 0.258824 0 0 0 0 0.282353 0 0 0 0.64 0"/>
<feBlend mode="normal" in2="BackgroundImageFix" result="effect1_dropShadow_563_570"/>
<feBlend mode="normal" in="SourceGraphic" in2="effect1_dropShadow_563_570" result="shape"/>
</filter>
</defs>
</svg>
