<svg width="460" height="273" viewBox="0 0 460 273" fill="none" xmlns="http://www.w3.org/2000/svg">
<g filter="url(#filter0_d_25_3247)">
<mask id="path-1-outside-1_25_3247" maskUnits="userSpaceOnUse" x="-0.662109" y="0.105103" width="442" height="241" fill="black">
<rect fill="white" x="-0.662109" y="0.105103" width="442" height="241"/>
<path d="M173.728 10.1051L172.963 10.1395L172.197 10.1739L167.819 17.8573C165.411 22.0831 163.465 25.5649 163.495 25.5947C163.525 25.6245 164.478 25.7295 165.613 25.828C167.271 25.972 167.743 26.0574 168.019 26.2635L168.363 26.52L168.356 32.8365C168.352 36.3107 168.249 42.8541 168.127 47.3772C168.005 51.9003 167.845 59.9186 167.772 65.1956C167.699 70.4726 167.582 76.0531 167.512 77.5967C167.442 79.1403 167.346 81.2844 167.299 82.3613C167.251 83.4382 167.177 84.4167 167.134 84.5358C167.066 84.7206 166.728 84.6047 164.83 83.7452C163.607 83.1911 161.932 82.4474 161.11 82.0926C159.34 81.3295 158.427 80.5884 157.945 79.5247L157.633 78.8368L157.636 71.3961C157.638 67.3038 157.66 63.6618 157.686 63.3028C157.711 62.9438 157.687 62.1136 157.632 61.4577C157.547 60.4347 157.572 60.1377 157.807 59.3691C158.158 58.2168 158.636 57.4789 159.89 56.149C161.52 54.4204 162.143 52.9967 162.146 50.9927C162.15 48.1145 160.795 45.3895 158.655 43.9725C156.246 42.377 152.55 42.1786 149.847 43.4998C147.968 44.4185 146.387 46.3926 145.84 48.5031C145.556 49.5992 145.554 51.5672 145.837 52.664C146.144 53.856 146.831 55.1848 147.693 56.2538C148.688 57.4875 149.048 58.1256 149.216 58.9517C149.307 59.3982 149.39 63.7419 149.446 71.0698C149.543 83.5642 149.506 83.0261 150.337 83.9938C150.778 84.5077 151.851 85.1711 162.017 91.2093C164.14 92.4704 166.036 93.6684 166.23 93.8713C166.796 94.4635 167.007 95.1514 167.119 96.7798C167.298 99.3524 166.943 100.6 165.695 101.787C165.285 102.178 164.687 102.629 164.366 102.79C162.169 103.895 160.431 105.811 159.485 108.169C158.88 109.678 158.705 110.76 158.698 113.038C158.69 115.382 158.913 116.599 159.651 118.236C161.31 121.921 165.057 124.65 169.275 125.246C170.508 125.42 172.592 125.274 174.022 124.912C178.068 123.889 181.527 120.695 182.853 116.758C183.259 115.555 183.271 115.451 183.269 113.299C183.267 111.261 183.237 110.984 182.91 109.905C181.951 106.746 180.202 104.308 177.901 102.921C176.746 102.225 175.84 101.27 175.632 100.531C175.492 100.03 175.476 98.4845 175.549 92.5065C175.637 85.3495 175.751 82.7724 176.028 81.7394C176.22 81.0224 176.823 80.4165 177.959 79.798C178.511 79.4974 180.11 78.6218 181.514 77.8519C182.917 77.0819 185.5 75.7094 187.253 74.8018C190.788 72.9712 191.382 72.6027 192.253 71.6988C193.613 70.2865 194.02 68.7372 194.198 64.2818C194.266 62.5946 194.386 57.2785 194.466 52.4682C194.546 47.6578 194.643 43.4654 194.681 43.1515C194.768 42.4379 195.128 42.0871 196.177 41.696C197.567 41.1773 197.478 41.6526 197.478 34.7627V28.7756H190.861C186.734 28.7756 184.153 28.8243 184.002 28.9051C183.54 29.1518 183.492 29.7512 183.518 34.9761L183.543 40.0671L183.871 40.6545C184.079 41.0261 184.439 41.3947 184.852 41.6577C185.211 41.8865 185.681 42.2194 185.897 42.3974L186.29 42.7209L186.325 54.1134C186.364 66.8911 186.395 66.4168 185.455 67.3834C184.787 68.0694 183.871 68.5704 179.616 70.5747C176.711 71.9435 176.075 72.1997 176.036 72.0187C176.01 71.8977 176.055 70.5041 176.136 68.9215C176.216 67.339 176.342 63.0482 176.414 59.3867C176.486 55.7251 176.602 50.5558 176.671 47.8993C176.741 45.2429 176.838 39.1778 176.887 34.4213L176.977 25.7732H179.647H182.317L182.226 25.4795C181.987 24.7095 181.059 22.5118 180.516 21.4303C179.632 19.6709 178.566 17.8604 176.545 14.6869C175.559 13.1381 174.521 11.4736 174.24 10.988L173.728 10.1051ZM68.3136 20.7495C66.4207 20.8253 64.5848 21.3406 63.0667 22.2851C61.1997 23.4467 58.9216 25.8877 57.9944 27.72C57.5237 28.6502 57.1104 30.0163 56.9514 31.1668C56.8435 31.9475 56.8754 32.2764 57.2121 33.8428C57.6663 35.9558 58.2551 37.2834 59.3359 38.6312C61.1718 40.9206 64.1806 42.5499 67.4043 43.0003C68.7847 43.1932 71.1096 43.0528 72.5431 42.6901C73.8949 42.348 75.3416 41.6888 76.3327 40.963C79.344 38.7578 81.2407 34.385 80.771 30.7311C80.2838 26.9412 77.724 23.6317 73.903 21.8512C72.1565 21.0374 70.2066 20.6737 68.3136 20.7495ZM92.3376 40.2976C89.5612 40.2085 88.1687 40.5786 86.4255 41.8694C84.6519 43.1826 79.3438 50.9486 75.3891 58.016C73.6703 61.0878 72.6859 63.15 71.3391 66.501C70.7475 67.9728 70.0796 69.5238 69.8547 69.9477C69.4035 70.7982 68.6874 71.4063 67.9819 71.5384C67.5179 71.6252 62.18 71.3784 62.0662 71.2648C61.9723 71.1712 62.4004 69.2583 62.7618 68.1569C62.9311 67.641 63.9517 65.1042 65.0298 62.5196C67.7749 55.9379 68.0903 54.8492 68.1107 51.8807C68.126 49.6591 67.8781 48.4954 67.0059 46.6919C65.316 43.1979 61.8966 41.1766 57.6757 41.1766C53.9097 41.1766 50.8052 42.7824 48.701 45.8189C47.1278 48.0891 44.6866 54.1192 41.9662 62.4543C41.4338 64.0855 39.5151 69.0086 38.9333 70.2358C38.8274 70.4592 38.5816 70.7144 38.3872 70.8028C38.1139 70.9272 35.436 70.9562 26.5841 70.9303C17.4493 70.9037 15.0022 70.9316 14.4802 71.0688C11.9696 71.7282 10.0817 73.4948 9.51063 75.7187C9.21027 76.8883 9.32271 80.4873 9.68519 81.3047C10.0313 82.0854 10.9302 83.0333 11.6873 83.416C13.0111 84.0853 14.1821 84.1598 22.1009 84.0807C26.2124 84.0396 29.8515 84.061 30.5409 84.1302C32.5064 84.3274 34.541 84.6638 34.7678 84.8293C35.0678 85.0481 35.3747 86.7072 35.3857 88.1702C35.3974 89.7117 35.0759 90.6576 34.3042 91.3531C33.4094 92.1595 32.9088 92.2311 28.4649 92.1888C24.6956 92.153 24.5284 92.1619 23.7853 92.4418C21.5378 93.2882 19.6557 95.2461 18.8566 97.5689C18.4564 98.7324 18.3653 100.818 18.6598 102.072C19.228 104.492 20.913 106.57 23.1909 107.66C25.0511 108.551 25.8606 108.693 29.5937 108.786C33.3149 108.879 33.4915 108.926 33.943 109.945C34.2066 110.539 34.2091 110.624 34.0506 113.558C33.812 117.975 34.142 122.883 34.963 127.128C35.1143 127.91 35.5562 130.45 35.9449 132.773C36.714 137.368 37.2573 139.926 38.2533 143.649C43.2503 162.325 52.5746 180.873 64.3377 195.537C69.0675 201.434 73.2851 205.658 81.6731 212.899C87.9755 218.339 90.4099 220.078 100.778 226.542C106.868 230.339 107.428 230.623 109.523 230.975C111.952 231.384 115.31 230.741 117.419 229.464C119.81 228.015 121.754 225.204 122.583 221.998C123.144 219.832 122.892 218.257 121.791 217.041C121.255 216.449 120.658 216.054 117.396 214.135C114.555 212.463 111.885 210.676 109.414 208.791C108.37 207.995 106.251 206.391 104.703 205.227C98.7535 200.749 94.9178 197.318 90.5131 192.535C85.7786 187.394 82.7415 183.257 73.1843 168.928C67.8542 160.936 66.7713 159.091 64.5935 154.288C64.0727 153.139 63.148 151.112 62.5385 149.784C60.2591 144.817 58.2958 139.243 57.0212 134.119C55.4599 127.844 54.8439 122.409 54.6316 113.035C54.553 109.566 54.5653 109.206 54.7785 108.757C54.9066 108.488 55.1661 108.159 55.3551 108.026C55.8059 107.71 57.1347 107.49 58.5937 107.49C59.8633 107.49 62.627 107.806 63.3338 108.031C64.181 108.302 64.1842 108.328 64.284 115.844C64.3345 119.648 64.4321 122.824 64.5087 123.159C64.5831 123.485 64.9763 125.276 65.3825 127.14C68.3242 140.641 69.7692 144.528 76.8323 157.943C80.4402 164.795 82.4581 167.98 87.0856 174.129C91.171 179.558 96.8217 185.952 100.473 189.278C104.656 193.088 110.489 197.673 113.69 199.665C116.535 201.437 124.268 205.565 127.675 207.132C137.707 211.745 151.324 214.748 165.347 215.44C170.72 215.705 177.343 215.537 181.056 215.043C182.71 214.823 190.467 213.168 194.795 212.112C205.563 209.486 216.095 204.943 224.695 199.217C228.192 196.888 233.618 192.824 235.883 190.837C236.603 190.206 238.992 187.892 241.192 185.695C244.702 182.19 245.25 181.587 245.67 180.773C246.937 178.321 246.829 176 245.313 173.052C244.104 170.7 242.848 169.469 240.879 168.707C239.563 168.197 238.809 168.059 237.326 168.059C234.194 168.059 232.245 169.151 227.769 173.411C222.942 178.005 220.388 179.895 211.872 185.171C205.838 188.91 202.525 190.462 196.758 192.254C189.35 194.557 186.073 195.297 180.205 195.995C169.663 197.248 167.584 197.326 159.661 196.768C156.012 196.51 152.992 195.945 146.38 194.279C141.111 192.952 138.558 192.088 134.472 190.251C133.393 189.766 131.212 188.808 129.626 188.123C120.407 184.138 116.92 182.138 111.966 177.994C109.009 175.522 101.895 168.078 99.7009 165.161C98.3732 163.396 91.5179 152.761 89.9572 150.045C84.6454 140.801 81.0968 130.007 80.1083 120.087C79.7689 116.681 79.3413 109.308 79.4586 108.885C79.741 107.864 80.2762 107.707 83.9631 107.557C86.2955 107.463 87.7045 107.603 88.112 107.971C88.7595 108.556 88.7869 108.741 88.8866 113.168C89.0246 119.293 89.4025 122.382 90.5951 127.136C91.6439 131.316 93.0834 135.405 94.9041 139.376C95.6426 140.986 98.6618 146.726 101.066 151.089C102.284 153.301 104.616 156.828 106.179 158.824C108.871 162.261 114.373 168.008 117.798 170.962C128.661 180.327 141.125 185.46 156.455 186.882C159.184 187.136 167.82 187.093 170.98 186.811C177.267 186.25 182.063 185.567 183.033 185.093C186.431 183.434 186.256 177.611 182.691 173.761C181.248 172.202 180.181 171.662 177.491 171.128C176.062 170.845 175.067 170.827 173.363 171.054C172.168 171.214 171.478 171.218 168.849 171.081C162.405 170.745 159.277 170.52 157.502 170.267C151.139 169.359 143.507 166.524 137.155 162.71C135.155 161.509 131.293 158.84 129.023 157.09C126.54 155.175 123.137 151.503 119.109 146.389C115.022 141.201 113.483 138.612 111.467 133.526C109.125 127.62 108.232 124.252 107.394 118.175C106.595 112.382 106.483 111.072 106.485 107.62C106.488 104.046 106.659 102.254 107.395 98.0987C108.614 91.2122 110.701 84.6229 113.234 79.6562C114.93 76.3325 116.406 74.2052 121.188 68.198C124.901 63.5329 125.076 63.2873 125.904 61.6058C127.951 57.4477 127.756 54.738 125.179 51.5248C124.173 50.2713 123.264 49.6305 121.72 49.0895C120.73 48.7426 120.392 48.6916 118.77 48.6453C115.818 48.5611 114.689 48.9444 112.272 50.8512C109.416 53.1039 106.323 56.5344 103.757 60.294C99.7011 66.2379 97.256 72.0015 94.3681 82.4266C93.7815 84.5445 93.0942 87.0117 92.8411 87.9091C92.2495 90.0065 90.8603 93.9116 90.6005 94.2073C90.4158 94.4176 90.1263 94.4295 86.9198 94.3588C85.0056 94.3166 83.2521 94.2252 83.0228 94.1558C82.755 94.0748 82.5663 93.911 82.495 93.6979C82.3765 93.3432 82.601 89.786 82.8603 87.9091C82.9445 87.2989 83.2954 85.6835 83.64 84.3194C85.2602 77.9058 87.2981 72.3667 90.1714 66.5662C91.7252 63.4296 92.9827 61.2925 96.0861 56.5148C99.8217 50.764 100.119 50.2127 100.387 48.5426C100.797 45.9776 99.5112 43.6124 96.6077 41.5932C95.1134 40.5541 94.496 40.3668 92.3376 40.2976ZM289.122 46.7423C284.467 46.7614 283.989 46.8185 283.729 47.3871C283.618 47.6295 283.579 52.6489 283.579 66.5071C283.579 76.8423 283.531 85.2984 283.473 85.2984C283.318 85.2984 282.819 84.7227 281.944 83.5361C280.491 81.5643 278.077 79.4941 276.03 78.464C274.175 77.5307 272.046 76.8985 269.316 76.47C268.212 76.2967 266.601 76.2429 261.104 76.1964L254.267 76.1388L252.496 76.4812C250.29 76.9074 247.984 77.5706 246.024 78.3419C244.049 79.1194 243.055 79.6254 241.615 80.5865C237.057 83.6281 234.567 88.2187 233.394 95.7414C233.134 97.4046 232.959 104.471 232.948 113.756C232.932 125.989 233.507 132.136 235.121 136.991C236.387 140.801 238.353 143.619 241.244 145.77C242.415 146.642 245.161 148.025 246.744 148.541C249.938 149.582 254.084 150.267 258.521 150.487C259.024 150.512 261.056 150.516 263.035 150.496C266.874 150.457 268.229 150.317 270.69 149.702C274.498 148.75 277.971 147.07 280.193 145.104C280.817 144.552 281.531 143.65 283.181 141.326C283.706 140.587 284.201 140.005 284.282 140.032C284.387 140.066 284.44 141.396 284.464 144.606L284.498 149.131H289.6H294.701V98.4763C294.701 54.4356 294.677 47.7733 294.511 47.4544C294.152 46.7608 293.865 46.7229 289.122 46.7423ZM335.784 74.0293C334.229 74.0251 332.649 74.0605 331.05 74.1359C325.22 74.4109 322.788 74.6945 318.68 75.5784C311.709 77.0785 309.324 78.3085 307.216 81.4916C305.422 84.1985 304.56 87.1807 304.67 90.2899C304.728 91.9049 304.892 92.3908 305.523 92.8176C305.86 93.0457 306.217 93.0685 310.015 93.1046C314.132 93.1438 314.141 93.1433 314.595 92.8436C315.14 92.483 315.666 91.4624 316.364 89.4103C317.183 86.9994 318.045 85.8059 319.47 85.1105C320.26 84.7252 323.173 84.2036 327.284 83.712C330.62 83.313 337.047 83.2779 339.78 83.6437C342.124 83.9574 346.031 84.6169 346.966 84.8568C348.927 85.3604 350.569 86.6112 351.353 88.1998C352.076 89.666 352.784 93.9566 353.07 98.6158C353.203 100.778 353.137 108.759 352.986 108.913C352.957 108.943 352.594 108.703 352.18 108.381C350.946 107.422 348.887 106.064 347.967 105.602C345.657 104.442 341.906 103.589 337.294 103.174C334.778 102.948 327.644 102.87 324.863 103.039C318.645 103.416 312.454 104.324 310.462 105.152C308.484 105.973 306.524 107.579 305.35 109.342C302.612 113.45 301.391 120.862 302.152 128.767C302.856 136.092 303.505 138.889 305.041 141.216C306.948 144.107 309.141 145.502 314.102 146.982C317.948 148.13 322.046 148.788 326.673 149.001C329.427 149.128 334.269 149.06 336.443 148.864C339.832 148.558 343.27 147.841 346.118 146.846C349.17 145.781 351.021 144.491 352.438 142.442C352.745 141.998 353.036 141.578 353.085 141.508C353.14 141.428 353.242 141.439 353.36 141.536C353.494 141.647 353.573 142.161 353.639 143.355C353.803 146.311 353.916 146.925 354.372 147.338L354.771 147.699L359.249 147.665L363.726 147.63L363.9 146.847C364.184 145.563 364.337 135.211 364.269 121.849C364.211 110.418 364.122 105.498 363.79 95.3187C363.557 88.1764 363.155 85.148 362.156 82.9887C360.781 80.0151 358.527 77.9846 355.229 76.7464C354.022 76.2932 350.737 75.4507 348.911 75.1261C344.89 74.411 340.45 74.0419 335.784 74.0293ZM368.897 74.0436C367.858 74.0693 367.219 74.1345 367.117 74.2356C367.081 74.2722 367.26 75.0305 367.516 75.9208C367.972 77.5063 369.101 80.7785 378.97 109.122C381.645 116.804 385.508 127.965 387.554 133.924C389.601 139.883 391.33 144.887 391.398 145.045C391.801 145.987 393.378 147.061 394.631 147.249C394.942 147.295 395.196 147.378 395.196 147.433C395.196 147.53 392.665 154.015 391.997 155.629C391.357 157.177 390.253 159.421 389.532 160.639C388.335 162.663 386.884 163.858 385.045 164.336C383.43 164.756 380.639 165.088 378.742 165.086L376.877 165.083V169.9V174.717L381.097 174.714C387.642 174.709 389.221 174.51 391.467 173.407C393.561 172.379 395.53 170.498 397.41 167.733C400.69 162.906 402.129 159.225 413.109 127.57C414.761 122.808 417.15 115.982 418.418 112.4C419.687 108.819 421.434 103.826 422.302 101.305C427.463 86.3116 430.531 77.2317 430.842 76.0302C431.037 75.2764 431.227 74.5568 431.263 74.4311C431.325 74.2165 431.036 74.2027 426.472 74.2027C422.48 74.2027 421.55 74.2364 421.248 74.3924C420.666 74.6924 419.678 76.9335 417.939 81.8932C414.305 92.2586 408.288 109.777 403.027 125.308C400.362 133.174 399.459 135.555 399.142 135.555C399.091 135.555 397.026 129.667 394.552 122.469C389.878 108.868 382.64 87.9062 379.897 80.0277C379.025 77.5236 378.215 75.3116 378.097 75.1121C377.979 74.9126 377.668 74.6294 377.406 74.4826C376.974 74.2402 376.577 74.2041 373.076 74.088C371.375 74.0315 369.936 74.0178 368.897 74.0436ZM138.273 76.7571C136.851 76.5543 135.376 76.8856 133.901 77.7583C131.072 79.4316 127.221 85.5261 124.679 92.3535C122.587 97.9737 121.798 102.081 121.798 107.359C121.798 111.092 122.323 115.238 123.299 119.222C124.354 123.527 126.884 129.783 128.85 132.943C130.492 135.584 133.418 139.087 135.703 141.146C137.535 142.798 141.202 145.895 142.258 146.682C145.915 149.408 151.574 152.03 156.717 153.379C159.833 154.196 163.878 154.869 167.251 155.131C169.369 155.295 171.727 155.194 176.235 154.744C180.705 154.297 182.579 154.004 184.981 153.377C191.329 151.719 197.613 148.435 202.646 144.145C204.789 142.32 208.697 138.397 210.034 136.73C212.912 133.143 215.549 128.138 217.373 122.8C219.187 117.49 219.761 113.224 219.482 107.138C219.03 97.3004 217.776 92.4131 214.092 86.1295C211.758 82.1492 210.564 80.5884 209.072 79.5642C206.042 77.4846 202.395 77.7087 200.143 80.1126C198.789 81.5581 198.132 83.1672 198.132 85.0373C198.132 86.8473 198.524 87.8918 200.291 90.7978C203.135 95.4744 204.735 99.6672 205.415 104.226C205.72 106.267 205.718 110.037 205.412 112.059C203.38 125.466 193.092 136.87 179.923 140.314C176.511 141.206 175.228 141.356 170.98 141.361C167.954 141.364 166.894 141.317 165.746 141.132C160.723 140.321 156.409 138.785 152.772 136.511C150.629 135.171 147.338 132.706 145.832 131.312C141.761 127.547 138.321 121.283 136.967 115.174C135.85 110.133 136.034 104.391 137.473 99.4209C138.448 96.0536 139.48 93.8535 141.911 89.9557C142.748 88.6135 143.635 87.1168 143.881 86.6295C145.231 83.9551 144.699 81.3168 142.334 78.9609C141.066 77.6969 139.695 76.9599 138.273 76.7571ZM263.914 85.8603C265.427 85.8979 266.884 85.9965 267.744 86.1428C270.213 86.5627 273.015 87.3982 274.559 88.1753C275.736 88.7675 277.569 90.0456 278.58 90.9791C281.034 93.2459 282.585 96.2627 283.241 100.049C283.555 101.858 283.867 109.534 283.887 115.909C283.904 121.732 283.832 122.745 283.167 125.961C282.596 128.729 281.299 132.01 280.13 133.644C279.405 134.657 277.88 136.108 276.775 136.836C274.271 138.485 269.832 139.949 266.045 140.373C260.755 140.966 255.274 140.305 250.815 138.537C248.29 137.535 247.352 136.561 246.562 134.119C245.355 130.393 245.145 128.665 244.794 119.565C244.521 112.492 244.744 101.663 245.244 97.7647C245.595 95.031 246.287 92.3056 247.004 90.8383C247.566 89.6852 248.692 88.5767 249.847 88.0389C251.543 87.249 256.188 86.2666 259.751 85.9442C260.834 85.8462 262.402 85.8227 263.914 85.8603ZM60.9232 87.1336C63.9428 87.2862 64.1557 87.3439 64.4696 88.0932C64.7294 88.7137 64.8597 90.4128 64.674 90.759C64.4588 91.1602 63.6388 91.5401 62.2057 91.9028C61.0385 92.1982 59.3587 92.3026 58.5776 92.1282C57.8175 91.9585 56.6533 91.5154 56.3575 91.2832C55.5668 90.6628 55.3986 89.5712 55.8923 88.2663C56.3588 87.0334 56.8325 86.9267 60.9232 87.1336ZM332.054 111.876C333.259 111.888 334.487 112.03 336.116 112.304C337.484 112.534 339.604 112.867 340.827 113.044C347.109 113.953 349.054 114.588 350.637 116.242C352.219 117.898 352.855 120.424 353.017 125.7C353.124 129.188 352.685 131.554 351.625 133.202C351.029 134.129 349.732 135.286 348.66 135.848C345.934 137.277 340.967 138.286 335.334 138.554C333.869 138.624 332.12 138.708 331.449 138.739C329.123 138.849 325.372 138.477 322.295 137.83C319.335 137.209 318.154 136.634 316.55 135.036C314.295 132.789 313.638 130.587 313.626 125.243C313.615 120.185 314.413 117.164 316.197 115.501C317.773 114.032 319.263 113.504 323.517 112.91C324.833 112.726 326.911 112.417 328.134 112.224C329.668 111.981 330.849 111.864 332.054 111.876Z"/>
</mask>
<path d="M173.728 10.1051L172.963 10.1395L172.197 10.1739L167.819 17.8573C165.411 22.0831 163.465 25.5649 163.495 25.5947C163.525 25.6245 164.478 25.7295 165.613 25.828C167.271 25.972 167.743 26.0574 168.019 26.2635L168.363 26.52L168.356 32.8365C168.352 36.3107 168.249 42.8541 168.127 47.3772C168.005 51.9003 167.845 59.9186 167.772 65.1956C167.699 70.4726 167.582 76.0531 167.512 77.5967C167.442 79.1403 167.346 81.2844 167.299 82.3613C167.251 83.4382 167.177 84.4167 167.134 84.5358C167.066 84.7206 166.728 84.6047 164.83 83.7452C163.607 83.1911 161.932 82.4474 161.11 82.0926C159.34 81.3295 158.427 80.5884 157.945 79.5247L157.633 78.8368L157.636 71.3961C157.638 67.3038 157.66 63.6618 157.686 63.3028C157.711 62.9438 157.687 62.1136 157.632 61.4577C157.547 60.4347 157.572 60.1377 157.807 59.3691C158.158 58.2168 158.636 57.4789 159.89 56.149C161.52 54.4204 162.143 52.9967 162.146 50.9927C162.15 48.1145 160.795 45.3895 158.655 43.9725C156.246 42.377 152.55 42.1786 149.847 43.4998C147.968 44.4185 146.387 46.3926 145.84 48.5031C145.556 49.5992 145.554 51.5672 145.837 52.664C146.144 53.856 146.831 55.1848 147.693 56.2538C148.688 57.4875 149.048 58.1256 149.216 58.9517C149.307 59.3982 149.39 63.7419 149.446 71.0698C149.543 83.5642 149.506 83.0261 150.337 83.9938C150.778 84.5077 151.851 85.1711 162.017 91.2093C164.14 92.4704 166.036 93.6684 166.23 93.8713C166.796 94.4635 167.007 95.1514 167.119 96.7798C167.298 99.3524 166.943 100.6 165.695 101.787C165.285 102.178 164.687 102.629 164.366 102.79C162.169 103.895 160.431 105.811 159.485 108.169C158.88 109.678 158.705 110.76 158.698 113.038C158.69 115.382 158.913 116.599 159.651 118.236C161.31 121.921 165.057 124.65 169.275 125.246C170.508 125.42 172.592 125.274 174.022 124.912C178.068 123.889 181.527 120.695 182.853 116.758C183.259 115.555 183.271 115.451 183.269 113.299C183.267 111.261 183.237 110.984 182.91 109.905C181.951 106.746 180.202 104.308 177.901 102.921C176.746 102.225 175.84 101.27 175.632 100.531C175.492 100.03 175.476 98.4845 175.549 92.5065C175.637 85.3495 175.751 82.7724 176.028 81.7394C176.22 81.0224 176.823 80.4165 177.959 79.798C178.511 79.4974 180.11 78.6218 181.514 77.8519C182.917 77.0819 185.5 75.7094 187.253 74.8018C190.788 72.9712 191.382 72.6027 192.253 71.6988C193.613 70.2865 194.02 68.7372 194.198 64.2818C194.266 62.5946 194.386 57.2785 194.466 52.4682C194.546 47.6578 194.643 43.4654 194.681 43.1515C194.768 42.4379 195.128 42.0871 196.177 41.696C197.567 41.1773 197.478 41.6526 197.478 34.7627V28.7756H190.861C186.734 28.7756 184.153 28.8243 184.002 28.9051C183.54 29.1518 183.492 29.7512 183.518 34.9761L183.543 40.0671L183.871 40.6545C184.079 41.0261 184.439 41.3947 184.852 41.6577C185.211 41.8865 185.681 42.2194 185.897 42.3974L186.29 42.7209L186.325 54.1134C186.364 66.8911 186.395 66.4168 185.455 67.3834C184.787 68.0694 183.871 68.5704 179.616 70.5747C176.711 71.9435 176.075 72.1997 176.036 72.0187C176.01 71.8977 176.055 70.5041 176.136 68.9215C176.216 67.339 176.342 63.0482 176.414 59.3867C176.486 55.7251 176.602 50.5558 176.671 47.8993C176.741 45.2429 176.838 39.1778 176.887 34.4213L176.977 25.7732H179.647H182.317L182.226 25.4795C181.987 24.7095 181.059 22.5118 180.516 21.4303C179.632 19.6709 178.566 17.8604 176.545 14.6869C175.559 13.1381 174.521 11.4736 174.24 10.988L173.728 10.1051ZM68.3136 20.7495C66.4207 20.8253 64.5848 21.3406 63.0667 22.2851C61.1997 23.4467 58.9216 25.8877 57.9944 27.72C57.5237 28.6502 57.1104 30.0163 56.9514 31.1668C56.8435 31.9475 56.8754 32.2764 57.2121 33.8428C57.6663 35.9558 58.2551 37.2834 59.3359 38.6312C61.1718 40.9206 64.1806 42.5499 67.4043 43.0003C68.7847 43.1932 71.1096 43.0528 72.5431 42.6901C73.8949 42.348 75.3416 41.6888 76.3327 40.963C79.344 38.7578 81.2407 34.385 80.771 30.7311C80.2838 26.9412 77.724 23.6317 73.903 21.8512C72.1565 21.0374 70.2066 20.6737 68.3136 20.7495ZM92.3376 40.2976C89.5612 40.2085 88.1687 40.5786 86.4255 41.8694C84.6519 43.1826 79.3438 50.9486 75.3891 58.016C73.6703 61.0878 72.6859 63.15 71.3391 66.501C70.7475 67.9728 70.0796 69.5238 69.8547 69.9477C69.4035 70.7982 68.6874 71.4063 67.9819 71.5384C67.5179 71.6252 62.18 71.3784 62.0662 71.2648C61.9723 71.1712 62.4004 69.2583 62.7618 68.1569C62.9311 67.641 63.9517 65.1042 65.0298 62.5196C67.7749 55.9379 68.0903 54.8492 68.1107 51.8807C68.126 49.6591 67.8781 48.4954 67.0059 46.6919C65.316 43.1979 61.8966 41.1766 57.6757 41.1766C53.9097 41.1766 50.8052 42.7824 48.701 45.8189C47.1278 48.0891 44.6866 54.1192 41.9662 62.4543C41.4338 64.0855 39.5151 69.0086 38.9333 70.2358C38.8274 70.4592 38.5816 70.7144 38.3872 70.8028C38.1139 70.9272 35.436 70.9562 26.5841 70.9303C17.4493 70.9037 15.0022 70.9316 14.4802 71.0688C11.9696 71.7282 10.0817 73.4948 9.51063 75.7187C9.21027 76.8883 9.32271 80.4873 9.68519 81.3047C10.0313 82.0854 10.9302 83.0333 11.6873 83.416C13.0111 84.0853 14.1821 84.1598 22.1009 84.0807C26.2124 84.0396 29.8515 84.061 30.5409 84.1302C32.5064 84.3274 34.541 84.6638 34.7678 84.8293C35.0678 85.0481 35.3747 86.7072 35.3857 88.1702C35.3974 89.7117 35.0759 90.6576 34.3042 91.3531C33.4094 92.1595 32.9088 92.2311 28.4649 92.1888C24.6956 92.153 24.5284 92.1619 23.7853 92.4418C21.5378 93.2882 19.6557 95.2461 18.8566 97.5689C18.4564 98.7324 18.3653 100.818 18.6598 102.072C19.228 104.492 20.913 106.57 23.1909 107.66C25.0511 108.551 25.8606 108.693 29.5937 108.786C33.3149 108.879 33.4915 108.926 33.943 109.945C34.2066 110.539 34.2091 110.624 34.0506 113.558C33.812 117.975 34.142 122.883 34.963 127.128C35.1143 127.91 35.5562 130.45 35.9449 132.773C36.714 137.368 37.2573 139.926 38.2533 143.649C43.2503 162.325 52.5746 180.873 64.3377 195.537C69.0675 201.434 73.2851 205.658 81.6731 212.899C87.9755 218.339 90.4099 220.078 100.778 226.542C106.868 230.339 107.428 230.623 109.523 230.975C111.952 231.384 115.31 230.741 117.419 229.464C119.81 228.015 121.754 225.204 122.583 221.998C123.144 219.832 122.892 218.257 121.791 217.041C121.255 216.449 120.658 216.054 117.396 214.135C114.555 212.463 111.885 210.676 109.414 208.791C108.37 207.995 106.251 206.391 104.703 205.227C98.7535 200.749 94.9178 197.318 90.5131 192.535C85.7786 187.394 82.7415 183.257 73.1843 168.928C67.8542 160.936 66.7713 159.091 64.5935 154.288C64.0727 153.139 63.148 151.112 62.5385 149.784C60.2591 144.817 58.2958 139.243 57.0212 134.119C55.4599 127.844 54.8439 122.409 54.6316 113.035C54.553 109.566 54.5653 109.206 54.7785 108.757C54.9066 108.488 55.1661 108.159 55.3551 108.026C55.8059 107.71 57.1347 107.49 58.5937 107.49C59.8633 107.49 62.627 107.806 63.3338 108.031C64.181 108.302 64.1842 108.328 64.284 115.844C64.3345 119.648 64.4321 122.824 64.5087 123.159C64.5831 123.485 64.9763 125.276 65.3825 127.14C68.3242 140.641 69.7692 144.528 76.8323 157.943C80.4402 164.795 82.4581 167.98 87.0856 174.129C91.171 179.558 96.8217 185.952 100.473 189.278C104.656 193.088 110.489 197.673 113.69 199.665C116.535 201.437 124.268 205.565 127.675 207.132C137.707 211.745 151.324 214.748 165.347 215.44C170.72 215.705 177.343 215.537 181.056 215.043C182.71 214.823 190.467 213.168 194.795 212.112C205.563 209.486 216.095 204.943 224.695 199.217C228.192 196.888 233.618 192.824 235.883 190.837C236.603 190.206 238.992 187.892 241.192 185.695C244.702 182.19 245.25 181.587 245.67 180.773C246.937 178.321 246.829 176 245.313 173.052C244.104 170.7 242.848 169.469 240.879 168.707C239.563 168.197 238.809 168.059 237.326 168.059C234.194 168.059 232.245 169.151 227.769 173.411C222.942 178.005 220.388 179.895 211.872 185.171C205.838 188.91 202.525 190.462 196.758 192.254C189.35 194.557 186.073 195.297 180.205 195.995C169.663 197.248 167.584 197.326 159.661 196.768C156.012 196.51 152.992 195.945 146.38 194.279C141.111 192.952 138.558 192.088 134.472 190.251C133.393 189.766 131.212 188.808 129.626 188.123C120.407 184.138 116.92 182.138 111.966 177.994C109.009 175.522 101.895 168.078 99.7009 165.161C98.3732 163.396 91.5179 152.761 89.9572 150.045C84.6454 140.801 81.0968 130.007 80.1083 120.087C79.7689 116.681 79.3413 109.308 79.4586 108.885C79.741 107.864 80.2762 107.707 83.9631 107.557C86.2955 107.463 87.7045 107.603 88.112 107.971C88.7595 108.556 88.7869 108.741 88.8866 113.168C89.0246 119.293 89.4025 122.382 90.5951 127.136C91.6439 131.316 93.0834 135.405 94.9041 139.376C95.6426 140.986 98.6618 146.726 101.066 151.089C102.284 153.301 104.616 156.828 106.179 158.824C108.871 162.261 114.373 168.008 117.798 170.962C128.661 180.327 141.125 185.46 156.455 186.882C159.184 187.136 167.82 187.093 170.98 186.811C177.267 186.25 182.063 185.567 183.033 185.093C186.431 183.434 186.256 177.611 182.691 173.761C181.248 172.202 180.181 171.662 177.491 171.128C176.062 170.845 175.067 170.827 173.363 171.054C172.168 171.214 171.478 171.218 168.849 171.081C162.405 170.745 159.277 170.52 157.502 170.267C151.139 169.359 143.507 166.524 137.155 162.71C135.155 161.509 131.293 158.84 129.023 157.09C126.54 155.175 123.137 151.503 119.109 146.389C115.022 141.201 113.483 138.612 111.467 133.526C109.125 127.62 108.232 124.252 107.394 118.175C106.595 112.382 106.483 111.072 106.485 107.62C106.488 104.046 106.659 102.254 107.395 98.0987C108.614 91.2122 110.701 84.6229 113.234 79.6562C114.93 76.3325 116.406 74.2052 121.188 68.198C124.901 63.5329 125.076 63.2873 125.904 61.6058C127.951 57.4477 127.756 54.738 125.179 51.5248C124.173 50.2713 123.264 49.6305 121.72 49.0895C120.73 48.7426 120.392 48.6916 118.77 48.6453C115.818 48.5611 114.689 48.9444 112.272 50.8512C109.416 53.1039 106.323 56.5344 103.757 60.294C99.7011 66.2379 97.256 72.0015 94.3681 82.4266C93.7815 84.5445 93.0942 87.0117 92.8411 87.9091C92.2495 90.0065 90.8603 93.9116 90.6005 94.2073C90.4158 94.4176 90.1263 94.4295 86.9198 94.3588C85.0056 94.3166 83.2521 94.2252 83.0228 94.1558C82.755 94.0748 82.5663 93.911 82.495 93.6979C82.3765 93.3432 82.601 89.786 82.8603 87.9091C82.9445 87.2989 83.2954 85.6835 83.64 84.3194C85.2602 77.9058 87.2981 72.3667 90.1714 66.5662C91.7252 63.4296 92.9827 61.2925 96.0861 56.5148C99.8217 50.764 100.119 50.2127 100.387 48.5426C100.797 45.9776 99.5112 43.6124 96.6077 41.5932C95.1134 40.5541 94.496 40.3668 92.3376 40.2976ZM289.122 46.7423C284.467 46.7614 283.989 46.8185 283.729 47.3871C283.618 47.6295 283.579 52.6489 283.579 66.5071C283.579 76.8423 283.531 85.2984 283.473 85.2984C283.318 85.2984 282.819 84.7227 281.944 83.5361C280.491 81.5643 278.077 79.4941 276.03 78.464C274.175 77.5307 272.046 76.8985 269.316 76.47C268.212 76.2967 266.601 76.2429 261.104 76.1964L254.267 76.1388L252.496 76.4812C250.29 76.9074 247.984 77.5706 246.024 78.3419C244.049 79.1194 243.055 79.6254 241.615 80.5865C237.057 83.6281 234.567 88.2187 233.394 95.7414C233.134 97.4046 232.959 104.471 232.948 113.756C232.932 125.989 233.507 132.136 235.121 136.991C236.387 140.801 238.353 143.619 241.244 145.77C242.415 146.642 245.161 148.025 246.744 148.541C249.938 149.582 254.084 150.267 258.521 150.487C259.024 150.512 261.056 150.516 263.035 150.496C266.874 150.457 268.229 150.317 270.69 149.702C274.498 148.75 277.971 147.07 280.193 145.104C280.817 144.552 281.531 143.65 283.181 141.326C283.706 140.587 284.201 140.005 284.282 140.032C284.387 140.066 284.44 141.396 284.464 144.606L284.498 149.131H289.6H294.701V98.4763C294.701 54.4356 294.677 47.7733 294.511 47.4544C294.152 46.7608 293.865 46.7229 289.122 46.7423ZM335.784 74.0293C334.229 74.0251 332.649 74.0605 331.05 74.1359C325.22 74.4109 322.788 74.6945 318.68 75.5784C311.709 77.0785 309.324 78.3085 307.216 81.4916C305.422 84.1985 304.56 87.1807 304.67 90.2899C304.728 91.9049 304.892 92.3908 305.523 92.8176C305.86 93.0457 306.217 93.0685 310.015 93.1046C314.132 93.1438 314.141 93.1433 314.595 92.8436C315.14 92.483 315.666 91.4624 316.364 89.4103C317.183 86.9994 318.045 85.8059 319.47 85.1105C320.26 84.7252 323.173 84.2036 327.284 83.712C330.62 83.313 337.047 83.2779 339.78 83.6437C342.124 83.9574 346.031 84.6169 346.966 84.8568C348.927 85.3604 350.569 86.6112 351.353 88.1998C352.076 89.666 352.784 93.9566 353.07 98.6158C353.203 100.778 353.137 108.759 352.986 108.913C352.957 108.943 352.594 108.703 352.18 108.381C350.946 107.422 348.887 106.064 347.967 105.602C345.657 104.442 341.906 103.589 337.294 103.174C334.778 102.948 327.644 102.87 324.863 103.039C318.645 103.416 312.454 104.324 310.462 105.152C308.484 105.973 306.524 107.579 305.35 109.342C302.612 113.45 301.391 120.862 302.152 128.767C302.856 136.092 303.505 138.889 305.041 141.216C306.948 144.107 309.141 145.502 314.102 146.982C317.948 148.13 322.046 148.788 326.673 149.001C329.427 149.128 334.269 149.06 336.443 148.864C339.832 148.558 343.27 147.841 346.118 146.846C349.17 145.781 351.021 144.491 352.438 142.442C352.745 141.998 353.036 141.578 353.085 141.508C353.14 141.428 353.242 141.439 353.36 141.536C353.494 141.647 353.573 142.161 353.639 143.355C353.803 146.311 353.916 146.925 354.372 147.338L354.771 147.699L359.249 147.665L363.726 147.63L363.9 146.847C364.184 145.563 364.337 135.211 364.269 121.849C364.211 110.418 364.122 105.498 363.79 95.3187C363.557 88.1764 363.155 85.148 362.156 82.9887C360.781 80.0151 358.527 77.9846 355.229 76.7464C354.022 76.2932 350.737 75.4507 348.911 75.1261C344.89 74.411 340.45 74.0419 335.784 74.0293ZM368.897 74.0436C367.858 74.0693 367.219 74.1345 367.117 74.2356C367.081 74.2722 367.26 75.0305 367.516 75.9208C367.972 77.5063 369.101 80.7785 378.97 109.122C381.645 116.804 385.508 127.965 387.554 133.924C389.601 139.883 391.33 144.887 391.398 145.045C391.801 145.987 393.378 147.061 394.631 147.249C394.942 147.295 395.196 147.378 395.196 147.433C395.196 147.53 392.665 154.015 391.997 155.629C391.357 157.177 390.253 159.421 389.532 160.639C388.335 162.663 386.884 163.858 385.045 164.336C383.43 164.756 380.639 165.088 378.742 165.086L376.877 165.083V169.9V174.717L381.097 174.714C387.642 174.709 389.221 174.51 391.467 173.407C393.561 172.379 395.53 170.498 397.41 167.733C400.69 162.906 402.129 159.225 413.109 127.57C414.761 122.808 417.15 115.982 418.418 112.4C419.687 108.819 421.434 103.826 422.302 101.305C427.463 86.3116 430.531 77.2317 430.842 76.0302C431.037 75.2764 431.227 74.5568 431.263 74.4311C431.325 74.2165 431.036 74.2027 426.472 74.2027C422.48 74.2027 421.55 74.2364 421.248 74.3924C420.666 74.6924 419.678 76.9335 417.939 81.8932C414.305 92.2586 408.288 109.777 403.027 125.308C400.362 133.174 399.459 135.555 399.142 135.555C399.091 135.555 397.026 129.667 394.552 122.469C389.878 108.868 382.64 87.9062 379.897 80.0277C379.025 77.5236 378.215 75.3116 378.097 75.1121C377.979 74.9126 377.668 74.6294 377.406 74.4826C376.974 74.2402 376.577 74.2041 373.076 74.088C371.375 74.0315 369.936 74.0178 368.897 74.0436ZM138.273 76.7571C136.851 76.5543 135.376 76.8856 133.901 77.7583C131.072 79.4316 127.221 85.5261 124.679 92.3535C122.587 97.9737 121.798 102.081 121.798 107.359C121.798 111.092 122.323 115.238 123.299 119.222C124.354 123.527 126.884 129.783 128.85 132.943C130.492 135.584 133.418 139.087 135.703 141.146C137.535 142.798 141.202 145.895 142.258 146.682C145.915 149.408 151.574 152.03 156.717 153.379C159.833 154.196 163.878 154.869 167.251 155.131C169.369 155.295 171.727 155.194 176.235 154.744C180.705 154.297 182.579 154.004 184.981 153.377C191.329 151.719 197.613 148.435 202.646 144.145C204.789 142.32 208.697 138.397 210.034 136.73C212.912 133.143 215.549 128.138 217.373 122.8C219.187 117.49 219.761 113.224 219.482 107.138C219.03 97.3004 217.776 92.4131 214.092 86.1295C211.758 82.1492 210.564 80.5884 209.072 79.5642C206.042 77.4846 202.395 77.7087 200.143 80.1126C198.789 81.5581 198.132 83.1672 198.132 85.0373C198.132 86.8473 198.524 87.8918 200.291 90.7978C203.135 95.4744 204.735 99.6672 205.415 104.226C205.72 106.267 205.718 110.037 205.412 112.059C203.38 125.466 193.092 136.87 179.923 140.314C176.511 141.206 175.228 141.356 170.98 141.361C167.954 141.364 166.894 141.317 165.746 141.132C160.723 140.321 156.409 138.785 152.772 136.511C150.629 135.171 147.338 132.706 145.832 131.312C141.761 127.547 138.321 121.283 136.967 115.174C135.85 110.133 136.034 104.391 137.473 99.4209C138.448 96.0536 139.48 93.8535 141.911 89.9557C142.748 88.6135 143.635 87.1168 143.881 86.6295C145.231 83.9551 144.699 81.3168 142.334 78.9609C141.066 77.6969 139.695 76.9599 138.273 76.7571ZM263.914 85.8603C265.427 85.8979 266.884 85.9965 267.744 86.1428C270.213 86.5627 273.015 87.3982 274.559 88.1753C275.736 88.7675 277.569 90.0456 278.58 90.9791C281.034 93.2459 282.585 96.2627 283.241 100.049C283.555 101.858 283.867 109.534 283.887 115.909C283.904 121.732 283.832 122.745 283.167 125.961C282.596 128.729 281.299 132.01 280.13 133.644C279.405 134.657 277.88 136.108 276.775 136.836C274.271 138.485 269.832 139.949 266.045 140.373C260.755 140.966 255.274 140.305 250.815 138.537C248.29 137.535 247.352 136.561 246.562 134.119C245.355 130.393 245.145 128.665 244.794 119.565C244.521 112.492 244.744 101.663 245.244 97.7647C245.595 95.031 246.287 92.3056 247.004 90.8383C247.566 89.6852 248.692 88.5767 249.847 88.0389C251.543 87.249 256.188 86.2666 259.751 85.9442C260.834 85.8462 262.402 85.8227 263.914 85.8603ZM60.9232 87.1336C63.9428 87.2862 64.1557 87.3439 64.4696 88.0932C64.7294 88.7137 64.8597 90.4128 64.674 90.759C64.4588 91.1602 63.6388 91.5401 62.2057 91.9028C61.0385 92.1982 59.3587 92.3026 58.5776 92.1282C57.8175 91.9585 56.6533 91.5154 56.3575 91.2832C55.5668 90.6628 55.3986 89.5712 55.8923 88.2663C56.3588 87.0334 56.8325 86.9267 60.9232 87.1336ZM332.054 111.876C333.259 111.888 334.487 112.03 336.116 112.304C337.484 112.534 339.604 112.867 340.827 113.044C347.109 113.953 349.054 114.588 350.637 116.242C352.219 117.898 352.855 120.424 353.017 125.7C353.124 129.188 352.685 131.554 351.625 133.202C351.029 134.129 349.732 135.286 348.66 135.848C345.934 137.277 340.967 138.286 335.334 138.554C333.869 138.624 332.12 138.708 331.449 138.739C329.123 138.849 325.372 138.477 322.295 137.83C319.335 137.209 318.154 136.634 316.55 135.036C314.295 132.789 313.638 130.587 313.626 125.243C313.615 120.185 314.413 117.164 316.197 115.501C317.773 114.032 319.263 113.504 323.517 112.91C324.833 112.726 326.911 112.417 328.134 112.224C329.668 111.981 330.849 111.864 332.054 111.876Z" fill="url(#paint0_linear_25_3247)"/>
<path d="M173.728 10.1051L172.963 10.1395L172.197 10.1739L167.819 17.8573C165.411 22.0831 163.465 25.5649 163.495 25.5947C163.525 25.6245 164.478 25.7295 165.613 25.828C167.271 25.972 167.743 26.0574 168.019 26.2635L168.363 26.52L168.356 32.8365C168.352 36.3107 168.249 42.8541 168.127 47.3772C168.005 51.9003 167.845 59.9186 167.772 65.1956C167.699 70.4726 167.582 76.0531 167.512 77.5967C167.442 79.1403 167.346 81.2844 167.299 82.3613C167.251 83.4382 167.177 84.4167 167.134 84.5358C167.066 84.7206 166.728 84.6047 164.83 83.7452C163.607 83.1911 161.932 82.4474 161.11 82.0926C159.34 81.3295 158.427 80.5884 157.945 79.5247L157.633 78.8368L157.636 71.3961C157.638 67.3038 157.66 63.6618 157.686 63.3028C157.711 62.9438 157.687 62.1136 157.632 61.4577C157.547 60.4347 157.572 60.1377 157.807 59.3691C158.158 58.2168 158.636 57.4789 159.89 56.149C161.52 54.4204 162.143 52.9967 162.146 50.9927C162.15 48.1145 160.795 45.3895 158.655 43.9725C156.246 42.377 152.55 42.1786 149.847 43.4998C147.968 44.4185 146.387 46.3926 145.84 48.5031C145.556 49.5992 145.554 51.5672 145.837 52.664C146.144 53.856 146.831 55.1848 147.693 56.2538C148.688 57.4875 149.048 58.1256 149.216 58.9517C149.307 59.3982 149.39 63.7419 149.446 71.0698C149.543 83.5642 149.506 83.0261 150.337 83.9938C150.778 84.5077 151.851 85.1711 162.017 91.2093C164.14 92.4704 166.036 93.6684 166.23 93.8713C166.796 94.4635 167.007 95.1514 167.119 96.7798C167.298 99.3524 166.943 100.6 165.695 101.787C165.285 102.178 164.687 102.629 164.366 102.79C162.169 103.895 160.431 105.811 159.485 108.169C158.88 109.678 158.705 110.76 158.698 113.038C158.69 115.382 158.913 116.599 159.651 118.236C161.31 121.921 165.057 124.65 169.275 125.246C170.508 125.42 172.592 125.274 174.022 124.912C178.068 123.889 181.527 120.695 182.853 116.758C183.259 115.555 183.271 115.451 183.269 113.299C183.267 111.261 183.237 110.984 182.91 109.905C181.951 106.746 180.202 104.308 177.901 102.921C176.746 102.225 175.84 101.27 175.632 100.531C175.492 100.03 175.476 98.4845 175.549 92.5065C175.637 85.3495 175.751 82.7724 176.028 81.7394C176.22 81.0224 176.823 80.4165 177.959 79.798C178.511 79.4974 180.11 78.6218 181.514 77.8519C182.917 77.0819 185.5 75.7094 187.253 74.8018C190.788 72.9712 191.382 72.6027 192.253 71.6988C193.613 70.2865 194.02 68.7372 194.198 64.2818C194.266 62.5946 194.386 57.2785 194.466 52.4682C194.546 47.6578 194.643 43.4654 194.681 43.1515C194.768 42.4379 195.128 42.0871 196.177 41.696C197.567 41.1773 197.478 41.6526 197.478 34.7627V28.7756H190.861C186.734 28.7756 184.153 28.8243 184.002 28.9051C183.54 29.1518 183.492 29.7512 183.518 34.9761L183.543 40.0671L183.871 40.6545C184.079 41.0261 184.439 41.3947 184.852 41.6577C185.211 41.8865 185.681 42.2194 185.897 42.3974L186.29 42.7209L186.325 54.1134C186.364 66.8911 186.395 66.4168 185.455 67.3834C184.787 68.0694 183.871 68.5704 179.616 70.5747C176.711 71.9435 176.075 72.1997 176.036 72.0187C176.01 71.8977 176.055 70.5041 176.136 68.9215C176.216 67.339 176.342 63.0482 176.414 59.3867C176.486 55.7251 176.602 50.5558 176.671 47.8993C176.741 45.2429 176.838 39.1778 176.887 34.4213L176.977 25.7732H179.647H182.317L182.226 25.4795C181.987 24.7095 181.059 22.5118 180.516 21.4303C179.632 19.6709 178.566 17.8604 176.545 14.6869C175.559 13.1381 174.521 11.4736 174.24 10.988L173.728 10.1051ZM68.3136 20.7495C66.4207 20.8253 64.5848 21.3406 63.0667 22.2851C61.1997 23.4467 58.9216 25.8877 57.9944 27.72C57.5237 28.6502 57.1104 30.0163 56.9514 31.1668C56.8435 31.9475 56.8754 32.2764 57.2121 33.8428C57.6663 35.9558 58.2551 37.2834 59.3359 38.6312C61.1718 40.9206 64.1806 42.5499 67.4043 43.0003C68.7847 43.1932 71.1096 43.0528 72.5431 42.6901C73.8949 42.348 75.3416 41.6888 76.3327 40.963C79.344 38.7578 81.2407 34.385 80.771 30.7311C80.2838 26.9412 77.724 23.6317 73.903 21.8512C72.1565 21.0374 70.2066 20.6737 68.3136 20.7495ZM92.3376 40.2976C89.5612 40.2085 88.1687 40.5786 86.4255 41.8694C84.6519 43.1826 79.3438 50.9486 75.3891 58.016C73.6703 61.0878 72.6859 63.15 71.3391 66.501C70.7475 67.9728 70.0796 69.5238 69.8547 69.9477C69.4035 70.7982 68.6874 71.4063 67.9819 71.5384C67.5179 71.6252 62.18 71.3784 62.0662 71.2648C61.9723 71.1712 62.4004 69.2583 62.7618 68.1569C62.9311 67.641 63.9517 65.1042 65.0298 62.5196C67.7749 55.9379 68.0903 54.8492 68.1107 51.8807C68.126 49.6591 67.8781 48.4954 67.0059 46.6919C65.316 43.1979 61.8966 41.1766 57.6757 41.1766C53.9097 41.1766 50.8052 42.7824 48.701 45.8189C47.1278 48.0891 44.6866 54.1192 41.9662 62.4543C41.4338 64.0855 39.5151 69.0086 38.9333 70.2358C38.8274 70.4592 38.5816 70.7144 38.3872 70.8028C38.1139 70.9272 35.436 70.9562 26.5841 70.9303C17.4493 70.9037 15.0022 70.9316 14.4802 71.0688C11.9696 71.7282 10.0817 73.4948 9.51063 75.7187C9.21027 76.8883 9.32271 80.4873 9.68519 81.3047C10.0313 82.0854 10.9302 83.0333 11.6873 83.416C13.0111 84.0853 14.1821 84.1598 22.1009 84.0807C26.2124 84.0396 29.8515 84.061 30.5409 84.1302C32.5064 84.3274 34.541 84.6638 34.7678 84.8293C35.0678 85.0481 35.3747 86.7072 35.3857 88.1702C35.3974 89.7117 35.0759 90.6576 34.3042 91.3531C33.4094 92.1595 32.9088 92.2311 28.4649 92.1888C24.6956 92.153 24.5284 92.1619 23.7853 92.4418C21.5378 93.2882 19.6557 95.2461 18.8566 97.5689C18.4564 98.7324 18.3653 100.818 18.6598 102.072C19.228 104.492 20.913 106.57 23.1909 107.66C25.0511 108.551 25.8606 108.693 29.5937 108.786C33.3149 108.879 33.4915 108.926 33.943 109.945C34.2066 110.539 34.2091 110.624 34.0506 113.558C33.812 117.975 34.142 122.883 34.963 127.128C35.1143 127.91 35.5562 130.45 35.9449 132.773C36.714 137.368 37.2573 139.926 38.2533 143.649C43.2503 162.325 52.5746 180.873 64.3377 195.537C69.0675 201.434 73.2851 205.658 81.6731 212.899C87.9755 218.339 90.4099 220.078 100.778 226.542C106.868 230.339 107.428 230.623 109.523 230.975C111.952 231.384 115.31 230.741 117.419 229.464C119.81 228.015 121.754 225.204 122.583 221.998C123.144 219.832 122.892 218.257 121.791 217.041C121.255 216.449 120.658 216.054 117.396 214.135C114.555 212.463 111.885 210.676 109.414 208.791C108.37 207.995 106.251 206.391 104.703 205.227C98.7535 200.749 94.9178 197.318 90.5131 192.535C85.7786 187.394 82.7415 183.257 73.1843 168.928C67.8542 160.936 66.7713 159.091 64.5935 154.288C64.0727 153.139 63.148 151.112 62.5385 149.784C60.2591 144.817 58.2958 139.243 57.0212 134.119C55.4599 127.844 54.8439 122.409 54.6316 113.035C54.553 109.566 54.5653 109.206 54.7785 108.757C54.9066 108.488 55.1661 108.159 55.3551 108.026C55.8059 107.71 57.1347 107.49 58.5937 107.49C59.8633 107.49 62.627 107.806 63.3338 108.031C64.181 108.302 64.1842 108.328 64.284 115.844C64.3345 119.648 64.4321 122.824 64.5087 123.159C64.5831 123.485 64.9763 125.276 65.3825 127.14C68.3242 140.641 69.7692 144.528 76.8323 157.943C80.4402 164.795 82.4581 167.98 87.0856 174.129C91.171 179.558 96.8217 185.952 100.473 189.278C104.656 193.088 110.489 197.673 113.69 199.665C116.535 201.437 124.268 205.565 127.675 207.132C137.707 211.745 151.324 214.748 165.347 215.44C170.72 215.705 177.343 215.537 181.056 215.043C182.71 214.823 190.467 213.168 194.795 212.112C205.563 209.486 216.095 204.943 224.695 199.217C228.192 196.888 233.618 192.824 235.883 190.837C236.603 190.206 238.992 187.892 241.192 185.695C244.702 182.19 245.25 181.587 245.67 180.773C246.937 178.321 246.829 176 245.313 173.052C244.104 170.7 242.848 169.469 240.879 168.707C239.563 168.197 238.809 168.059 237.326 168.059C234.194 168.059 232.245 169.151 227.769 173.411C222.942 178.005 220.388 179.895 211.872 185.171C205.838 188.91 202.525 190.462 196.758 192.254C189.35 194.557 186.073 195.297 180.205 195.995C169.663 197.248 167.584 197.326 159.661 196.768C156.012 196.51 152.992 195.945 146.38 194.279C141.111 192.952 138.558 192.088 134.472 190.251C133.393 189.766 131.212 188.808 129.626 188.123C120.407 184.138 116.92 182.138 111.966 177.994C109.009 175.522 101.895 168.078 99.7009 165.161C98.3732 163.396 91.5179 152.761 89.9572 150.045C84.6454 140.801 81.0968 130.007 80.1083 120.087C79.7689 116.681 79.3413 109.308 79.4586 108.885C79.741 107.864 80.2762 107.707 83.9631 107.557C86.2955 107.463 87.7045 107.603 88.112 107.971C88.7595 108.556 88.7869 108.741 88.8866 113.168C89.0246 119.293 89.4025 122.382 90.5951 127.136C91.6439 131.316 93.0834 135.405 94.9041 139.376C95.6426 140.986 98.6618 146.726 101.066 151.089C102.284 153.301 104.616 156.828 106.179 158.824C108.871 162.261 114.373 168.008 117.798 170.962C128.661 180.327 141.125 185.46 156.455 186.882C159.184 187.136 167.82 187.093 170.98 186.811C177.267 186.25 182.063 185.567 183.033 185.093C186.431 183.434 186.256 177.611 182.691 173.761C181.248 172.202 180.181 171.662 177.491 171.128C176.062 170.845 175.067 170.827 173.363 171.054C172.168 171.214 171.478 171.218 168.849 171.081C162.405 170.745 159.277 170.52 157.502 170.267C151.139 169.359 143.507 166.524 137.155 162.71C135.155 161.509 131.293 158.84 129.023 157.09C126.54 155.175 123.137 151.503 119.109 146.389C115.022 141.201 113.483 138.612 111.467 133.526C109.125 127.62 108.232 124.252 107.394 118.175C106.595 112.382 106.483 111.072 106.485 107.62C106.488 104.046 106.659 102.254 107.395 98.0987C108.614 91.2122 110.701 84.6229 113.234 79.6562C114.93 76.3325 116.406 74.2052 121.188 68.198C124.901 63.5329 125.076 63.2873 125.904 61.6058C127.951 57.4477 127.756 54.738 125.179 51.5248C124.173 50.2713 123.264 49.6305 121.72 49.0895C120.73 48.7426 120.392 48.6916 118.77 48.6453C115.818 48.5611 114.689 48.9444 112.272 50.8512C109.416 53.1039 106.323 56.5344 103.757 60.294C99.7011 66.2379 97.256 72.0015 94.3681 82.4266C93.7815 84.5445 93.0942 87.0117 92.8411 87.9091C92.2495 90.0065 90.8603 93.9116 90.6005 94.2073C90.4158 94.4176 90.1263 94.4295 86.9198 94.3588C85.0056 94.3166 83.2521 94.2252 83.0228 94.1558C82.755 94.0748 82.5663 93.911 82.495 93.6979C82.3765 93.3432 82.601 89.786 82.8603 87.9091C82.9445 87.2989 83.2954 85.6835 83.64 84.3194C85.2602 77.9058 87.2981 72.3667 90.1714 66.5662C91.7252 63.4296 92.9827 61.2925 96.0861 56.5148C99.8217 50.764 100.119 50.2127 100.387 48.5426C100.797 45.9776 99.5112 43.6124 96.6077 41.5932C95.1134 40.5541 94.496 40.3668 92.3376 40.2976ZM289.122 46.7423C284.467 46.7614 283.989 46.8185 283.729 47.3871C283.618 47.6295 283.579 52.6489 283.579 66.5071C283.579 76.8423 283.531 85.2984 283.473 85.2984C283.318 85.2984 282.819 84.7227 281.944 83.5361C280.491 81.5643 278.077 79.4941 276.03 78.464C274.175 77.5307 272.046 76.8985 269.316 76.47C268.212 76.2967 266.601 76.2429 261.104 76.1964L254.267 76.1388L252.496 76.4812C250.29 76.9074 247.984 77.5706 246.024 78.3419C244.049 79.1194 243.055 79.6254 241.615 80.5865C237.057 83.6281 234.567 88.2187 233.394 95.7414C233.134 97.4046 232.959 104.471 232.948 113.756C232.932 125.989 233.507 132.136 235.121 136.991C236.387 140.801 238.353 143.619 241.244 145.77C242.415 146.642 245.161 148.025 246.744 148.541C249.938 149.582 254.084 150.267 258.521 150.487C259.024 150.512 261.056 150.516 263.035 150.496C266.874 150.457 268.229 150.317 270.69 149.702C274.498 148.75 277.971 147.07 280.193 145.104C280.817 144.552 281.531 143.65 283.181 141.326C283.706 140.587 284.201 140.005 284.282 140.032C284.387 140.066 284.44 141.396 284.464 144.606L284.498 149.131H289.6H294.701V98.4763C294.701 54.4356 294.677 47.7733 294.511 47.4544C294.152 46.7608 293.865 46.7229 289.122 46.7423ZM335.784 74.0293C334.229 74.0251 332.649 74.0605 331.05 74.1359C325.22 74.4109 322.788 74.6945 318.68 75.5784C311.709 77.0785 309.324 78.3085 307.216 81.4916C305.422 84.1985 304.56 87.1807 304.67 90.2899C304.728 91.9049 304.892 92.3908 305.523 92.8176C305.86 93.0457 306.217 93.0685 310.015 93.1046C314.132 93.1438 314.141 93.1433 314.595 92.8436C315.14 92.483 315.666 91.4624 316.364 89.4103C317.183 86.9994 318.045 85.8059 319.47 85.1105C320.26 84.7252 323.173 84.2036 327.284 83.712C330.62 83.313 337.047 83.2779 339.78 83.6437C342.124 83.9574 346.031 84.6169 346.966 84.8568C348.927 85.3604 350.569 86.6112 351.353 88.1998C352.076 89.666 352.784 93.9566 353.07 98.6158C353.203 100.778 353.137 108.759 352.986 108.913C352.957 108.943 352.594 108.703 352.18 108.381C350.946 107.422 348.887 106.064 347.967 105.602C345.657 104.442 341.906 103.589 337.294 103.174C334.778 102.948 327.644 102.87 324.863 103.039C318.645 103.416 312.454 104.324 310.462 105.152C308.484 105.973 306.524 107.579 305.35 109.342C302.612 113.45 301.391 120.862 302.152 128.767C302.856 136.092 303.505 138.889 305.041 141.216C306.948 144.107 309.141 145.502 314.102 146.982C317.948 148.13 322.046 148.788 326.673 149.001C329.427 149.128 334.269 149.06 336.443 148.864C339.832 148.558 343.27 147.841 346.118 146.846C349.17 145.781 351.021 144.491 352.438 142.442C352.745 141.998 353.036 141.578 353.085 141.508C353.14 141.428 353.242 141.439 353.36 141.536C353.494 141.647 353.573 142.161 353.639 143.355C353.803 146.311 353.916 146.925 354.372 147.338L354.771 147.699L359.249 147.665L363.726 147.63L363.9 146.847C364.184 145.563 364.337 135.211 364.269 121.849C364.211 110.418 364.122 105.498 363.79 95.3187C363.557 88.1764 363.155 85.148 362.156 82.9887C360.781 80.0151 358.527 77.9846 355.229 76.7464C354.022 76.2932 350.737 75.4507 348.911 75.1261C344.89 74.411 340.45 74.0419 335.784 74.0293ZM368.897 74.0436C367.858 74.0693 367.219 74.1345 367.117 74.2356C367.081 74.2722 367.26 75.0305 367.516 75.9208C367.972 77.5063 369.101 80.7785 378.97 109.122C381.645 116.804 385.508 127.965 387.554 133.924C389.601 139.883 391.33 144.887 391.398 145.045C391.801 145.987 393.378 147.061 394.631 147.249C394.942 147.295 395.196 147.378 395.196 147.433C395.196 147.53 392.665 154.015 391.997 155.629C391.357 157.177 390.253 159.421 389.532 160.639C388.335 162.663 386.884 163.858 385.045 164.336C383.43 164.756 380.639 165.088 378.742 165.086L376.877 165.083V169.9V174.717L381.097 174.714C387.642 174.709 389.221 174.51 391.467 173.407C393.561 172.379 395.53 170.498 397.41 167.733C400.69 162.906 402.129 159.225 413.109 127.57C414.761 122.808 417.15 115.982 418.418 112.4C419.687 108.819 421.434 103.826 422.302 101.305C427.463 86.3116 430.531 77.2317 430.842 76.0302C431.037 75.2764 431.227 74.5568 431.263 74.4311C431.325 74.2165 431.036 74.2027 426.472 74.2027C422.48 74.2027 421.55 74.2364 421.248 74.3924C420.666 74.6924 419.678 76.9335 417.939 81.8932C414.305 92.2586 408.288 109.777 403.027 125.308C400.362 133.174 399.459 135.555 399.142 135.555C399.091 135.555 397.026 129.667 394.552 122.469C389.878 108.868 382.64 87.9062 379.897 80.0277C379.025 77.5236 378.215 75.3116 378.097 75.1121C377.979 74.9126 377.668 74.6294 377.406 74.4826C376.974 74.2402 376.577 74.2041 373.076 74.088C371.375 74.0315 369.936 74.0178 368.897 74.0436ZM138.273 76.7571C136.851 76.5543 135.376 76.8856 133.901 77.7583C131.072 79.4316 127.221 85.5261 124.679 92.3535C122.587 97.9737 121.798 102.081 121.798 107.359C121.798 111.092 122.323 115.238 123.299 119.222C124.354 123.527 126.884 129.783 128.85 132.943C130.492 135.584 133.418 139.087 135.703 141.146C137.535 142.798 141.202 145.895 142.258 146.682C145.915 149.408 151.574 152.03 156.717 153.379C159.833 154.196 163.878 154.869 167.251 155.131C169.369 155.295 171.727 155.194 176.235 154.744C180.705 154.297 182.579 154.004 184.981 153.377C191.329 151.719 197.613 148.435 202.646 144.145C204.789 142.32 208.697 138.397 210.034 136.73C212.912 133.143 215.549 128.138 217.373 122.8C219.187 117.49 219.761 113.224 219.482 107.138C219.03 97.3004 217.776 92.4131 214.092 86.1295C211.758 82.1492 210.564 80.5884 209.072 79.5642C206.042 77.4846 202.395 77.7087 200.143 80.1126C198.789 81.5581 198.132 83.1672 198.132 85.0373C198.132 86.8473 198.524 87.8918 200.291 90.7978C203.135 95.4744 204.735 99.6672 205.415 104.226C205.72 106.267 205.718 110.037 205.412 112.059C203.38 125.466 193.092 136.87 179.923 140.314C176.511 141.206 175.228 141.356 170.98 141.361C167.954 141.364 166.894 141.317 165.746 141.132C160.723 140.321 156.409 138.785 152.772 136.511C150.629 135.171 147.338 132.706 145.832 131.312C141.761 127.547 138.321 121.283 136.967 115.174C135.85 110.133 136.034 104.391 137.473 99.4209C138.448 96.0536 139.48 93.8535 141.911 89.9557C142.748 88.6135 143.635 87.1168 143.881 86.6295C145.231 83.9551 144.699 81.3168 142.334 78.9609C141.066 77.6969 139.695 76.9599 138.273 76.7571ZM263.914 85.8603C265.427 85.8979 266.884 85.9965 267.744 86.1428C270.213 86.5627 273.015 87.3982 274.559 88.1753C275.736 88.7675 277.569 90.0456 278.58 90.9791C281.034 93.2459 282.585 96.2627 283.241 100.049C283.555 101.858 283.867 109.534 283.887 115.909C283.904 121.732 283.832 122.745 283.167 125.961C282.596 128.729 281.299 132.01 280.13 133.644C279.405 134.657 277.88 136.108 276.775 136.836C274.271 138.485 269.832 139.949 266.045 140.373C260.755 140.966 255.274 140.305 250.815 138.537C248.29 137.535 247.352 136.561 246.562 134.119C245.355 130.393 245.145 128.665 244.794 119.565C244.521 112.492 244.744 101.663 245.244 97.7647C245.595 95.031 246.287 92.3056 247.004 90.8383C247.566 89.6852 248.692 88.5767 249.847 88.0389C251.543 87.249 256.188 86.2666 259.751 85.9442C260.834 85.8462 262.402 85.8227 263.914 85.8603ZM60.9232 87.1336C63.9428 87.2862 64.1557 87.3439 64.4696 88.0932C64.7294 88.7137 64.8597 90.4128 64.674 90.759C64.4588 91.1602 63.6388 91.5401 62.2057 91.9028C61.0385 92.1982 59.3587 92.3026 58.5776 92.1282C57.8175 91.9585 56.6533 91.5154 56.3575 91.2832C55.5668 90.6628 55.3986 89.5712 55.8923 88.2663C56.3588 87.0334 56.8325 86.9267 60.9232 87.1336ZM332.054 111.876C333.259 111.888 334.487 112.03 336.116 112.304C337.484 112.534 339.604 112.867 340.827 113.044C347.109 113.953 349.054 114.588 350.637 116.242C352.219 117.898 352.855 120.424 353.017 125.7C353.124 129.188 352.685 131.554 351.625 133.202C351.029 134.129 349.732 135.286 348.66 135.848C345.934 137.277 340.967 138.286 335.334 138.554C333.869 138.624 332.12 138.708 331.449 138.739C329.123 138.849 325.372 138.477 322.295 137.83C319.335 137.209 318.154 136.634 316.55 135.036C314.295 132.789 313.638 130.587 313.626 125.243C313.615 120.185 314.413 117.164 316.197 115.501C317.773 114.032 319.263 113.504 323.517 112.91C324.833 112.726 326.911 112.417 328.134 112.224C329.668 111.981 330.849 111.864 332.054 111.876Z" stroke="white" stroke-width="18.1907" mask="url(#path-1-outside-1_25_3247)"/>
<path d="M250.375 198.506V201.689H253.558H280.418H283.601V198.506V194.375C284.11 195.259 284.694 196.088 285.357 196.857L285.371 196.873L285.385 196.889C288.595 200.512 292.811 202.311 297.752 202.311C302.693 202.311 306.9 200.512 310.075 196.873C310.754 196.098 311.351 195.261 311.871 194.368V198.506V201.689H315.054H341.914H345.097V198.601C346.384 199.516 347.821 200.265 349.387 200.861L349.395 200.864L349.404 200.867C352.06 201.859 355.061 202.311 358.342 202.311C361.213 202.311 363.93 201.905 366.47 201.061L366.492 201.054L366.513 201.046C369.087 200.15 371.309 198.81 373.046 196.952L373.059 196.938L373.072 196.924C374.962 194.854 375.89 192.314 375.89 189.497C375.89 186.68 374.958 184.14 372.962 182.161C372.616 181.818 372.252 181.497 371.873 181.198C372.087 180.983 372.293 180.76 372.487 180.528C373.976 178.754 374.722 176.639 374.722 174.326C374.722 170.308 372.974 167.02 369.613 164.834C366.505 162.753 362.571 161.874 358.108 161.874C355.491 161.874 352.986 162.315 350.62 163.218C348.377 164.055 346.235 165.237 344.193 166.739L341.435 168.768C341.35 168.63 341.261 168.492 341.17 168.356C339.73 166.214 337.762 164.602 335.365 163.513C332.969 162.39 330.3 161.874 327.433 161.874C324.392 161.874 321.602 162.353 319.158 163.432C316.797 164.44 314.551 166.004 312.407 168.019L311.424 168.943C311.007 168.32 310.548 167.729 310.044 167.172C306.861 163.616 302.664 161.874 297.752 161.874C292.837 161.874 288.628 163.618 285.41 167.163L285.407 167.167C283.68 169.075 282.489 171.405 281.749 174.068C281.509 172.005 280.832 170.081 279.673 168.356C278.234 166.214 276.266 164.602 273.869 163.513C271.473 162.39 268.804 161.874 265.937 161.874C262.896 161.874 260.106 162.353 257.661 163.432C255.301 164.44 253.055 166.004 250.911 168.019L248.37 170.407L250.979 172.72L256.351 177.484L258.463 179.357L260.575 177.484C261.35 176.797 262.151 176.191 262.979 175.662L263.012 175.641L263.045 175.619C263.477 175.328 263.944 175.179 264.535 175.179C265.319 175.179 265.592 175.375 265.693 175.465L265.749 175.514L265.792 175.549C265.795 175.556 265.8 175.566 265.807 175.583C265.841 175.669 265.906 175.899 265.906 176.345C265.906 176.841 265.672 177.764 264.548 179.188C263.353 180.701 261.646 182.434 259.368 184.388L259.358 184.396L259.349 184.405C257.044 186.414 254.444 188.601 251.546 190.965L250.375 191.921V193.432V198.506ZM280.789 181.937C280.789 184.029 280.951 186.013 281.295 187.867H280.418H276.142C277.562 186.238 278.779 184.556 279.779 182.819C280.173 182.156 280.517 181.48 280.805 180.794C280.794 181.171 280.789 181.552 280.789 181.937ZM320.845 184.405C318.671 186.301 316.233 188.354 313.531 190.565C314.344 187.983 314.716 185.082 314.716 181.937C314.716 178.967 314.381 176.218 313.645 173.758L317.847 177.484L319.959 179.357L322.071 177.484C322.846 176.797 323.647 176.191 324.475 175.662L324.508 175.641L324.541 175.619C324.973 175.328 325.44 175.179 326.032 175.179C326.815 175.179 327.088 175.375 327.189 175.465L327.245 175.514L327.288 175.549C327.292 175.556 327.297 175.566 327.303 175.583C327.337 175.669 327.403 175.899 327.403 176.345C327.403 176.841 327.168 177.764 326.044 179.188C324.85 180.701 323.143 182.434 320.865 184.388L320.855 184.396L320.845 184.405ZM347.232 186.865L345.097 189.486V187.867H341.914H337.638C339.058 186.238 340.275 184.556 341.275 182.819C342.589 180.607 343.346 178.263 343.346 175.827C343.346 173.497 342.841 171.314 341.775 169.354L343.752 171.474L348.773 176.859L350.254 178.447V178.727V184.94V185.204L349.256 184.38L347.232 186.865ZM356.878 175.335C356.597 175.378 356.284 175.416 355.938 175.447C356.431 175.275 356.991 175.179 357.641 175.179C357.647 175.179 357.653 175.179 357.659 175.179C357.462 175.23 357.205 175.284 356.878 175.335ZM358.376 174.849C358.376 174.849 358.375 174.849 358.374 174.851C358.375 174.849 358.375 174.849 358.376 174.849ZM354.594 188.235C354.52 188.201 354.447 188.167 354.374 188.131C356.395 188.165 357.74 188.31 358.528 188.5L358.538 188.503L358.549 188.505C358.733 188.549 358.891 188.592 359.024 188.633C358.616 188.728 358.053 188.799 357.291 188.799C356.437 188.799 355.544 188.625 354.594 188.235ZM359.609 188.875C359.609 188.875 359.608 188.874 359.607 188.873C359.608 188.874 359.609 188.875 359.609 188.875C359.609 188.875 359.609 188.875 359.609 188.876C359.609 188.876 359.609 188.875 359.609 188.875ZM298.415 176.29L298.417 176.3L298.42 176.309C298.692 177.296 298.89 179.102 298.89 181.937C298.89 184.76 298.694 186.624 298.41 187.705C298.256 188.291 298.104 188.67 297.985 188.897C297.944 188.974 297.913 189.023 297.895 189.05C297.84 189.087 297.808 189.1 297.799 189.103C297.791 189.106 297.781 189.109 297.752 189.109C297.724 189.109 297.714 189.106 297.705 189.103C297.696 189.1 297.665 189.087 297.61 189.05C297.591 189.023 297.56 188.974 297.52 188.897C297.401 188.671 297.248 188.291 297.095 187.705C296.811 186.624 296.615 184.76 296.615 181.937C296.615 179.102 296.813 177.296 297.085 176.309L297.087 176.3L297.09 176.29C297.241 175.727 297.386 175.388 297.486 175.207C297.498 175.186 297.508 175.169 297.517 175.155C297.632 175.079 297.693 175.075 297.752 175.075C297.811 175.075 297.872 175.079 297.988 175.155C297.996 175.169 298.007 175.186 298.018 175.207C298.118 175.388 298.264 175.727 298.415 176.29ZM297.552 175.103C297.552 175.103 297.551 175.104 297.549 175.106C297.551 175.104 297.552 175.103 297.552 175.103ZM297.953 175.103C297.953 175.103 297.954 175.104 297.956 175.106C297.954 175.104 297.953 175.103 297.953 175.103Z" fill="url(#paint1_linear_25_3247)" stroke="white" stroke-width="6.36675"/>
<path d="M191.879 102.739C191.861 103.602 191.13 105.071 190.266 105.053C189.402 105.035 187.7 102.995 187.718 102.131C187.736 101.267 189.483 101.124 190.346 101.142C191.21 101.16 191.896 101.875 191.879 102.739Z" fill="white"/>
<path d="M188.84 34.8816C188.822 35.7455 188.113 36.1708 187.249 36.153C186.385 36.1353 185.954 35.6866 185.972 34.8226C185.99 33.9587 186.444 33.2673 187.308 33.2851C188.171 33.3029 188.857 34.0176 188.84 34.8816Z" fill="white"/>
<path d="M192.095 41.4476C192.077 42.3116 191.363 42.9976 190.499 42.9798C189.635 42.962 190.52 41.9369 190.009 41.4048C190.027 40.5408 189.699 39.8334 190.563 39.8511C191.427 39.8689 192.113 40.5837 192.095 41.4476Z" fill="white"/>
<path d="M182.385 57.0699C182.367 57.9339 182.174 58.6305 181.31 58.6127C180.446 58.595 179.76 57.8802 179.777 57.0162C179.795 56.1523 180.51 55.4663 181.374 55.4841C182.238 55.5018 182.402 56.206 182.385 57.0699Z" fill="white"/>
<path d="M183.19 68.6518C183.172 69.5158 182.474 69.4196 181.61 69.4018C180.746 69.3841 180.044 69.4515 180.062 68.5875C180.079 67.7236 180.794 67.0376 181.658 67.0554C182.522 67.0731 183.208 67.7879 183.19 68.6518Z" fill="white"/>
<path d="M194.525 126.268C194.507 127.132 193.793 127.818 192.929 127.8C192.065 127.782 191.118 127.062 191.136 126.198C191.154 125.334 192.129 124.653 192.993 124.671C193.857 124.689 194.543 125.404 194.525 126.268Z" fill="white"/>
<path d="M192.115 91.2669C192.097 92.1308 191.377 93.0775 190.513 93.0597C189.649 93.042 188.186 92.0504 188.204 91.1865C188.222 90.3225 189.719 89.6526 190.583 89.6704C191.447 89.6881 192.133 90.4029 192.115 91.2669Z" fill="white"/>
<path d="M189.704 56.266C189.687 57.13 188.988 57.0338 188.124 57.016C187.26 56.9983 186.558 57.0656 186.576 56.2017C186.594 55.3377 187.314 54.391 188.178 54.4088C189.042 54.4266 189.722 55.4021 189.704 56.266Z" fill="white"/>
<path d="M187.294 21.2651C187.276 22.129 187.365 21.7882 186.501 21.7704C185.637 21.7527 184.147 22.0647 184.165 21.2007C184.183 20.3368 184.898 19.6508 185.762 19.6686C186.626 19.6863 187.312 20.4011 187.294 21.2651Z" fill="white"/>
<path d="M175.289 135.784C175.272 136.648 174.296 137.328 173.432 137.31C172.568 137.293 171.882 136.578 171.9 135.714C171.918 134.85 172.649 133.382 173.513 133.4C174.377 133.417 175.307 134.92 175.289 135.784Z" fill="white"/>
<path d="M188.686 143.884C188.668 144.748 187.139 146.982 186.275 146.964C185.411 146.947 184.725 146.232 184.743 145.368C184.761 144.504 185.476 143.818 186.34 143.836C187.204 143.854 188.704 143.02 188.686 143.884Z" fill="white"/>
<path d="M185.086 128.682C185.068 129.546 184.353 130.232 183.489 130.214C182.625 130.196 181.418 129.471 181.436 128.607C181.453 127.743 182.168 127.057 183.032 127.075C183.896 127.093 185.103 127.818 185.086 128.682Z" fill="white"/>
<path d="M186.168 114.098C186.15 114.962 185.175 115.642 184.311 115.625C183.447 115.607 182.761 114.892 182.778 114.028C182.796 113.164 183.522 111.957 184.386 111.975C185.25 111.992 186.186 113.234 186.168 114.098Z" fill="white"/>
<path d="M181.751 87.9238C181.733 88.7878 180.497 89.4631 179.633 89.4453C178.769 89.4275 178.083 88.7128 178.101 87.8488C178.118 86.9849 178.833 86.2989 179.697 86.3166C180.561 86.3344 181.769 87.0599 181.751 87.9238Z" fill="white"/>
<path d="M185.215 122.425C185.197 123.289 184.477 124.235 183.613 124.218C182.749 124.2 182.068 123.224 182.086 122.36C182.104 121.496 182.819 120.81 183.682 120.828C184.546 120.846 185.232 121.561 185.215 122.425Z" fill="white"/>
<path d="M181.418 104.088C181.4 104.952 180.164 105.628 179.3 105.61C178.436 105.592 177.75 104.877 177.768 104.013C177.785 103.149 178.5 102.463 179.364 102.481C180.228 102.499 181.435 103.224 181.418 104.088Z" fill="white"/>
<path d="M192.436 75.6236C192.419 76.4876 192.231 76.9235 191.367 76.9058C190.617 75.3254 189.829 75.57 188.786 75.5486C188.804 74.6846 190.04 74.0094 190.904 74.0271C191.768 74.0449 192.454 74.7597 192.436 75.6236Z" fill="white"/>
<path d="M76.3835 97.1289C76.3566 95.8196 75.6101 93.5871 74.7461 93.6049C73.8822 93.6226 72.2013 96.6956 72.2283 98.0049C72.2552 99.3143 74.004 99.5496 74.8679 99.5319C75.7319 99.5141 76.4105 98.4383 76.3835 97.1289Z" fill="white"/>
<path d="M74.0624 199.921C74.0354 198.612 73.3214 197.96 72.4574 197.978C71.5935 197.996 71.1675 198.671 71.1944 199.98C71.2213 201.29 71.6828 202.342 72.5468 202.324C73.4107 202.307 74.0893 201.231 74.0624 199.921Z" fill="white"/>
<path d="M77.2495 190.006C77.2226 188.697 76.5004 187.65 75.6365 187.668C74.7725 187.685 75.6689 189.248 75.1637 190.049C75.1907 191.358 74.87 192.427 75.734 192.409C76.5979 192.391 77.2765 191.316 77.2495 190.006Z" fill="white"/>
<path d="M67.37 166.231C67.3431 164.921 67.1423 163.864 66.2784 163.881C65.4144 163.899 64.7359 164.975 64.7628 166.284C64.7897 167.594 65.5119 168.641 66.3758 168.623C67.2398 168.605 67.3969 167.54 67.37 166.231Z" fill="white"/>
<path d="M68.0535 148.689C68.0266 147.379 67.3288 147.518 66.4649 147.536C65.6009 147.553 64.898 147.444 64.9249 148.753C64.9518 150.062 65.674 151.11 66.538 151.092C67.4019 151.074 68.0805 149.998 68.0535 148.689Z" fill="white"/>
<path d="M78.7811 61.503C78.7541 60.1936 78.032 59.1466 77.168 59.1643C76.304 59.1821 75.3648 60.2633 75.3917 61.5726C75.4186 62.882 76.4015 63.9237 77.2655 63.9059C78.1294 63.8881 78.808 62.8123 78.7811 61.503Z" fill="white"/>
<path d="M76.741 114.515C76.7141 113.205 75.9838 111.763 75.1198 111.781C74.2558 111.799 72.8033 113.286 72.8302 114.595C72.8571 115.904 74.3614 116.935 75.2254 116.918C76.0893 116.9 76.7679 115.824 76.741 114.515Z" fill="white"/>
<path d="M74.7007 167.527C74.6738 166.217 73.976 166.356 73.112 166.373C72.2481 166.391 71.5451 166.281 71.572 167.591C71.599 168.9 72.3293 170.342 73.1932 170.325C74.0572 170.307 74.7276 168.836 74.7007 167.527Z" fill="white"/>
<path d="M72.66 220.539C72.6331 219.229 72.7255 219.747 71.8616 219.764C70.9976 219.782 69.5044 219.293 69.5313 220.603C69.5583 221.912 70.2804 222.959 71.1444 222.941C72.0084 222.924 72.6869 221.848 72.66 220.539Z" fill="white"/>
<path d="M59.4393 46.879C59.4124 45.5696 58.4295 44.5279 57.5655 44.5457C56.7016 44.5634 56.023 45.6393 56.0499 46.9486C56.0769 48.258 56.8234 50.4904 57.6874 50.4727C58.5513 50.4549 59.4662 48.1883 59.4393 46.879Z" fill="white"/>
<path d="M72.7533 34.7464C72.7264 33.4371 71.1733 30.0353 70.3094 30.053C69.4454 30.0708 68.7669 31.1466 68.7938 32.456C68.8207 33.7653 69.5429 34.8124 70.4069 34.7946C71.2708 34.7768 72.7803 36.0558 72.7533 34.7464Z" fill="white"/>
<path d="M69.3133 57.7441C69.2864 56.4347 68.5642 55.3877 67.7002 55.4054C66.8363 55.4232 65.6363 56.5097 65.6632 57.8191C65.6901 59.1284 66.4123 60.1755 67.2762 60.1577C68.1402 60.14 69.3402 59.0534 69.3133 57.7441Z" fill="white"/>
<path d="M70.551 79.8552C70.524 78.5459 69.5411 77.5042 68.6772 77.5219C67.8132 77.5397 67.1347 78.6155 67.1616 79.9249C67.1885 81.2342 67.9269 83.0715 68.7909 83.0538C69.6548 83.036 70.5779 81.1646 70.551 79.8552Z" fill="white"/>
<path d="M66.409 119.47C66.3821 118.161 65.1384 117.125 64.2745 117.142C63.4105 117.16 62.732 118.236 62.7589 119.545C62.7858 120.855 63.508 121.902 64.3719 121.884C65.2359 121.866 66.4359 120.78 66.409 119.47Z" fill="white"/>
<path d="M69.5086 67.2274C69.4817 65.9181 68.7514 64.4759 67.8874 64.4937C67.0235 64.5114 66.3531 65.9824 66.38 67.2917C66.4069 68.6011 67.1291 69.6481 67.993 69.6304C68.857 69.6126 69.5355 68.5368 69.5086 67.2274Z" fill="white"/>
<path d="M65.9051 94.9724C65.8781 93.6631 64.6345 92.6268 63.7706 92.6445C62.9066 92.6623 62.2281 93.7381 62.255 95.0475C62.2819 96.3568 63.0041 97.4039 63.868 97.3861C64.732 97.3684 65.932 96.2818 65.9051 94.9724Z" fill="white"/>
<path d="M77.2283 138.223C77.2014 136.913 77.0088 136.251 76.1448 136.268C75.4114 138.655 74.6211 138.276 73.5782 138.298C73.6051 139.607 74.8488 140.643 75.7127 140.625C76.5767 140.608 77.2552 139.532 77.2283 138.223Z" fill="white"/>
<path d="M123.815 169.477C123.797 168.613 123.067 167.145 122.203 167.163C121.339 167.18 119.637 169.22 119.654 170.084C119.672 170.948 121.419 171.091 122.283 171.073C123.147 171.056 123.833 170.341 123.815 169.477Z" fill="white"/>
<path d="M120.776 237.334C120.758 236.47 120.049 236.045 119.185 236.062C118.321 236.08 117.891 236.529 117.908 237.393C117.926 238.257 118.38 238.948 119.244 238.93C120.108 238.913 120.794 238.198 120.776 237.334Z" fill="white"/>
<path d="M124.032 230.768C124.014 229.904 123.299 229.218 122.435 229.235C121.571 229.253 122.457 230.278 121.946 230.811C121.964 231.674 121.636 232.382 122.5 232.364C123.364 232.346 124.05 231.632 124.032 230.768Z" fill="white"/>
<path d="M114.321 215.146C114.303 214.282 114.11 213.585 113.246 213.603C112.382 213.621 111.696 214.335 111.714 215.199C111.732 216.063 112.446 216.749 113.31 216.731C114.174 216.714 114.339 216.01 114.321 215.146Z" fill="white"/>
<path d="M115.126 203.564C115.108 202.7 114.409 202.796 113.545 202.814C112.681 202.831 111.979 202.764 111.997 203.628C112.015 204.492 112.73 205.178 113.594 205.16C114.458 205.142 115.144 204.428 115.126 203.564Z" fill="white"/>
<path d="M126.462 145.948C126.444 145.084 125.729 144.398 124.865 144.416C124.001 144.433 123.055 145.154 123.072 146.018C123.09 146.881 124.066 147.562 124.93 147.544C125.793 147.527 126.479 146.812 126.462 145.948Z" fill="white"/>
<path d="M124.052 180.949C124.034 180.085 123.314 179.138 122.45 179.156C121.586 179.174 120.123 180.165 120.141 181.029C120.158 181.893 121.655 182.563 122.519 182.545C123.383 182.527 124.069 181.813 124.052 180.949Z" fill="white"/>
<path d="M121.641 215.949C121.623 215.085 120.924 215.182 120.061 215.199C119.197 215.217 118.495 215.15 118.512 216.014C118.53 216.878 119.25 217.824 120.114 217.807C120.978 217.789 121.659 216.813 121.641 215.949Z" fill="white"/>
<path d="M119.23 250.95C119.213 250.087 119.301 250.427 118.437 250.445C117.573 250.463 116.084 250.151 116.102 251.015C116.119 251.879 116.834 252.565 117.698 252.547C118.562 252.529 119.248 251.814 119.23 250.95Z" fill="white"/>
<path d="M107.226 136.432C107.208 135.568 106.233 134.887 105.369 134.905C104.505 134.923 103.819 135.637 103.837 136.501C103.854 137.365 104.585 138.834 105.449 138.816C106.313 138.798 107.244 137.296 107.226 136.432Z" fill="white"/>
<path d="M120.623 128.332C120.605 127.468 119.076 125.233 118.212 125.251C117.348 125.269 116.662 125.984 116.68 126.848C116.697 127.712 117.412 128.397 118.276 128.38C119.14 128.362 120.64 129.195 120.623 128.332Z" fill="white"/>
<path d="M117.022 143.533C117.004 142.67 116.29 141.984 115.426 142.001C114.562 142.019 113.354 142.745 113.372 143.609C113.39 144.472 114.105 145.158 114.969 145.141C115.833 145.123 117.04 144.397 117.022 143.533Z" fill="white"/>
<path d="M118.104 158.118C118.087 157.254 117.111 156.573 116.247 156.591C115.383 156.609 114.697 157.323 114.715 158.187C114.733 159.051 115.458 160.259 116.322 160.241C117.186 160.223 118.122 158.982 118.104 158.118Z" fill="white"/>
<path d="M113.687 184.292C113.67 183.428 112.433 182.752 111.569 182.77C110.705 182.788 110.019 183.503 110.037 184.367C110.055 185.231 110.77 185.917 111.634 185.899C112.498 185.881 113.705 185.156 113.687 184.292Z" fill="white"/>
<path d="M117.151 149.791C117.133 148.927 116.413 147.98 115.549 147.998C114.685 148.016 114.005 148.991 114.023 149.855C114.04 150.719 114.755 151.405 115.619 151.387C116.483 151.37 117.169 150.655 117.151 149.791Z" fill="white"/>
<path d="M113.354 168.127C113.337 167.263 112.1 166.588 111.236 166.606C110.372 166.623 109.686 167.338 109.704 168.202C109.722 169.066 110.437 169.752 111.301 169.734C112.165 169.717 113.372 168.991 113.354 168.127Z" fill="white"/>
<path d="M124.373 196.592C124.355 195.728 124.167 195.292 123.303 195.31C122.553 196.89 121.766 196.645 120.723 196.667C120.74 197.531 121.977 198.206 122.841 198.188C123.705 198.171 124.391 197.456 124.373 196.592Z" fill="white"/>
</g>
<defs>
<filter id="filter0_d_25_3247" x="0.241211" y="0.771118" width="471.759" height="271.776" filterUnits="userSpaceOnUse" color-interpolation-filters="sRGB">
<feFlood flood-opacity="0" result="BackgroundImageFix"/>
<feColorMatrix in="SourceAlpha" type="matrix" values="0 0 0 0 0 0 0 0 0 0 0 0 0 0 0 0 0 0 127 0" result="hardAlpha"/>
<feOffset dx="10" dy="11"/>
<feGaussianBlur stdDeviation="4.5"/>
<feComposite in2="hardAlpha" operator="out"/>
<feColorMatrix type="matrix" values="0 0 0 0 0 0 0 0 0 0 0 0 0 0 0 0 0 0 0.46 0"/>
<feBlend mode="normal" in2="BackgroundImageFix" result="effect1_dropShadow_25_3247"/>
<feBlend mode="normal" in="SourceGraphic" in2="effect1_dropShadow_25_3247" result="shape"/>
</filter>
<linearGradient id="paint0_linear_25_3247" x1="241.935" y1="231.105" x2="241.935" y2="10.1051" gradientUnits="userSpaceOnUse">
<stop stop-color="#355D8F"/>
<stop offset="0.515625" stop-color="#0096FF"/>
<stop offset="1" stop-color="#00D7FF"/>
</linearGradient>
<linearGradient id="paint1_linear_25_3247" x1="312.898" y1="165.057" x2="312.875" y2="199.09" gradientUnits="userSpaceOnUse">
<stop stop-color="#0066FF"/>
<stop offset="0.0001" stop-color="#0066FF" stop-opacity="0.890625"/>
<stop offset="1" stop-color="#2C67A3"/>
</linearGradient>
</defs>
</svg>
