<svg width="406" height="390" viewBox="0 0 406 390" fill="none" xmlns="http://www.w3.org/2000/svg">
<g filter="url(#filter0_d_563_457)">
<path d="M290.021 91.0163L7.66211 168.303L64.2484 375.036L346.607 297.749L290.021 91.0163Z" fill="#A2B2D6"/>
<path d="M291.87 83.3915L9.51074 160.678L66.0971 367.411L348.456 290.125L291.87 83.3915Z" fill="#F5F5F5"/>
<path d="M266.336 110.014L167.767 136.994L169.294 142.573L267.864 115.593L266.336 110.014Z" fill="#949AAA"/>
<path d="M269.869 122.925L186.161 145.837L186.92 148.61L270.628 125.697L269.869 122.925Z" fill="#949AAA"/>
<path d="M272.056 130.911L173.485 157.891L174.244 160.664L272.815 133.684L272.056 130.911Z" fill="#949AAA"/>
<path d="M274.242 138.898L175.672 165.878L176.431 168.651L275.001 141.671L274.242 138.898Z" fill="#949AAA"/>
<path d="M276.428 146.885L177.858 173.865L178.617 176.638L277.187 149.658L276.428 146.885Z" fill="#949AAA"/>
<path d="M278.615 154.872L180.045 181.852L180.804 184.625L279.374 157.644L278.615 154.872Z" fill="#949AAA"/>
<path d="M280.913 163.268L182.343 190.249L183.102 193.022L281.672 166.042L280.913 163.268Z" fill="#949AAA"/>
<path d="M283.099 171.257L184.529 198.237L185.288 201.01L283.858 174.029L283.099 171.257Z" fill="#949AAA"/>
<path d="M259.96 186.174L186.715 206.223L187.474 208.996L260.719 188.947L259.96 186.174Z" fill="#949AAA"/>
<path d="M103.71 316.603L96.4619 318.587L98.4462 325.836L105.695 323.852L103.71 316.603Z" fill="#5CA6B3"/>
<path d="M127.19 312.578L110.774 317.071L111.533 319.844L127.949 315.351L127.19 312.578Z" fill="#949AAA"/>
<path d="M106.949 328.327L99.7012 330.311L101.685 337.561L108.933 335.577L106.949 328.327Z" fill="#2B4248"/>
<path d="M151.415 318.57L113.988 328.814L114.747 331.587L152.174 321.342L151.415 318.57Z" fill="#949AAA"/>
<path d="M143.713 297.172L128.13 301.437L128.889 304.21L144.472 299.944L143.713 297.172Z" fill="#5A5A7A"/>
<path d="M72.4985 258.827L70.0391 259.5L82.9725 306.733L85.4319 306.06L72.4985 258.827Z" fill="#54BAE2"/>
<path d="M80.205 277.347L77.7441 278.021L85.4233 306.065L87.8841 305.391L80.205 277.347Z" fill="#F44D3B"/>
<path d="M83.3656 263.78L80.9043 264.454L91.8126 304.306L94.2739 303.632L83.3656 263.78Z" fill="#54BAE2"/>
<path d="M87.4631 269.015L85.0039 269.688L94.2891 303.639L96.7483 302.967L87.4631 269.015Z" fill="#F44D3B"/>
<path d="M97.0808 279.069L94.6201 279.742L100.673 301.884L103.134 301.212L97.0808 279.069Z" fill="#54BAE2"/>
<path d="M98.2233 273.602L95.7627 274.277L103.14 301.196L105.601 300.522L98.2233 273.602Z" fill="#F44D3B"/>
<path d="M103.375 267.308L100.915 267.982L109.53 299.455L111.99 298.781L103.375 267.308Z" fill="#54BAE2"/>
<path d="M112.116 289.574L109.656 290.247L111.992 298.78L114.451 298.107L112.116 289.574Z" fill="#F44D3B"/>
<path d="M109.386 254.547L106.927 255.22L118.374 297.04L120.833 296.367L109.386 254.547Z" fill="#54BAE2"/>
<path d="M110.512 248.953L108.052 249.627L120.85 296.367L123.31 295.693L110.512 248.953Z" fill="#F44D3B"/>
<path d="M122.954 269.335L120.494 270.008L127.225 294.608L129.685 293.935L122.954 269.335Z" fill="#54BAE2"/>
<path d="M120.197 249.475L117.737 250.147L129.714 293.941L132.173 293.268L120.197 249.475Z" fill="#F44D3B"/>
<path d="M130.093 260.517L127.633 261.191L136.124 292.188L138.584 291.514L130.093 260.517Z" fill="#54BAE2"/>
<path d="M133.111 261.967L130.651 262.641L138.565 291.531L141.025 290.857L133.111 261.967Z" fill="#F44D3B"/>
<path d="M142.296 270.408L139.835 271.082L144.948 289.762L147.409 289.089L142.296 270.408Z" fill="#54BAE2"/>
<path d="M146.082 274.478L143.621 275.151L147.437 289.097L149.897 288.424L146.082 274.478Z" fill="#F44D3B"/>
<path d="M153.438 276.345L150.979 277.018L153.808 287.351L156.267 286.677L153.438 276.345Z" fill="#75CF33"/>
<path d="M149.455 252.043L146.995 252.717L156.294 286.665L158.754 285.992L149.455 252.043Z" fill="#F2274D"/>
<path d="M154.89 246.855L152.431 247.529L162.67 284.921L165.129 284.248L154.89 246.855Z" fill="#75CF33"/>
<path d="M154.132 234.375L151.672 235.048L165.129 284.253L167.588 283.58L154.132 234.375Z" fill="#F2274D"/>
<path d="M167.667 258.696L165.208 259.37L171.542 282.494L174.002 281.82L167.667 258.696Z" fill="#75CF33"/>
<path d="M171.101 261.588L168.641 262.262L173.99 281.803L176.45 281.13L171.101 261.588Z" fill="#F2274D"/>
<path d="M179.058 265.623L176.599 266.296L180.369 280.072L182.829 279.399L179.058 265.623Z" fill="#75CF33"/>
<path d="M183.177 270.907L180.716 271.58L182.857 279.405L185.318 278.731L183.177 270.907Z" fill="#F2274D"/>
<path d="M73.3914 215.448L66.1436 217.432L68.1277 224.681L75.3755 222.697L73.3914 215.448Z" fill="#317AB0"/>
<path d="M127.158 203.138L80.4443 215.924L81.2033 218.697L127.917 205.911L127.158 203.138Z" fill="#949AAA"/>
<path d="M76.6126 227.185L69.3643 229.169L71.3483 236.418L78.5966 234.434L76.6126 227.185Z" fill="#F2274D"/>
<path d="M100.076 223.173L83.6582 227.666L84.4172 230.439L100.835 225.945L100.076 223.173Z" fill="#949AAA"/>
<path d="M79.8162 238.935L72.5684 240.919L74.5524 248.168L81.8002 246.184L79.8162 238.935Z" fill="#FFD121"/>
<path d="M124.298 229.165L86.8711 239.409L87.63 242.182L125.057 231.937L124.298 229.165Z" fill="#949AAA"/>
<path d="M115.499 194.067L99.917 198.332L100.676 201.105L116.258 196.84L115.499 194.067Z" fill="#949AAA"/>
<path d="M80.4268 190.404L91.4361 176.738L107.109 183.101L127.039 148.144L149.174 169.127L81.6047 191.721L80.4268 190.404Z" fill="#F2274D"/>
<path d="M154.782 162.675L144.791 153.118L120.613 169.57L102.534 165.694L91.281 188.343L68.4283 185.494L62.4121 199.434L155.97 173.003L154.782 162.675Z" fill="#FFD121"/>
<path d="M51.7041 206.052L60.6687 190.077L69.9625 194.088L78.684 181.048L92.4148 186.303L113.002 163.357L131.663 167.769L154.982 154.425L160.93 176.152L51.7041 206.052Z" fill="#317AB0"/>
<path d="M225.082 283.376L217.834 285.36L219.818 292.609L227.066 290.625L225.082 283.376Z" fill="#6B2D6E"/>
<path d="M278.849 271.067L232.137 283.853L232.896 286.626L279.608 273.84L278.849 271.067Z" fill="#949AAA"/>
<path d="M228.299 295.116L221.05 297.101L223.034 304.349L230.283 302.365L228.299 295.116Z" fill="#F2274D"/>
<path d="M251.765 291.107L235.348 295.601L236.107 298.374L252.524 293.88L251.765 291.107Z" fill="#949AAA"/>
<path d="M261.944 263.436L246.362 267.701L247.121 270.474L262.703 266.209L261.944 263.436Z" fill="#949AAA"/>
<path d="M293.706 232.784C293.975 233.767 293.396 234.781 292.415 235.05C291.432 235.319 290.418 234.741 290.148 233.758C289.88 232.775 290.458 231.76 291.441 231.492C292.423 231.223 293.437 231.801 293.706 232.784Z" fill="#F2274D"/>
<path d="M274.898 225.891C275.167 226.873 274.587 227.888 273.606 228.156C272.624 228.425 271.608 227.847 271.338 226.865C271.069 225.883 271.65 224.867 272.633 224.598C273.613 224.33 274.629 224.909 274.898 225.891Z" fill="#F2274D"/>
<path d="M257.081 242.403C257.35 243.386 256.771 244.401 255.789 244.669C254.807 244.938 253.792 244.359 253.523 243.377C253.255 242.395 253.832 241.379 254.815 241.111C255.798 240.842 256.812 241.421 257.081 242.403Z" fill="#F2274D"/>
<path d="M241.938 240.731C242.207 241.714 241.628 242.727 240.644 242.996C239.663 243.265 238.647 242.687 238.378 241.705C238.109 240.723 238.689 239.707 239.671 239.438C240.653 239.17 241.668 239.749 241.938 240.731Z" fill="#F2274D"/>
<path d="M237.448 254.072C237.716 255.055 237.139 256.069 236.156 256.338C235.174 256.607 234.159 256.028 233.889 255.046C233.62 254.063 234.2 253.05 235.183 252.781C236.165 252.512 237.179 253.09 237.448 254.072Z" fill="#F2274D"/>
<path d="M215.988 254.847C216.256 255.83 215.677 256.844 214.695 257.113C213.713 257.382 212.698 256.804 212.429 255.821C212.16 254.839 212.739 253.824 213.721 253.556C214.703 253.287 215.719 253.865 215.988 254.847Z" fill="#F2274D"/>
<path d="M203.768 267.453C204.037 268.435 203.458 269.449 202.475 269.718C201.493 269.986 200.478 269.409 200.209 268.427C199.94 267.444 200.519 266.43 201.501 266.161C202.484 265.892 203.499 266.47 203.768 267.453Z" fill="#6B2D6E"/>
<path d="M211.282 231.141C211.551 232.124 210.971 233.138 209.989 233.407C209.007 233.676 207.991 233.098 207.722 232.115C207.454 231.133 208.032 230.118 209.014 229.849C209.998 229.58 211.013 230.159 211.282 231.141Z" fill="#6B2D6E"/>
<path d="M231.491 243.591C231.76 244.574 231.182 245.587 230.201 245.855C229.217 246.125 228.203 245.547 227.934 244.564C227.665 243.582 228.243 242.567 229.227 242.298C230.209 242.029 231.221 242.608 231.491 243.591Z" fill="#6B2D6E"/>
<path d="M243.231 222.272C243.501 223.255 242.921 224.269 241.94 224.538C240.956 224.807 239.942 224.229 239.673 223.246C239.404 222.264 239.982 221.25 240.967 220.98C241.948 220.711 242.962 221.29 243.231 222.272Z" fill="#6B2D6E"/>
<path d="M257.32 231.231C257.589 232.214 257.009 233.229 256.026 233.498C255.045 233.766 254.03 233.187 253.761 232.205C253.492 231.224 254.072 230.208 255.052 229.939C256.035 229.671 257.051 230.249 257.32 231.231Z" fill="#6B2D6E"/>
<path d="M265.863 208.795C266.132 209.778 265.552 210.792 264.572 211.061C263.589 211.329 262.573 210.752 262.304 209.769C262.035 208.787 262.615 207.772 263.597 207.503C264.578 207.235 265.593 207.813 265.863 208.795Z" fill="#6B2D6E"/>
<path d="M282.06 215.346C282.329 216.328 281.748 217.343 280.768 217.612C279.785 217.881 278.77 217.303 278.5 216.32C278.232 215.338 278.812 214.322 279.794 214.053C280.775 213.785 281.79 214.364 282.06 215.346Z" fill="#6B2D6E"/>
<path d="M293.333 208.681C293.602 209.663 293.023 210.678 292.04 210.946C291.059 211.215 290.043 210.637 289.774 209.655C289.504 208.672 290.085 207.657 291.067 207.388C292.049 207.119 293.064 207.698 293.333 208.681Z" fill="#6B2D6E"/>
<path d="M202.42 268.416L201.219 268.157L209.24 230.738L229.402 243.245L241.464 222.088L255.275 230.955L263.08 208.54L280.54 215.44L291.163 208.799L291.816 209.842L280.665 216.812L263.82 210.155L255.923 232.832L241.891 223.824L229.839 244.964L210.076 232.704L202.42 268.416Z" fill="#6B2D6E"/>
<path d="M205.651 272.975C205.921 273.957 205.343 274.971 204.361 275.24C203.379 275.509 202.363 274.931 202.094 273.948C201.825 272.966 202.404 271.951 203.387 271.681C204.368 271.413 205.382 271.993 205.651 272.975Z" fill="#F2274D"/>
<path d="M203.975 274.521L202.908 273.912L213.51 254.716L235.373 253.985L239.887 240.494L254.752 242.884L272.921 225.116L291.96 232.907L291.493 234.046L273.202 226.56L255.17 244.197L240.7 241.87L236.251 255.184L214.239 255.921L203.975 274.521Z" fill="#F2274D"/>
<path d="M389.824 67.3896L186.696 35.6302L176.968 92.0743L176.93 92.2938L140.093 306.492L350.871 343.361L394.248 68.2745L389.824 67.3896Z" fill="#A2B2D6"/>
<path d="M195.028 33.1851L148.438 303.593L346.421 337.705L393.012 67.2973L195.028 33.1851Z" fill="#F1F2F2"/>
<path d="M190.17 61.3927L185.266 89.8569L383.249 123.969L388.153 95.5048L190.17 61.3927Z" fill="#5A5A7A"/>
<path d="M239.302 50.5442L237.789 59.3276L359.972 80.3796L361.485 71.5962L239.302 50.5442Z" fill="#5A5A7A"/>
<path d="M233.607 86.8001L232.755 91.7473L353.863 112.614L354.715 107.667L233.607 86.8001Z" fill="white"/>
<path d="M220.561 74.8261L219.709 79.7738L370.166 105.697L371.019 100.75L220.561 74.8261Z" fill="white"/>
<path d="M152.07 282.493L151.432 286.199L349.414 320.311L350.053 316.605L152.07 282.493Z" fill="#5A5A7A"/>
<path d="M249.098 166.792L249.912 205.85C257.081 205.445 263.91 203.324 269.913 199.837L249.098 166.792Z" fill="#6B2D6E"/>
<path d="M250.685 163.158L272.689 198.088C281.982 191.748 288.899 181.954 291.368 170.169L250.685 163.158Z" fill="#FFD121"/>
<path d="M291.926 166.935C295.093 143.587 279.649 121.712 256.587 116.88L249.229 159.577L291.926 166.935Z" fill="#75CF33"/>
<path d="M245.761 164.192L212.678 189.617C219.287 197.604 228.673 203.361 239.69 205.26C242.019 205.661 244.338 205.874 246.63 205.913L245.761 164.192Z" fill="#F2274D"/>
<path d="M202.988 153.272C201.479 162.028 202.61 170.628 205.806 178.258L207.182 181.237C208.203 183.249 209.373 185.181 210.678 187.015L245.724 160.595L245.863 159.786L248.878 142.3L253.354 116.323C229.466 113.082 207.115 129.322 202.988 153.272Z" fill="#317AB0"/>
<path d="M202.477 212.95L192.843 268.832L202.647 270.522L212.281 214.641L202.477 212.95Z" fill="#2E97CC"/>
<path d="M214.259 234.489L207.893 271.417L217.696 273.107L224.062 236.179L214.259 234.489Z" fill="#BCD81A"/>
<path d="M227.435 247.51L222.867 274.008L232.67 275.698L237.239 249.2L227.435 247.51Z" fill="#FFC022"/>
<path d="M240.972 258.115L237.789 276.579L247.593 278.27L250.776 259.806L240.972 258.115Z" fill="#8A379B"/>
<path d="M258.127 247.847L252.735 279.137L262.54 280.826L267.931 249.536L258.127 247.847Z" fill="#F44D3B"/>
<path d="M307.973 146.537L306.866 152.957L313.286 154.063L314.393 147.644L307.973 146.537Z" fill="#317AB0"/>
<path d="M319.729 150.598L319.306 153.054L360.677 160.182L361.1 157.726L319.729 150.598Z" fill="#949AAA"/>
<path d="M306.165 156.933L305.059 163.352L311.479 164.459L312.585 158.039L306.165 156.933Z" fill="#75CF33"/>
<path d="M317.943 161L317.52 163.456L332.059 165.961L332.482 163.505L317.943 161Z" fill="#949AAA"/>
<path d="M304.388 167.336L303.281 173.756L309.701 174.863L310.808 168.443L304.388 167.336Z" fill="#FFD121"/>
<path d="M316.142 171.392L315.719 173.848L348.866 179.56L349.289 177.104L316.142 171.392Z" fill="#949AAA"/>
<path d="M302.574 177.726L301.468 184.146L307.888 185.252L308.994 178.832L302.574 177.726Z" fill="#6B2D6E"/>
<path d="M314.385 181.811L313.962 184.266L338.684 188.528L339.108 186.073L314.385 181.811Z" fill="#949AAA"/>
<path d="M300.757 188.354L299.65 194.774L306.07 195.88L307.177 189.461L300.757 188.354Z" fill="#F2274D"/>
<path d="M312.519 192.416L312.096 194.872L349.6 201.334L350.023 198.878L312.519 192.416Z" fill="#949AAA"/>
<path d="M191.7 130.06C191.405 131.765 189.784 132.909 188.078 132.615C186.373 132.321 185.229 130.701 185.523 128.995C185.817 127.29 187.439 126.146 189.144 126.44C190.848 126.734 191.993 128.354 191.7 130.06Z" fill="#231F20"/>
<path d="M177.713 211.214C177.418 212.919 175.796 214.064 174.091 213.77C172.387 213.476 171.242 211.855 171.536 210.15C171.83 208.444 173.451 207.301 175.156 207.594C176.862 207.888 178.006 209.509 177.713 211.214Z" fill="#231F20"/>
<path d="M287.232 227.554L286.38 232.494L346.466 242.853L347.317 237.913L287.232 227.554Z" fill="#5A5A7A"/>
<path d="M294.289 240.526L293.866 242.982L344.892 251.774L345.315 249.318L294.289 240.526Z" fill="#949AAA"/>
<path d="M284.011 246.037L283.588 248.494L343.674 258.847L344.097 256.39L284.011 246.037Z" fill="#949AAA"/>
<path d="M282.793 253.114L282.37 255.569L342.456 265.922L342.879 263.466L282.793 253.114Z" fill="#949AAA"/>
<path d="M281.604 260.208L281.181 262.664L341.266 273.023L341.69 270.567L281.604 260.208Z" fill="#949AAA"/>
<path d="M280.355 267.26L279.932 269.715L340.017 280.068L340.44 277.612L280.355 267.26Z" fill="#949AAA"/>
<path d="M279.168 274.359L278.744 276.815L323.392 284.512L323.815 282.056L279.168 274.359Z" fill="#949AAA"/>
<path d="M231.432 211.853L231.009 214.309L244.809 216.686L245.233 214.23L231.432 211.853Z" fill="#949AAA"/>
<path d="M219.781 279.474L219.357 281.93L233.158 284.308L233.581 281.852L219.781 279.474Z" fill="#5A5A7A"/>
<path d="M40.718 4.3374L15.1934 226.645L325.185 255L338.756 31.5677L40.718 4.3374Z" fill="#A2B2D6"/>
<path d="M39.9836 3.34438L20.7939 221.822L319.194 248.031L338.383 29.5539L39.9836 3.34438Z" fill="#F7F7F7"/>
<path d="M200.244 36.8725L199.727 42.7687L303.896 51.9183L304.414 46.0221L200.244 36.8725Z" fill="#5A5A7A"/>
<path d="M214.752 51.8937L214.495 54.824L302.958 62.594L303.216 59.6638L214.752 51.8937Z" fill="#949AAA"/>
<path d="M198.306 58.9552L198.049 61.886L302.218 71.0356L302.476 68.1048L198.306 58.9552Z" fill="#949AAA"/>
<path d="M197.565 67.3961L197.308 70.3264L301.477 79.476L301.734 76.5457L197.565 67.3961Z" fill="#949AAA"/>
<path d="M196.824 75.8362L196.566 78.767L300.736 87.9166L300.993 84.9858L196.824 75.8362Z" fill="#949AAA"/>
<path d="M196.083 84.2766L195.825 87.2069L299.994 96.3565L300.252 93.4262L196.083 84.2766Z" fill="#949AAA"/>
<path d="M195.304 93.1498L195.047 96.0811L299.216 105.231L299.473 102.299L195.304 93.1498Z" fill="#949AAA"/>
<path d="M194.563 101.591L194.306 104.521L298.474 113.671L298.732 110.741L194.563 101.591Z" fill="#949AAA"/>
<path d="M193.822 110.032L193.564 112.962L270.971 119.761L271.228 116.831L193.822 110.032Z" fill="#949AAA"/>
<path d="M67.3037 185.775L66.6309 193.435L74.2902 194.107L74.963 186.447L67.3037 185.775Z" fill="#75CF33"/>
<path d="M81.5602 189.4L81.3027 192.331L98.6521 193.855L98.9096 190.924L81.5602 189.4Z" fill="#949AAA"/>
<path d="M66.21 198.171L65.5371 205.833L73.1965 206.505L73.8694 198.844L66.21 198.171Z" fill="#F2274D"/>
<path d="M80.4712 201.812L80.2139 204.742L119.768 208.216L120.025 205.286L80.4712 201.812Z" fill="#949AAA"/>
<path d="M103.778 180.569L103.521 183.5L119.988 184.946L120.246 182.016L103.778 180.569Z" fill="#5A5A7A"/>
<path d="M62.9302 119.679L58.5459 169.594L61.1452 169.823L65.5295 119.907L62.9302 119.679Z" fill="#BCD81A"/>
<path d="M63.7496 140.188L61.1465 169.825L63.7468 170.053L66.3499 140.416L63.7496 140.188Z" fill="#F95130"/>
<path d="M71.6029 128.29L67.8994 170.407L70.5007 170.635L74.2042 128.519L71.6029 128.29Z" fill="#BCD81A"/>
<path d="M73.6568 134.76L70.502 170.637L73.1013 170.866L76.2561 134.989L73.6568 134.76Z" fill="#F95130"/>
<path d="M79.3159 147.835L77.2607 171.233L79.8601 171.462L81.9152 148.064L79.3159 147.835Z" fill="#BCD81A"/>
<path d="M82.3545 143.007L79.8584 171.459L82.4597 171.687L84.9558 143.236L82.3545 143.007Z" fill="#F95130"/>
<path d="M89.5407 138.808L86.626 172.069L89.2258 172.297L92.1405 139.036L89.5407 138.808Z" fill="#BCD81A"/>
<path d="M90.0138 163.274L89.2227 172.291L91.821 172.519L92.6121 163.501L90.0138 163.274Z" fill="#F95130"/>
<path d="M99.8628 128.693L95.9854 172.889L98.5847 173.117L102.462 128.921L99.8628 128.693Z" fill="#BCD81A"/>
<path d="M102.918 123.712L98.5791 173.108L101.179 173.336L105.518 123.941L102.918 123.712Z" fill="#F95130"/>
<path d="M107.617 147.72L105.326 173.714L107.925 173.943L110.217 147.949L107.617 147.72Z" fill="#BCD81A"/>
<path d="M112.001 127.648L107.937 173.925L110.535 174.153L114.6 127.877L112.001 127.648Z" fill="#F95130"/>
<path d="M117.573 141.768L114.699 174.526L117.3 174.754L120.173 141.996L117.573 141.768Z" fill="#BCD81A"/>
<path d="M119.986 144.224L117.302 174.755L119.901 174.984L122.586 144.453L119.986 144.224Z" fill="#F95130"/>
<path d="M125.794 155.612L124.062 175.354L126.663 175.582L128.395 155.84L125.794 155.612Z" fill="#BCD81A"/>
<path d="M127.949 160.855L126.648 175.591L129.249 175.821L130.549 161.084L127.949 160.855Z" fill="#F95130"/>
<path d="M134.381 165.254L133.422 176.173L136.02 176.401L136.979 165.482L134.381 165.254Z" fill="#BCD81A"/>
<path d="M139.164 140.515L136.013 176.391L138.613 176.62L141.764 140.743L139.164 140.515Z" fill="#F95130"/>
<path d="M146.228 137.478L142.749 176.99L145.349 177.219L148.828 137.707L146.228 137.478Z" fill="#BCD81A"/>
<path d="M149.949 125.231L145.382 177.226L147.981 177.454L152.548 125.459L149.949 125.231Z" fill="#F95130"/>
<path d="M154.274 153.375L152.133 177.813L154.734 178.041L156.875 153.603L154.274 153.375Z" fill="#BCD81A"/>
<path d="M156.548 157.386L154.734 178.038L157.334 178.267L159.148 157.615L156.548 157.386Z" fill="#F95130"/>
<path d="M162.773 164.079L161.496 178.637L164.094 178.865L165.372 164.307L162.773 164.079Z" fill="#BCD81A"/>
<path d="M164.81 170.581L164.084 178.849L166.685 179.077L167.411 170.809L164.81 170.581Z" fill="#F95130"/>
<path d="M74.1494 77.9378L73.4766 85.5981L81.1364 86.2709L81.8093 78.6106L74.1494 77.9378Z" fill="#6ECCDC"/>
<path d="M88.4077 81.572L88.1504 84.5018L137.517 88.8379L137.774 85.9081L88.4077 81.572Z" fill="#949AAA"/>
<path d="M73.0605 90.3478L72.3877 98.0082L80.0476 98.681L80.7204 91.0206L73.0605 90.3478Z" fill="#2B4248"/>
<path d="M87.3199 93.9816L87.0625 96.9124L104.413 98.4363L104.67 95.5055L87.3199 93.9816Z" fill="#949AAA"/>
<path d="M71.9717 102.758L71.2988 110.419L78.9592 111.092L79.632 103.431L71.9717 102.758Z" fill="#FFD121"/>
<path d="M86.2291 106.39L85.9717 109.32L125.525 112.795L125.783 109.864L86.2291 106.39Z" fill="#949AAA"/>
<path d="M113.343 71.6143L113.086 74.5446L129.554 75.991L129.812 73.0607L113.343 71.6143Z" fill="#5A5A7A"/>
<path d="M195.562 197.038L194.889 204.698L202.549 205.371L203.221 197.71L195.562 197.038Z" fill="#6B2D6E"/>
<path d="M209.814 200.661L209.557 203.592L258.921 207.928L259.178 204.997L209.814 200.661Z" fill="#949AAA"/>
<path d="M194.467 209.44L193.794 217.1L201.454 217.773L202.127 210.112L194.467 209.44Z" fill="#F2274D"/>
<path d="M208.732 213.08L208.475 216.01L225.824 217.534L226.082 214.604L208.732 213.08Z" fill="#949AAA"/>
<path d="M229.208 190.218L228.95 193.149L245.418 194.595L245.675 191.664L229.208 190.218Z" fill="#5A5A7A"/>
<path d="M283.956 174.207C283.9 174.207 283.844 174.205 283.788 174.201C283.208 174.157 282.681 173.889 282.303 173.449C281.925 173.008 281.741 172.446 281.786 171.867C281.872 170.742 282.823 169.86 283.951 169.86C284.007 169.86 284.063 169.862 284.119 169.866C285.314 169.958 286.212 171.004 286.12 172.199C286.034 173.325 285.083 174.207 283.956 174.207Z" fill="#FF365C"/>
<path d="M283.951 170.191C283.998 170.191 284.046 170.193 284.094 170.196C285.108 170.274 285.868 171.159 285.79 172.173C285.716 173.141 284.908 173.876 283.955 173.876C283.908 173.876 283.861 173.874 283.813 173.87C282.796 173.793 282.038 172.907 282.116 171.892C282.189 170.926 282.996 170.191 283.951 170.191ZM283.951 169.529C282.651 169.529 281.555 170.545 281.456 171.841C281.405 172.509 281.616 173.156 282.052 173.664C282.487 174.171 283.095 174.48 283.762 174.53C283.827 174.535 283.891 174.538 283.955 174.538C285.255 174.538 286.35 173.522 286.45 172.224C286.501 171.557 286.289 170.91 285.854 170.403C285.419 169.895 284.812 169.587 284.145 169.536C284.079 169.531 284.015 169.529 283.951 169.529Z" fill="#FF365C"/>
<path d="M268.581 161.392C268.526 161.392 268.47 161.39 268.414 161.385C267.218 161.294 266.32 160.247 266.411 159.053C266.497 157.926 267.449 157.044 268.578 157.044C268.634 157.044 268.69 157.046 268.745 157.05C269.94 157.142 270.836 158.189 270.745 159.385C270.658 160.51 269.708 161.392 268.581 161.392Z" fill="#FF365C"/>
<path d="M268.579 157.375C268.626 157.375 268.673 157.377 268.721 157.38C269.735 157.457 270.493 158.345 270.416 159.359C270.342 160.326 269.535 161.06 268.583 161.06C268.536 161.06 268.488 161.058 268.44 161.055C267.426 160.978 266.664 160.093 266.742 159.078C266.815 158.112 267.625 157.375 268.579 157.375ZM268.579 156.713C267.278 156.713 266.181 157.73 266.082 159.027C266.031 159.694 266.243 160.342 266.679 160.849C267.116 161.356 267.723 161.664 268.39 161.715C268.454 161.72 268.518 161.722 268.583 161.722C269.881 161.722 270.976 160.707 271.076 159.41C271.127 158.743 270.915 158.096 270.481 157.588C270.046 157.08 269.439 156.771 268.772 156.72C268.707 156.716 268.642 156.713 268.579 156.713Z" fill="#FF365C"/>
<path d="M246.264 170.927C246.208 170.927 246.152 170.926 246.096 170.921C245.517 170.877 244.991 170.61 244.613 170.169C244.235 169.729 244.051 169.168 244.095 168.589C244.182 167.463 245.133 166.58 246.261 166.58C246.316 166.58 246.372 166.582 246.428 166.587C247.624 166.678 248.522 167.725 248.43 168.921C248.343 170.046 247.392 170.927 246.264 170.927Z" fill="#FF365C"/>
<path d="M246.26 166.911C246.307 166.911 246.354 166.913 246.402 166.917C247.417 166.995 248.177 167.881 248.099 168.896C248.025 169.862 247.217 170.597 246.263 170.597C246.216 170.597 246.169 170.595 246.121 170.591C245.106 170.513 244.346 169.629 244.424 168.614C244.498 167.647 245.306 166.911 246.26 166.911ZM246.26 166.25C244.96 166.25 243.864 167.266 243.764 168.564C243.659 169.94 244.693 171.146 246.07 171.251C246.135 171.256 246.2 171.259 246.263 171.259C247.563 171.259 248.66 170.243 248.759 168.946C248.81 168.28 248.598 167.632 248.162 167.124C247.727 166.616 247.12 166.308 246.453 166.257C246.388 166.252 246.323 166.25 246.26 166.25Z" fill="#FF365C"/>
<path d="M232.581 164.257C232.526 164.257 232.469 164.255 232.413 164.251C231.834 164.207 231.306 163.94 230.929 163.499C230.552 163.059 230.369 162.498 230.413 161.918C230.499 160.792 231.45 159.91 232.578 159.91C232.633 159.91 232.689 159.912 232.746 159.916C233.324 159.96 233.851 160.228 234.229 160.669C234.607 161.109 234.79 161.671 234.746 162.25C234.659 163.375 233.708 164.257 232.581 164.257Z" fill="#FF365C"/>
<path d="M232.577 160.241C232.624 160.241 232.672 160.243 232.72 160.246C233.735 160.323 234.493 161.21 234.416 162.224C234.342 163.192 233.535 163.926 232.581 163.926C232.534 163.926 232.486 163.924 232.439 163.92C231.423 163.843 230.665 162.959 230.743 161.943C230.817 160.977 231.623 160.241 232.577 160.241ZM232.577 159.579C231.278 159.579 230.182 160.595 230.083 161.892C230.032 162.56 230.243 163.207 230.678 163.714C231.113 164.221 231.72 164.529 232.388 164.58C232.453 164.585 232.517 164.587 232.581 164.587C233.88 164.587 234.976 163.571 235.075 162.274C235.126 161.607 234.915 160.96 234.479 160.453C234.044 159.945 233.437 159.636 232.77 159.585C232.706 159.581 232.641 159.579 232.577 159.579Z" fill="#FF365C"/>
<path d="M223.867 175.296C223.811 175.296 223.755 175.294 223.699 175.289C222.504 175.198 221.606 174.151 221.697 172.957C221.783 171.831 222.735 170.95 223.864 170.95C223.919 170.95 223.975 170.952 224.031 170.956C225.227 171.048 226.124 172.094 226.033 173.289C225.947 174.414 224.995 175.296 223.867 175.296Z" fill="#FF365C"/>
<path d="M223.863 171.281C223.91 171.281 223.958 171.283 224.006 171.286C225.02 171.364 225.781 172.249 225.703 173.263C225.629 174.229 224.821 174.965 223.868 174.965C223.821 174.965 223.773 174.963 223.725 174.959C222.711 174.882 221.95 173.995 222.027 172.982C222.101 172.015 222.91 171.281 223.863 171.281ZM223.863 170.619C222.563 170.619 221.466 171.635 221.367 172.931C221.316 173.597 221.528 174.245 221.964 174.752C222.4 175.26 223.007 175.568 223.674 175.619C223.738 175.624 223.803 175.627 223.867 175.627C225.167 175.627 226.263 174.611 226.362 173.313C226.413 172.646 226.202 172 225.766 171.492C225.33 170.985 224.723 170.677 224.056 170.626C223.992 170.621 223.928 170.619 223.863 170.619Z" fill="#FF365C"/>
<path d="M203.42 168.802C203.364 168.802 203.309 168.8 203.252 168.795C202.673 168.751 202.146 168.484 201.768 168.044C201.39 167.604 201.206 167.042 201.251 166.463C201.337 165.337 202.288 164.455 203.416 164.455C203.472 164.455 203.528 164.457 203.584 164.461C204.162 164.506 204.689 164.773 205.068 165.214C205.446 165.655 205.631 166.216 205.587 166.795C205.501 167.92 204.549 168.802 203.42 168.802Z" fill="#FF365C"/>
<path d="M203.416 164.786C203.464 164.786 203.511 164.788 203.559 164.791C204.572 164.869 205.335 165.755 205.258 166.769C205.184 167.736 204.373 168.47 203.42 168.47C203.373 168.47 203.325 168.468 203.277 168.465C202.262 168.387 201.503 167.502 201.581 166.487C201.654 165.521 202.462 164.786 203.416 164.786ZM203.416 164.124C202.116 164.124 201.02 165.141 200.921 166.438C200.87 167.105 201.081 167.752 201.517 168.259C201.952 168.767 202.56 169.074 203.227 169.126C203.292 169.131 203.356 169.133 203.42 169.133C204.721 169.133 205.818 168.117 205.917 166.82C205.968 166.153 205.756 165.507 205.319 164.999C204.883 164.491 204.276 164.183 203.609 164.132C203.544 164.127 203.48 164.124 203.416 164.124Z" fill="#FF365C"/>
<path d="M186.468 168.751L207.033 135.572L221.868 154.221L240.338 138.377L250.303 151.309L265.142 132.91L279.376 145.394L291.765 142.688L292.169 144.535L278.849 147.444L265.375 135.629L250.268 154.361L240.06 141.11L221.61 156.934L207.225 138.85L188.075 169.747L186.468 168.751Z" fill="#7A3C7D"/>
<path d="M265.183 133.386L279.284 145.753L291.513 143.082L291.775 144.282L278.941 147.085L265.334 135.154L250.273 153.827L240.108 140.631L221.654 156.459L207.191 138.276L187.968 169.291L186.923 168.645L207.066 136.146L221.822 154.696L240.288 138.856L250.297 151.843L265.183 133.386ZM265.101 132.434L264.667 132.971L250.309 150.775L240.812 138.452L240.387 137.899L239.857 138.353L221.913 153.747L207.584 135.733L206.999 134.998L206.504 135.797L186.361 168.296L186.012 168.858L186.574 169.207L187.619 169.853L188.181 170.202L188.53 169.639L207.258 139.423L221.136 156.871L221.563 157.408L222.085 156.962L240.009 141.587L249.748 154.23L250.26 154.895L250.788 154.242L265.416 136.105L278.504 147.582L278.755 147.802L279.082 147.73L291.915 144.928L292.562 144.786L292.421 144.14L292.158 142.94L292.017 142.293L291.371 142.434L279.468 145.034L265.619 132.888L265.101 132.434Z" fill="#7A3C7D"/>
<path d="M187.596 182.375C187.54 182.375 187.484 182.373 187.428 182.369C186.849 182.324 186.323 182.057 185.945 181.616C185.568 181.176 185.385 180.614 185.429 180.035C185.516 178.909 186.466 178.027 187.593 178.027C187.648 178.027 187.704 178.029 187.761 178.033C188.34 178.078 188.866 178.345 189.244 178.786C189.622 179.226 189.806 179.788 189.761 180.366C189.674 181.493 188.723 182.375 187.596 182.375Z" fill="#FF365C"/>
<path d="M187.592 178.358C187.639 178.358 187.687 178.36 187.735 178.364C188.749 178.442 189.508 179.327 189.431 180.341C189.357 181.309 188.549 182.044 187.596 182.044C187.549 182.044 187.502 182.042 187.454 182.039C186.439 181.961 185.681 181.076 185.759 180.06C185.833 179.094 186.638 178.358 187.592 178.358ZM187.592 177.697C186.293 177.697 185.199 178.713 185.099 180.01C184.994 181.387 186.027 182.593 187.403 182.699C187.467 182.704 187.532 182.706 187.596 182.706C188.895 182.706 189.991 181.69 190.09 180.392C190.141 179.725 189.93 179.079 189.494 178.571C189.059 178.063 188.452 177.755 187.785 177.704C187.72 177.699 187.656 177.697 187.592 177.697Z" fill="#FF365C"/>
<path d="M187.311 181.563C187.223 181.557 187.141 181.515 187.083 181.448L186.284 180.516C186.166 180.379 186.18 180.172 186.316 180.052L202.75 165.565C202.811 165.511 202.889 165.482 202.969 165.482C203.003 165.482 203.037 165.488 203.07 165.498L223.664 172.098L232.307 161.108C232.372 161.026 232.469 160.981 232.567 160.981C232.621 160.981 232.676 160.995 232.726 161.022L245.76 168.193L268.682 157.663C268.726 157.643 268.773 157.633 268.82 157.633C268.9 157.633 268.979 157.663 269.041 157.718L284.325 171.455C284.461 171.578 284.472 171.786 284.35 171.922L283.531 172.837C283.472 172.902 283.389 172.942 283.302 172.947C283.296 172.947 283.291 172.947 283.284 172.947C283.203 172.947 283.124 172.917 283.063 172.863L268.539 159.809L245.837 170.239C245.793 170.259 245.746 170.269 245.699 170.269C245.644 170.269 245.589 170.255 245.539 170.228L232.954 163.306L224.463 174.111C224.399 174.192 224.302 174.237 224.202 174.237C224.169 174.237 224.135 174.232 224.101 174.221L203.326 167.562L187.553 181.482C187.492 181.535 187.414 181.564 187.334 181.564C187.327 181.564 187.319 181.563 187.311 181.563Z" fill="#FF365C"/>
<path d="M268.821 157.964L284.105 171.701L283.285 172.616L268.599 159.417L245.699 169.938L232.868 162.88L224.203 173.906L203.248 167.189L187.334 181.232L186.535 180.3L202.968 165.812L223.781 172.483L232.566 161.312L245.746 168.564L268.821 157.964ZM268.821 157.303C268.727 157.303 268.633 157.323 268.544 157.363L245.774 167.823L232.886 160.733C232.785 160.677 232.676 160.651 232.567 160.651C232.37 160.651 232.176 160.739 232.047 160.904L223.546 171.713L203.171 165.183C203.105 165.162 203.037 165.151 202.969 165.151C202.811 165.151 202.654 165.208 202.532 165.316L186.098 179.803C185.827 180.043 185.798 180.456 186.033 180.73L186.832 181.663C186.947 181.798 187.112 181.88 187.289 181.893C187.304 181.894 187.32 181.894 187.335 181.894C187.496 181.894 187.652 181.836 187.773 181.729L203.406 167.934L224.002 174.536C224.069 174.557 224.137 174.567 224.204 174.567C224.403 174.567 224.597 174.477 224.724 174.314L233.042 163.73L245.381 170.518C245.48 170.572 245.59 170.6 245.7 170.6C245.794 170.6 245.889 170.58 245.976 170.539L268.48 160.2L282.842 173.108C282.964 173.217 283.122 173.278 283.285 173.278C283.297 173.278 283.308 173.277 283.321 173.277C283.496 173.267 283.661 173.188 283.778 173.058L284.598 172.143C284.841 171.871 284.819 171.453 284.547 171.209L269.263 157.472C269.139 157.36 268.98 157.303 268.821 157.303Z" fill="#FF365C"/>
<path d="M97.583 56.1294L112.183 43.8902L125.768 58.6946L154.315 28.3503L175.22 60.3253L98.2151 58.1002L97.583 56.1294Z" fill="#2B4248"/>
<path d="M179.067 52.9576L164.539 35.6332L143.493 51.2725L127.877 37.603L108.787 57.3475L88.1649 43.6172L77.0576 58.6108L176.203 66.5654L179.067 52.9576Z" fill="#FFD121"/>
<path d="M179.067 52.9576L164.539 35.6332L143.493 51.2725L127.877 37.603L108.787 57.3475L88.1649 43.6172L77.0576 58.6108" stroke="white" stroke-width="3.7727" stroke-miterlimit="10" stroke-linecap="round" stroke-linejoin="round"/>
<path d="M64.4277 61.1152L78.7406 49.02L86.2102 56.1961L99.2408 46.8258L110.514 56.7821L135.633 41.7112L154.284 58.3785L181.893 48.6653L179.804 71.6159L64.4277 61.1152Z" fill="#6ECCDC"/>
<path d="M78.7402 49.02L86.2098 56.1961L99.2404 46.8258L110.513 56.7821L135.633 41.7112L154.284 58.3785L181.893 48.6653" stroke="white" stroke-width="3.7727" stroke-miterlimit="10" stroke-linecap="round" stroke-linejoin="round"/>
<path d="M189.561 168.839C189.483 169.854 188.597 170.613 187.582 170.536C186.568 170.459 185.805 169.573 185.882 168.558C185.96 167.544 186.849 166.785 187.863 166.862C188.879 166.939 189.639 167.825 189.561 168.839Z" fill="#F7F7F7" stroke="#7A3C7D" stroke-width="2.8295" stroke-miterlimit="10"/>
<path d="M208.852 137.212C208.774 138.227 207.887 138.986 206.871 138.908C205.859 138.831 205.097 137.945 205.174 136.93C205.252 135.916 206.141 135.156 207.153 135.233C208.168 135.311 208.929 136.198 208.852 137.212Z" fill="#F7F7F7" stroke="#7A3C7D" stroke-width="2.8295" stroke-miterlimit="10"/>
<path d="M223.669 155.724C223.591 156.74 222.708 157.498 221.694 157.42C220.679 157.342 219.92 156.458 219.998 155.443C220.075 154.428 220.961 153.668 221.975 153.746C222.99 153.824 223.747 154.71 223.669 155.724Z" fill="#F7F7F7" stroke="#7A3C7D" stroke-width="2.8295" stroke-miterlimit="10"/>
<path d="M241.891 139.622C241.813 140.639 240.925 141.398 239.912 141.32C238.896 141.242 238.136 140.357 238.214 139.341C238.291 138.327 239.177 137.568 240.194 137.646C241.206 137.723 241.968 138.609 241.891 139.622Z" fill="#F7F7F7" stroke="#7A3C7D" stroke-width="2.8295" stroke-miterlimit="10"/>
<path d="M252.127 152.793C252.049 153.807 251.161 154.566 250.147 154.489C249.134 154.412 248.375 153.526 248.453 152.511C248.531 151.497 249.416 150.737 250.429 150.814C251.442 150.891 252.205 151.778 252.127 152.793Z" fill="#F7F7F7" stroke="#7A3C7D" stroke-width="2.8295" stroke-miterlimit="10"/>
<path d="M267.714 134.563C267.636 135.578 266.751 136.337 265.737 136.259C264.721 136.181 263.962 135.297 264.04 134.281C264.118 133.267 265.002 132.507 266.018 132.585C267.032 132.662 267.791 133.548 267.714 134.563Z" fill="#F7F7F7" stroke="#7A3C7D" stroke-width="2.8295" stroke-miterlimit="10"/>
<path d="M280.746 146.176C280.668 147.19 279.783 147.95 278.771 147.873C277.754 147.795 276.991 146.908 277.069 145.894C277.147 144.88 278.035 144.12 279.052 144.197C280.065 144.275 280.824 145.161 280.746 146.176Z" fill="#F7F7F7" stroke="#7A3C7D" stroke-width="2.8295" stroke-miterlimit="10"/>
<path d="M293.596 143.7C293.518 144.714 292.631 145.475 291.617 145.397C290.604 145.32 289.843 144.433 289.92 143.418C289.998 142.405 290.885 141.644 291.898 141.722C292.912 141.799 293.674 142.686 293.596 143.7Z" fill="#F7F7F7" stroke="#7A3C7D" stroke-width="2.8295" stroke-miterlimit="10"/>
<path d="M337.472 265.505L314.055 99.7251C313.34 94.6688 308.662 91.1492 303.605 91.8636L48.2034 127.941C43.1471 128.656 39.6274 133.334 40.3409 138.39L63.7585 304.17C64.4724 309.225 69.1509 312.745 74.2077 312.031L329.61 275.954C334.666 275.239 338.187 270.561 337.472 265.505Z" fill="#A2B2D6"/>
<path d="M344.791 259.846C345.464 264.965 341.86 269.661 336.739 270.334L78.1309 304.331C73.0104 305.003 68.3147 301.399 67.6415 296.279L45.5748 128.418C44.9025 123.299 48.5069 118.603 53.6274 117.93L312.235 83.9329C317.356 83.2602 322.051 86.8646 322.725 91.9841L344.791 259.846Z" fill="#3F4751"/>
<g opacity="0.3">
<path d="M313.465 87.0871C316.516 87.0871 319.118 89.3734 319.516 92.4055L341.584 260.267C341.796 261.886 341.366 263.492 340.371 264.787C339.377 266.082 337.937 266.913 336.318 267.126L77.7097 301.123C77.4417 301.158 77.1698 301.176 76.9008 301.176C73.8495 301.176 71.2476 298.889 70.8488 295.857L48.7816 127.996C48.3426 124.653 50.7053 121.576 54.0486 121.136L312.656 87.14C312.925 87.1047 313.197 87.0871 313.465 87.0871ZM313.465 84.7762C313.096 84.7762 312.723 84.8007 312.355 84.8493L53.7468 118.845C49.1408 119.451 45.8852 123.691 46.4904 128.297L68.5575 296.159C69.1073 300.337 72.6936 303.487 76.9008 303.487C77.2687 303.487 77.6426 303.463 78.0106 303.415L336.619 269.418C338.85 269.124 340.834 267.979 342.204 266.194C343.575 264.409 344.168 262.197 343.875 259.967L321.808 92.1047C321.258 87.9265 317.672 84.7762 313.465 84.7762Z" fill="#231F20"/>
</g>
<path d="M344.791 259.846C345.464 264.965 341.86 269.661 336.739 270.334L78.1309 304.331C73.0104 305.003 68.3147 301.399 67.6415 296.279L45.5748 128.418C44.9025 123.299 48.5069 118.603 53.6274 117.93L312.235 83.9329C317.356 83.2602 322.051 86.8646 322.725 91.9841L344.791 259.846Z" stroke="#BFC9D8" stroke-width="5.659" stroke-miterlimit="10"/>
<g opacity="0.3">
<path d="M175.12 293.892L102.044 302.859L144.226 104.521L217.303 95.5543L175.12 293.892Z" fill="white"/>
</g>
<path d="M186.603 111.467C186.766 112.709 185.892 113.848 184.65 114.012C183.409 114.174 182.269 113.3 182.107 112.058C181.943 110.817 182.817 109.677 184.059 109.515C185.301 109.352 186.439 110.226 186.603 111.467Z" fill="#3F4751"/>
<path d="M300.745 106.669L70.5986 136.914L89.5624 281.216L319.709 250.971L300.745 106.669Z" fill="white"/>
<path d="M278.289 181.545C278.185 181.545 278.082 181.522 277.987 181.475C277.818 181.393 277.689 181.246 277.63 181.067L271.356 161.893C271.259 161.597 271.371 161.273 271.631 161.1C271.748 161.023 271.882 160.984 272.014 160.984C272.177 160.984 272.339 161.041 272.468 161.154L287.721 174.349C287.863 174.472 287.949 174.648 287.959 174.835C287.97 175.023 287.903 175.207 287.775 175.345C285.222 178.09 282.024 180.219 278.527 181.502C278.451 181.531 278.37 181.545 278.289 181.545Z" fill="#72BDBA"/>
<path d="M272.016 161.678L287.269 174.874C284.826 177.499 281.77 179.575 278.29 180.852L272.016 161.678ZM272.015 160.291C271.749 160.291 271.481 160.368 271.248 160.523C270.729 160.868 270.504 161.517 270.698 162.109L276.972 181.283C277.09 181.641 277.347 181.935 277.685 182.1C277.876 182.192 278.083 182.238 278.29 182.238C278.451 182.238 278.613 182.21 278.768 182.153C282.366 180.833 285.656 178.642 288.284 175.817C288.54 175.541 288.674 175.174 288.653 174.798C288.633 174.422 288.461 174.071 288.176 173.824L272.923 160.629C272.664 160.405 272.34 160.291 272.015 160.291Z" fill="white"/>
<path d="M288.375 174.285C288.209 174.285 288.048 174.226 287.921 174.116L271.799 160.167C271.592 159.988 271.51 159.704 271.589 159.442C271.669 159.18 271.895 158.989 272.167 158.955L293.319 156.302C293.348 156.298 293.377 156.296 293.406 156.296C293.563 156.296 293.717 156.35 293.841 156.45C293.987 156.568 294.079 156.74 294.096 156.927C294.647 163.105 292.807 169.177 288.915 174.025C288.797 174.172 288.625 174.264 288.437 174.282C288.417 174.284 288.396 174.285 288.375 174.285Z" fill="#FFD121"/>
<path d="M293.407 156.989C293.959 163.182 292.012 169.062 288.375 173.592L272.253 159.643L293.407 156.989ZM293.407 155.603C293.349 155.603 293.291 155.607 293.234 155.614L272.081 158.268C271.538 158.336 271.086 158.718 270.927 159.242C270.768 159.765 270.933 160.334 271.347 160.692L287.469 174.641C287.722 174.86 288.044 174.979 288.376 174.979C288.417 174.979 288.459 174.977 288.501 174.973C288.876 174.939 289.221 174.754 289.457 174.46C293.462 169.472 295.355 163.224 294.788 156.867C294.755 156.492 294.57 156.147 294.278 155.911C294.029 155.711 293.722 155.603 293.407 155.603Z" fill="white"/>
<path d="M270.994 158.786C270.841 158.786 270.691 158.736 270.569 158.641C270.424 158.528 270.329 158.362 270.306 158.18L267.523 135.978C267.499 135.792 267.553 135.603 267.671 135.457C267.789 135.31 267.962 135.218 268.149 135.202C268.859 135.138 269.58 135.106 270.29 135.106C282.075 135.106 291.996 143.556 293.88 155.198C293.91 155.383 293.863 155.573 293.75 155.724C293.638 155.874 293.469 155.973 293.282 155.996L271.08 158.781C271.051 158.784 271.023 158.786 270.994 158.786Z" fill="#2B4248"/>
<path d="M270.29 135.799C281.559 135.799 291.364 143.987 293.196 155.308L270.995 158.093L268.211 135.892C268.909 135.829 269.602 135.799 270.29 135.799ZM270.29 134.412C269.56 134.412 268.819 134.445 268.088 134.511C267.713 134.544 267.368 134.729 267.132 135.021C266.896 135.314 266.789 135.691 266.836 136.064L269.619 158.265C269.665 158.63 269.854 158.962 270.144 159.188C270.388 159.378 270.688 159.479 270.995 159.479C271.052 159.479 271.11 159.476 271.167 159.468L293.368 156.683C293.742 156.637 294.08 156.44 294.306 156.139C294.531 155.837 294.625 155.458 294.564 155.086C293.629 149.306 290.651 144.037 286.178 140.25C281.732 136.485 276.09 134.412 270.29 134.412Z" fill="white"/>
<path d="M270.231 182.973C265.544 182.973 260.995 181.602 257.073 179.009C256.916 178.905 256.808 178.742 256.773 178.557C256.739 178.372 256.782 178.18 256.891 178.028L269.411 160.492C269.543 160.308 269.754 160.202 269.975 160.202C270.01 160.202 270.045 160.204 270.08 160.21C270.339 160.249 270.553 160.431 270.634 160.679L277.337 181.161C277.396 181.34 277.379 181.536 277.291 181.702C277.202 181.868 277.05 181.991 276.869 182.043C275.689 182.381 274.467 182.631 273.238 182.785C272.241 182.91 271.229 182.973 270.231 182.973Z" fill="#6ECCDC"/>
<path d="M269.975 160.895L276.678 181.377C275.539 181.703 274.362 181.945 273.151 182.097C272.169 182.22 271.195 182.28 270.231 182.28C265.567 182.28 261.155 180.877 257.455 178.43L269.975 160.895ZM269.975 159.508C269.532 159.508 269.11 159.721 268.847 160.089L256.326 177.624C256.108 177.931 256.023 178.313 256.092 178.683C256.16 179.053 256.376 179.379 256.69 179.587C260.726 182.256 265.408 183.667 270.231 183.667C271.258 183.667 272.298 183.601 273.324 183.472C274.588 183.314 275.845 183.057 277.06 182.71C277.422 182.606 277.727 182.359 277.903 182.026C278.08 181.694 278.114 181.303 277.997 180.946L271.294 160.464C271.131 159.967 270.703 159.604 270.186 159.524C270.115 159.513 270.045 159.508 269.975 159.508Z" fill="white"/>
<path d="M256.075 178.139C255.923 178.139 255.774 178.089 255.652 177.995C254.698 177.26 253.799 176.453 252.978 175.597L251.834 174.313C248.916 170.795 247.082 166.549 246.514 162.018C244.904 149.172 253.648 137.488 266.42 135.418C266.457 135.412 266.494 135.409 266.531 135.409C266.68 135.409 266.826 135.457 266.946 135.548C267.097 135.66 267.195 135.829 267.219 136.017L270.105 159.037C270.126 159.212 270.081 159.389 269.977 159.532L256.635 177.855C256.525 178.006 256.358 178.106 256.173 178.133C256.141 178.137 256.108 178.139 256.075 178.139Z" fill="#5CA6B3"/>
<path d="M266.531 136.102L268.225 149.61L269.365 158.702L269.418 159.122L256.075 177.446C255.154 176.735 254.284 175.957 253.479 175.117L252.352 173.852C249.625 170.563 247.773 166.484 247.202 161.931C245.641 149.478 254.243 138.094 266.531 136.102ZM266.531 134.716C266.457 134.716 266.383 134.722 266.309 134.734C260 135.756 254.408 139.14 250.564 144.262C246.71 149.396 245.028 155.733 245.827 162.105C246.412 166.767 248.299 171.136 251.285 174.738C251.295 174.751 251.306 174.763 251.317 174.775L252.443 176.04C252.455 176.052 252.466 176.065 252.478 176.077C253.322 176.958 254.248 177.789 255.229 178.545C255.473 178.733 255.771 178.834 256.075 178.834C256.141 178.834 256.206 178.829 256.272 178.819C256.642 178.767 256.975 178.566 257.196 178.263L270.538 159.94C270.746 159.655 270.837 159.302 270.793 158.952L270.74 158.532L269.6 149.439L267.907 135.931C267.86 135.558 267.663 135.22 267.362 134.994C267.121 134.812 266.829 134.716 266.531 134.716Z" fill="white"/>
<path d="M260.851 198.655L253.967 199.566L254.878 206.451L261.763 205.54L260.851 198.655Z" fill="#72BDBA"/>
<path d="M260.045 199.681L260.713 204.733L255.661 205.401L254.993 200.35L260.045 199.681ZM261.635 197.606L259.802 197.849L254.751 198.517L252.918 198.76L253.161 200.592L253.829 205.644L254.071 207.477L255.904 207.234L260.955 206.566L262.788 206.323L262.545 204.491L261.877 199.439L261.635 197.606Z" fill="white"/>
<path d="M297.314 196.345L264.755 200.654L265.011 202.586L297.569 198.278L297.314 196.345Z" fill="#5A5A7A"/>
<path d="M261.924 206.847L255.04 207.757L255.95 214.642L262.835 213.732L261.924 206.847Z" fill="#2B4248"/>
<path d="M261.127 207.866L261.795 212.918L256.744 213.586L256.076 208.535L261.127 207.866ZM262.718 205.791L260.885 206.034L255.834 206.702L254.001 206.944L254.244 208.777L254.912 213.829L255.154 215.662L256.987 215.419L262.038 214.751L263.871 214.508L263.629 212.676L262.96 207.624L262.718 205.791Z" fill="white"/>
<path d="M277.282 207.323L265.839 208.838L266.095 210.771L277.538 209.256L277.282 207.323Z" fill="#5A5A7A"/>
<path d="M263.015 215.025L256.131 215.936L257.042 222.821L263.926 221.91L263.015 215.025Z" fill="#FFD121"/>
<path d="M262.21 216.05L262.878 221.102L257.827 221.77L257.158 216.718L262.21 216.05ZM263.8 213.974L261.967 214.217L256.916 214.885L255.083 215.128L255.326 216.961L255.994 222.012L256.236 223.845L258.069 223.603L263.12 222.934L264.953 222.692L264.711 220.859L264.042 215.807L263.8 213.974Z" fill="white"/>
<path d="M293.008 213.57L266.921 217.022L267.177 218.955L293.264 215.502L293.008 213.57Z" fill="#5A5A7A"/>
<path d="M264.028 223.465L257.144 224.376L258.055 231.261L264.939 230.35L264.028 223.465Z" fill="#5CA6B3"/>
<path d="M263.221 224.49L263.889 229.542L258.838 230.211L258.169 225.159L263.221 224.49ZM264.811 222.415L262.979 222.658L257.927 223.326L256.095 223.569L256.337 225.401L257.006 230.454L257.248 232.286L259.081 232.044L264.132 231.375L265.965 231.133L265.722 229.3L265.054 224.248L264.811 222.415Z" fill="white"/>
<path d="M294.02 222.011L267.933 225.464L268.188 227.396L294.276 223.944L294.02 222.011Z" fill="#5A5A7A"/>
<path opacity="0.6" d="M101.062 225.619C123.094 222.745 110.543 171.121 142.254 168.555C176.781 165.761 170.026 234.959 227.099 227.515C230.707 227.045 234.105 226.482 237.305 225.841L238.212 233.999L105.007 251.793L101.062 225.619Z" fill="#BAB7F7"/>
<path opacity="0.5" d="M98.3721 205.847C113.133 203.922 122.94 213.01 128.933 218.818C138.186 227.786 155.409 229.921 164.951 214.605C180.229 190.084 198.297 189.907 214.761 203.99C221.272 209.559 228.504 212.162 235.342 211.354L237.667 233.317L104.391 250.869L98.3721 205.847Z" fill="#2B4248"/>
<path opacity="0.4" d="M236.689 224.916C233.489 225.558 230.091 226.12 226.483 226.591C199.051 230.169 186.365 216.04 176.753 200.711C172.693 203.951 168.736 208.53 164.951 214.605C155.409 229.921 138.186 227.785 128.933 218.818C125.416 215.41 120.582 210.873 114.207 208.095C111.644 216.615 108.244 223.416 100.882 224.621L104.391 250.868L237.54 233.444L236.689 224.916Z" fill="#6ECCDC"/>
<path d="M182.279 240.546L176.885 200.92C169.678 189.468 164.217 177.304 155.629 171.321L164.737 242.871L182.279 240.546Z" fill="#3F4751"/>
<path d="M176.895 200.924L177.043 202.059" stroke="white" stroke-width="2.3368" stroke-miterlimit="10" stroke-linecap="round"/>
<path d="M177.496 205.534L181.802 238.548" stroke="white" stroke-width="2.3368" stroke-miterlimit="10" stroke-linecap="round" stroke-dasharray="4.77 7.15"/>
<path d="M182.028 240.286L182.177 241.421" stroke="white" stroke-width="2.3368" stroke-miterlimit="10" stroke-linecap="round"/>
<path d="M199.236 194.16L199.384 195.296" stroke="white" stroke-width="2.3368" stroke-miterlimit="10" stroke-linecap="round"/>
<path d="M199.817 198.613L204.648 235.649" stroke="white" stroke-width="2.3368" stroke-miterlimit="10" stroke-linecap="round" stroke-dasharray="4.55 6.83"/>
<path d="M204.864 237.307L205.013 238.443" stroke="white" stroke-width="2.3368" stroke-miterlimit="10" stroke-linecap="round"/>
<path d="M155.675 172.511L155.823 173.647" stroke="white" stroke-width="2.3368" stroke-miterlimit="10" stroke-linecap="round"/>
<path d="M156.281 177.16L164.455 239.828" stroke="white" stroke-width="2.3368" stroke-miterlimit="10" stroke-linecap="round" stroke-dasharray="4.82 7.23"/>
<path d="M164.685 241.586L164.833 242.721" stroke="white" stroke-width="2.3368" stroke-miterlimit="10" stroke-linecap="round"/>
<path d="M114.446 209.069L114.594 210.204" stroke="white" stroke-width="2.3368" stroke-miterlimit="10" stroke-linecap="round"/>
<path d="M115.048 213.679L119.354 246.693" stroke="white" stroke-width="2.3368" stroke-miterlimit="10" stroke-linecap="round" stroke-dasharray="4.77 7.15"/>
<path d="M119.58 248.431L119.728 249.566" stroke="white" stroke-width="2.3368" stroke-miterlimit="10" stroke-linecap="round"/>
<path d="M203.239 224.777C209.599 226.984 217.196 227.802 226.483 226.591C230.091 226.12 233.488 225.558 236.689 224.916" stroke="#5CA6B3" stroke-width="3.1158" stroke-miterlimit="10"/>
<path d="M100.445 224.694C122.479 221.82 109.927 170.196 141.638 167.63C170.547 165.291 170.515 213.421 203.239 224.777" stroke="#5CA6B3" stroke-width="3.1158" stroke-miterlimit="10"/>
<path d="M176.788 200.681C189.108 190.876 202.388 193.406 214.761 203.99C221.272 209.559 228.504 212.162 235.342 211.354" stroke="#6ECCDC" stroke-width="2.4718" stroke-miterlimit="10"/>
<path d="M161.608 218.972C162.799 217.711 163.92 216.26 164.951 214.605C168.747 208.512 172.715 203.922 176.789 200.681" stroke="white" stroke-width="2.4718" stroke-miterlimit="10"/>
<path d="M98.3721 205.847C113.133 203.922 122.94 213.01 128.933 218.818C137.186 226.816 151.779 229.38 161.608 218.972" stroke="#6ECCDC" stroke-width="2.4718" stroke-miterlimit="10"/>
<path d="M93.2412 165.382L104.392 250.868L238.7 233.351" stroke="#3F4751" stroke-width="3.8947" stroke-miterlimit="10"/>
<path d="M92.5435 160.038L90.4482 167.97L93.2927 165.781L96.6022 167.168L92.5435 160.038Z" fill="#3F4751"/>
<path d="M244.044 232.653L236.914 236.713L238.3 233.403L236.111 230.559L244.044 232.653Z" fill="#3F4751"/>
<path d="M112.327 208.319C112.184 207.221 112.957 206.215 114.055 206.072C115.152 205.929 116.158 206.703 116.301 207.801C116.445 208.898 115.671 209.904 114.573 210.047C113.476 210.19 112.47 209.417 112.327 208.319Z" fill="white" stroke="#2B4248" stroke-width="2.3368" stroke-miterlimit="10"/>
<path d="M96.6606 206.256C96.5175 205.159 97.2912 204.153 98.3888 204.01C99.4864 203.867 100.492 204.64 100.635 205.738C100.779 206.836 100.005 207.841 98.9072 207.985C97.8096 208.128 96.8037 207.354 96.6606 206.256Z" fill="white" stroke="#2B4248" stroke-width="2.3368" stroke-miterlimit="10"/>
<path d="M174.908 201.183C174.765 200.085 175.538 199.079 176.636 198.936C177.733 198.793 178.739 199.567 178.883 200.665C179.026 201.762 178.252 202.768 177.154 202.911C176.056 203.054 175.051 202.28 174.908 201.183Z" fill="white" stroke="#2B4248" stroke-width="2.3368" stroke-miterlimit="10"/>
<path d="M153.618 171.391C153.475 170.293 154.248 169.287 155.346 169.144C156.443 169.001 157.449 169.775 157.593 170.873C157.736 171.97 156.962 172.976 155.864 173.119C154.766 173.262 153.761 172.489 153.618 171.391Z" fill="#5CA6B3"/>
<path d="M197.586 195.53C197.443 194.433 198.217 193.427 199.315 193.284C200.412 193.141 201.418 193.914 201.561 195.012C201.704 196.11 200.931 197.115 199.833 197.259C198.735 197.402 197.729 196.628 197.586 195.53Z" fill="#2B4248"/>
<path d="M117.9 188.089C117.757 186.992 118.53 185.986 119.628 185.843C120.726 185.7 121.731 186.473 121.875 187.571C122.018 188.668 121.244 189.674 120.146 189.817C119.048 189.961 118.043 189.187 117.9 188.089Z" fill="#5CA6B3"/>
<path d="M117.785 249.178C117.642 248.081 118.415 247.075 119.513 246.931C120.61 246.788 121.616 247.562 121.759 248.66C121.903 249.757 121.129 250.763 120.031 250.906C118.934 251.049 117.928 250.276 117.785 249.178Z" fill="#3F4751"/>
<path d="M180.235 241.033C180.092 239.935 180.865 238.93 181.963 238.786C183.061 238.643 184.066 239.417 184.21 240.514C184.353 241.612 183.579 242.618 182.481 242.761C181.383 242.904 180.378 242.13 180.235 241.033Z" fill="#3F4751"/>
<path d="M203.196 238.038C203.053 236.94 203.826 235.935 204.924 235.791C206.022 235.648 207.028 236.422 207.171 237.52C207.314 238.617 206.54 239.623 205.442 239.766C204.345 239.909 203.339 239.136 203.196 238.038Z" fill="#3F4751"/>
<path d="M163.013 243.279C162.87 242.181 163.644 241.175 164.741 241.032C165.839 240.889 166.845 241.663 166.988 242.761C167.131 243.858 166.357 244.864 165.26 245.007C164.162 245.15 163.156 244.377 163.013 243.279Z" fill="#3F4751"/>
<path d="M99.2065 224.785C99.0634 223.688 99.8371 222.682 100.935 222.539C102.032 222.396 103.038 223.169 103.181 224.267C103.324 225.365 102.551 226.37 101.453 226.514C100.356 226.657 99.3501 225.883 99.2065 224.785Z" fill="white" stroke="#5CA6B3" stroke-width="2.3368" stroke-miterlimit="10"/>
<path d="M157.329 159.207L158.02 167.129L165.801 166.441L163.483 162.071L157.329 159.207Z" fill="#5CA6B3"/>
<path d="M164.884 165.809C161.453 165.809 158.53 163.239 158.085 159.832C157.596 156.079 160.251 152.627 164.004 152.138C164.301 152.099 164.602 152.079 164.899 152.079C168.331 152.079 171.254 154.649 171.699 158.056C172.188 161.809 169.533 165.261 165.78 165.751C165.483 165.789 165.181 165.809 164.884 165.809Z" fill="white"/>
<path d="M164.899 152.766C167.955 152.766 170.611 155.033 171.017 158.145C171.459 161.528 169.074 164.629 165.69 165.07C165.419 165.105 165.15 165.122 164.883 165.122C161.827 165.122 159.171 162.855 158.765 159.743C158.324 156.36 160.709 153.26 164.092 152.818C164.363 152.783 164.633 152.766 164.899 152.766ZM164.899 151.393C164.572 151.393 164.24 151.414 163.915 151.457C161.915 151.718 160.136 152.742 158.907 154.34C157.677 155.938 157.144 157.92 157.404 159.92C157.894 163.668 161.109 166.495 164.884 166.495C165.211 166.495 165.542 166.473 165.868 166.431C169.996 165.892 172.917 162.096 172.379 157.967C171.889 154.219 168.674 151.393 164.899 151.393Z" fill="#5CA6B3"/>
<path d="M201.233 184.467L201.924 192.389L209.706 191.701L207.387 187.331L201.233 184.467Z" fill="#2B4248"/>
<path d="M208.787 191.069C205.356 191.069 202.433 188.499 201.988 185.092C201.751 183.274 202.236 181.472 203.354 180.019C204.472 178.565 206.089 177.634 207.907 177.397C208.204 177.358 208.506 177.339 208.803 177.339C212.234 177.339 215.157 179.908 215.602 183.316C215.839 185.134 215.354 186.935 214.236 188.389C213.118 189.842 211.501 190.773 209.683 191.01C209.386 191.049 209.085 191.069 208.787 191.069Z" fill="white"/>
<path d="M208.803 178.025C211.859 178.025 214.515 180.292 214.921 183.404C215.362 186.787 212.977 189.888 209.594 190.329C209.323 190.364 209.054 190.382 208.787 190.382C205.731 190.382 203.075 188.114 202.669 185.002C202.227 181.619 204.613 178.519 207.996 178.078C208.267 178.042 208.537 178.025 208.803 178.025ZM208.803 176.652H208.803C208.476 176.652 208.145 176.674 207.819 176.716C203.69 177.255 200.77 181.051 201.308 185.18C201.797 188.928 205.013 191.755 208.787 191.755C209.114 191.755 209.446 191.733 209.772 191.69C211.772 191.43 213.55 190.406 214.78 188.807C216.01 187.208 216.543 185.227 216.283 183.227C215.793 179.479 212.578 176.652 208.803 176.652Z" fill="#2B4248"/>
<path d="M162.369 158.692C162.076 158.497 161.908 158.227 161.863 157.884C161.841 157.714 161.854 157.551 161.904 157.395C161.953 157.239 162.033 157.098 162.142 156.973C162.25 156.848 162.386 156.743 162.547 156.659C162.708 156.574 162.887 156.519 163.086 156.493C163.283 156.467 163.471 156.474 163.648 156.515C163.827 156.556 163.984 156.622 164.122 156.715C164.258 156.808 164.372 156.924 164.459 157.062C164.548 157.2 164.603 157.354 164.625 157.524C164.67 157.867 164.575 158.17 164.344 158.435C164.76 158.635 164.998 158.97 165.059 159.438C165.084 159.632 165.071 159.819 165.019 160C164.967 160.182 164.88 160.344 164.76 160.49C164.639 160.635 164.487 160.756 164.305 160.854C164.122 160.952 163.914 161.016 163.68 161.046C163.446 161.077 163.228 161.068 163.027 161.021C162.826 160.973 162.649 160.894 162.495 160.785C162.34 160.676 162.216 160.54 162.119 160.379C162.021 160.217 161.96 160.039 161.934 159.845C161.904 159.615 161.924 159.402 161.996 159.206C162.066 159.01 162.191 158.838 162.369 158.692ZM162.813 157.852C162.821 157.913 162.841 157.968 162.872 158.02C162.904 158.071 162.942 158.115 162.988 158.152C163.034 158.189 163.084 158.217 163.141 158.234C163.196 158.251 163.254 158.257 163.315 158.248C163.44 158.232 163.54 158.174 163.614 158.073C163.69 157.973 163.72 157.86 163.704 157.735C163.687 157.606 163.629 157.502 163.531 157.426C163.432 157.348 163.32 157.317 163.195 157.333C163.074 157.349 162.976 157.407 162.901 157.507C162.826 157.608 162.797 157.723 162.813 157.852ZM162.903 159.626C162.914 159.711 162.94 159.79 162.98 159.862C163.021 159.935 163.072 159.995 163.133 160.042C163.195 160.09 163.262 160.125 163.335 160.149C163.407 160.172 163.485 160.178 163.565 160.168C163.642 160.158 163.714 160.132 163.781 160.091C163.847 160.049 163.904 159.998 163.952 159.936C163.999 159.875 164.033 159.805 164.053 159.726C164.074 159.647 164.079 159.563 164.066 159.474C164.043 159.297 163.968 159.156 163.839 159.051C163.711 158.947 163.564 158.905 163.404 158.926C163.322 158.937 163.25 158.963 163.186 159.004C163.122 159.045 163.066 159.098 163.019 159.161C162.971 159.225 162.937 159.296 162.917 159.375C162.896 159.454 162.892 159.537 162.903 159.626Z" fill="#5CA6B3"/>
<path d="M166.291 160.576C165.9 160.627 165.684 160.502 165.645 160.198C165.629 160.077 165.68 159.927 165.799 159.749C165.917 159.571 166.08 159.333 166.287 159.034C166.584 158.605 166.811 158.251 166.969 157.974C167.125 157.697 167.193 157.473 167.171 157.303C167.154 157.178 167.105 157.082 167.025 157.016C166.945 156.951 166.852 156.925 166.747 156.939C166.654 156.951 166.572 156.998 166.501 157.082C166.429 157.165 166.375 157.285 166.339 157.441C166.3 157.619 166.254 157.752 166.2 157.841C166.146 157.931 166.054 157.983 165.925 158C165.783 158.019 165.662 157.988 165.559 157.909C165.457 157.83 165.395 157.714 165.375 157.56C165.361 157.448 165.369 157.314 165.403 157.16C165.436 157.006 165.493 156.863 165.575 156.73C165.697 156.531 165.851 156.371 166.035 156.251C166.222 156.131 166.429 156.056 166.659 156.026C166.869 155.998 167.063 156.006 167.241 156.048C167.419 156.091 167.576 156.161 167.712 156.261C167.848 156.36 167.959 156.483 168.044 156.631C168.129 156.777 168.183 156.942 168.207 157.124C168.23 157.297 168.218 157.472 168.174 157.648C168.129 157.824 168.055 158.01 167.951 158.204C167.846 158.398 167.715 158.606 167.554 158.828C167.395 159.05 167.213 159.293 167.009 159.558L167.912 159.44C168.376 159.38 168.627 159.501 168.667 159.804C168.706 160.107 168.495 160.288 168.031 160.348L166.291 160.576Z" fill="#5CA6B3"/>
<path d="M207.349 185.404L205.829 185.602C205.632 185.628 205.479 185.617 205.372 185.569C205.265 185.522 205.203 185.431 205.186 185.298C205.172 185.185 205.182 185.082 205.219 184.992C205.257 184.9 205.297 184.805 205.342 184.704L206.362 182.509C206.445 182.325 206.536 182.191 206.636 182.106C206.735 182.022 206.866 181.969 207.028 181.948C207.254 181.918 207.449 181.976 207.614 182.121C207.778 182.266 207.882 182.505 207.926 182.84L208.132 184.421C208.161 184.413 208.186 184.406 208.21 184.402C208.234 184.396 208.256 184.392 208.276 184.39C208.446 184.368 208.582 184.391 208.686 184.46C208.789 184.528 208.849 184.624 208.865 184.745C208.904 185.047 208.728 185.225 208.336 185.275L208.245 185.287L208.304 185.741C208.326 185.911 208.301 186.046 208.229 186.148C208.155 186.25 208.044 186.311 207.895 186.33C207.617 186.366 207.452 186.199 207.404 185.828L207.349 185.404ZM207.236 184.538L207.022 182.891L206.226 184.67L207.236 184.538Z" fill="#2B4248"/>
<path d="M209.834 183.626C209.541 183.431 209.373 183.161 209.328 182.818C209.306 182.649 209.319 182.486 209.369 182.329C209.419 182.174 209.498 182.032 209.606 181.907C209.715 181.783 209.85 181.678 210.012 181.593C210.173 181.508 210.352 181.453 210.55 181.427C210.748 181.401 210.936 181.408 211.114 181.449C211.292 181.49 211.448 181.556 211.587 181.649C211.724 181.742 211.836 181.858 211.925 181.996C212.013 182.134 212.067 182.289 212.089 182.458C212.134 182.801 212.04 183.105 211.808 183.369C212.225 183.569 212.463 183.904 212.524 184.372C212.55 184.565 212.535 184.753 212.484 184.934C212.431 185.116 212.345 185.279 212.224 185.424C212.104 185.569 211.952 185.69 211.77 185.788C211.587 185.886 211.379 185.95 211.145 185.98C210.911 186.011 210.693 186.002 210.492 185.954C210.291 185.907 210.114 185.828 209.959 185.719C209.805 185.61 209.68 185.475 209.583 185.313C209.486 185.151 209.425 184.973 209.4 184.779C209.369 184.549 209.39 184.336 209.461 184.14C209.531 183.944 209.655 183.772 209.834 183.626ZM210.278 182.786C210.287 182.847 210.306 182.903 210.338 182.954C210.369 183.005 210.408 183.05 210.453 183.087C210.499 183.125 210.549 183.152 210.606 183.169C210.661 183.186 210.719 183.191 210.78 183.183C210.905 183.167 211.005 183.109 211.08 183.009C211.155 182.909 211.185 182.796 211.169 182.67C211.152 182.541 211.094 182.438 210.996 182.36C210.897 182.283 210.785 182.252 210.66 182.268C210.539 182.284 210.441 182.342 210.365 182.442C210.291 182.543 210.261 182.657 210.278 182.786ZM210.368 184.56C210.379 184.646 210.405 184.724 210.445 184.797C210.485 184.87 210.537 184.929 210.598 184.977C210.659 185.024 210.727 185.06 210.799 185.083C210.872 185.107 210.949 185.113 211.029 185.102C211.106 185.092 211.178 185.067 211.245 185.025C211.311 184.984 211.368 184.932 211.416 184.871C211.463 184.809 211.497 184.739 211.518 184.66C211.538 184.582 211.542 184.498 211.531 184.408C211.507 184.231 211.432 184.09 211.303 183.986C211.174 183.882 211.029 183.84 210.868 183.861C210.787 183.871 210.714 183.897 210.65 183.939C210.586 183.98 210.531 184.032 210.483 184.096C210.436 184.16 210.402 184.231 210.382 184.309C210.361 184.388 210.357 184.472 210.368 184.56Z" fill="#2B4248"/>
<path d="M161.855 221.5C160.567 221.5 159.469 220.536 159.302 219.257C159.213 218.574 159.395 217.899 159.815 217.353C160.234 216.807 160.841 216.457 161.524 216.369C161.637 216.354 161.749 216.347 161.86 216.347C163.148 216.347 164.246 217.311 164.413 218.59C164.596 219.999 163.6 221.295 162.191 221.479C162.078 221.493 161.966 221.5 161.855 221.5Z" fill="white"/>
<path d="M161.86 216.919C162.852 216.919 163.713 217.654 163.845 218.664C163.988 219.761 163.214 220.767 162.117 220.91C162.029 220.922 161.941 220.928 161.855 220.928C160.863 220.928 160.002 220.192 159.87 219.182C159.727 218.085 160.501 217.079 161.598 216.936C161.686 216.924 161.774 216.919 161.86 216.919ZM161.86 215.774C161.724 215.774 161.586 215.783 161.45 215.801C159.728 216.025 158.51 217.609 158.735 219.331C158.938 220.894 160.28 222.073 161.855 222.073C161.991 222.073 162.129 222.064 162.265 222.046C163.986 221.821 165.205 220.238 164.98 218.516C164.776 216.953 163.435 215.774 161.86 215.774Z" fill="#2B4248"/>
<path d="M203.216 227.268C201.928 227.268 200.831 226.304 200.663 225.024C200.48 223.615 201.476 222.319 202.886 222.136C202.998 222.121 203.11 222.114 203.221 222.114C204.509 222.114 205.607 223.078 205.774 224.358C205.863 225.04 205.681 225.716 205.261 226.262C204.842 226.807 204.235 227.157 203.552 227.246C203.439 227.261 203.327 227.268 203.216 227.268Z" fill="white"/>
<path d="M203.222 222.687C204.213 222.687 205.075 223.422 205.206 224.432C205.349 225.53 204.576 226.535 203.478 226.679C203.39 226.69 203.303 226.696 203.216 226.696C202.225 226.696 201.363 225.96 201.232 224.951C201.089 223.853 201.862 222.847 202.96 222.704C203.048 222.693 203.135 222.687 203.222 222.687ZM203.222 221.542C203.085 221.542 202.947 221.551 202.812 221.569C201.09 221.793 199.872 223.377 200.096 225.099C200.3 226.662 201.641 227.841 203.216 227.841C203.353 227.841 203.491 227.832 203.626 227.814C205.348 227.589 206.566 226.006 206.342 224.284C206.138 222.721 204.797 221.542 203.222 221.542Z" fill="#5CA6B3"/>
<path d="M374.278 165.831L191.526 93.9579L160.191 85.8538L159.752 87.6668L185.151 99.4302L188.418 98.8936L332.353 154.633L332.918 159.38L371.85 173.734L374.278 165.831Z" fill="#A2B2D6"/>
<path d="M374.277 165.831L191.194 95.3219L195.19 84.905L378.366 155.453L378.671 159.264L377.127 163.288L374.277 165.831Z" fill="#FABD15"/>
<path d="M378.672 159.264L193.614 88.4095L195.19 84.905L378.366 155.453L378.672 159.264Z" fill="#FFE800"/>
<path d="M374.277 165.831L191.194 95.3224L192.627 91.5872L377.128 163.288L374.277 165.831Z" fill="#ED9430"/>
<path d="M195.19 84.905C195.19 84.905 196.104 85.4489 195.821 86.156C195.408 87.1914 194.317 87.1796 194.317 87.1796C194.317 87.1796 195.511 88.6138 194.739 90.4891C193.794 92.7857 192.134 92.8038 192.134 92.8038C192.134 92.8038 193.119 93.605 192.726 94.4992C192.313 95.4395 191.194 95.3219 191.194 95.3219L188.985 88.607L195.19 84.905Z" fill="#FEA261"/>
<path d="M162.541 77.2684L161.814 79.1628L171.01 84.2206L172.759 79.6587L162.541 77.2684Z" fill="#414042"/>
<path d="M194.596 85.744L172.76 79.6587L171.011 84.2206L191.195 95.322L194.596 85.744Z" fill="#FEA261"/>
<path d="M195.191 84.9051L172.759 79.6587L171.785 82.1993L193.272 89.9066L194.318 87.1792C194.324 87.1792 195.41 87.188 195.822 86.1561C196.104 85.4495 195.191 84.9051 195.191 84.9051Z" fill="#FFDB94"/>
<g opacity="0.5">
<path d="M172.207 81.1026L162.257 78.0112L162.108 78.3988L171.62 82.6285L172.207 81.1026Z" fill="#8C8C99"/>
</g>
<path d="M194.317 87.1796L172.207 81.1027L171.62 82.629L192.134 92.8043C192.134 92.8043 193.799 92.7142 194.701 90.5793C195.59 88.4742 194.317 87.1796 194.317 87.1796Z" fill="#FFBE92"/>
</g>
<defs>
<filter id="filter0_d_563_457" x="0.76211" y="0.444361" width="404.386" height="389.491" filterUnits="userSpaceOnUse" color-interpolation-filters="sRGB">
<feFlood flood-opacity="0" result="BackgroundImageFix"/>
<feColorMatrix in="SourceAlpha" type="matrix" values="0 0 0 0 0 0 0 0 0 0 0 0 0 0 0 0 0 0 127 0" result="hardAlpha"/>
<feOffset dx="2" dy="6"/>
<feGaussianBlur stdDeviation="4.45"/>
<feComposite in2="hardAlpha" operator="out"/>
<feColorMatrix type="matrix" values="0 0 0 0 0.168627 0 0 0 0 0.258824 0 0 0 0 0.282353 0 0 0 0.64 0"/>
<feBlend mode="normal" in2="BackgroundImageFix" result="effect1_dropShadow_563_457"/>
<feBlend mode="normal" in="SourceGraphic" in2="effect1_dropShadow_563_457" result="shape"/>
</filter>
</defs>
</svg>
