<svg width="559" height="128" viewBox="0 0 559 128" fill="none" xmlns="http://www.w3.org/2000/svg">
<path d="M201.836 10.2136C201.836 15.6766 92.7863 22.1385 87.7304 22.1385H39.0318C26.8772 22.1385 21.5702 28.2428 21.5702 37.8617C21.5702 48.0355 27.562 52.6599 39.203 52.6599H86.8744C91.9303 52.6599 96.0275 57.0871 96.0275 62.5501C96.0275 68.0131 91.9303 72.4403 86.8744 72.4403H38.6895C27.0484 72.4403 21.0567 77.4347 21.0567 87.6085C21.0567 97.7823 26.706 103.332 38.5183 103.332H87.9016C92.9574 103.332 97.0546 107.759 97.0546 113.222V115.257C97.0546 120.72 92.9574 125.147 87.9016 125.147H38.5183C11.1275 125.147 0 110.533 0 91.1107C0 81.8371 2.53364 74.5367 7.23572 69.2339C10.5797 65.4604 10.6025 59.4918 7.28139 55.7059C2.67061 50.4525 0.342388 43.2507 0.342388 34.3348C0.342388 14.3571 11.8123 0.298828 39.0318 0.298828H87.7304C92.7863 0.298828 201.836 4.72592 201.836 10.1889V10.2136Z" fill="#231F20"/>
<path d="M122.368 30.401C126.123 30.401 129.159 33.6813 129.159 37.7385V92.6646C129.159 101.84 133.336 109.041 147.191 109.041H174.639C178.394 109.041 181.43 112.322 181.43 116.379V118.364C181.43 122.421 178.394 125.702 174.639 125.702H108.89C85.5048 125.702 113.74 111.865 113.74 92.8126V37.7508C113.74 33.6936 116.776 30.4133 120.531 30.4133H122.368V30.401Z" fill="#231F20"/>
<path d="M257.633 37.9481V39.5019C257.633 43.6701 254.506 47.0613 250.637 47.0613H213.465C204.187 47.0613 200.135 51.7228 200.135 59.0602C200.135 66.8293 204.712 70.3563 213.591 70.3563H249.975C253.833 70.3563 256.971 73.7352 256.971 77.9157C256.971 82.0839 253.844 85.4752 249.975 85.4752H213.191C204.301 85.4752 199.736 89.2856 199.736 97.0547C199.736 104.824 204.05 109.054 213.066 109.054H250.762C254.62 109.054 288.767 112.433 288.767 116.613C288.767 120.781 254.631 125.714 250.762 125.714H213.066C192.158 125.714 183.667 114.566 183.667 99.7431C183.667 92.6769 185.595 87.1029 189.179 83.0581C191.77 80.1231 191.781 75.6466 189.213 72.6993C185.709 68.6914 183.94 63.2038 183.94 56.4089C183.94 41.1667 192.694 30.4257 213.465 30.4257H250.637C254.494 30.4257 257.633 33.8046 257.633 37.9851V37.9481Z" fill="#231F20"/>
<path d="M282.353 30.401L309.139 107.068C309.927 109.325 311.365 110.312 313.453 110.312C315.542 110.312 316.854 109.325 317.767 107.068L345.854 30.401H362.973L331.873 115.109C328.609 124 322.595 127.391 313.453 127.391C304.825 127.391 298.16 124.432 294.896 115.109L265.371 30.401H282.353Z" fill="#231F20"/>
<path d="M412.334 30.401C437.944 30.401 452.187 46.2105 452.187 78.261C452.187 110.312 438.081 125.702 412.334 125.702H400.316C374.58 125.702 360.463 110.176 360.463 78.261C360.463 46.3461 374.706 30.401 400.316 30.401H412.334ZM400.316 47.0614C383.334 47.0614 375.881 56.3843 375.881 78.261C375.881 100.138 383.197 109.041 400.316 109.041H412.334C429.316 109.041 436.632 100.002 436.632 78.1254C436.632 56.2486 429.316 47.0614 412.334 47.0614H400.316Z" fill="#231F20"/>
<path d="M522.137 1.77869C547.964 1.77869 559 19.031 559 38.8606C559 51.3898 554.515 64.6466 543.444 72.0334C538.993 75.0054 537.407 81.1466 540.032 86.03L552.951 110.04C556.683 116.983 552.05 125.689 544.62 125.689C541.207 125.689 538.057 123.741 536.323 120.572L515.757 82.8978C514.022 79.7285 510.872 77.78 507.46 77.78H483.059C481.187 77.78 480.172 78.6926 480.172 80.9V115.281C480.172 121.028 475.858 125.689 470.539 125.689H469.763C464.445 125.689 460.131 121.028 460.131 115.281V76.6825C460.131 62.7352 465.563 57.0378 478.14 57.0378H522.821C534.2 57.0378 538.788 48.5905 538.788 39.7855C538.788 30.9806 533.858 23.4458 522.821 23.4458H469.603C464.285 23.4458 387.465 18.7843 387.465 13.0377V12.1991C387.465 6.45248 464.285 1.79103 469.603 1.79103H522.148L522.137 1.77869Z" fill="#231F20"/>
</svg>
